<?xml version="1.0" encoding="UTF-8"?>
<svg id="Layer_2" data-name="Layer 2" xmlns="http://www.w3.org/2000/svg" viewBox="0 0 351.26 62.73">
  <defs>
    <style>
      .cls-1 {
        fill: #c7c7c7;
      }
    </style>
  </defs>
  <g id="Layer_1-2" data-name="Layer 1">
    <path class="cls-1" d="M125,56.48V18.51h-17.69v.97l8.23,4.74v25.46c-1.17,1.56-2.7,2.84-4.47,3.72-1.76.88-3.71,1.34-5.69,1.34-4.9,0-8.23-2.85-8.23-9.91v-26.32h-17.69v.97l8.23,4.74v23.12c0,10.43,5.87,15.17,13.66,15.17,5.87,0,11.01-4.22,14.63-10.51v10.02h15.41v-.98l-6.4-4.57ZM281.1,60.59l7.81-4.78V7.03l-8.5-4.78v-1h17.95v54.55l7.79,4.78v1h-50.11v-1l7.8-4.78v-31.92l-8.5-4.34v-.93h17.95v37.2l7.8,4.77ZM268.19,11.94c1.57-.05,3.06-.71,4.16-1.82,1.09-1.11,1.7-2.6,1.7-4.15s-.61-3.04-1.7-4.15c-1.09-1.11-2.58-1.77-4.16-1.82-1.57.05-3.06.71-4.16,1.82-1.09,1.11-1.71,2.6-1.71,4.15s.61,3.04,1.71,4.15c1.09,1.11,2.58,1.77,4.16,1.82ZM344.7,46.63c-5.02,5.85-8.64,7.34-13.95,7.34-11.39,0-16.03-8.19-16.03-16.55v-1.12h30.66c-.44-9.91-6.04-18.36-17.34-18.36-14.1,0-21.72,11.38-21.72,23.12,0,13.27,9.72,21.45,20.76,21.45s16.98-9.67,18.51-15.12c-.28-.27-.85-.72-.85-.72l-.03-.05ZM315.44,33.48c1.31-6.98,5.78-13.1,12.35-13.1,5.34,0,7.7,5.43,7.7,10.95.02.72-.01,1.45-.09,2.17h-19.96ZM244.65,49.34L203.9,1.25h-13.82l-.37.6,8.48,9.57v43.66l-8.94,5.5v1h22.16v-1l-10.16-5.5V14.96l40.23,46.62h6.22V7.75l8.93-5.5v-1h-22.16v1l10.16,5.5.03,41.6ZM171.28,46.69c-5.02,5.85-8.64,7.34-13.99,7.34-11.38,0-16.02-8.19-16.02-16.55v-1.12h30.65c-.43-9.91-6.04-18.36-17.34-18.36-14.1,0-21.72,11.38-21.72,23.12,0,13.27,9.72,21.45,20.76,21.45s16.98-9.67,18.51-15.12c-.29-.27-.85-.72-.85-.72v-.05ZM141.62,33.57c1.31-6.98,5.78-13.1,12.34-13.1,5.35,0,7.71,5.43,7.71,10.95.02.72-.01,1.45-.09,2.17h-19.96ZM43.42,45.9c0-7.33-5.95-14.74-16.11-14.74h-8.16v27.58h10.96c9.2,0,13.31-5.86,13.31-12.84ZM19.19,28.4h9.65c7.53,0,11.12-6.55,11.12-11.81,0-6.63-4.2-12.58-11.91-12.58h-8.89l.04,24.39ZM55.11,45.12c0,7.95-7.27,16.46-20.56,16.46H.04v-1l8.47-4.78V7.03L0,2.25v-1h33.87c11.91,0,17.78,6.81,17.78,13.36,0,6.12-4.99,12.41-14.54,14.45,10.95,1.55,17.95,8.27,17.95,16.03l.04.03ZM56.91,61.55h25.03v-1l-7.8-4.78V1.25h-17.9v1l8.5,4.78v48.77l-7.79,4.78-.04.97ZM348.23,62.73c-.4,0-.8-.08-1.17-.24-.36-.15-.69-.36-.96-.64-.28-.27-.5-.59-.65-.95-.23-.55-.3-1.15-.18-1.73.12-.58.41-1.12.83-1.54.43-.42.97-.7,1.56-.82.59-.11,1.2-.05,1.76.18.36.15.69.37.96.64.28.27.5.59.65.95.16.37.24.76.24,1.16s-.08.79-.24,1.16c-.31.71-.88,1.28-1.61,1.58-.37.16-.78.24-1.18.24ZM345.72,59.74c0,.33.06.66.2.96.13.29.31.55.54.78.23.22.5.4.8.53.31.13.64.2.97.2.34,0,.67-.07.98-.2.29-.12.56-.3.79-.53.23-.22.41-.49.54-.78.13-.3.2-.63.2-.96,0-.33-.06-.65-.2-.95-.13-.29-.31-.56-.54-.79-.23-.22-.5-.4-.79-.53-.31-.13-.64-.2-.98-.2-.33,0-.66.06-.97.2-.6.25-1.09.72-1.34,1.31-.13.3-.2.63-.2.95ZM349.32,59.06c0,.09-.02.17-.04.25-.06.17-.16.32-.3.43-.07.05-.15.09-.24.12l.98,1.39h-.67l-.96-1.35h-.32v1.35h-.58v-3.01h1.19c.12,0,.23.01.35.05.09.03.18.07.26.13.1.07.18.17.24.28.06.11.09.23.09.35ZM347.78,59.38h.57c.07.01.14.01.2,0,.04-.01.08-.04.11-.07.03-.03.04-.06.05-.1,0-.04,0-.08,0-.12,0-.08-.03-.15-.07-.21-.03-.03-.07-.06-.11-.08-.07-.01-.14-.01-.2,0h-.57l.02.57Z"/>
  </g>
</svg>