<?xml version="1.0" encoding="UTF-8"?>
<svg id="Layer_2" data-name="Layer 2" xmlns="http://www.w3.org/2000/svg" viewBox="0 0 229 17">
  <defs>
    <style>
      .cls-1 {
        fill: #2c2c2c;
      }
    </style>
  </defs>
  <g id="Layer_1-2" data-name="Layer 1">
    <path class="cls-1" d="M152.93,15.45h-6.85v-6.62h6.21c1.02,0,1.5.21,1.5.23l.17.07v-2.2l-.17.07c-.48.16-.97.23-1.48.23h-6.26V1.76h7.24c.6-.03,1.19.11,1.71.39l.19.12V.22l-11.52-.05.1.16c.28.57.43,1.18.45,1.81v12.74c-.01.66-.16,1.3-.45,1.9l-.1.16h9.33l2.19.05v-2.11l-.17.09c-.65.31-1.37.47-2.1.47ZM35.49,14.68V2.27c0-.83.02-1.97.05-1.99V.05h-2.43l.02.09s.5,1.3.5,1.95v12.67c0,.93-.5,1.99-.5,2.01l-.07.16h3l-.07-.16s-.5-1.09-.5-2.08ZM75.05,14.68V2.27c0-.83.02-1.97.05-1.99V.05h-2.43l.02.09s.5,1.3.5,1.95v12.67c0,.93-.5,1.99-.5,2.01l-.07.16h3l-.07-.16s-.5-1.09-.5-2.08ZM52.48,14.75c-.55.36-1.21.55-1.88.53h-5.9V.16h-2.55l.12.19s.6,1,.6,1.92v12.46c0,1.04-.6,2.01-.6,2.04l-.12.19h10.52v-2.34l-.19.14ZM67.86,14.75c-.55.36-1.21.55-1.88.53h-6.14V.16h-2.55l.12.19s.6,1,.6,1.92v12.46c0,1.04-.6,2.01-.6,2.04l-.12.19h10.76v-2.34l-.19.14ZM112.63.32l.1-.16h-2.78l.1.16c.23.44.36.92.38,1.41v11.51L101.51.21l-.02-.05h-2.78l.71,1v14.06c0,.53-.12,1.06-.33,1.55l-.1.16h2.69l-.1-.16c-.22-.45-.34-.94-.36-1.44V3.2l9.4,13.69.02.05h2.05l-.45-.83c0-.69.02-13.62.02-14.38.01-.48.14-.96.36-1.39ZM117.68,2.36c.47-.33,1.04-.51,1.62-.51h3.93v12.76c0,.74-.13,1.47-.4,2.15l-.07.16h2.9l-.1-.16c-.32-.67-.49-1.41-.5-2.15V1.84h3.71c1.31,0,1.83.53,1.83.53V.13h-12.95l.02,2.22h0ZM192.1,2.36c.47-.33,1.04-.51,1.62-.51h3.93v12.76c0,.74-.13,1.47-.4,2.15l-.07.16h2.9l-.1-.16c-.32-.67-.49-1.41-.5-2.15V1.84h3.71c1.31,0,1.83.53,1.83.53V.13h-12.95l.02,2.23ZM8.64,7.78c1.16-.68,1.88-1.88,1.9-3.2C10.54,1.85,8.09.23,5.69.23H.29l.05.16s.48,1.46.48,2.11v12.02c0,1.09-.71,2.29-.71,2.32l-.1.16h6.81c3.24,0,5.33-1.92,5.33-4.89,0-2.11-1.76-3.87-3.5-4.33ZM4.52,7.34l-1.86-.02V1.71h3.02c1.43,0,2.98,1.16,2.98,2.85,0,1.92-1.57,2.78-3.62,2.78h-.52ZM5.26,8.87l.71-.02c2.88,0,4.24,1.67,4.24,3.27,0,2.29-1.21,3.4-3.74,3.4h-3.81v-6.62l2.59-.02ZM93.83,15.26c-.19-.6-5.33-14.38-5.55-14.96l-.02-.07h-2.24l.33.76c-.31.83-5.07,13.62-5.26,14.08-.26.61-.59,1.19-.98,1.74l-.12.19h2.62l-.02-.14c-.05-.39.01-.79.17-1.16l1.33-3.71-.12-.05h6.83l-.12.05,1.38,3.84c.14.32.19.67.14,1.02l-.02.14h2.81l-.21-.21c-.4-.45-.73-.97-.95-1.53ZM87.4,2.8l2.86,7.9h-5.71l2.86-7.9ZM172.63,15.26c-.19-.6-5.33-14.59-5.55-15.19l-.02-.07h-2.21l.31,1c-.29.79-5.07,13.62-5.26,14.08-.26.61-.59,1.19-.98,1.74l-.12.19h2.62l-.02-.14c-.05-.39.01-.79.17-1.16l1.33-3.71-.12-.05h6.83l-.12.05,1.38,3.84c.14.32.19.67.14,1.02l-.02.14h2.81l-.21-.21s-.69-.69-.95-1.53ZM169.04,10.7h-5.71l2.86-7.9,2.86,7.9ZM222.19,14.85V1.97c0-1.09.45-1.62.45-1.62l.14-.19h-3.02l.12.19c.31.53.47,1.14.45,1.76v5.4h-8.4V2.11c-.01-.62.14-1.22.45-1.76l.12-.19h-3l.12.19c.3.56.46,1.18.45,1.81v12.46c0,.74-.15,1.47-.45,2.15l-.1.16h2.93l-.1-.16c-.29-.67-.45-1.4-.45-2.13v-5.54h8.4v5.77c0,1.39-.43,1.85-.45,1.85l-.21.21h3.07l-.12-.19c-.28-.6-.42-1.24-.4-1.9ZM27.97,15.31c-.83-.83-3.95-5.07-4.52-5.84,1.09-.49,2.69-2.04,2.69-4.4C26.13,1.48,23.3.21,20.87.21h-4.67l.05.16s.57,1.55.57,2.11v12.21c-.03.74-.23,1.47-.57,2.13l-.07.19h2.5v-7.06l2.93-.02c.17.25,4.21,6,5.21,6.55.58.34,1.25.53,1.93.53.34,0,.68-.05,1-.16l.26-.09-.26-.12s-.81-.35-1.79-1.32ZM18.68,8.43V1.71h2.12c1.69,0,3.47,1.07,3.47,3.38,0,1.97-1.19,3.29-3.52,3.34h-2.07ZM189.2,15.31c-.83-.83-3.95-5.07-4.52-5.84,1.1-.49,2.69-2.04,2.69-4.4,0-3.59-2.83-4.86-5.26-4.86h-4.69l.05.16s.57,1.55.57,2.11v12.21c-.03.74-.23,1.47-.57,2.13l-.1.16h2.5v-7.04l2.93-.02c.17.25,4.21,6,5.21,6.55.58.34,1.25.53,1.93.53.34,0,.68-.05,1-.16l.26-.09-.26-.12s-.76-.35-1.74-1.32ZM179.92,8.43V1.71h2.12c1.69,0,3.47,1.07,3.47,3.38,0,1.97-1.19,3.29-3.52,3.34h-2.07Z"/>
    <path class="cls-1" d="M226.86.43c.99,0,1.79.78,1.79,1.75s-.8,1.75-1.79,1.75-1.79-.78-1.79-1.75.8-1.74,1.79-1.75ZM226.86.08c-1.18,0-2.14.93-2.14,2.08s.96,2.08,2.14,2.08,2.14-.93,2.14-2.08-.96-2.08-2.14-2.08Z"/>
    <path class="cls-1" d="M226.1,1.09h.85c.11,0,.21,0,.32.03.09.02.18.06.26.11.08.05.14.12.18.2.05.1.07.2.07.31,0,.14-.04.27-.12.38-.09.11-.21.18-.35.2l.56.9h-.58l-.46-.85h-.24v.85h-.48V1.09ZM226.58,1.97h.42s.09-.01.13-.03c.04-.02.07-.04.1-.07.03-.04.04-.09.04-.13,0-.05-.01-.09-.03-.13-.02-.03-.05-.06-.09-.07-.04-.02-.08-.03-.12-.03h-.45v.47Z"/>
  </g>
</svg>