<?xml version="1.0" encoding="UTF-8"?>
<svg id="Layer_2" data-name="Layer 2" xmlns="http://www.w3.org/2000/svg" viewBox="0 0 22.49 41.64">
  <defs>
    <style>
      .cls-1 {
        fill: #282b2d;
      }

      .cls-2 {
        fill: #e7e7f9;
      }

      .cls-3 {
        fill: #dbdbdb;
      }

      .cls-4 {
        fill: #fff;
      }

      .cls-5 {
        fill: #c4c6c9;
      }

      .cls-6 {
        fill: #b5d4e5;
      }

      .cls-7 {
        fill: #a8a7ab;
      }

      .cls-8 {
        fill: #706e6a;
      }

      .cls-9 {
        fill: #d1cbd8;
      }

      .cls-10 {
        fill: #505d63;
      }

      .cls-11 {
        fill: #d5d6de;
      }

      .cls-12 {
        fill: #fdfefa;
      }

      .cls-13 {
        stroke-width: .08px;
      }

      .cls-13, .cls-14 {
        fill: #5b5166;
        stroke: #2c2c2c;
        stroke-linecap: round;
        stroke-linejoin: round;
      }

      .cls-14 {
        stroke-width: .08px;
      }

      .cls-15 {
        fill: #c7c7c6;
      }

      .cls-16 {
        fill: #c7c6cd;
      }
    </style>
  </defs>
  <g id="Layer_1-2" data-name="Layer 1">
    <g>
      <path class="cls-8" d="M0,20.86H0v1.1c0-.36,0-.73,0-1.1Z"/>
      <polygon class="cls-14" points="11.14 41.6 11.14 41.6 11.14 41.6 11.14 41.6"/>
      <path class="cls-16" d="M11.14,41.6s.07-.05.21-.13c-.13.08-.2.13-.2.13h-.01Z"/>
      <path class="cls-11" d="M12.31.68h0c-.5-.44-.81-.68-.81-.68h.01c.06.05.34.28.8.68Z"/>
      <path class="cls-1" d="M21.8,16.05c.07.28.13.57.19.85.02.09.04.18.05.27h0c-.14-.71-.3-1.4-.49-2.08h0c.07.26.14.52.2.78.01.06.03.12.04.18h0Z"/>
      <path class="cls-6" d="M13.8,2.09c-.39-.4-.75-.74-1.06-1.03h0c.31.29.67.63,1.06,1.03h0Z"/>
      <path class="cls-1" d="M19.54,9.99h0s-.03-.06-.05-.09h0s.03.06.05.09Z"/>
      <path class="cls-8" d="M17.78,6.99h0c-.06-.09-.11-.17-.17-.25h0c.06.09.11.17.17.25Z"/>
      <path class="cls-1" d="M16.33,4.99c-.08-.1-.15-.19-.23-.28h0c.07.09.15.19.22.28h.01Z"/>
      <path class="cls-6" d="M20.8,12.81h0c-.38-.99-.8-1.93-1.26-2.82h0c.45.89.88,1.83,1.25,2.82h.01Z"/>
      <path class="cls-15" d="M6.26,4.13l.12.14-.05-.2c.32-.34.63-.66.94-.95h-.04c-.61.57-1.24,1.24-1.86,2l.05-.02c.28-.34.57-.66.85-.97h0Z"/>
      <path class="cls-6" d="M4.97,5.64v-.02c-.33.41-.64.85-.95,1.31h.01c.31-.46.62-.89.94-1.29Z"/>
      <path class="cls-11" d="M6.67,38.33s.03.03.04.04h.02l-.06-.03h0Z"/>
      <polygon class="cls-9" points="2.32 25.93 1.93 26.13 2.06 26.39 2.34 26.27 2.32 25.93"/>
      <path class="cls-2" d="M8.66,1.85c-.09.07-.18.15-.28.22l.02.03c.11-.09.22-.18.33-.27h-.07v.02Z"/>
      <path class="cls-4" d="M11.35,41.47c.13-.09.33-.22.57-.4h0c-.24.18-.44.31-.57.4Z"/>
      <path class="cls-7" d="M11.49,0h0s-.26.11-.69.37h.02c.4-.24.64-.36.67-.37Z"/>
      <path class="cls-11" d="M.03,22.45c0-.16,0-.33,0-.49,0,.16,0,.33,0,.49Z"/>
      <path class="cls-11" d="M2.75,33.08v-.03s0-.03-.02-.04v.03c.59,1.12,1.24,2.11,1.91,2.99l2.02.79.35-1.69-4.27-2.05h.01Z"/>
      <path class="cls-7" d="M19.33,32.95h0c-.03.06-.07.11-.1.17v.02h-.02c-.35.58-.71,1.12-1.08,1.63-.06.09-.13.17-.19.26-.02.03-.05.06-.07.1-.28.38-.57.75-.85,1.1-.04.06-.06.08-.1.14.88-1.05,1.75-2.26,2.54-3.61v-.02c-.04.06-.08.13-.11.19l-.02.02Z"/>
      <polygon class="cls-14" points="11.14 41.6 11.14 41.6 11.14 41.6 11.14 41.6"/>
      <path class="cls-4" d="M9.77,40.78s-.01,0-.02,0c-.09-.06-.18-.12-.28-.19-.02,0-.04-.03-.06-.04-.04-.03-.08-.06-.12-.09h-.08c1.15.8,1.93,1.16,1.93,1.16h0s-.54-.27-1.37-.82h0Z"/>
      <polygon class="cls-10" points="19.34 32.96 19.33 32.95 19.33 32.96 19.34 32.96"/>
      <path class="cls-4" d="M1.93,26.13l.39-.2-.09-1.51L0,20.86v1.1c0,.16,0,.33,0,.49v.06l1.9,3.62h.02Z"/>
      <path class="cls-8" d="M18.12,34.79c-.06.09-.13.18-.19.26.06-.09.13-.17.19-.26Z"/>
      <path class="cls-5" d="M8.33,36.26c-.38-.35-.78-.7-1.17-1.06l-.14-.07-.35,1.69.83.33.83-.89Z"/>
      <polygon class="cls-14" points="11.14 41.6 11.14 41.6 11.14 41.6 11.14 41.6"/>
      <path class="cls-12" d="M9.77,40.78c.83.55,1.36.81,1.37.82h0s-.54-.27-1.37-.82Z"/>
      <path class="cls-15" d="M11.53,40.86l-.39.74s.08-.05.2-.13c.13-.09.33-.22.57-.4l-.39-.2h.01Z"/>
      <path class="cls-16" d="M12.45,39.09l.88.34c.29-1.01.43-1.52.81-2.89l-.22-.27-1.47,2.81h0Z"/>
      <path class="cls-15" d="M9.29,40.45s.08.06.12.09c-.04-.03-.08-.06-.12-.09h0Z"/>
      <path class="cls-11" d="M17.01,36.24c.29-.35.57-.71.85-1.1-.27.36-.54.7-.81,1.03-.02.03-.03.04-.04.07Z"/>
      <path class="cls-2" d="M9.75,40.77c-.09-.06-.18-.12-.28-.19.09.07.19.13.28.19Z"/>
      <path class="cls-8" d="M17.77,7h.01c-.06-.09-.11-.17-.17-.25v.02c.06.07.11.15.16.23Z"/>
      <path class="cls-7" d="M12.31.68c-.45-.4-.74-.62-.8-.67.05.04.33.27.77.66h.03Z"/>
      <path class="cls-8" d="M20.38,11.81c.14.32.27.66.4.99h.02c-.38-.98-.8-1.92-1.25-2.8v.02c.29.57.57,1.17.84,1.79h-.01Z"/>
      <path class="cls-8" d="M21.76,15.87c-.06-.26-.13-.52-.2-.78h0c.07.26.14.52.21.78h0Z"/>
      <path class="cls-4" d="M19.52,9.97h.02s-.03-.05-.05-.08h-.01s.02.05.04.08Z"/>
      <path class="cls-15" d="M13.76,2.11h.03c-.39-.41-.75-.75-1.06-1.04h-.03c.31.3.66.64,1.05,1.04h.01Z"/>
      <path class="cls-7" d="M11.49,0s-.26.13-.67.37l.44.09.22-.46h.01Z"/>
      <polygon class="cls-12" points="9.63 3.58 9.6 3.59 9.65 3.6 9.63 3.58"/>
      <path class="cls-9" d="M9.78,3.53l1.02-2.09-2.06.4c-.11.08-.22.18-.33.27l1.22,1.48.14-.05h0Z"/>
      <polygon class="cls-15" points="8.53 6.1 8.07 6.19 8.34 6.49 8.34 6.48 8.53 6.1"/>
      <path class="cls-4" d="M16.31,4.98h.02c-.08-.09-.15-.18-.22-.28h-.01c.07.09.15.18.22.28h-.01Z"/>
      <path class="cls-8" d="M21.8,16.05c.07.28.13.57.19.85-.06-.29-.12-.57-.19-.85Z"/>
      <path class="cls-16" d="M9.6,3.59l-2.33-.48c-.31.29-.63.61-.94.95l.05.2.32.37s2.9-1.04,2.9-1.04Z"/>
      <path class="cls-8" d="M19.52,9.97s-.02-.05-.04-.07l-.04.02.07.05h.01Z"/>
      <path class="cls-6" d="M20.38,11.81c-.26-.62-.54-1.21-.84-1.79h0c.29.58.57,1.17.84,1.79Z"/>
      <path class="cls-4" d="M16.83,7.18c-.02-.21-.04-.41-.06-.61l-1.78.42.64.42,1.2-.24h0Z"/>
      <path class="cls-4" d="M17.77,7c-.05-.07-.1-.15-.15-.23l.06.24.09-.02h0Z"/>
      <path class="cls-4" d="M16.31,4.98c-.07-.09-.15-.18-.22-.28l-.59.11.81.17Z"/>
      <polygon class="cls-14" points="11.14 41.6 11.14 41.6 11.14 41.6 11.14 41.6"/>
      <path class="cls-4" d="M2.77,33.09s0-.02-.02-.03v.03l4.27,2.05h0l-4.25-2.05Z"/>
      <path class="cls-11" d="M19.23,33.15v-.02s-.02.02-.02.04h.02v-.02Z"/>
      <polygon class="cls-14" points="11.14 41.6 11.14 41.6 11.14 41.6 11.14 41.6"/>
      <polygon class="cls-14" points="11.14 41.6 11.14 41.6 11.14 41.6 11.14 41.6"/>
      <polygon class="cls-13" points="11.14 41.6 11.14 41.6 11.14 41.6 11.14 41.6"/>
      <polygon class="cls-1" points="7.02 35.13 7.02 35.14 7.16 35.21 7.15 35.2 7.02 35.13"/>
      <polygon class="cls-14" points="11.14 41.6 11.14 41.6 11.14 41.6 11.14 41.6"/>
      <polygon class="cls-14" points="11.14 41.6 11.14 41.6 11.14 41.6 11.14 41.6"/>
      <polygon class="cls-4" points="11.27 .47 11.49 .02 11.49 0 11.49 0 11.27 .47 11.27 .47"/>
      <path class="cls-10" d="M19.54,10.02v-.02h-.02s.02.02.02.03h0Z"/>
      <rect class="cls-12" x="10.29" y="1.32" height="2.33"/>
      <polygon class="cls-4" points="11.5 0 11.5 0 11.49 0 11.49 .02 11.5 0"/>
      <rect class="cls-12" x="15.3" y="6.82" height=".77"/>
      <path class="cls-1" d="M19.44,9.93l.07.05s.02.03.03.05h0s-.02-.04-.02-.05l-.07-.05h-.01Z"/>
      <path class="cls-12" d="M.03,20.05v-.09H.03c0,.29-.02.59-.03.9,0-.15,0-.3,0-.45,0-.12,0-.23,0-.35h0Z"/>
      <path class="cls-1" d="M0,20.85c0-.15,0-.3,0-.45,0,.15,0,.3,0,.45H0Z"/>
      <polygon class="cls-14" points="11.14 41.6 11.14 41.6 11.14 41.6 11.14 41.6"/>
      <path class="cls-4" d="M21.76,15.87c.01.06.03.12.04.18-.01-.06-.03-.12-.04-.18Z"/>
      <path class="cls-9" d="M11.51,0h-.01s0,0,.01,0Z"/>
      <path class="cls-11" d="M22.04,17.17c-.02-.09-.04-.18-.05-.27.02.09.03.18.05.27h0Z"/>
      <path class="cls-5" d="M2.66,31.82l.07,1.2s0,.03.02.04l.07-1.32-.17.08h.01Z"/>
      <path class="cls-10" d="M.02,20.4c0-.12,0-.23,0-.35,0,.12,0,.23,0,.35Z"/>
      <path class="cls-15" d="M19.23,33.13h0s.07-.11.1-.17h0c-.03.06-.07.11-.1.17Z"/>
      <path class="cls-8" d="M2.82,31.03l.05-.08c-.09-.08-.18-.17-.27-.25l.02.3.21.03h0Z"/>
      <path class="cls-8" d="M18.54,34.2s-.04.05-.05.08c-.07.1-.13.19-.2.29-.05.07-.1.15-.16.23.37-.51.73-1.05,1.08-1.62h0c-.22.36-.44.7-.67,1.03h0Z"/>
      <polygon class="cls-5" points="7.14 7.06 6.96 6.39 5.7 6.62 6.31 7.46 7.14 7.06"/>
      <path class="cls-4" d="M9.77,40.78s-.01,0-.02,0c0,0,.01,0,.02,0Z"/>
      <path class="cls-9" d="M6.38,4.26l-.12-.14c-.28.3-.57.63-.85.97l1.09-.39s-.12-.44-.12-.44Z"/>
      <polygon class="cls-8" points="2.34 26.27 2.06 26.39 2.38 26.99 2.34 26.27"/>
      <path class="cls-16" d="M17.93,35.05s-.05.06-.07.1c.02-.03.05-.06.07-.1Z"/>
      <path class="cls-8" d="M2.62,31.11v.24l.1-.15s-.07-.06-.1-.09Z"/>
      <path class="cls-12" d="M2.48,30.99s.09.08.14.12v-.11l-.14-.02h0Z"/>
      <path class="cls-12" d="M5.7,6.62l-.73-.98c-.32.4-.63.83-.94,1.29l1.66-.31h.01Z"/>
      <polygon class="cls-9" points="2.38 26.99 2.39 27.17 2.45 27.14 2.38 26.99"/>
      <path class="cls-9" d="M19.33,32.95h0c.04-.06.08-.13.11-.19h0c-.04.07-.08.13-.12.19h.01Z"/>
      <path class="cls-7" d="M9.48,40.58s-.04-.03-.06-.04c.02.02.04.03.06.04Z"/>
      <polygon class="cls-12" points="2.45 27.14 3.03 28.23 3.11 26.77 2.45 27.14"/>
      <polygon class="cls-2" points="2.87 30.95 2.87 30.95 2.82 31.03 2.87 31.03 2.87 30.95"/>
      <path class="cls-15" d="M2.72,31.2l-.09.15.03.47.17-.08.02-.42s-.09-.08-.13-.12Z"/>
      <path class="cls-8" d="M9.1,36.95c-.25-.23-.51-.46-.77-.69l-.83.89.84.33c.26-.14.53-.29.8-.43,0,0-.04-.1-.04-.1Z"/>
      <polygon class="cls-5" points="11.14 41.6 11.14 41.6 11.14 41.6 11.53 40.86 11.53 40.86 11.14 41.6"/>
      <path class="cls-4" d="M18.54,34.2s-.04.05-.05.08c.02-.03.04-.05.05-.08Z"/>
      <polygon class="cls-8" points="0 20.85 0 20.86 2.23 24.42 2.23 24.42 0 20.85"/>
      <path class="cls-1" d="M10.71,40.62c-.48-.06-.95-.11-1.41-.16.04.03.08.06.12.09.02.02.04.03.06.04.09.07.19.13.28.19,0,0,.01,0,.02,0,.83.55,1.36.81,1.37.82l-.43-.98h-.01Z"/>
      <path class="cls-8" d="M.03,19.96v.09c0,.12,0,.23,0,.35,0,.15,0,.3,0,.45l.27-.43s-.25-.46-.25-.46Z"/>
      <path class="cls-5" d="M17.07,36.14s-.01.02-.02.03c.27-.33.54-.67.81-1.03.02-.03.05-.06.07-.1.06-.09.13-.17.19-.26.05-.07.1-.15.16-.23-.4.56-.8,1.09-1.21,1.58h0Z"/>
      <path class="cls-7" d="M13.92,36.28l-1.47,2.82h0l1.47-2.81.22.27c.06-.23.07-.25.14-.48l-.36.21h0Z"/>
      <path class="cls-16" d="M19.33,32.95c.04-.06.08-.13.12-.19v-.02c-.04.07-.08.14-.12.2h0Z"/>
      <path class="cls-8" d="M18.54,34.2c.23-.33.45-.68.67-1.03h-.02c-.21.36-.43.7-.65,1.03Z"/>
      <path class="cls-16" d="M19.23,33.11v.02c.03-.06.07-.11.1-.17h0s-.06.1-.09.15h-.01Z"/>
      <path class="cls-2" d="M18.48,34.28c-.07.1-.13.19-.2.29.07-.09.13-.19.2-.29Z"/>
      <polygon class="cls-1" points="6.7 4.63 6.38 4.26 6.5 4.7 6.7 4.63"/>
      <path class="cls-9" d="M20.78,12.8c-.13-.34-.26-.67-.4-.99.14.32.27.66.4.99h0Z"/>
      <path class="cls-8" d="M20.12,17.33l1.91-.16c-.02-.09-.03-.18-.05-.27-.06-.29-.12-.57-.19-.85-.01-.06-.03-.12-.04-.18-.07-.26-.13-.52-.21-.77l-1.51,1.86.09.38h0Z"/>
      <polygon class="cls-7" points="8.34 6.49 8.07 6.19 6.96 6.39 7.14 7.06 8.34 6.49"/>
      <polygon class="cls-8" points="19.48 26.28 19.46 25.59 19.12 26.08 19.48 26.28"/>
      <path class="cls-8" d="M12.28.68c-.44-.4-.72-.62-.77-.66h-.01s.22.55.22.55l.57.12h-.01Z"/>
      <polygon class="cls-7" points="18.79 15.78 19.78 17.27 20.03 16.96 19.59 15.1 18.83 15.52 18.79 15.78"/>
      <polygon class="cls-10" points="8.34 6.48 8.53 6.09 8.53 6.09 8.34 6.48"/>
      <path class="cls-5" d="M12.5,2.56l1.26-.45c-.39-.4-.75-.74-1.05-1.04l-.74.14.53,1.34h0Z"/>
      <path class="cls-7" d="M19.12,26.08l-.22.32.09,1.81c0,.07.01.14.02.21l.52-.52-.04-1.62-.36-.2h-.01Z"/>
      <path class="cls-11" d="M19,28.42h0v.03s.01-.03.01-.04h-.01Z"/>
      <path class="cls-6" d="M18.93,33.32c-.91,1.37-1.08,1.63-1.86,2.82.41-.49.81-1.02,1.21-1.58.07-.1.13-.19.2-.29.02-.03.04-.05.05-.08.22-.33.44-.67.65-1.02,0,0-.25.15-.25.15Z"/>
      <polygon class="cls-8" points="18.83 15.52 19.59 15.1 19.13 13.16 18.83 15.52"/>
      <path class="cls-8" d="M19.27,32.81l.06.13c.04-.07.08-.14.12-.2,0-.05-.01-.11-.02-.16q-.08.12-.16.24h0Z"/>
      <path class="cls-3" d="M19.3,11.89l1.48.9c-.13-.34-.26-.67-.4-.99-.26-.61-.55-1.21-.84-1.78l-.24,1.87Z"/>
      <path class="cls-9" d="M19.22,32.9v.21s.07-.1.11-.16l-.1-.06h-.01Z"/>
      <path class="cls-2" d="M19.32,32.95h0s-.06-.14-.06-.14c0,0-.03.04-.05.08l.1.06h0Z"/>
      <path class="cls-4" d="M7.02,35.13v-.05c-1.26-1.14-2.57-2.32-3.88-3.5l-.32.15-.07,1.32s0,.02.02.03l4.25,2.04h0Z"/>
      <polygon class="cls-16" points="4.61 31.25 6.2 31.45 5.63 30.38 4.45 30.95 4.61 31.25"/>
      <path class="cls-7" d="M3.41,31.45c1.49,1.37,2.5,2.3,2.5,2.3l-1.31-2.5-.62-.08-.58.28h0Z"/>
      <polygon class="cls-8" points="5.5 9.25 7.6 8.75 7.14 7.06 6.31 7.46 6.77 8.08 5.5 9.25"/>
      <polygon class="cls-1" points="4.48 28.23 3.56 26.52 3.11 26.77 3.03 28.23 3.71 29.53 4.48 28.23"/>
      <path class="cls-12" d="M19.2,33.17h0s.02-.03.02-.04h0s-.02.03-.03.04h.01Z"/>
      <polygon class="cls-6" points="3.71 29.53 4.45 30.95 5.63 30.38 4.48 28.23 3.71 29.53"/>
      <path class="cls-5" d="M2.87,31.03h.11s-.07-.05-.1-.08v.08h0Z"/>
      <path class="cls-9" d="M2.97,31.05c.15.14.3.27.44.41l.58-.28-1.02-.13Z"/>
      <path class="cls-11" d="M2.83,31.74l.32-.15c-.1-.09-.2-.18-.29-.26l-.02.42h0Z"/>
      <path class="cls-11" d="M9.1,36.95l.04.1s.03-.02.04-.02c-.03-.03-.06-.05-.09-.08h.01Z"/>
      <path class="cls-16" d="M10.71,40.62l.43.98h0l-.22-.96c-.07,0-.14-.02-.21-.02Z"/>
      <path class="cls-1" d="M7.02,35.13l.13.06s-.08-.07-.12-.11v.05h-.01Z"/>
      <path class="cls-8" d="M14.3,33.1l-.14,1.22c.18-.1.35-.19.53-.29l-.26-1.06s-.08.08-.13.13Z"/>
      <path class="cls-8" d="M13.96,35.99l-.03.29.36-.21c.05-.18.05-.19.11-.37-.14.1-.28.2-.43.3h0Z"/>
      <path class="cls-4" d="M12.44,35.26c.07-.04.13-.07.2-.11l-.15-.13-.05.24Z"/>
      <path class="cls-4" d="M12.01,37.35l-.3,1.46.74.29,1.47-2.82-.17-.15c-.59.41-1.17.82-1.74,1.22Z"/>
      <path class="cls-16" d="M9.99,36.59c-.27.15-.54.3-.81.44.2.18.41.37.61.54.12-.11.23-.23.35-.34l-.15-.64Z"/>
      <polygon class="cls-9" points="11.31 40.75 11.14 41.6 11.14 41.6 11.53 40.86 11.31 40.75"/>
      <polygon class="cls-15" points=".28 20.42 0 20.85 .41 20.67 .28 20.42"/>
      <polygon class="cls-9" points="2.2 24 .62 21.06 0 20.85 2.23 24.42 2.2 24"/>
      <path class="cls-9" d="M12.43,34.96c-.23.23-.46.45-.68.68.23-.13.46-.25.7-.38l.05-.24-.06-.06h0Z"/>
      <polygon class="cls-6" points=".41 20.67 0 20.85 .62 21.06 .41 20.67"/>
      <path class="cls-1" d="M10.74,38.42l.97.38.3-1.46c-.47.33-.94.66-1.39.97.04.04.08.07.12.11Z"/>
      <path class="cls-10" d="M10.92,40.64l.22.96h0l.17-.85-.16-.08c-.08,0-.16-.02-.23-.03Z"/>
      <path class="cls-5" d="M11.75,35.64c-.6.33-1.19.65-1.75.95l.15.64c.52-.51,1.05-1.04,1.61-1.59h0Z"/>
      <polygon class="cls-16" points="19.7 17.37 19.78 17.27 18.79 15.78 18.09 17.51 19.7 17.37"/>
      <polygon class="cls-15" points="11.49 .02 11.27 .47 11.36 .49 11.49 .02"/>
      <polygon class="cls-4" points="11.59 .53 11.72 .56 11.5 0 11.5 0 11.59 .53"/>
      <polygon class="cls-12" points="9.86 5.86 8.53 6.1 8.34 6.48 9.43 7.38 9.86 5.86"/>
      <path class="cls-8" d="M17.74,19.2l.33.15c-.05-.49-.1-.97-.15-1.46l-.37.91s.19.4.19.4Z"/>
      <polygon class="cls-15" points="12.5 2.56 11.97 1.21 11.71 1.26 11.96 2.75 12.5 2.56"/>
      <path class="cls-10" d="M18.43,22.77c.11,1.05.21,2.08.32,3.1l.37.21.35-.49-.07-2.81-.14-.3-.83.3h0Z"/>
      <polygon class="cls-4" points="18.79 15.78 18.83 15.52 18.62 15.63 18.79 15.78"/>
      <path class="cls-5" d="M19.18,33.18h.02s.02-.04.03-.05v-.02s-.03.05-.04.07h-.01Z"/>
      <polygon class="cls-12" points="8.11 8.63 8.34 6.48 8.34 6.48 8.34 6.49 8.34 6.49 7.14 7.06 7.6 8.75 8.11 8.63"/>
      <polygon class="cls-12" points="11.11 1.38 10.8 1.44 9.78 3.53 10.59 3.24 11.11 1.38"/>
      <polygon class="cls-9" points="14.24 7.69 14.36 7.14 14.06 7.21 14.1 7.72 14.24 7.69"/>
      <polygon class="cls-8" points="11.96 2.75 11.71 1.26 11.11 1.38 10.59 3.24 11.96 2.75"/>
      <path class="cls-10" d="M19.26,22.48l-1.1-2.39c.09.9.18,1.79.28,2.68l.83-.3h-.01Z"/>
      <polygon class="cls-5" points="10.33 8.1 12.46 7.59 12.75 7.36 12.74 7.36 11.29 5.59 9.86 5.86 9.43 7.38 10.33 8.1"/>
      <polygon class="cls-10" points="11.59 .53 11.5 0 11.49 .02 11.36 .49 11.59 .53"/>
      <path class="cls-12" d="M18.15,20.09c-.03-.25-.05-.49-.08-.74l-.33-.15.41.89Z"/>
      <path class="cls-11" d="M18.93,33.32l.25-.15s.03-.05.04-.07v-.21c-.15.21-.16.22-.29.43Z"/>
      <path class="cls-15" d="M15.43,31.97c.27-.27.55-.54.82-.82l-.51-.3c-.13.47-.17.6-.31,1.11h0Z"/>
      <path class="cls-12" d="M18.98,28.2l-.09-1.81-.09.07c.06.59.12,1.17.18,1.73h0Z"/>
      <polygon class="cls-4" points="15.39 10.56 16.34 10.09 15.04 9.3 14.59 9.59 15.39 10.56"/>
      <polygon class="cls-12" points="14.38 9.34 15.04 9.3 14.18 8.78 14.21 9.13 14.38 9.34"/>
      <path class="cls-12" d="M17.34,12.14c.09.84.18,1.71.27,2.59l1.01.89.21-.11.31-2.36-.38-1.59-.88-.54s-.54,1.12-.54,1.12Z"/>
      <path class="cls-12" d="M14.42,32.97l.26,1.06c.07-.04.13-.07.2-.11.27-.97.3-1.05.55-1.96-.34.34-.67.67-1.01,1h0Z"/>
      <path class="cls-16" d="M17.81,29.6l1.18-1.18-.8-1.43-1.13.96s.75,1.65.75,1.65Z"/>
      <polygon class="cls-11" points="14.24 7.69 15.62 7.42 14.98 7 14.36 7.14 14.24 7.69"/>
      <path class="cls-12" d="M18.75,11.56l.54.33.24-1.87s-.02-.03-.03-.05l-.07-.05-.94.59.25,1.04h.01Z"/>
      <path class="cls-12" d="M18.77,26.14l.12.26.22-.32-.37-.21c0,.09.02.18.03.27Z"/>
      <path class="cls-6" d="M16.43,11.83l.82-.52c-.02-.24-.05-.47-.07-.71l-.84-.51-.96.46,1.05,1.27h0Z"/>
      <path class="cls-2" d="M17.34,12.14l.54-1.12-.09-.05-.53.34c.03.27.06.55.09.83h-.01Z"/>
      <path class="cls-6" d="M16.41,28.5c-.19.67-.38,1.36-.66,2.35l.51.3,1.56-1.56-.75-1.65-.65.56h-.01Z"/>
      <path class="cls-4" d="M12.52,34.87l-.03.15.15.13c.5-.27,1.01-.55,1.51-.83l.14-1.22c-.6.6-1.2,1.19-1.78,1.77h0Z"/>
      <path class="cls-7" d="M13.76,36.13l.17.15.03-.29c-.07.05-.13.09-.2.14Z"/>
      <path class="cls-5" d="M12.52,34.87s-.06.06-.1.1l.06.06.03-.15h.01Z"/>
      <polygon class="cls-11" points="12.86 7.5 12.75 7.36 12.75 7.36 12.77 7.52 12.86 7.5"/>
      <path class="cls-12" d="M17.74,16.1c.05.47.1.94.15,1.42l.2-.02.71-1.72-.17-.15-.87.47h-.02Z"/>
      <polygon class="cls-8" points="14.03 8.69 13.65 8.45 14 8.87 14.03 8.69"/>
      <polygon class="cls-15" points="13.19 7.9 12.85 7.96 12.85 7.96 13.65 8.45 13.19 7.9"/>
      <polygon class="cls-1" points="14.1 7.72 14.06 7.21 12.86 7.5 13.19 7.9 14.1 7.72"/>
      <path class="cls-11" d="M17.56,18.8l.37-.91c-.01-.12-.03-.25-.04-.37l-.89.08.56,1.2Z"/>
      <polygon class="cls-15" points="9.43 7.38 8.34 6.48 8.11 8.63 9.15 8.38 9.43 7.38"/>
      <polygon class="cls-9" points="12.75 7.36 12.46 7.59 12.77 7.52 12.75 7.36"/>
      <polygon class="cls-9" points="9.43 7.38 9.15 8.38 10.33 8.1 9.43 7.38"/>
      <path class="cls-7" d="M18.81,26.47l.09-.07-.12-.26c.01.11.02.22.03.33Z"/>
      <path class="cls-8" d="M16.76,27.27l.31.68,1.13-.96-.9-1.6s-.43,1.53-.53,1.88h0Z"/>
      <path class="cls-4" d="M18.62,15.63l-1.01-.89c.05.45.09.91.14,1.37l.87-.47h0Z"/>
      <polygon class="cls-6" points="14 8.87 14.21 9.13 14.18 8.78 14.03 8.69 14 8.87"/>
      <path class="cls-6" d="M17.06,27.95l-.31-.68c-.06.23-.25.88-.35,1.23l.65-.56h.01Z"/>
      <path class="cls-2" d="M.03,19.94c0-.07,0-.15,0-.22,0,.07,0,.15,0,.22Z"/>
      <path class="cls-2" d="M21.65,27.65h0s.01-.04.02-.06c0,.02-.01.04-.02.06Z"/>
      <path class="cls-1" d="M22.05,26.07c.02-.11.04-.23.07-.34h0c-.02.11-.04.23-.07.34Z"/>
      <path class="cls-16" d="M22.17,17.88s.01.08.02.13c-.03-.19-.06-.37-.09-.56,0,.05.02.1.02.14.02.09.03.19.05.29Z"/>
      <path class="cls-9" d="M22.45,22.99c0,.15-.02.29-.03.44.01-.15.02-.29.03-.44Z"/>
      <path class="cls-11" d="M22.48,22.26c0,.16,0,.32-.01.48,0-.16.01-.32.01-.48Z"/>
      <path class="cls-2" d="M22.28,18.66c.02.14.04.28.05.42-.02-.14-.03-.28-.05-.42Z"/>
      <path class="cls-2" d="M12.73,1.07h0c-.15-.14-.29-.27-.42-.38h0c.13.11.27.24.42.38Z"/>
      <path class="cls-2" d="M21.58,27.9c.02-.08.05-.16.07-.25h0c-.02.08-.05.17-.07.25Z"/>
      <path class="cls-15" d="M22.17,25.43l.03-.21h0l-.03.21Z"/>
      <path class="cls-4" d="M22.2,25.21c0-.06.02-.11.03-.17,0,.06-.02.12-.03.17h0Z"/>
      <path class="cls-5" d="M22.42,20.11v.14c0-.1-.01-.2-.02-.3v.16h.02Z"/>
      <path class="cls-5" d="M21.55,15.1h0c-.22-.79-.47-1.55-.75-2.29h0c.28.73.53,1.5.75,2.29Z"/>
      <path class="cls-11" d="M21.49,28.2c-.03.1-.06.19-.09.29.03-.09.06-.19.09-.29Z"/>
      <path class="cls-8" d="M16.33,4.98c.1.13.21.27.31.41h0c-.1-.14-.21-.28-.31-.41h0Z"/>
      <path class="cls-5" d="M17.39,6.42h0c-.25-.36-.5-.7-.75-1.03h0c.25.33.5.67.75,1.03Z"/>
      <path class="cls-10" d="M16.11,4.7h0c-.82-1.03-1.62-1.91-2.31-2.61h0c.69.7,1.49,1.58,2.31,2.61Z"/>
      <path class="cls-11" d="M22.4,23.69c-.01.14-.02.28-.04.42.02-.14.03-.28.04-.42Z"/>
      <path class="cls-6" d="M17.39,6.42c.07.11.15.22.22.33h0c-.07-.11-.14-.22-.22-.33h0Z"/>
      <path class="cls-7" d="M18.92,8.85h0c.19.34.38.69.57,1.05h0c-.54-1.04-1.12-2.01-1.71-2.9h0c.39.59.77,1.2,1.14,1.85Z"/>
      <path class="cls-8" d="M21.99,26.34c-.03.12-.05.24-.08.35.03-.12.05-.23.08-.35Z"/>
      <path class="cls-15" d="M21.84,26.97c-.03.11-.06.22-.09.33.03-.11.06-.22.09-.33Z"/>
      <path class="cls-8" d="M21.2,29.04c.03-.08.06-.16.08-.24-.02.05-.03.09-.05.14-.01.03-.02.07-.03.1Z"/>
      <path class="cls-11" d="M22.32,24.37c-.02.13-.03.27-.05.4.02-.13.03-.27.05-.4Z"/>
      <path class="cls-9" d="M8.74,1.83c.86-.68,1.59-1.16,2.09-1.46h-.02c-.51.29-1.26.77-2.14,1.47h.07Z"/>
      <path class="cls-8" d="M13.75,39.6h0c.95-.82,2.05-1.9,3.16-3.22.04-.06.06-.08.1-.14-1.14,1.38-2.29,2.51-3.26,3.36Z"/>
      <path class="cls-9" d="M3,12.6l-.23-2.69-.46.11c-.29.63-.56,1.3-.81,2l.08,1.38,1.42-.79h0Z"/>
      <path class="cls-4" d="M.11,18.66c0,.07,0,.14-.02.21v-.02c0-.06,0-.13,0-.19h0Z"/>
      <path class="cls-11" d="M6.75,38.34s-.02,0-.03.02l.11.06h0s-.05-.05-.08-.08Z"/>
      <path class="cls-4" d="M.6,15.29h0c.11-.54.24-1.06.38-1.57h-.03c-.33,1.24-.59,2.55-.76,3.97H.2c.1-.83.23-1.63.39-2.4h0Z"/>
      <path class="cls-11" d="M.21,17.69c-.03.29-.07.59-.09.89.03-.3.06-.6.09-.89H.21Z"/>
      <path class="cls-8" d="M20.43,30.89c-.03.06-.06.13-.09.19-.02.04-.03.07-.05.11-.06.12-.11.23-.17.35-.04.08-.03.06.03-.05.1-.2.19-.4.29-.6h-.01Z"/>
      <path class="cls-4" d="M.99,13.71h0l.58-.32-.08-1.38c-.2.55-.38,1.13-.54,1.73h.03s0-.02,0-.03Z"/>
      <path class="cls-16" d="M8.41,2.1l-.02-.03c-.37.31-.76.65-1.16,1.03h.04c.39-.36.78-.7,1.14-1Z"/>
      <path class="cls-12" d="M6.75,38.34c-.06-.06-.13-.12-.19-.18h0c-.05-.05-.1-.1-.15-.15l.25-1.18-2.02-.79c.67.88,1.36,1.64,2.03,2.29l.06.03s.02,0,.03-.02h-.01Z"/>
      <path class="cls-5" d="M20.07,31.62s-.02.04-.03.06c-.02.05-.05.09-.07.14h.01c.06-.11.11-.22.17-.32.04-.07.03-.05-.03.05-.09.15-.03.06-.05.09v-.02Z"/>
      <path class="cls-11" d="M.84,28.04c-.08-.33-.16-.66-.24-1l1.45-.64-.14-.26-1.36.7c-.27-1.34-.46-2.77-.53-4.32H.02c.08,2.04.36,3.88.79,5.54h.03v-.02Z"/>
      <path class="cls-15" d="M13.14,40.13c.2-.16.4-.34.62-.52h0c-.21.18-.41.35-.61.51h0s-.01.01-.01.01Z"/>
      <path class="cls-5" d="M12.87,40.34h0c.09-.07.17-.14.26-.21h0c-.09.07-.18.14-.27.21h.01Z"/>
      <path class="cls-1" d="M20.99,29.61s-.02.05-.03.08c.05-.13.1-.26.15-.39-.01.03-.02.06-.03.08-.03.07-.06.15-.09.22h0Z"/>
      <path class="cls-16" d="M8.24,39.66c-.05-.04-.11-.09-.17-.14-.05-.04-.09-.08-.14-.12-.01,0-.02.02-.04.04.18.15.35.29.52.42.01,0,.03-.02.04-.03h0c-.07-.06-.14-.11-.22-.17h.01Z"/>
      <path class="cls-1" d="M20.76,30.15c-.05.13-.11.25-.16.38-.02.05-.04.1-.07.15-.03.07-.06.14-.1.21h0c.17-.36.33-.74.49-1.12-.03.07-.05.13-.08.2-.03.06-.05.13-.08.19h0Z"/>
      <path class="cls-11" d="M1.25,29.48c-.15-.46-.28-.94-.41-1.44h-.03c.12.49.26.96.4,1.41l.03.03h0Z"/>
      <polygon class="cls-8" points="3.15 25.91 2.96 25.6 2.32 25.93 2.34 26.27 3.15 25.91"/>
      <path class="cls-12" d="M3.19,8.31h0c.27-.48.56-.94.85-1.37h-.01c-.46.69-.89,1.44-1.31,2.25h0c.15-.3.31-.59.47-.87h0Z"/>
      <path class="cls-1" d="M4.97,5.64c.15-.19.29-.37.44-.55l-.05.02c-.14.17-.27.34-.41.51v.02h.02Z"/>
      <path class="cls-4" d="M21.18,29.1s.01-.04.02-.06v.02s0,.03-.01.04h-.01Z"/>
      <path class="cls-2" d="M12.87,40.34c-.21.17-.41.33-.59.46h0c.18-.14.38-.29.59-.46h0Z"/>
      <polygon class="cls-15" points="3.21 15.12 3.08 13.5 3 12.6 1.58 13.39 1.63 14.11 3.21 15.12"/>
      <polygon class="cls-5" points="1.58 13.39 1.01 13.71 1.63 14.11 1.58 13.39"/>
      <path class="cls-4" d="M12.28,40.8c-.13.1-.25.19-.36.27h0c.11-.08.23-.17.36-.27h0Z"/>
      <path class="cls-1" d="M9.16,40.36s-.07-.05-.11-.08c-.07-.05-.15-.11-.23-.17-.05-.04-.11-.08-.16-.12-.06-.05-.13-.1-.2-.15-.01,0-.03.02-.04.03.28.22.54.41.79.58h.08s-.09-.06-.13-.09Z"/>
      <path class="cls-1" d="M19.97,31.82c-.06.11-.12.22-.18.33h0c-.11.2-.22.4-.34.6v.02c.18-.31.36-.64.53-.97h-.01v.02Z"/>
      <path class="cls-9" d="M2.24,32.02h0,0c-.17-.37-.32-.74-.48-1.12h-.02c.3.76.64,1.48.99,2.15v-.03c-.17-.32-.33-.65-.49-.99h0Z"/>
      <path class="cls-1" d="M7.93,39.41s-.08-.07-.12-.11-.09-.08-.13-.12c-.1-.09-.21-.18-.31-.28-.03-.03-.07-.06-.1-.09-.12-.11-.24-.22-.36-.33-.02-.02-.05-.04-.07-.06l-.11-.06h-.02c.41.4.81.76,1.19,1.07.01,0,.02-.02.04-.04v.02Z"/>
      <path class="cls-15" d="M1.25,29.48l-.03-.03c.06.2.13.39.19.58,0,.01.02.02.04.03-.07-.19-.13-.38-.2-.58Z"/>
      <path class="cls-4" d="M2.71,9.19h0c-.14.26-.27.54-.4.82l.46-.11-.06-.71Z"/>
      <path class="cls-11" d="M1.45,30.05s-.02-.02-.04-.03c.1.3.21.59.33.87h.02c-.11-.27-.21-.55-.31-.84Z"/>
      <polygon class="cls-1" points="3.18 8.3 3.19 8.31 3.19 8.3 3.18 8.3"/>
      <polygon class="cls-12" points="2.23 32.03 2.24 32.02 2.24 32.01 2.23 32.03"/>
      <path class="cls-8" d="M.56,26.83l1.36-.7L.03,22.51c.07,1.55.26,2.99.53,4.32Z"/>
      <path class="cls-9" d="M8.46,39.83c.07.05.13.1.2.15-.06-.05-.13-.1-.2-.15h0Z"/>
      <path class="cls-15" d="M8.24,39.66c-.05-.04-.11-.09-.17-.14.06.05.11.09.17.14Z"/>
      <path class="cls-15" d="M7.36,38.91s-.07-.06-.1-.09c.03.03.07.06.1.09Z"/>
      <path class="cls-8" d="M11.53,40.86l.39.2c.11-.08.23-.17.36-.27-.22-.03-.45-.05-.68-.08l-.07.14h0Z"/>
      <path class="cls-16" d="M12.14,39.68c.25.22.49.44.73.65.09-.07.18-.14.27-.22.06-.21.12-.44.19-.68l-.88-.34-.31.59Z"/>
      <polygon class="cls-1" points="2.23 24.42 2.32 25.93 2.96 25.6 2.23 24.42"/>
      <path class="cls-5" d="M9.16,40.36s.09.06.13.09h0s-.09-.06-.13-.09Z"/>
      <path class="cls-6" d="M7.16,35.21c.4.36.79.71,1.17,1.06l.32-.34-1.49-.72Z"/>
      <path class="cls-5" d="M12.14,39.68l-.54,1.04c.23.03.45.05.68.08.18-.14.38-.29.59-.46-.23-.21-.48-.43-.73-.65h0Z"/>
      <path class="cls-9" d="M1.63,14.11l-.62-.4h0c-.14.52-.27,1.04-.38,1.58l1.09.15-.08-1.33Z"/>
      <path class="cls-16" d="M15.36,38.05l-1.22-1.49c-.39,1.37-.53,1.87-.81,2.89l.42.16c.98-.85,2.12-1.98,3.26-3.36.02-.03.03-.04.04-.07-.57.69-1.14,1.31-1.69,1.87Z"/>
      <path class="cls-4" d="M7.81,39.3s-.09-.08-.13-.12c.04.04.09.08.13.12Z"/>
      <path class="cls-1" d="M6.83,38.42s.05.04.07.06c-.02-.02-.05-.04-.07-.06h0Z"/>
      <path class="cls-16" d="M6.66,36.83l-.25,1.18c.05.05.1.1.15.15l.93-1-.83-.33Z"/>
      <path class="cls-11" d="M13.14,40.12c.19-.16.4-.33.61-.52l-.42-.16c-.07.24-.13.47-.19.68Z"/>
      <path class="cls-8" d="M9.05,40.28c-.07-.05-.15-.11-.23-.17.08.06.15.12.23.17Z"/>
      <path class="cls-2" d="M.99,13.71v.02h0v-.02Z"/>
      <polygon class="cls-5" points="3.25 15.65 3.21 15.12 1.63 14.11 1.7 15.44 3.25 15.65 3.25 15.65"/>
      <path class="cls-12" d="M20.34,31.08s-.03.07-.05.11c.02-.04.03-.07.05-.11Z"/>
      <polygon class="cls-5" points="13.99 6.35 14.46 6.65 14.69 5.54 13.99 6.34 13.99 6.35"/>
      <path class="cls-6" d="M16.65,5.42v-.02c-.1-.14-.21-.28-.31-.41h-.02c.11.14.22.28.33.43Z"/>
      <path class="cls-12" d="M20.07,31.62s-.02.04-.03.06c.01-.02.02-.04.03-.06Z"/>
      <path class="cls-15" d="M20.84,29.96c-.03.06-.05.13-.08.19.03-.06.05-.12.08-.19Z"/>
      <path class="cls-5" d="M21.55,15.1h0c-.22-.79-.47-1.55-.75-2.29h-.02c.28.73.54,1.5.77,2.29Z"/>
      <path class="cls-1" d="M19.48,9.91h.01c-.19-.37-.37-.72-.57-1.06v.02c.18.34.37.69.56,1.04Z"/>
      <path class="cls-5" d="M18.91,8.85h.01c-.37-.66-.75-1.27-1.14-1.86h-.01c.39.59.77,1.21,1.14,1.86Z"/>
      <path class="cls-9" d="M15.11,3.53c.32.36.65.76.98,1.18h.01c-.82-1.03-1.62-1.91-2.31-2.61h-.03c.41.44.87.92,1.34,1.47v-.03h0Z"/>
      <path class="cls-2" d="M21.2,29.06v-.02s.02-.07.03-.1c-.01.04-.03.08-.04.12h.01Z"/>
      <polygon class="cls-5" points="8.53 6.1 8.78 5.58 9.71 3.67 9.65 3.6 9.6 3.59 6.7 4.63 8.07 6.19 8.53 6.1"/>
      <polygon class="cls-2" points="9.65 3.6 9.71 3.67 9.73 3.62 9.65 3.6"/>
      <polygon class="cls-1" points="9.73 3.62 9.78 3.53 9.63 3.58 9.65 3.6 9.73 3.62"/>
      <path class="cls-15" d="M20.6,30.53s-.04.1-.07.15c.02-.05.04-.1.07-.15Z"/>
      <path class="cls-15" d="M12.71,1.07h.03c-.15-.15-.29-.27-.42-.39h-.03c.13.11.27.24.43.39h-.01Z"/>
      <path class="cls-2" d="M22.12,17.6c.02.09.03.19.05.29-.02-.1-.03-.19-.05-.29Z"/>
      <path class="cls-9" d="M9.63,3.58l-1.22-1.48c-.37.3-.75.64-1.14,1.01l2.33.48h.03Z"/>
      <path class="cls-11" d="M21.07,29.39c-.03.07-.06.15-.09.22.03-.07.06-.15.09-.22Z"/>
      <path class="cls-12" d="M11.27.47l-.44-.09c-.5.3-1.23.78-2.09,1.46l2.06-.4s.47-.97.47-.97Z"/>
      <path class="cls-12" d="M17.62,6.77v-.02c-.08-.11-.15-.22-.23-.33h-.01c.08.12.16.23.24.35Z"/>
      <path class="cls-11" d="M16.65,5.42c.24.32.49.66.73,1.01h.01c-.25-.36-.5-.7-.75-1.03v.02h.01Z"/>
      <polygon class="cls-11" points="18.92 8.86 18.92 8.85 18.92 8.85 18.91 8.85 18.92 8.86"/>
      <path class="cls-1" d="M16.94,8.28c-.04-.38-.08-.74-.11-1.1l-1.2.24,1.32.86h-.01Z"/>
      <path class="cls-16" d="M15.35,4.78l.15.03.59-.11c-.33-.42-.66-.81-.98-1.18v.03c.21.24.42.5.64.76l-.4.46h0Z"/>
      <path class="cls-7" d="M17.38,6.42c-.24-.35-.49-.69-.73-1.01.04.37.08.75.12,1.15l.61-.15h0Z"/>
      <path class="cls-16" d="M16.83,7.18l.85-.17-.06-.24c-.08-.12-.16-.23-.24-.35l-.61.15c.02.2.04.4.06.61Z"/>
      <path class="cls-12" d="M15.5,4.81l-.21.04-.6.69-.23,1.11.52.34,1.78-.42c-.04-.4-.08-.78-.12-1.15-.11-.15-.22-.29-.33-.44,0,0-.81-.17-.81-.17Z"/>
      <path class="cls-5" d="M18.17,9.09l-.49-2.07-.85.17c.04.36.07.72.11,1.1l1.23.81h0Z"/>
      <polygon class="cls-11" points="15.29 4.85 15.5 4.81 15.35 4.78 15.29 4.85"/>
      <path class="cls-12" d="M18.17,9.09l.11.07.63-.31c-.37-.65-.75-1.27-1.14-1.86l-.09.02.49,2.07h0Z"/>
      <path class="cls-12" d="M19.45,9.93l.04-.02c-.18-.36-.37-.7-.56-1.04l-.26.55.79.52h-.01Z"/>
      <polygon class="cls-15" points="18.65 9.41 18.92 8.86 18.91 8.85 18.28 9.16 18.65 9.41"/>
      <polygon class="cls-11" points="3.08 13.5 3.21 15.12 3.21 15.12 3.08 13.5"/>
      <rect class="cls-5" x="3.23" y="15.11" height=".53"/>
      <polygon class="cls-4" points="8.65 35.92 8.65 35.92 7.15 35.2 7.16 35.21 8.65 35.92 8.65 35.92"/>
      <rect class="cls-1" x="14.22" y="6.22" height=".56"/>
      <polygon class="cls-16" points="9.74 3.62 9.78 3.53 9.78 3.53 9.74 3.62"/>
      <polygon class="cls-5" points="9.72 3.68 9.73 3.62 9.73 3.62 9.72 3.68"/>
      <polygon class="cls-5" points="9.71 3.67 8.78 5.58 9.71 3.67 9.71 3.67"/>
      <polygon class="cls-11" points="10.92 1.49 11.15 .43 11.15 .43 10.92 1.49"/>
      <polygon class="cls-6" points="16.94 8.28 15.62 7.42 15.62 7.42 16.94 8.28 16.94 8.28"/>
      <rect class="cls-11" x="19.06" y="9.2" height=".95"/>
      <polygon class="cls-2" points="16.94 8.28 18.17 9.09 18.17 9.09 16.94 8.28 16.94 8.28"/>
      <rect class="cls-4" x="18.22" y="9.06" height=".13"/>
      <rect class="cls-8" x="14.73" y="6.51" height=".62"/>
      <rect class="cls-8" x="18.47" y="9.06" height=".45"/>
      <path class="cls-12" d="M22.42,23.43c0,.09-.02.17-.02.26,0-.09.02-.17.02-.26Z"/>
      <path class="cls-9" d="M21.91,26.69c-.02.09-.05.19-.07.28.02-.09.05-.19.07-.28Z"/>
      <path class="cls-1" d="M21.75,27.3c-.03.1-.05.19-.08.29.03-.1.06-.19.08-.29Z"/>
      <path class="cls-5" d="M22.05,26.07c-.02.09-.04.18-.06.27.02-.09.04-.18.06-.27Z"/>
      <path class="cls-1" d="M20.95,29.69s-.02.05-.03.08c.01-.03.02-.05.03-.08Z"/>
      <path class="cls-10" d="M21.32,28.7s-.02.07-.04.1c.04-.1.07-.21.11-.31,0,.02-.02.04-.02.07-.02.05-.03.09-.05.14Z"/>
      <path class="cls-16" d="M.08,18.99c-.02.24-.03.49-.05.74v-.08c.01-.22.02-.44.04-.65h.01Z"/>
      <path class="cls-16" d="M21.18,29.1c-.03.07-.05.14-.08.21.03-.07.05-.14.08-.21Z"/>
      <path class="cls-7" d="M21.52,28.09s-.02.08-.04.11c.03-.1.06-.2.09-.3-.02.06-.03.11-.05.17v.02Z"/>
      <path class="cls-1" d="M22.43,20.25c.02.35.04.71.05,1.07,0-.36-.02-.72-.05-1.07Z"/>
      <path class="cls-4" d="M22.33,19.08c.03.29.06.57.08.87-.02-.29-.05-.58-.08-.87Z"/>
      <path class="cls-6" d="M22.19,18.01c.03.21.06.43.09.65-.03-.22-.06-.43-.09-.65Z"/>
      <path class="cls-16" d="M22.17,25.43c-.02.09-.03.18-.05.27.02-.09.03-.18.05-.27Z"/>
      <path class="cls-11" d="M22.05,17.22c.01.08.03.15.04.23-.01-.08-.03-.15-.04-.23Z"/>
      <path class="cls-1" d="M22.27,24.77c-.01.09-.03.18-.04.27.01-.09.03-.18.04-.27Z"/>
      <path class="cls-8" d="M22.36,24.11c0,.09-.02.18-.03.26.01-.09.02-.18.03-.26Z"/>
      <path class="cls-1" d="M22.46,22.74c0,.08-.01.17-.02.25,0-.08.01-.17.02-.25Z"/>
      <path class="cls-15" d="M.04,19.64v.08c0,.07,0,.15,0,.22H.03c0-.09,0-.2,0-.31H.04Z"/>
      <path class="cls-1" d="M21.37,28.55s.02-.04.02-.07c.03-.09.06-.19.09-.29.01-.04.02-.08.04-.11-.05.16-.1.31-.15.47Z"/>
      <path class="cls-15" d="M22.04,17.17c.03.14.06.28.08.42,0-.05-.02-.1-.02-.14-.01-.08-.03-.15-.04-.23v-.05h-.02Z"/>
      <path class="cls-4" d="M22.48,21.32c.03,1.37-.08,2.67-.28,3.9h0c.01-.06.02-.12.03-.18.01-.09.03-.18.04-.27.02-.13.03-.27.05-.4.01-.09.02-.18.03-.26.02-.14.03-.28.04-.42,0-.09.02-.17.02-.26.01-.15.02-.29.03-.44,0-.08.01-.17.02-.25,0-.16.01-.32.01-.48v-.95c0-.36-.02-.72-.05-1.07v-.14c.03.4.05.8.05,1.21h0Z"/>
      <path class="cls-8" d="M22.42,20.08v-.14c-.02-.29-.05-.58-.08-.87-.02-.14-.03-.28-.05-.42-.03-.22-.06-.43-.09-.65,0-.04-.01-.08-.02-.13.12.72.2,1.45.26,2.2h-.02Z"/>
      <path class="cls-8" d="M22.2,25.22c-.03.17-.06.33-.09.5h0v-.02c.02-.09.03-.18.05-.27l.03-.21h.01Z"/>
      <path class="cls-7" d="M21.24,28.94s.03-.09.05-.14c.01-.03.02-.07.04-.1-.03.08-.06.16-.09.25h0Z"/>
      <path class="cls-15" d="M21.65,27.65c-.04.14-.08.28-.12.42.02-.06.04-.11.05-.17.02-.08.05-.16.07-.25h0Z"/>
      <path class="cls-12" d="M21.65,27.65s.01-.04.02-.06c.03-.1.06-.19.08-.29.03-.11.06-.22.09-.33.02-.09.05-.19.07-.28.03-.12.05-.23.08-.35.02-.09.04-.18.06-.27.02-.11.04-.23.07-.34h0c-.13.66-.28,1.3-.46,1.93h-.01Z"/>
      <path class="cls-5" d="M2.61,31l-.02-.3c-.42-.39-.87-.8-1.34-1.23.06.2.13.39.2.58.34.31.69.62,1.03.93,0,0,.13.02.13.02Z"/>
      <path class="cls-12" d="M2.87,30.94l.15-2.71-.57-1.09-.06.04.21,3.53c.09.08.18.17.27.25h0v-.02Z"/>
      <path class="cls-4" d="M1.45,30.05c.1.29.2.57.31.84l.72.09c-.35-.31-.69-.62-1.03-.93Z"/>
      <path class="cls-4" d="M20.12,31.53c.06-.11.12-.23.17-.35-.06.12-.12.24-.18.35q-.04.07,0,0h.01Z"/>
      <path class="cls-8" d="M20.07,31.62s.03-.06.05-.09t0,0s-.03.05-.04.08h0Z"/>
      <path class="cls-1" d="M2.62,31.11s-.09-.08-.14-.12l-.72-.09c.15.38.31.75.48,1.11l.39-.67v-.24h0Z"/>
      <path class="cls-5" d="M2.24,32.02c.16.34.32.67.49.99l-.07-1.2-.42.2h0Z"/>
      <path class="cls-9" d="M20.34,31.08c.03-.06.06-.13.09-.19h0c-.03.06-.06.13-.09.19Z"/>
      <path class="cls-9" d="M7.94,39.4h0s.09.08.14.12c-.05-.04-.09-.08-.14-.12Z"/>
      <path class="cls-4" d="M7.81,39.3s.08.07.12.11h0s-.08-.07-.12-.11Z"/>
      <path class="cls-1" d="M20.43,30.89h0c.03-.07.07-.14.1-.21-.03.07-.07.14-.1.21Z"/>
      <path class="cls-5" d="M2.59,30.7l-.21-3.53-1.54.86c.13.49.26.97.41,1.44.47.43.92.84,1.34,1.23Z"/>
      <path class="cls-11" d="M6.96,6.39l-.46-1.69-1.09.39c-.15.18-.3.36-.44.55l.73.98,1.26-.23Z"/>
      <path class="cls-11" d="M2.38,26.99l-.32-.6-1.45.64c.07.34.15.67.24,1l1.54-.86v-.18h0Z"/>
      <path class="cls-2" d="M.09,18.98H.09c-.02.23-.03.44-.04.66,0-.22.02-.44.04-.66Z"/>
      <path class="cls-1" d="M9.16,40.36s-.07-.05-.11-.08c.04.03.08.05.11.08Z"/>
      <path class="cls-4" d="M6.76,38.34h0s.05.05.08.07c-.03-.02-.05-.05-.08-.08h0Z"/>
      <path class="cls-9" d="M6.57,38.16h0c.06.07.13.12.19.19h0c-.06-.06-.13-.12-.19-.19Z"/>
      <path class="cls-1" d="M20.84,29.96c.03-.07.06-.13.08-.2.01-.03.02-.05.03-.08s.02-.05.03-.08c-.05.12-.1.24-.14.35h0Z"/>
      <path class="cls-5" d="M21.07,29.39s.02-.06.03-.08c.03-.07.05-.14.08-.21,0-.01,0-.03.01-.04-.04.11-.08.22-.12.33Z"/>
      <polygon class="cls-11" points="3.11 26.77 3.16 25.91 2.96 25.6 2.96 25.6 3.15 25.91 2.34 26.27 2.38 26.99 2.45 27.14 3.11 26.77"/>
      <path class="cls-10" d="M.21,17.71H.21c-.03.29-.07.58-.09.88v.08c0,.06,0,.13,0,.19.03-.39.07-.77.12-1.15h-.02Z"/>
      <path class="cls-16" d="M19.97,31.82h0s.05-.09.07-.14c-.02.05-.05.09-.07.14Z"/>
      <path class="cls-8" d="M21.37,28.55s-.03.09-.05.14c.02-.05.03-.09.05-.14Z"/>
      <path class="cls-9" d="M3.19,8.31c-.16.28-.32.57-.47.87l.7-.33-.23-.54Z"/>
      <path class="cls-9" d="M20.76,30.15c-.05.13-.11.25-.16.38.06-.12.11-.25.16-.38Z"/>
      <path class="cls-6" d="M6.31,7.46l-.61-.83-1.66.31c-.29.43-.57.89-.85,1.37l.6.36,2.52-1.21Z"/>
      <path class="cls-16" d="M19.45,32.76c.12-.2.23-.4.34-.6-.11.2-.23.4-.34.6h0Z"/>
      <path class="cls-8" d="M19.79,32.15c.06-.11.12-.22.18-.33h0c-.06.11-.12.22-.17.33h-.01Z"/>
      <path class="cls-16" d="M7.26,38.82c-.12-.11-.24-.22-.36-.33.12.11.24.23.36.33Z"/>
      <path class="cls-15" d="M2.82,31.03l-.21-.03v.11s.07.06.11.09c0,0,.1-.17.1-.17Z"/>
      <path class="cls-8" d="M8.82,40.11c-.05-.04-.11-.08-.16-.12.06.04.11.08.16.12Z"/>
      <path class="cls-12" d="M.6,15.29c-.16.77-.29,1.57-.39,2.41H.21c.1-.83.23-1.64.4-2.4h0Z"/>
      <path class="cls-11" d="M8.46,39.83c-.07-.06-.14-.11-.22-.17.07.06.14.11.22.17Z"/>
      <path class="cls-9" d="M7.68,39.18c-.1-.09-.21-.18-.31-.28.11.1.21.19.31.28Z"/>
      <polygon class="cls-7" points="3 12.6 3 12.6 3.08 13.5 3 12.6"/>
      <polygon class="cls-15" points="2.71 9.18 2.71 9.18 2.71 9.19 2.77 9.9 2.77 9.9 2.71 9.18"/>
      <rect class="cls-7" x="2.9" y="9.9" height="2.7"/>
      <polygon class="cls-8" points="2.63 31.35 2.24 32.01 2.24 32.02 2.66 31.82 2.63 31.35"/>
      <path class="cls-11" d="M2.85,31.32l.02-.29h-.05l-.1.17s.09.08.13.12Z"/>
      <polygon class="cls-15" points="3.79 8.66 3.19 8.3 3.19 8.31 3.41 8.84 3.79 8.66"/>
      <path class="cls-12" d="M8.21,39.13l-1.38-.72s.04.04.07.06c.12.11.24.23.36.33.03.03.07.06.1.09.11.1.21.19.31.28.04.04.09.08.13.12.04.04.08.07.13.1l.27-.27h0Z"/>
      <path class="cls-5" d="M8.34,37.49l-.84-.33-.93,1c.06.06.13.12.19.19.48-.26,1.02-.55,1.59-.85h-.01Z"/>
      <path class="cls-15" d="M.21,17.71c-.05.38-.09.76-.12,1.15v.13c-.02.22-.03.44-.04.66,0,.11,0,.21,0,.32l.25.46.7-1.12-.76-1.59h-.02Z"/>
      <path class="cls-8" d="M1.85,17.9l-.14-2.46-1.09-.15c-.16.77-.3,1.57-.4,2.41l.76,1.59s.87-1.39.87-1.39Z"/>
      <polygon class="cls-4" points="1.7 15.44 1.85 17.9 3.25 15.65 1.7 15.44"/>
      <rect class="cls-15" x="2.6" y="24.32" height="1.39"/>
      <path class="cls-9" d="M7.94,39.4s.09.08.14.12c.06.05.11.09.17.14.07.06.14.11.22.17h0c.15-.11.31-.21.46-.32l-.71-.37c-.09.09-.18.18-.27.27h-.01Z"/>
      <path class="cls-7" d="M15.07,35.6l-.79.46c-.07.23-.07.25-.14.48l1.22,1.49c.55-.56,1.12-1.19,1.69-1.87,0,0,.01-.02.02-.03-.49.6-.99,1.15-1.47,1.65l-.53-2.19h0Z"/>
      <polygon class="cls-9" points="11.6 40.72 11.6 40.72 12.14 39.68 12.14 39.68 11.6 40.72"/>
      <polygon class="cls-12" points="11.52 40.87 11.6 40.73 11.6 40.73 11.52 40.87"/>
      <polygon class="cls-8" points="12.45 39.09 12.14 39.68 12.14 39.68 12.45 39.09 12.45 39.09"/>
      <path class="cls-9" d="M10.71,40.62l-.1-.23-1.68-.88c-.16.11-.31.22-.46.32.07.05.13.1.2.15.06.04.11.08.16.12.08.06.15.12.23.17.04.03.08.05.11.08.04.03.09.06.13.09.46.05.94.11,1.41.16v.02Z"/>
      <path class="cls-2" d="M8.65,35.92h0l-.32.34c.26.23.52.46.77.69,0,0-.45-1.03-.45-1.03Z"/>
      <path class="cls-5" d="M9.44,37.92l.1.04-.04-.09s-.04.04-.06.05Z"/>
      <path class="cls-5" d="M9.5,37.86l-.36-.81c-.27.15-.54.29-.8.43l1.1.43s.04-.04.06-.05Z"/>
      <path class="cls-15" d="M8.34,37.49c-.57.31-1.1.59-1.59.85.03.02.05.05.08.08h0l1.38.72c.39-.38.8-.79,1.23-1.22l-1.1-.43Z"/>
      <path class="cls-1" d="M8.92,39.51l1.68.88-.69-1.57c-.34.24-.67.47-.99.7h0Z"/>
      <path class="cls-8" d="M9.54,37.95l-.1-.04c-.43.43-.84.83-1.23,1.22l.71.37c.32-.23.65-.46.99-.7l-.38-.86h.01Z"/>
      <path class="cls-1" d="M21.55,27.42l-.49-1.06-.51.51,1,.55Z"/>
      <polygon class="cls-12" points="13.53 5.18 13.99 6.34 14.69 5.54 14.82 4.94 13.53 5.18"/>
      <path class="cls-1" d="M20.4,30.91c-.12.26-.24.51-.37.76.03-.04.06-.08.09-.13.06-.12.12-.23.18-.35.02-.04.03-.07.05-.11.03-.06.06-.12.09-.19,0,0-.02.01-.03.02h0Z"/>
      <path class="cls-4" d="M21.05,26.36l.49,1.06.13.07s-.03.08-.04.12l.02.03c.18-.63.33-1.27.46-1.94l-.08-.33-.98.98h0Z"/>
      <path class="cls-12" d="M22.03,25.38l.17-.17c.2-1.23.31-2.54.28-3.9l-1.06,1.5s.61,2.57.61,2.57Z"/>
      <path class="cls-1" d="M20.4,30.91s.02-.01.03-.02c.03-.07.07-.14.1-.21.02-.05.04-.1.07-.15.06-.12.11-.25.16-.38.03-.06.05-.12.08-.19.05-.12.1-.23.14-.35.03-.07.06-.15.09-.22.04-.11.08-.22.12-.33.01-.04.03-.08.04-.12.03-.08.06-.16.09-.25.02-.05.03-.09.05-.14.05-.15.1-.31.15-.47v-.02c.04-.14.08-.28.12-.42l-.02-.03c-.33,1.17-.75,2.26-1.23,3.29h0Z"/>
      <path class="cls-16" d="M20.29,18.03l2.19,3.29c0-.41-.03-.81-.05-1.21v-.02c-.05-.75-.14-1.49-.26-2.2-.02-.1-.03-.19-.05-.29-.02-.14-.05-.28-.08-.42l-1.91.16s.16.69.16.69Z"/>
      <path class="cls-12" d="M19.46,25.59l.02.69,1.06.59.51-.51-.85-1.83-.74,1.05h0Z"/>
      <path class="cls-15" d="M22.11,25.72c.03-.16.06-.33.09-.5l-.17.17.08.33Z"/>
      <polygon class="cls-11" points="6.7 4.63 6.5 4.7 6.96 6.39 8.07 6.19 6.7 4.63"/>
      <path class="cls-8" d="M12.71,1.07c-.15-.15-.3-.28-.43-.39l-.57-.12.26.65.74-.14Z"/>
      <path class="cls-16" d="M21.27,14.19l-1.68.91.44,1.86,1.51-1.86c-.22-.79-.48-1.56-.77-2.3h0c.17.45.34.92.49,1.39h.01Z"/>
      <path class="cls-12" d="M20.03,31.67c-.03.06-.06.11-.09.17.01,0,.02-.01.03-.02.02-.05.05-.09.07-.14.01-.02.02-.04.03-.06.01-.03.03-.05.04-.08-.03.04-.06.08-.09.13h0Z"/>
      <path class="cls-15" d="M13.2,4.34l1.67.34.23-1.12c-.47-.54-.93-1.03-1.34-1.45l-1.26.45s.7,1.78.7,1.78Z"/>
      <polygon class="cls-6" points="19.84 17.36 20.12 17.33 20.03 16.96 19.78 17.27 19.84 17.36"/>
      <polygon class="cls-4" points="20.29 18.03 20.12 17.33 19.84 17.36 20.29 18.03"/>
      <polygon class="cls-1" points="14.82 4.94 14.87 4.68 13.2 4.34 13.53 5.18 14.82 4.94"/>
      <polygon class="cls-4" points="8.78 5.58 8.53 6.1 8.53 6.1 8.78 5.58"/>
      <path class="cls-16" d="M21.05,26.36l.98-.98-.61-2.57-1.21,1.72.85,1.83h-.01Z"/>
      <path class="cls-15" d="M21.55,27.42l-1-.55c-.34.34-.68.68-1.03,1.02l.04,1.53-.55-.98c.11,1.06.21,2.09.31,3.05.37-.2.73-.4,1.08-.59.48-1.03.9-2.12,1.23-3.29l-.09-.2h.01Z"/>
      <path class="cls-5" d="M19.43,32.57s.01.11.02.16c.17-.29.33-.59.49-.9-.01.01-.03.02-.04.03-.23.35-.23.36-.46.7h-.01Z"/>
      <path class="cls-12" d="M19.39,32.22c.17-.12.34-.23.5-.35.05-.07.09-.13.13-.2.13-.25.25-.5.37-.76-.35.19-.71.39-1.08.59.02.24.05.48.07.72h.01Z"/>
      <polygon class="cls-5" points="15.29 4.85 15.35 4.78 14.87 4.68 14.82 4.94 15.29 4.85"/>
      <path class="cls-5" d="M21.67,27.49l-.13-.07.09.2s.03-.08.04-.12h0Z"/>
      <path class="cls-9" d="M15.07,35.6l.53,2.19c.48-.5.98-1.05,1.47-1.65.79-1.19.96-1.45,1.86-2.82l-3.87,2.28h0Z"/>
      <path class="cls-4" d="M15.75,4.32c-.22-.27-.44-.52-.65-.76l-.23,1.12.48.1.4-.46Z"/>
      <path class="cls-1" d="M19.15,31.59c.06-.03.11-.06.17-.09-.1-.96-.2-1.99-.31-3.05v-.03l.14,3.17Z"/>
      <polygon class="cls-2" points="14.69 5.54 15.29 4.85 14.82 4.94 14.69 5.54"/>
      <path class="cls-16" d="M19.43,32.57q.23-.35.46-.7c-.16.11-.33.23-.5.35.01.12.02.24.04.36h0Z"/>
      <path class="cls-12" d="M19.19,32.36l.02.31.07.15q.08-.12.16-.24c-.01-.12-.02-.24-.04-.36-.07.05-.14.09-.2.14h0Z"/>
      <path class="cls-11" d="M19.19,32.36c.07-.05.14-.09.2-.14-.02-.24-.05-.47-.07-.72-.06.03-.11.06-.17.09,0,0,.04.77.04.77Z"/>
      <path class="cls-4" d="M19.59,15.1l1.68-.91c-.15-.48-.32-.94-.49-1.4l-1.48-.9-.16,1.26.46,1.94h-.01Z"/>
      <path class="cls-5" d="M19.01,28.45l.55.98-.04-1.53-.52.52v.04h.01Z"/>
      <path class="cls-1" d="M19.52,27.89c.35-.35.69-.69,1.03-1.02l-1.06-.59.04,1.62h-.01Z"/>
      <path class="cls-6" d="M19.9,31.87s.03-.02.04-.03c.03-.06.06-.11.09-.17-.05.07-.09.13-.13.2Z"/>
      <path class="cls-12" d="M19.01,28.41c0-.07-.01-.14-.02-.21v.22s.02,0,.02-.01Z"/>
      <path class="cls-15" d="M19.22,32.89h0s.03-.04.05-.08l-.07-.15v.23h.02Z"/>
      <path class="cls-8" d="M7.4,29.95l-.3-.29-1.47.71.57,1.07-1.6-.2,1.31,2.5s-1.01-.93-2.5-2.3l-.27.13c1.31,1.18,2.62,2.36,3.89,3.5l.72-3.46-.35-1.68v.02Z"/>
      <polygon class="cls-12" points="3.71 26.44 3.56 26.52 4.48 28.23 4.88 27.55 3.71 26.44"/>
      <polygon class="cls-9" points="3.59 15.36 4.03 14.99 3.76 12.17 3 12.6 3.08 13.5 3.21 15.12 3.59 15.36"/>
      <polygon class="cls-16" points="3.76 9.67 3.41 8.84 2.72 9.18 2.71 9.18 2.77 9.9 3.76 9.67"/>
      <polygon class="cls-5" points="5.36 13.46 5.24 13.97 5.49 13.76 5.36 13.46"/>
      <polygon class="cls-4" points="3.64 10.96 4.12 10.52 3.76 9.67 2.77 9.9 3 12.6 3.76 12.17 3.64 10.96"/>
      <polygon class="cls-9" points="4.98 9.38 5.21 9.52 5.5 9.25 4.98 9.38"/>
      <polygon class="cls-6" points="3.04 25.56 3.19 25.85 3.5 25.32 3.04 25.56"/>
      <polygon class="cls-11" points="7.96 10.06 7.96 10.05 7.62 9.81 7.89 9.79 7.6 8.75 5.5 9.25 5.21 9.52 7.85 11.1 7.96 10.06"/>
      <polygon class="cls-16" points="3.19 25.85 3.04 25.56 2.96 25.6 3.16 25.91 3.19 25.85"/>
      <polygon class="cls-11" points="4.12 10.52 3.64 10.96 3.76 12.17 4.61 11.69 4.12 10.52"/>
      <polygon class="cls-8" points="5.36 13.46 4.61 11.69 3.76 12.17 4.03 14.99 5.24 13.97 5.36 13.46"/>
      <polygon class="cls-12" points="3.3 26.05 3.56 26.52 3.71 26.44 3.3 26.05"/>
      <polygon class="cls-9" points="3.03 28.23 2.87 30.94 3.71 29.53 3.03 28.23"/>
      <polygon class="cls-2" points="5.5 9.25 6.77 8.08 6.31 7.46 3.79 8.66 4.98 9.38 5.5 9.25"/>
      <polygon class="cls-1" points="3.3 26.05 3.16 25.91 3.11 26.77 3.56 26.52 3.3 26.05"/>
      <polygon class="cls-12" points="3.99 31.17 4.61 31.25 4.45 30.95 3.99 31.17"/>
      <polygon class="cls-8" points="5.92 10.96 5.36 13.46 5.49 13.76 7.02 12.47 6.2 11.83 7.21 12.31 7.77 11.84 7.85 11.1 5.21 9.52 4.12 10.52 4.61 11.69 5.92 10.96"/>
      <path class="cls-12" d="M2.97,31.05l1.02.13.46-.22-.74-1.42-.84,1.41h0s.07.07.1.1Z"/>
      <polygon class="cls-5" points="4.61 11.69 5.36 13.46 5.92 10.96 4.61 11.69"/>
      <path class="cls-6" d="M2.97,31.05h-.11l-.02.27c.1.09.2.18.29.26l.27-.13c-.14-.13-.29-.27-.44-.41h0Z"/>
      <polygon class="cls-11" points="3.79 8.66 3.41 8.84 3.76 9.67 4.98 9.38 3.79 8.66"/>
      <polygon class="cls-9" points="5.21 9.52 4.98 9.38 3.76 9.67 4.12 10.52 5.21 9.52"/>
      <polygon class="cls-12" points="4.48 28.23 5.63 30.38 7.1 29.66 4.88 27.55 4.48 28.23"/>
      <path class="cls-5" d="M7.03,35.09s.08.07.12.11l1.5.72-.9-4.28-.72,3.46h0Z"/>
      <path class="cls-4" d="M9.99,36.59l-.34-1.51-1,.84.45,1.03s.06.05.09.08c.26-.14.53-.29.81-.44h-.01Z"/>
      <polygon class="cls-15" points="4.12 18.97 4.33 18.06 3.25 15.65 3.25 15.65 1.85 17.9 1.97 19.96 4.12 18.97"/>
      <path class="cls-6" d="M14.68,34.04c-.18.1-.35.19-.53.29l-.2,1.67c.14-.1.28-.2.43-.3.18-.66.19-.67.38-1.34,0,0-.08-.32-.08-.32Z"/>
      <path class="cls-11" d="M9.54,37.95l.38.86c.17-.12.33-.23.51-.35l-.04-.17-.84-.33h-.01Z"/>
      <path class="cls-9" d="M14.38,35.69c-.05.18-.05.19-.11.37l.79-.46-.08-.33c-.2.14-.4.28-.6.42Z"/>
      <polygon class="cls-11" points="1.85 17.9 .98 19.29 1.42 20.21 1.97 19.96 1.85 17.9"/>
      <polygon class="cls-8" points="4.41 18.84 4.63 18.74 4.33 18.06 4.41 18.84"/>
      <path class="cls-11" d="M11.63,39.22c.18.16.35.31.51.46l.31-.59-.74-.29-.09.42h0Z"/>
      <path class="cls-12" d="M10.33,38.06c-.18-.16-.36-.32-.54-.48-.1.1-.2.19-.29.29l.04.09.84.33s-.05-.23-.05-.23Z"/>
      <path class="cls-2" d="M14.38,35.69c.2-.14.4-.28.6-.42l-.22-.92c-.19.67-.19.68-.38,1.34Z"/>
      <path class="cls-1" d="M9.19,37.03s-.03.02-.04.02l.36.81c.1-.1.19-.19.29-.29-.2-.18-.4-.36-.61-.54Z"/>
      <path class="cls-2" d="M14.3,33.1s.08-.08.13-.13l-.08-.31-.05.43h0Z"/>
      <path class="cls-2" d="M12.44,35.26l-.43,2.09c.57-.4,1.16-.81,1.74-1.22l-1.12-.98c-.07.04-.13.07-.2.11h.01Z"/>
      <polygon class="cls-7" points="2.06 21.54 .62 21.06 2.2 24 2.06 21.54 2.06 21.54"/>
      <polygon class="cls-1" points="2.2 24 2.23 24.42 2.96 25.6 3.04 25.56 2.2 24"/>
      <polygon class="cls-5" points="3.5 25.32 4.82 23.11 4.75 22.45 3.44 22.01 3.08 23.66 2.06 21.54 2.2 24 3.04 25.56 3.5 25.32"/>
      <polygon class="cls-11" points="4.75 22.45 4.82 23.11 5.13 22.57 4.75 22.45"/>
      <polygon class="cls-10" points=".98 19.29 .28 20.42 .41 20.67 1.42 20.21 .98 19.29"/>
      <path class="cls-9" d="M10.42,38.46c-.17.12-.34.24-.51.35l.69,1.57.29.15-.47-2.08h0Z"/>
      <path class="cls-15" d="M11.63,39.22l-.3,1.47c.09,0,.18.02.27.03l.54-1.04c-.17-.15-.34-.3-.51-.46Z"/>
      <path class="cls-16" d="M10.9,40.54l-.29-.15.1.23c.07,0,.14.02.21.02l-.02-.11h0Z"/>
      <polygon class="cls-9" points="3.21 15.12 3.26 15.65 3.59 15.36 3.21 15.12"/>
      <polygon class="cls-11" points="4.33 18.06 4.12 18.97 4.41 18.84 4.33 18.06 4.33 18.06"/>
      <polygon class="cls-5" points="2.06 21.54 3.08 23.66 3.44 22.01 2.06 21.54 2.06 21.54"/>
      <path class="cls-1" d="M11.31,40.75l.21.11.07-.14c-.09,0-.18-.02-.27-.03v.06h0Z"/>
      <path class="cls-1" d="M9.79,37.57c.18.16.36.32.54.48l-.19-.83c-.12.12-.23.23-.35.34h0Z"/>
      <path class="cls-15" d="M10.57,38.36l.17.07s-.08-.07-.12-.11c-.02,0-.04.03-.05.04Z"/>
      <path class="cls-1" d="M10.33,38.06l.05.23.19.07s.04-.03.05-.04c-.1-.09-.19-.17-.29-.26Z"/>
      <path class="cls-4" d="M10.57,38.36s-.1.07-.15.1l.47,2.08.26.14.17.02.3-1.47c-.29-.26-.58-.52-.89-.8l-.17-.07h0Z"/>
      <path class="cls-5" d="M11.16,40.67l.16.08v-.06s-.1,0-.16-.02Z"/>
      <path class="cls-16" d="M10.92,40.64c.08,0,.16.02.23.03l-.26-.14.02.11h.01Z"/>
      <path class="cls-15" d="M10.38,38.28l.04.17s.1-.07.15-.1l-.19-.07Z"/>
      <polygon class="cls-5" points="4.12 18.97 3.44 22.01 4.75 22.45 4.41 18.84 4.12 18.97"/>
      <polygon class="cls-15" points="5.82 21.41 4.63 18.74 4.41 18.84 4.75 22.45 5.13 22.57 5.82 21.41"/>
      <path class="cls-1" d="M10.74,38.42c.31.27.6.54.89.8l.09-.42-.97-.38h-.01Z"/>
      <polygon class="cls-8" points="1.42 20.21 .41 20.67 .62 21.06 2.06 21.54 1.42 20.21"/>
      <polygon class="cls-12" points="1.97 19.96 1.42 20.21 2.06 21.54 2.06 21.54 1.97 19.96"/>
      <path class="cls-11" d="M11.75,35.64c-.55.55-1.09,1.08-1.61,1.59l.19.83c.1.09.2.18.29.26.45-.32.92-.64,1.39-.97l.43-2.09c-.23.13-.47.25-.7.38h0Z"/>
      <path class="cls-7" d="M12.43,34.96l-1.29-1.13-1.49,1.25.34,1.51c.57-.31,1.15-.63,1.75-.95.22-.22.45-.45.68-.68h0Z"/>
      <polygon class="cls-9" points="1.97 19.96 2.06 21.54 3.44 22.01 4.12 18.97 1.97 19.96"/>
      <path class="cls-9" d="M17.93,17.89c.05.49.1.97.15,1.46l1.25.56-.05-2.02.42-.52-1.61.14-.16.39h0Z"/>
      <polygon class="cls-12" points="12.41 5.38 13.53 5.18 13.2 4.34 12.2 4.13 12.41 5.38"/>
      <polygon class="cls-7" points="10.59 3.24 9.78 3.53 9.73 3.62 10.44 3.77 10.59 3.24"/>
      <polygon class="cls-11" points="12.2 4.13 13.2 4.34 12.5 2.56 11.96 2.75 12.2 4.13"/>
      <polygon class="cls-4" points="9.86 5.86 10.28 4.36 9.71 3.67 8.78 5.58 8.53 6.1 9.86 5.86"/>
      <polygon class="cls-5" points="20.21 24.53 19.4 22.77 19.46 25.59 20.21 24.53"/>
      <polygon class="cls-12" points="10.28 4.36 10.44 3.77 9.73 3.62 9.71 3.67 10.28 4.36"/>
      <polygon class="cls-15" points="19.84 17.36 19.78 17.27 19.7 17.37 19.84 17.36"/>
      <polygon class="cls-8" points="12.75 7.36 13.99 6.35 13.99 6.35 13.99 6.34 13.53 5.18 12.41 5.38 12.74 7.36 12.75 7.36"/>
      <polygon class="cls-11" points="19.4 22.77 19.39 22.43 19.26 22.48 19.4 22.77"/>
      <polygon class="cls-4" points="11.97 1.21 11.72 .56 11.59 .53 11.71 1.26 11.97 1.21"/>
      <polygon class="cls-12" points="19.7 17.37 19.28 17.89 19.33 19.91 20.9 20.61 20.29 18.03 19.84 17.36 19.7 17.37"/>
      <polygon class="cls-7" points="14.36 7.14 14.46 6.65 13.99 6.35 14.06 7.21 14.36 7.14"/>
      <path class="cls-4" d="M18.61,25.79l.13.07c-.1-1.01-.21-2.05-.32-3.1l-1.07.38,1.25,2.64h.01Z"/>
      <polygon class="cls-9" points="21.42 22.81 22.48 21.32 21.18 21.78 21.42 22.81"/>
      <polygon class="cls-12" points="20.9 20.61 22.48 21.32 20.29 18.03 20.9 20.61"/>
      <polygon class="cls-2" points="14.14 8.2 14.24 7.69 14.1 7.72 14.14 8.2"/>
      <polygon class="cls-2" points="7.99 9.78 8.11 8.63 7.6 8.75 7.89 9.79 7.99 9.78"/>
      <polygon class="cls-8" points="11.11 1.38 11.36 .49 11.27 .47 10.8 1.44 11.11 1.38"/>
      <polygon class="cls-5" points="17.56 18.8 17.45 19.07 17.74 19.2 17.56 18.8"/>
      <polygon class="cls-9" points="19.4 22.77 20.21 24.53 21.42 22.81 21.18 21.78 19.39 22.43 19.4 22.77"/>
      <polygon class="cls-11" points="21.18 21.78 22.48 21.32 20.9 20.61 21.18 21.78"/>
      <polygon class="cls-4" points="19.39 22.43 21.18 21.78 20.9 20.61 19.33 19.91 19.39 22.43"/>
      <polygon class="cls-12" points="12.41 5.38 12.2 4.13 10.44 3.77 10.28 4.36 11.29 5.59 12.41 5.38"/>
      <polygon class="cls-8" points="10.28 4.36 9.86 5.86 11.29 5.59 10.28 4.36"/>
      <polygon class="cls-5" points="11.11 1.38 11.71 1.26 11.59 .53 11.36 .49 11.11 1.38"/>
      <path class="cls-2" d="M17.45,19.07l-.94,2.29.85,1.8,1.07-.38c-.09-.89-.18-1.79-.28-2.68l-.41-.89-.3-.13h.01Z"/>
      <polygon class="cls-15" points="11.96 2.75 10.59 3.24 10.44 3.77 12.2 4.13 11.96 2.75"/>
      <polygon class="cls-6" points="12.74 7.36 12.41 5.38 11.29 5.59 12.74 7.36"/>
      <polygon class="cls-10" points="12.46 7.59 10.33 8.1 11.09 8.72 12.46 7.59"/>
      <path class="cls-16" d="M18.15,20.09l1.1,2.39.13-.05-.06-2.52-1.25-.56c.03.25.05.49.08.74Z"/>
      <path class="cls-1" d="M14.88,33.93q-.06.21-.12.43l.22.92c1.31-.91,2.6-1.81,3.8-2.64l-.75-.44c-1.01.55-2.08,1.14-3.16,1.73h0Z"/>
      <path class="cls-16" d="M14.64,30.21l-.29,2.46.08.31c.33-.33.67-.67,1.01-1,.14-.51.18-.65.31-1.11l-1.11-.65h0Z"/>
      <path class="cls-16" d="M18.77,26.14c0-.09-.02-.18-.03-.27l-.13-.07.16.34Z"/>
      <path class="cls-9" d="M17.6,14.74c-.09-.88-.18-1.75-.27-2.59l-.8,1.66,1.06.94h.01Z"/>
      <path class="cls-5" d="M19.2,32.66l-.02-.31s-.06.04-.09.07l.11.24Z"/>
      <path class="cls-6" d="M18.19,9.2l-.03-.11-1.23-.81c.05.47.1.95.15,1.45l1.1-.53h.01Z"/>
      <polygon class="cls-9" points="19.13 13.16 19.3 11.89 18.75 11.56 19.13 13.16"/>
      <polygon class="cls-8" points="18.27 9.16 18.17 9.09 18.19 9.2 18.27 9.16"/>
      <polygon class="cls-10" points="14.98 7 14.46 6.65 14.36 7.14 14.98 7"/>
      <path class="cls-10" d="M14.14,8.2l.04.58.86.52h0l1.3.8.75-.36c-.05-.5-.1-.98-.15-1.45l-1.32-.87-1.38.27-.11.51h0Z"/>
      <path class="cls-1" d="M19.22,32.89l-.43-.25c-1.2.83-2.5,1.73-3.8,2.64l.08.33,3.87-2.28c.14-.21.14-.22.28-.43h0Z"/>
      <polygon class="cls-5" points="17.88 11.03 18.75 11.56 18.51 10.52 17.95 10.87 17.88 11.03"/>
      <polygon class="cls-1" points="18.38 9.98 18.51 10.52 19.44 9.93 18.65 9.41 18.38 9.98"/>
      <path class="cls-9" d="M14.76,34.36c.06-.21.06-.22.12-.43-.07.04-.13.07-.2.11l.08.32Z"/>
      <path class="cls-10" d="M15.43,31.97c-.25.9-.28.98-.55,1.96,1.08-.59,2.14-1.17,3.16-1.73l-1.79-1.05c-.27.27-.55.55-.82.82Z"/>
      <path class="cls-12" d="M18.8,31.78l.29.64s.06-.04.09-.07l-.04-.77c-.11.06-.23.13-.35.19h.01Z"/>
      <path class="cls-9" d="M17.81,29.6l.99,2.18c.12-.06.23-.13.35-.19l-.16-3.17h0l-1.18,1.18Z"/>
      <polygon class="cls-16" points="14.38 9.34 14.21 9.13 14.23 9.35 14.38 9.34"/>
      <path class="cls-9" d="M18.19,26.99l.8,1.43h0v-.22c-.07-.57-.13-1.15-.19-1.73l-.62.52h.01Z"/>
      <polygon class="cls-15" points="18.51 10.52 18.38 9.98 17.95 10.87 18.51 10.52"/>
      <polygon class="cls-5" points="14.36 11.05 15.39 10.56 14.59 9.59 14.26 9.81 14.36 11.05"/>
      <path class="cls-2" d="M17.09,9.73l-.75.36.84.51c-.03-.29-.06-.58-.09-.87Z"/>
      <path class="cls-9" d="M14.64,30.21l1.11.65c.28-.99.47-1.69.66-2.35l-1.74,1.48-.03.23h0Z"/>
      <polygon class="cls-1" points="17.95 10.87 17.79 10.97 17.88 11.03 17.95 10.87"/>
      <path class="cls-12" d="M16.25,31.15l1.79,1.05c.26-.14.51-.28.76-.42l-.99-2.18c-.52.52-1.04,1.04-1.56,1.56h0Z"/>
      <path class="cls-11" d="M17.09,9.73c.03.29.06.58.09.87l.61.37.16-.1.43-.89-.19-.78s-1.1.53-1.1.53Z"/>
      <path class="cls-4" d="M18.8,31.78c-.25.14-.51.28-.76.42l.75.44c.1-.07.21-.14.31-.21l-.29-.64h0Z"/>
      <path class="cls-11" d="M16.43,11.83l-1.05-1.27-1.03.5.06.76h.03l-.03.03v.11l2.12,1.86.8-1.66c-.03-.28-.06-.56-.09-.83l-.82.52v-.02Z"/>
      <path class="cls-15" d="M17.79,10.97l-.61-.37c.02.23.05.47.07.71l.53-.34h.01Z"/>
      <path class="cls-4" d="M18.79,32.64l.43.25v-.23l-.12-.24c-.1.07-.21.14-.31.21h0Z"/>
      <polygon class="cls-8" points="18.38 9.98 18.65 9.41 18.27 9.16 18.19 9.2 18.38 9.98"/>
      <polygon class="cls-4" points="7.1 29.66 7.4 29.95 7.33 29.55 7.1 29.66"/>
      <polygon class="cls-8" points="3.19 25.85 3.16 25.91 3.3 26.05 3.19 25.85"/>
      <polygon class="cls-8" points="4.03 14.99 3.59 15.36 4.1 15.69 4.03 14.99"/>
      <polygon class="cls-4" points="4.77 16.11 5.24 13.97 4.03 14.99 4.1 15.69 4.77 16.11"/>
      <polygon class="cls-1" points="3.71 26.44 5.07 25.68 4.96 24.58 3.5 25.32 3.19 25.85 3.3 26.05 3.71 26.44"/>
      <polygon class="cls-5" points="8.31 11.33 7.96 10.06 7.85 11.1 8.28 11.36 8.31 11.33"/>
      <polygon class="cls-15" points="6.27 15.62 5.92 15.58 6.2 15.45 5.49 13.76 5.24 13.97 4.77 16.11 6.66 17.31 6.77 16.79 6.27 15.62"/>
      <polygon class="cls-8" points="7.75 31.63 7.98 30.55 7.4 29.95 7.75 31.63"/>
      <polygon class="cls-12" points="6.46 24.88 6.28 23.9 4.96 24.58 5.07 25.68 3.71 26.44 4.88 27.55 6.46 24.88"/>
      <polygon class="cls-7" points="7.12 15.05 7.56 12.9 7.02 12.47 5.49 13.76 6.2 15.45 7.12 15.05"/>
      <polygon class="cls-5" points="7.77 11.84 7.21 12.31 7.64 12.52 7.77 11.84"/>
      <polygon class="cls-9" points="6.77 16.79 6.99 15.7 6.27 15.62 6.77 16.79"/>
      <polygon class="cls-9" points="7.85 11.1 7.77 11.84 8.28 11.36 7.85 11.1"/>
      <polygon class="cls-9" points="6.46 24.88 4.88 27.55 7.1 29.66 7.33 29.55 6.46 24.88"/>
      <polygon class="cls-1" points="4.1 15.69 3.59 15.36 3.26 15.65 3.26 15.65 3.25 15.65 4.33 18.06 4.33 18.06 4.1 15.69"/>
      <path class="cls-9" d="M13.9,30.82l-.7.77-.67,3.28c.58-.58,1.17-1.17,1.78-1.77l.05-.43-.45-1.85h-.01Z"/>
      <path class="cls-8" d="M12.64,35.15l1.12.98c.07-.05.13-.09.2-.14l.2-1.67c-.51.28-1.01.55-1.51.83h0Z"/>
      <polygon class="cls-9" points="6.66 17.31 4.77 16.11 4.33 18.06 4.33 18.06 4.63 18.74 6.54 17.87 6.66 17.31"/>
      <polygon class="cls-1" points="6.28 23.9 6.1 22.9 5.13 22.57 4.82 23.11 4.96 24.58 6.28 23.9"/>
      <polygon class="cls-16" points="4.33 18.06 4.77 16.11 4.1 15.69 4.33 18.06"/>
      <polygon class="cls-12" points="4.82 23.11 3.5 25.32 4.96 24.58 4.82 23.11"/>
      <polygon class="cls-2" points="9.32 33.63 8.76 34.33 9.26 33.39 8.81 31.42 7.98 30.55 7.75 31.63 8.65 35.92 8.65 35.92 8.65 35.92 8.65 35.92 9.65 35.08 9.32 33.63"/>
      <polygon class="cls-4" points="10.05 32.71 9.32 33.63 9.65 35.08 11.14 33.83 10.05 32.71"/>
      <polygon class="cls-1" points="4.63 18.74 5.82 21.41 6.54 17.87 4.63 18.74"/>
      <polygon class="cls-1" points="8.81 31.42 9.26 33.39 9.78 32.42 8.81 31.42"/>
      <polygon class="cls-16" points="5.13 22.57 6.1 22.9 5.82 21.41 5.13 22.57"/>
      <path class="cls-9" d="M13.2,31.59l-2.06,2.24,1.29,1.13s.06-.06.1-.1l.67-3.28h0Z"/>
      <path class="cls-15" d="M18.09,17.51l-.2.02c.01.12.03.25.04.37,0,0,.16-.39.16-.39Z"/>
      <polygon class="cls-5" points="8.78 9.73 8.95 9.13 8.76 8.94 8.97 9.05 9.15 8.38 8.11 8.63 7.99 9.78 8.78 9.73"/>
      <polygon class="cls-2" points="13.19 7.9 13.65 8.45 14.03 8.69 14.14 8.2 14.1 7.72 13.19 7.9"/>
      <polygon class="cls-4" points="14 8.87 13.65 8.45 12.85 7.96 13.1 9.43 13.89 9.38 14 8.87"/>
      <polygon class="cls-1" points="15.89 24.28 18.61 25.79 17.36 23.16 16.02 23.64 15.89 24.28"/>
      <polygon class="cls-11" points="12.75 7.36 12.86 7.5 14.06 7.21 13.99 6.35 13.99 6.35 12.75 7.36"/>
      <polygon class="cls-11" points="13.53 11.08 13.73 10.17 13.27 10.46 13.35 10.9 13.53 11.08"/>
      <path class="cls-7" d="M15.85,18.36l1.6.71.11-.27-.56-1.2.89-.08c-.05-.48-.1-.95-.15-1.42l-2.14,1.16.24,1.09h0Z"/>
      <polygon class="cls-1" points="8.34 11.31 8.56 10.49 7.96 10.05 7.96 10.06 8.31 11.33 8.34 11.31"/>
      <polygon class="cls-5" points="12.85 7.96 13.19 7.9 12.86 7.5 12.77 7.52 12.85 7.96"/>
      <polygon class="cls-16" points="8.95 9.13 8.78 9.73 9.5 9.68 8.95 9.13"/>
      <polygon class="cls-1" points="11.91 9.51 13.1 9.43 12.85 7.96 12.85 7.96 12.85 7.96 12.77 7.52 12.46 7.59 11.09 8.72 11.91 9.51"/>
      <polygon class="cls-16" points="16.43 19.91 16.26 20.23 16.51 21.36 17.45 19.07 15.85 18.36 16.14 19.67 16.43 19.91"/>
      <polygon class="cls-16" points="17.36 23.16 16.51 21.36 16.02 23.64 17.36 23.16"/>
      <polygon class="cls-8" points="8.56 10.49 8.34 11.31 8.93 10.75 8.56 10.49"/>
      <polygon class="cls-11" points="13.27 10.46 13.05 10.61 13.35 10.9 13.27 10.46"/>
      <polygon class="cls-16" points="9.5 9.68 9.78 9.95 10.11 9.64 9.5 9.68"/>
      <polygon class="cls-7" points="11.09 8.72 10.33 8.1 9.15 8.38 8.97 9.05 10.12 9.63 11.09 8.72"/>
      <polygon class="cls-8" points="13.73 10.17 13.53 11.08 13.79 11.33 14.36 11.05 14.26 9.81 13.73 10.17"/>
      <path class="cls-9" d="M15.89,24.28l-.16.73,1.03,2.26c.1-.35.53-1.88.53-1.88l.9,1.6.62-.52c-.01-.11-.02-.22-.03-.33l-.16-.34-2.73-1.51h0Z"/>
      <path class="cls-5" d="M15.37,16.23h0l1.14.55-1.04-.12.13.61,2.14-1.16c-.05-.46-.09-.91-.14-1.37l-1.06-.94-1.17,2.42h0Z"/>
      <polygon class="cls-16" points="14.18 8.78 14.14 8.2 14.03 8.69 14.18 8.78"/>
      <polygon class="cls-7" points="13.9 30.82 14.35 32.67 14.64 30.21 14.52 30.14 13.9 30.82"/>
      <polygon class="cls-4" points="14.23 9.35 14.21 9.13 14 8.87 13.89 9.38 14.23 9.35"/>
      <polygon class="cls-8" points="14.43 11.95 14.42 11.84 14.35 11.87 14.43 11.95"/>
      <polygon class="cls-10" points="14.15 11.68 14.42 11.81 14.36 11.05 13.79 11.33 14.15 11.68"/>
      <polygon class="cls-8" points="15.16 15.27 15.16 15.27 15.37 16.23 16.54 13.8 14.43 11.95 15.16 15.27 15.16 15.27"/>
      <path class="cls-4" d="M16.41,28.5c.1-.35.28-1,.35-1.23l-1.03-2.26-1.06,4.97,1.74-1.48Z"/>
      <polygon class="cls-1" points="14.52 30.14 14.64 30.21 14.67 29.98 14.52 30.14"/>
      <polygon class="cls-11" points="7.38 23.33 6.28 23.9 6.46 24.88 7.38 23.33"/>
      <polygon class="cls-11" points="6.66 17.31 7.11 17.6 6.77 16.79 6.66 17.31"/>
      <polygon class="cls-16" points="8.28 29.09 7.33 29.55 7.4 29.95 7.98 30.55 8.28 29.1 8.28 29.09"/>
      <polygon class="cls-1" points="8.28 11.36 8.32 11.38 8.32 11.37 8.31 11.33 8.28 11.36"/>
      <path class="cls-4" d="M7.34,27.69c.08,0,.61-.2,1.33-.48l-1.33-1.25,1.31-2.86-.13-.36-1.14.59h0l-.92,1.55.86,4.67.95-.46h0l.08-.23c-.65-.66-1.13-1.17-1.03-1.17h.02Z"/>
      <polygon class="cls-9" points="6.99 15.7 6.77 16.79 7.11 17.6 7.12 17.61 7.96 17.93 8.71 15.89 6.99 15.7"/>
      <path class="cls-5" d="M10.82,18.96l-.11-.33-.13.29.19.07s.03-.02.04-.03h.01Z"/>
      <polygon class="cls-11" points="8.71 15.89 9.85 16.02 9.29 14.33 8.71 15.89"/>
      <path class="cls-11" d="M11.1,21.46h-.08l-2.11,1.08-.26.56.93,2.46,1.51-4.11h0Z"/>
      <polygon class="cls-11" points="7.56 12.9 7.12 15.05 9.15 14.16 7.56 12.9"/>
      <polygon class="cls-5" points="8.89 13.12 8.32 11.37 8.32 11.37 8.32 11.38 8.28 11.36 7.77 11.84 7.64 12.52 8.89 13.12"/>
      <polygon class="cls-9" points="6.54 17.87 7.11 17.61 7.11 17.6 6.66 17.31 6.54 17.87"/>
      <polygon class="cls-16" points="7.38 23.33 6.1 22.9 6.28 23.9 7.38 23.33 7.38 23.33"/>
      <polygon class="cls-12" points="13.6 29.6 13.6 29.6 13.6 29.6 13.2 31.59 13.9 30.82 13.6 29.6"/>
      <polygon class="cls-16" points="7.98 30.55 8.81 31.42 8.28 29.1 7.98 30.55"/>
      <path class="cls-10" d="M13.6,29.6h0l-.3-.97-1.95,2.44-.04.66s-.1-.1-.28-.26l-.99,1.24,1.09,1.13,2.06-2.24.41-1.98v-.02Z"/>
      <path class="cls-16" d="M11.13,21.46h-.03l-1.51,4.11.42,1.12c.56-.22,1.14-.46,1.67-.68l.14-2.29s-.69-2.26-.69-2.26Z"/>
      <path class="cls-4" d="M10.58,18.92l-.14.31c.11-.08.23-.16.34-.24l-.19-.07h-.01Z"/>
      <path class="cls-8" d="M10.54,30.99s-.08-.08-.12-.12c-.12.2-.52.86-.52.86,0,0,.35-.8.42-.96-.6-.57-1.35-1.3-1.95-1.91l-.08.23h0l.53,2.33.97,1,.76-1.43h-.01Z"/>
      <path class="cls-5" d="M10.44,19.23c-.91.64-1.85,1.28-2.59,1.74l.23.6c.4-.01.84-.03,1.31-.05l1.05-2.29Z"/>
      <path class="cls-11" d="M7.38,23.33h0l1.14-.59-.45-1.18c-.71.03-1.27.05-1.51.06-.03,0-.06.01-.08.01-.1,0-.06,0,.08-.01.23-.05.7-.3,1.28-.66l-.51-1.35.62-1.69-.85-.32h0l-.57.26-.72,3.54.27,1.49,1.29.43h.01Z"/>
      <path class="cls-10" d="M9.38,21.52l-.47,1.03,2.11-1.08c-.54.02-1.1.04-1.63.06h0Z"/>
      <path class="cls-1" d="M11.48,29.09v.14l.58-1.11c-.29.48-.3.5-.58.97Z"/>
      <path class="cls-5" d="M12.42,25.7c-.23.1-.48.2-.74.31l-.12,1.95c.42-.97.46-1.06.91-2.09l-.05-.16h0Z"/>
      <polygon class="cls-8" points="8.31 11.33 8.32 11.37 8.34 11.31 8.31 11.33"/>
      <polygon class="cls-16" points="15.24 23.92 15.24 23.92 15.89 24.28 16.02 23.64 15.24 23.92"/>
      <polygon class="cls-2" points="14.61 17.81 15.85 18.36 15.6 17.27 14.62 17.8 14.61 17.81"/>
      <polygon class="cls-15" points="13.42 11.31 13.48 11.34 13.53 11.08 13.35 10.9 13.42 11.31"/>
      <polygon class="cls-4" points="9.61 13.46 9.4 14.05 10.14 13.72 9.61 13.46"/>
      <path class="cls-12" d="M10.87,18.92l.9-2.59-1.06,2.3.11.33s.03-.02.05-.04Z"/>
      <polygon class="cls-9" points="11.79 16.24 11.8 16.25 11.8 16.24 11.79 16.24"/>
      <polygon class="cls-16" points="12.61 10.9 10.13 9.64 10.11 9.64 9.78 9.95 11.49 11.64 12.61 10.9"/>
      <polygon class="cls-8" points="9.31 14.28 9.29 14.33 9.85 16.02 11.79 16.24 9.31 14.28"/>
      <polygon class="cls-9" points="12.53 12.67 11.49 11.64 10.79 12.1 11.93 12.93 12.53 12.67"/>
      <polygon class="cls-1" points="9.9 12.69 10.79 12.1 8.93 10.75 8.34 11.31 8.32 11.37 8.32 11.37 8.89 13.12 9.61 13.46 9.9 12.69"/>
      <polygon class="cls-7" points="10.14 13.72 12.31 14.76 12.75 13.52 11.93 12.93 10.14 13.72"/>
      <polygon class="cls-11" points="12.91 13.04 13.13 12.41 12.53 12.67 12.91 13.04"/>
      <path class="cls-1" d="M11.96,21.43c.72-.02,1.35-.05,1.8-.06l.08-3.32-1.71.55-.18,2.83h.01Z"/>
      <polygon class="cls-8" points="13.35 10.9 13.05 10.61 12.61 10.9 13.42 11.31 13.35 10.9"/>
      <path class="cls-16" d="M11.19,21.46l.74.45.03-.48c-.25,0-.51.02-.77.03Z"/>
      <polygon class="cls-6" points="11.91 9.51 11.09 8.72 10.12 9.63 10.13 9.64 11.91 9.51"/>
      <polygon class="cls-16" points="14.53 23.49 15.24 23.92 16.02 23.64 16.51 21.36 16.26 20.23 14.53 23.49"/>
      <polygon class="cls-8" points="14.62 17.8 14.61 17.8 14.01 18 16.14 19.67 15.85 18.36 14.61 17.81 14.62 17.8"/>
      <polygon class="cls-9" points="13.62 11.41 13.79 11.33 13.53 11.08 13.48 11.34 13.62 11.41"/>
      <polygon class="cls-12" points="13.9 30.82 14.52 30.14 13.6 29.6 13.6 29.6 13.9 30.82"/>
      <polygon class="cls-9" points="15.24 23.92 15.24 23.92 15.73 25.01 15.89 24.28 15.24 23.92 15.24 23.92"/>
      <polygon class="cls-4" points="14.62 17.8 15.6 17.27 15.47 16.66 15.18 16.62 14.62 17.8"/>
      <path class="cls-15" d="M11.13,21.46l.69,2.26.11-1.81-.74-.45h-.06Z"/>
      <path class="cls-15" d="M12.26,16.61l.87.68c.46-.34.75-.56.75-.56l-.03,1.13.17.13.6-.19h0l.57-1.18-2.91-.33-.02.31h0Z"/>
      <path class="cls-10" d="M13.12,17.29c-.27.2-.59.43-.95.7l-.04.61,1.71-.55v-.19s-.72-.57-.72-.57Z"/>
      <polygon class="cls-12" points="14.15 11.68 13.79 11.33 13.62 11.41 14.15 11.68"/>
      <path class="cls-4" d="M14.67,29.98l1.06-4.97-.49-1.09h0l-.71-.43-.86,1.61v.08c.13-.05.21-.09.21-.09,0,0-.19.32-.21.36l-.07,2.82-.28.36.3.97.92.54.15-.16h-.02Z"/>
      <path class="cls-9" d="M12.42,25.7l.05.16c.05-.11.05-.12.1-.22-.05.02-.1.04-.15.06Z"/>
      <polygon class="cls-2" points="13.13 12.41 12.91 13.04 15.16 15.27 14.43 11.95 14.35 11.87 13.13 12.41"/>
      <path class="cls-2" d="M12.56,25.64c.45-.18.82-.34,1.05-.43l.06-.11.05-2.1c-.31.71-.6,1.36-1.16,2.64Z"/>
      <polygon class="cls-12" points="12.75 13.52 12.31 14.76 15.37 16.23 15.37 16.23 15.16 15.27 12.75 13.52"/>
      <path class="cls-16" d="M12.26,16.61l-.45-.36-.04.08-.9,2.59c.46-.33.9-.65,1.3-.94l.09-1.38h0Z"/>
      <polygon class="cls-4" points="14.59 9.59 15.04 9.3 15.04 9.3 14.38 9.34 14.59 9.59"/>
      <polygon class="cls-15" points="7.62 9.81 7.96 10.05 7.89 9.79 7.62 9.81"/>
      <polygon class="cls-5" points="6.2 11.83 7.02 12.47 7.21 12.31 6.2 11.83"/>
      <polygon class="cls-12" points="7.99 9.78 7.89 9.79 7.96 10.05 7.96 10.05 7.99 9.78"/>
      <polygon class="cls-2" points="14.26 9.81 14.59 9.59 14.38 9.34 14.23 9.35 14.26 9.81"/>
      <polygon class="cls-5" points="14.44 11.83 14.42 11.81 14.42 11.84 14.44 11.83"/>
      <polygon class="cls-1" points="5.92 15.58 6.27 15.62 6.2 15.45 5.92 15.58"/>
      <polygon class="cls-9" points="6.2 15.45 6.27 15.62 6.99 15.7 7.12 15.05 6.2 15.45"/>
      <polygon class="cls-9" points="7.64 12.52 7.21 12.31 7.02 12.47 7.56 12.9 7.64 12.52"/>
      <polygon class="cls-9" points="8.76 34.33 9.32 33.63 9.26 33.39 8.76 34.33"/>
      <polygon class="cls-4" points="9.78 32.42 9.26 33.39 9.32 33.63 10.05 32.71 9.78 32.42"/>
      <polygon class="cls-12" points="13.73 10.17 13.89 9.38 13.1 9.43 13.27 10.46 13.73 10.17"/>
      <polygon class="cls-10" points="8.56 10.49 8.78 9.73 7.99 9.78 7.96 10.05 8.56 10.49"/>
      <polygon class="cls-9" points="8.76 8.94 8.95 9.13 8.97 9.05 8.76 8.94"/>
      <polygon class="cls-15" points="10.11 9.64 10.12 9.63 8.97 9.05 8.95 9.13 9.5 9.68 10.11 9.64"/>
      <polygon class="cls-12" points="13.27 10.46 13.1 9.43 11.91 9.51 13.05 10.61 13.27 10.46"/>
      <polygon class="cls-2" points="8.93 10.75 9.78 9.95 9.5 9.68 8.78 9.73 8.56 10.49 8.93 10.75"/>
      <polygon class="cls-11" points="16.43 19.91 16.14 19.67 16.26 20.23 16.43 19.91"/>
      <polygon class="cls-9" points="14.23 9.35 13.89 9.38 13.73 10.17 14.26 9.81 14.23 9.35"/>
      <polygon class="cls-7" points="16.51 16.77 15.37 16.23 15.47 16.66 16.51 16.77"/>
      <polygon class="cls-16" points="14.35 11.87 14.42 11.84 14.42 11.81 14.15 11.68 14.35 11.87"/>
      <path class="cls-5" d="M9.58,25.57l-.93-2.46-1.31,2.86,1.33,1.25c.11-.04.23-.09.35-.14,0,0,.56-1.51.56-1.51Z"/>
      <polygon class="cls-15" points="9.23 14.12 8.89 13.12 7.64 12.52 7.56 12.9 9.15 14.16 9.23 14.12"/>
      <path class="cls-12" d="M8.67,27.21c-.73.28-1.26.48-1.33.48-.1,0,.37.51,1.03,1.17l.53-1.44-.22-.21h0Z"/>
      <path class="cls-12" d="M8.67,27.21l.22.21.13-.35c-.12.05-.24.09-.35.14Z"/>
      <polygon class="cls-16" points="9.27 14.25 9.15 14.16 7.12 15.05 6.99 15.7 8.71 15.89 9.29 14.33 9.27 14.25"/>
      <path class="cls-16" d="M11.02,21.46h.08l.02-.05-.1.05Z"/>
      <polygon class="cls-1" points="9.15 14.16 9.27 14.25 9.23 14.12 9.15 14.16"/>
      <path class="cls-4" d="M10.77,18.99l.06.02-.02-.06s-.03.02-.04.03h0Z"/>
      <polygon class="cls-12" points="10.71 18.63 9.85 16.02 8.71 15.89 7.96 17.93 10.58 18.92 10.71 18.63"/>
      <polygon class="cls-8" points="8.91 22.55 8.52 22.75 8.65 23.11 8.91 22.55"/>
      <path class="cls-10" d="M11.11,21.41l-.28-2.4-.06-.02c-.11.08-.23.16-.34.24l-1.05,2.29c.53-.02,1.09-.04,1.63-.06,0,0,.1-.05.1-.05Z"/>
      <path class="cls-7" d="M9.03,27.07l-.13.35,2.05,1.92s.02-.05.03-.07l-.97-2.59c-.34.14-.67.27-.98.39Z"/>
      <path class="cls-16" d="M11.55,27.95c-.27.61-.37.84-.58,1.32l.06.16-.09-.08c-.22.51-.52,1.19-.63,1.43.03.03.07.06.1.09.24-.4.56-.93,1.07-1.78l.07-1.14Z"/>
      <path class="cls-6" d="M8.9,27.42l-.53,1.44c.6.61,1.35,1.34,1.95,1.91.11-.24.41-.93.63-1.43l-2.05-1.92Z"/>
      <path class="cls-12" d="M11.36,31.07l.11-1.84-.94,1.76c.2.19.37.36.5.48l.32-.4h.01Z"/>
      <path class="cls-16" d="M10.54,30.99l-.76,1.43.28.29.99-1.24c-.13-.13-.31-.29-.5-.48h0Z"/>
      <path class="cls-12" d="M11.48,29.09c-.51.85-.83,1.38-1.07,1.78.04.04.08.08.12.12l.94-1.76v-.14h.01Z"/>
      <path class="cls-8" d="M10,26.68l.97,2.59c.21-.48.31-.71.58-1.32l.12-1.95c-.54.22-1.12.46-1.67.68Z"/>
      <path class="cls-5" d="M12.76,26.82l-.29-.95c-.45,1.03-.49,1.12-.91,2.09l-.07,1.14c.28-.46.29-.49.58-.97l.69-1.31Z"/>
      <path class="cls-6" d="M9.38,21.52c-.47.02-.91.03-1.31.05l.45,1.18.39-.2s.47-1.03.47-1.03Z"/>
      <path class="cls-11" d="M10.58,18.92l-2.62-.99-.62,1.69.51,1.35c.74-.46,1.68-1.09,2.59-1.74,0,0,.14-.31.14-.31Z"/>
      <path class="cls-6" d="M12.06,28.12l-.59,1.11-.11,1.84,1.95-2.44-.52-1.71c-.29.48-.36.61-.72,1.21h-.01Z"/>
      <path class="cls-10" d="M11.03,29.43l-.06-.16s-.02.05-.03.07l.09.08h0Z"/>
      <path class="cls-16" d="M12.06,28.12c.36-.6.44-.73.72-1.21l-.03-.1s-.69,1.31-.69,1.31Z"/>
      <path class="cls-7" d="M11.67,26.01c.26-.11.51-.21.74-.31l-.6-1.98s-.14,2.29-.14,2.29Z"/>
      <path class="cls-16" d="M11.11,21.41l-.02.05h.03v-.05h0Z"/>
      <path class="cls-4" d="M9.03,27.07c.31-.12.64-.25.98-.39l-.42-1.12-.56,1.51Z"/>
      <path class="cls-7" d="M6.56,21.63c.24-.01.8-.03,1.51-.06l-.23-.6c-.59.36-1.05.61-1.28.66Z"/>
      <path class="cls-8" d="M11.32,31.73l.04-.66-.32.4c.17.17.28.26.28.26Z"/>
      <path class="cls-10" d="M9.9,31.73s.4-.67.52-.86c-.03-.03-.06-.06-.1-.09-.07.16-.42.96-.42.96h0Z"/>
      <path class="cls-4" d="M6.49,21.64s.05,0,.08-.01c-.14,0-.18.01-.08.01Z"/>
      <polygon class="cls-16" points="13.42 11.31 13.45 11.49 13.45 11.49 13.48 11.34 13.42 11.31"/>
      <polygon class="cls-4" points="13.13 12.41 13.45 11.5 13.45 11.49 13.45 11.49 13.42 11.31 12.61 10.9 11.49 11.64 12.53 12.67 13.13 12.41"/>
      <polygon class="cls-9" points="11.93 12.93 12.75 13.52 12.91 13.04 12.53 12.67 11.93 12.93"/>
      <path class="cls-15" d="M11.93,21.91l1.79,1.09.04-1.63c-.45.01-1.09.04-1.8.06l-.03.48Z"/>
      <polygon class="cls-9" points="11.93 12.93 10.79 12.1 9.9 12.69 9.61 13.46 10.14 13.72 11.93 12.93"/>
      <path class="cls-1" d="M13.72,23c.19-.44.72-1.65.72-1.65,0,0-.26,0-.68.02l-.04,1.63h0Z"/>
      <path class="cls-16" d="M10.82,18.96l.02.06.03-.09s-.03.02-.05.04h0Z"/>
      <polygon class="cls-4" points="9.23 14.12 9.27 14.25 9.31 14.28 9.4 14.05 9.23 14.12"/>
      <path class="cls-8" d="M16.14,19.67l-2.12-1.68-.17.05-.08,3.32c.42-.01.68-.02.68-.02,0,0-.53,1.21-.72,1.65l.81.49,1.73-3.26-.12-.56h-.01Z"/>
      <polygon class="cls-8" points="9.29 14.33 9.31 14.28 9.27 14.25 9.29 14.33"/>
      <polygon class="cls-8" points="11.49 11.64 9.78 9.95 8.93 10.75 10.79 12.1 11.49 11.64"/>
      <polygon class="cls-8" points="12.61 10.9 13.05 10.61 11.91 9.51 10.13 9.64 12.61 10.9"/>
      <polygon class="cls-8" points="9.4 14.05 9.61 13.46 8.89 13.12 9.23 14.12 9.4 14.05"/>
      <polygon class="cls-16" points="10.12 9.63 10.11 9.64 10.13 9.64 10.12 9.63"/>
      <polygon class="cls-1" points="12.31 14.76 10.14 13.72 9.4 14.05 9.31 14.28 11.79 16.24 11.8 16.24 12.31 14.76"/>
      <path class="cls-15" d="M11.96,21.43l.18-2.83-1.3.42.28,2.4.07.04c.26,0,.52-.02.77-.03Z"/>
      <polygon class="cls-6" points="11.8 16.25 11.79 16.24 9.85 16.02 10.71 18.63 11.77 16.33 11.8 16.25"/>
      <polygon class="cls-11" points="15.18 16.62 15.47 16.66 15.37 16.23 15.37 16.23 15.18 16.62"/>
      <polygon class="cls-5" points="13.48 11.34 13.45 11.49 13.62 11.41 13.48 11.34"/>
      <path class="cls-7" d="M11.19,21.46l-.07-.04v.05h.07Z"/>
      <path class="cls-8" d="M12.76,26.82l.03.1c.35-.58.78-1.31.87-1.46v-.27s-.03.01-.05.02l-.86,1.61h.01Z"/>
      <path class="cls-9" d="M12.56,25.64q-.05.11-.1.22l.29.95.86-1.61c-.23.1-.6.25-1.05.43h0Z"/>
      <polygon class="cls-15" points="11.8 16.25 11.77 16.33 11.81 16.25 11.8 16.25"/>
      <path class="cls-5" d="M13.72,23h0l-1.79-1.09-.11,1.81.6,1.98c.05-.02.1-.04.15-.06.56-1.28.85-1.93,1.16-2.64h-.01Z"/>
      <path class="cls-5" d="M13.88,25.1s-.08.03-.21.09v.27l.21-.36Z"/>
      <polygon class="cls-1" points="13.45 11.49 13.45 11.5 13.13 12.41 14.35 11.87 14.15 11.68 13.62 11.41 13.45 11.49"/>
      <polygon class="cls-9" points="13.72 23 13.67 25.1 14.53 23.49 13.72 23 13.72 23"/>
      <path class="cls-16" d="M13.67,25.18v-.08l-.05.11s.04-.02.05-.02h0Z"/>
      <polygon class="cls-5" points="12.35 15.06 11.81 16.24 12.28 16.3 12.35 15.06"/>
      <polygon class="cls-4" points="11.81 16.24 11.81 16.25 12.26 16.61 12.28 16.3 11.81 16.24"/>
      <path class="cls-1" d="M12.26,16.61l-.09,1.38c.36-.26.68-.5.95-.7l-.87-.68h.01Z"/>
      <path class="cls-12" d="M13.88,16.73s-.29.22-.75.56l.73.57.03-1.13h-.01Z"/>
      <polygon class="cls-1" points="13.84 18.05 14.01 18 13.85 17.86 13.84 18.05"/>
      <path class="cls-5" d="M12.17,17.99c-.4.29-.84.61-1.3.94l-.03.09,1.3-.42.04-.61h-.01Z"/>
      <polygon class="cls-9" points="15.16 15.27 15.16 15.27 12.91 13.04 12.75 13.52 15.16 15.27"/>
      <polygon class="cls-4" points="11.81 16.24 12.35 15.06 12.28 16.3 15.18 16.62 15.37 16.23 12.31 14.76 11.8 16.24 11.81 16.24"/>
      <path class="cls-12" d="M13.66,25.46c-.09.15-.53.88-.87,1.46l.52,1.71.28-.36.07-2.82h0Z"/>
    </g>
  </g>
</svg>