<?xml version="1.0" encoding="UTF-8"?>
<svg id="Layer_2" data-name="Layer 2" xmlns="http://www.w3.org/2000/svg" viewBox="0 0 30.14 41.61">
  <defs>
    <style>
      .cls-1 {
        mix-blend-mode: overlay;
        opacity: .43;
      }

      .cls-1, .cls-2 {
        isolation: isolate;
      }

      .cls-1, .cls-3 {
        fill: #fff;
      }

      .cls-4 {
        fill: #282b2d;
      }

      .cls-5 {
        fill: #e7e7f9;
      }

      .cls-6 {
        fill: #c4c6c9;
      }

      .cls-7 {
        fill: #b5d4e5;
      }

      .cls-8 {
        fill: #a8a7ab;
      }

      .cls-9 {
        fill: #706e6a;
      }

      .cls-10 {
        fill: #d1cbd8;
      }

      .cls-11 {
        fill: #505d63;
      }

      .cls-12 {
        fill: #d5d6de;
      }

      .cls-13 {
        fill: #fdfefa;
      }

      .cls-14 {
        fill: #c7c7c6;
      }

      .cls-15 {
        fill: #c7c6cd;
      }
    </style>
  </defs>
  <g id="Layer_1-2" data-name="Layer 1">
    <g class="cls-2">
      <g id="Layer_2-2" data-name="Layer 2">
        <g id="uuid-f08ad06f-7f14-47d6-803d-b3f0d5905300" data-name="Layer 1-2">
          <g>
            <g>
              <path class="cls-9" d="M25.09,5.28l-.03-.07h-.03s.04.05.06.07Z"/>
              <path class="cls-7" d="M29.88,17.01c-.04-.27-.04-.3,0,0h0Z"/>
              <path class="cls-4" d="M.09,18.59H.09s0,.09,0,.14H.08s0-.13,0-.14Z"/>
              <path class="cls-14" d="M15.64,41.59c-.16,0-.31,0-.47,0-.04,0,.22,0,.47,0Z"/>
              <path class="cls-9" d="M8.03,2.42s-.06.04-.09.07h.01s.05-.04.08-.06h0Z"/>
              <path class="cls-14" d="M8.64,36.5l-1.67,1.83c-.76-.67-1.48-1.44-2.14-2.29h0c.98,1.27,2.09,2.35,3.29,3.22.24-.78.51-1.68.8-2.67-.09-.03-.19-.06-.28-.08h0Z"/>
              <path class="cls-4" d="M10,40.4c.81.4,1.65.7,2.52.91-.86-.21-1.7-.52-2.51-.92h-.01Z"/>
              <path class="cls-3" d="M9.91,1.27h0c-.51.25-1.01.55-1.5.89h0c.49-.33.99-.63,1.5-.89Z"/>
              <path class="cls-13" d="M23.44,3.53h0c-1.33-1.23-2.8-2.17-4.38-2.77h0c1.58.6,3.05,1.54,4.38,2.77Z"/>
              <path class="cls-9" d="M25.02,5.21s.04.05.06.08h0s-.04-.05-.06-.08h0Z"/>
              <path class="cls-14" d="M4.82,5.58h0s-.08.1-.13.16h0s.08-.1.12-.16h.01Z"/>
              <path class="cls-11" d="M24.53,36.99h0c.07-.08.14-.15.21-.23h0c-.07.08-.14.16-.2.23h0Z"/>
              <path class="cls-10" d="M4.7,5.75h0c-.21.27-.42.56-.63.86h.01c.2-.3.4-.58.62-.86Z"/>
              <path class="cls-7" d="M18.71.63h0c-.82-.28-1.67-.47-2.53-.56h0c.87.09,1.71.28,2.53.56Z"/>
              <path class="cls-13" d="M14.23,41.58c.28.02.56.03.84.03h0c-.28,0-.56,0-.84-.03Z"/>
              <path class="cls-9" d="M8.03,2.44h0s-.05.03-.08.05h.01s.05-.03.07-.05Z"/>
              <path class="cls-12" d="M8.56,6.75c-.02-.15-.04-.29-.05-.44l-3.07.2.59.62,2.54-.39h-.01Z"/>
              <polygon class="cls-3" points="5.08 6.54 4.82 6.56 4.82 7.32 5.4 7.23 5.08 6.54"/>
              <path class="cls-4" d="M4.82,6.01l-.12-.26c-.21.28-.42.57-.62.86l.74-.05s0-.55,0-.55Z"/>
              <path class="cls-3" d="M4.82,5.58c-.04.05-.08.11-.12.16l.12.13v-.29Z"/>
              <path class="cls-14" d="M9.48,1.51h0c.18-.1.33-.18.45-.24h0c-.51.25-1.02.55-1.5.88h0c.35-.23.7-.45,1.06-.65h-.01Z"/>
              <path class="cls-14" d="M8.56,6.76h0s-2.54.38-2.54.38l.02.02,2.51-.4h.01Z"/>
              <polygon class="cls-14" points="5.42 7.26 5.4 7.23 4.82 7.32 4.82 7.36 5.42 7.26"/>
              <path class="cls-13" d="M4.82,36.04c.66.85,1.38,1.61,2.14,2.29l1.67-1.83c-1.28-.39-2.56-.78-3.81-1.17v.71Z"/>
              <path class="cls-5" d="M.09,18.59c0,.17,0,.16,0,0H.09Z"/>
              <polygon class="cls-4" points="8.99 14.84 8.89 14.61 6.91 13.89 5.58 14.38 6.31 15.3 8.88 15.2 8.99 14.84"/>
              <polygon class="cls-10" points="5.37 15.34 7.01 16.19 6.31 15.3 5.37 15.34"/>
              <path class="cls-3" d="M8.03,2.44s-.05.03-.07.05h.08v-.05h-.01Z"/>
              <path class="cls-3" d="M9.77,2.61l-.3-1.1c-.36.2-.71.42-1.06.65l.4.38.96.06h0Z"/>
              <path class="cls-13" d="M9.93,1.28h0c-.52.26-.63.32,0,0Z"/>
              <path class="cls-14" d="M6.05,7.16l2.96,3.12c-.15-1.19-.3-2.37-.44-3.52l-2.51.4h-.01Z"/>
              <polygon class="cls-13" points="6.91 13.89 4.82 13.13 4.82 13.42 5.58 14.38 6.91 13.89"/>
              <path class="cls-3" d="M8.84,17.15l1.14.6c-.04-.26-.07-.52-.11-.78l-1.04.19h0Z"/>
              <path class="cls-5" d="M10.7,22.91l.17-.29-.2.11c0,.06.02.12.03.18Z"/>
              <polygon class="cls-12" points="5.42 7.26 4.82 7.36 4.82 8.14 6.9 10.42 5.42 7.26"/>
              <polygon class="cls-4" points="8.99 14.84 8.88 15.2 9.16 15.19 8.99 14.84"/>
              <polygon class="cls-5" points="4.69 5.73 4.7 5.74 4.7 5.74 4.69 5.73"/>
              <polygon class="cls-8" points="5.4 7.23 6.02 7.14 5.44 6.52 5.08 6.54 5.4 7.23"/>
              <polygon class="cls-9" points="4.82 5.87 4.7 5.74 4.7 5.74 4.82 6.01 4.82 5.87"/>
              <polygon class="cls-12" points="6.02 7.14 5.4 7.23 5.42 7.26 6.05 7.16 6.02 7.14"/>
              <path class="cls-15" d="M9.35,12.99l-.07.03.09.1s-.01-.08-.02-.12h0Z"/>
              <polygon class="cls-8" points="8.89 14.61 8.99 14.84 9.05 14.67 8.89 14.61"/>
              <path class="cls-3" d="M9.37,13.11c.02.14.04.28.05.42l.09-.26-.14-.15h0Z"/>
              <path class="cls-14" d="M10.34,15.14l.85-.03-1.68-1.84-.09.26c.06.45.12.9.18,1.34,0,0,.74.27.74.27Z"/>
              <path class="cls-3" d="M12.63,23.33l-.92-1.17-.84.46-.17.29c.05.34.1.67.15,1,.59-.18,1.18-.36,1.78-.54v-.03h0Z"/>
              <path class="cls-6" d="M14.79,20.52h0v-.02s-1.62.87-1.62.87c-.18.66-.36,1.31-.53,1.96l.02.03c.43-.13.87-.26,1.31-.39l.83-2.44h-.01Z"/>
              <path class="cls-10" d="M14.78,20.49l-.63-2.13-.13-.14c-.14.53-.29,1.06-.43,1.59l1.18.69h.01Z"/>
              <path class="cls-3" d="M9.28,13.02l.07-.03c-.12-.91-.23-1.81-.35-2.71l-2.96-3.12-.63.1,1.49,3.15,2.38,2.6h0Z"/>
              <path class="cls-3" d="M9.64,15.17c-.01-.1-.03-.2-.04-.3l-.55-.2-.06.17.16.35.48-.02h.01Z"/>
              <path class="cls-13" d="M15.17,41.61c.34,0,.39,0,.56-.02-.19,0-.37.02-.56.02Z"/>
              <path class="cls-3" d="M15.75,41.59c.06,0,.13,0,.19-.02-.08,0-.27.02-.19.02Z"/>
              <path class="cls-14" d="M12.26,38.73c-.83.61-1.59,1.17-2.25,1.66,1.7.85,3.41,1.22,5.05,1.22-1.71-2.21-1.05-1.55-2.8-2.88Z"/>
              <polygon class="cls-8" points="13.65 39.78 14.61 41.01 13.66 39.79 13.65 39.78"/>
              <path class="cls-13" d="M15.09,41.58l-.02.02h.02v-.02Z"/>
              <path class="cls-6" d="M.12,18.73l-.03-.13c0,.1,0,.02,0,.14h.04Z"/>
              <path class="cls-4" d="M15.45,41.14l-.35.43v.03c.35,0,.68-.02.91-.04l-.55-.42h-.01Z"/>
              <polygon class="cls-9" points="15.07 41.61 15.07 41.61 14.61 41.01 15.07 41.61"/>
              <path class="cls-10" d="M14.99,40.8l-1.33-1.01c1.14,1.47.83,1.07,1.41,1.82h0l.02-.02-.1-.79Z"/>
              <polygon class="cls-3" points="15.1 41.58 15.45 41.14 15.16 40.93 15.1 41.58"/>
              <polygon class="cls-3" points="4.82 15.96 4.82 17.88 5.59 17.74 4.82 15.96"/>
              <polygon class="cls-6" points="7.89 17.32 7.01 16.19 5.37 15.34 4.82 15.36 4.82 15.96 5.59 17.74 7.89 17.32"/>
              <polygon class="cls-12" points="8.2 17.26 7.89 17.32 8.1 17.58 8.2 17.26"/>
              <path class="cls-9" d="M9.98,17.74l-1.14-.6-.64.12-.1.31.62.79,1.31-.26c-.02-.12-.03-.24-.05-.36Z"/>
              <path class="cls-12" d="M10.87,22.62l-.22-.05s.02.11.02.16l.2-.11Z"/>
              <polygon class="cls-4" points="15.09 41.58 15.09 41.61 15.09 41.61 15.1 41.58 15.09 41.58"/>
              <polygon class="cls-14" points="14.99 40.8 15.09 41.58 15.1 41.58 15.16 40.93 14.99 40.8"/>
              <path class="cls-14" d="M8.72,18.36l1.63,2.07c-.11-.76-.21-1.54-.32-2.33,0,0-1.31.26-1.31.26Z"/>
              <path class="cls-15" d="M11.71,22.16l-1.36-1.73c.1.73.2,1.44.3,2.13l.22.05.84-.46h0Z"/>
              <path class="cls-14" d="M13.59,19.81c-.14.52-.28,1.04-.42,1.56l1.61-.87-1.18-.69h0Z"/>
              <path class="cls-12" d="M13.96,22.96c.49-.15.97-.29,1.46-.44l-.63-2.01-.83,2.44h0Z"/>
              <path class="cls-15" d="M14.78,20.49h0v.02s.01-.01.01-.02h-.01Z"/>
              <path class="cls-3" d="M27.36,32.83c.19-.37.19-.38,0,0h0Z"/>
              <path class="cls-15" d="M28.08,31.29h0c-.1.22-.08.2,0,0Z"/>
              <path class="cls-15" d="M29.39,14.38h0c-.07-.31-.15-.62-.23-.92h0c.08.3.16.61.23.92Z"/>
              <path class="cls-14" d="M29.77,16.27h0c.12.73.11.67,0,0Z"/>
              <path class="cls-14" d="M29.87,17.01h0c-.05-.34-.04-.3,0,0Z"/>
              <path class="cls-6" d="M24.53,36.99h0c.07-.08.14-.16.2-.23h0c-.07.08-.13.16-.2.23Z"/>
              <path class="cls-14" d="M27.35,32.83h0c.31-.61.51-1.05.72-1.54h0c-.22.52-.51,1.12-.72,1.54Z"/>
              <path class="cls-6" d="M19.19,5.6l.67-.04.75-2.22-2.57-.17c-.06.21-.11.43-.17.65l1.32,1.79h0Z"/>
              <path class="cls-14" d="M25.09,5.3v-.02s-.05-.05-.07-.08h0s.05.06.07.09h0Z"/>
              <path class="cls-6" d="M17.36,3.12l.68.05c.23-.89.46-1.74.67-2.53-.82-.28-1.67-.47-2.53-.55l1.14,2.99.04.05h0Z"/>
              <path class="cls-5" d="M21.14,1.78c.74.45,1.44.98,2.1,1.57l.18.17h.02c-1.32-1.22-2.8-2.16-4.38-2.76l1.6,2.4.47-1.38h0Z"/>
              <path class="cls-8" d="M29.39,14.38h0c-.07-.31-.15-.62-.23-.92h0c.08.3.16.61.24.92h-.01Z"/>
              <path class="cls-15" d="M29.77,16.27h0q.02.11,0,0Z"/>
              <path class="cls-14" d="M9.48,1.51h0s.02,0,0,0Z"/>
              <path class="cls-12" d="M25.1,5.32h0s-.05-.08-.07-.11h0s.07.09.09.11h-.02Z"/>
              <path class="cls-12" d="M16.56,8.74c.18-.69.36-1.37.54-2.04l-1.17-.89h-.15l.39,3.23.39-.31h0Z"/>
              <path class="cls-13" d="M27.35,32.83c.11-.22.12-.24,0,0h0Z"/>
              <path class="cls-5" d="M18.15,7.49l.66-.52-.5-1.31-.94.06c-.09.32-.17.65-.26.98,0,0,1.04.79,1.04.79Z"/>
              <polygon class="cls-10" points="28.63 15.14 28.47 14.69 28.35 14.71 28.63 15.14"/>
              <polygon class="cls-4" points="14.23 5.93 12.48 6.05 14.01 7.5 14.23 5.93"/>
              <polygon class="cls-12" points="29 15.69 28.63 15.14 28.77 15.51 29 15.69"/>
              <path class="cls-14" d="M29,15.69l.88,1.32c-.03-.24-.01-.15-.11-.74,0,0-.77-.58-.77-.58Z"/>
              <polygon class="cls-10" points="17.36 3.12 17.32 3.07 17.34 3.12 17.36 3.12"/>
              <path class="cls-9" d="M19.19,5.6l-1.32-1.79c-.04.14-.07.27-.11.41l.55,1.43.88-.06h0Z"/>
              <path class="cls-13" d="M23.63,22.17l.58,1.12c.2-.18.4-.37.6-.55l-.29-.75-.9.19h.01Z"/>
              <polygon class="cls-15" points="18.99 8.13 19.11 7.77 18.81 6.97 18.15 7.49 18.99 8.13"/>
              <path class="cls-3" d="M17.78,11.7l.15-.44-1.63-1.55s-.02.09-.04.14l.12.95,1.4.91h0Z"/>
              <path class="cls-9" d="M16.31,9.7c.09-.32.17-.64.26-.96l-.39.31.07.59s.06.06.06.06Z"/>
              <polygon class="cls-8" points="22.27 18.92 23.47 19.21 22.44 16.5 21.57 16.93 22.27 18.92"/>
              <path class="cls-4" d="M22.52,22.4l-.64,2.16.58.32c.58-.53,1.17-1.07,1.75-1.6l-.58-1.12-1.11.23h0Z"/>
              <path class="cls-9" d="M11.88,2.75l-1.95-1.47c-.14.07-.31.15-.45.23l.3,1.1s2.1.14,2.1.14Z"/>
              <polygon class="cls-4" points="21.88 24.56 22.52 22.4 19.23 23.09 21.88 24.56"/>
              <polygon class="cls-14" points="22.27 18.92 21.57 16.93 19.09 18.15 22.27 18.92"/>
              <polygon class="cls-3" points="16.39 10.79 16.84 14.49 17.78 11.7 16.39 10.79"/>
              <path class="cls-13" d="M23.24,3.35s.1.09.15.14l-.15-.14Z"/>
              <polygon class="cls-15" points="28.35 14.71 28.47 14.69 28.37 14.42 28.16 14.43 28.35 14.71"/>
              <path class="cls-14" d="M28.11,13.69l.26.73,1.02-.04c-.07-.31-.15-.62-.24-.92l-.9.16-.14.07Z"/>
              <path class="cls-4" d="M25.1,5.32h0q-.1-.13,0,0Z"/>
              <polygon class="cls-8" points="15.87 9.28 16.17 9.05 15.78 5.83 14.23 5.93 14.01 7.5 15.87 9.28"/>
              <polygon class="cls-6" points="23.48 19.93 23.78 20.03 23.79 20.03 23.64 19.63 23.48 19.93"/>
              <path class="cls-3" d="M16.27,9.84c-.07.25-.13.5-.2.75l.32.2s-.12-.95-.12-.95Z"/>
              <polygon class="cls-13" points="16.17 9.05 15.87 9.28 16.25 9.64 16.17 9.05"/>
              <path class="cls-3" d="M23.36,20.16l-.39.73.66,1.28.9-.19-.74-1.94h-.01c-.14.04-.28.08-.42.12Z"/>
              <polygon class="cls-12" points="22.5 19.57 23.48 19.93 23.64 19.63 23.47 19.21 22.27 18.92 22.5 19.57"/>
              <polygon class="cls-4" points="22.52 22.4 23.63 22.17 22.97 20.89 22.52 22.4"/>
              <path class="cls-10" d="M22.97,20.89l.39-.73c-.19.06-.39.11-.58.17l.2.56h-.01Z"/>
              <polygon class="cls-3" points="14.15 18.36 14.78 20.49 14.8 20.48 15.15 19.45 14.15 18.36"/>
              <path class="cls-13" d="M15.93,17.18l.48-1.4-1.81.33c-.05.18-.1.36-.14.53l1.48.54h-.01Z"/>
              <path class="cls-15" d="M16.84,14.49l-.45-3.7-.32-.2c-.38,1.43-.77,2.9-1.17,4.38l1.8-.07.13-.4h.01Z"/>
              <path class="cls-5" d="M14.8,20.48v.04l2.49,1.45s.08-.02.12-.03l-1.75-1.92s-.86.46-.86.46Z"/>
              <path class="cls-12" d="M22.77,20.33c-1.77.53-3.57,1.06-5.36,1.6l.2.22,1.62.94,3.29-.69.45-1.51-.2-.56Z"/>
              <polygon class="cls-10" points="18.9 18.26 22.5 19.57 22.27 18.92 19.09 18.15 18.9 18.26"/>
              <polygon class="cls-6" points="20.62 5.5 21.66 4.65 20.79 3.35 20.61 3.34 19.86 5.55 20.62 5.5"/>
              <path class="cls-15" d="M23.42,3.52s-.04-.04,0,0h0Z"/>
              <path class="cls-13" d="M27.76,31.98c.11-.23.21-.47.31-.7h0c-.1.23-.2.47-.31.7Z"/>
              <path class="cls-6" d="M23.06,3.5l.18-.14h0c-.67-.6-1.37-1.13-2.1-1.57l-.47,1.38.12.18s2.27.15,2.27.15Z"/>
              <path class="cls-4" d="M24.53,36.99c.07-.08.14-.16.2-.23l-1.5-.68,1.29.92h.01Z"/>
              <path class="cls-12" d="M26.31,31.68l1.04,1.14c.31-.61.5-1.01.72-1.55l-1.29-3.38c-.26.19-.52.39-.78.58,0,0,.31,3.21.31,3.21Z"/>
              <path class="cls-15" d="M25.01,5.21h0s.01.01,0,0Z"/>
              <polygon class="cls-6" points="19.02 12.5 19.13 12.39 17.93 11.25 17.78 11.7 19.02 12.5"/>
              <path class="cls-8" d="M26.31,31.68l-.31-3.21c-.52.39-1.04.78-1.55,1.17,0,0,1.86,2.04,1.86,2.04Z"/>
              <polygon class="cls-12" points="19.11 7.77 18.99 8.13 19.35 8.4 19.11 7.77"/>
              <path class="cls-3" d="M22.47,24.88l-.58-.32-.35,1.18c.31-.28.62-.57.93-.86Z"/>
              <polygon class="cls-8" points="21.04 14.72 21.54 14.7 21.22 14.39 21.04 14.72"/>
              <polygon class="cls-13" points="20.9 14.96 20.89 14.98 21.57 16.93 22.44 16.5 21.87 15.01 21.67 14.82 20.9 14.96"/>
              <polygon class="cls-4" points="21.54 14.7 21.67 14.82 21.79 14.8 21.75 14.69 21.54 14.7"/>
              <polygon class="cls-3" points="21.57 16.93 20.89 14.98 19.09 18.15 21.57 16.93"/>
              <path class="cls-8" d="M21.18,26.06c.12-.11.23-.21.35-.32l.35-1.18-2.65-1.47c1.34,2.47.9,1.82,1.95,2.97Z"/>
              <polygon class="cls-12" points="17.78 11.7 16.84 14.49 19.02 12.5 17.78 11.7"/>
              <path class="cls-5" d="M23.41,3.52h0c-.06-.05-.13-.12-.18-.17h0c.06.05.12.11.18.17Z"/>
              <polygon class="cls-12" points="28.11 13.69 28.26 13.62 28.1 13.65 28.11 13.69"/>
              <polygon class="cls-6" points="27.69 13.73 28.1 13.65 26.5 9.2 26.31 11.64 27.69 13.73"/>
              <path class="cls-5" d="M23.23,3.35l-.18.14.36.02c-.06-.06-.12-.11-.18-.17h0Z"/>
              <polygon class="cls-7" points="21.66 4.65 20.62 5.5 22.16 5.4 21.66 4.65"/>
              <path class="cls-8" d="M23.13,6.87l1.71.3.69-.63-.44-1.21c-.05-.06-.03-.04-.09-.11l-2.86.19.98,1.47h.01Z"/>
              <polygon class="cls-6" points="26.31 11.64 26.49 9.19 26.49 9.19 26.31 11.64"/>
              <polygon class="cls-15" points="25.82 7.34 25.59 6.69 25.28 7.24 25.82 7.34"/>
              <polygon class="cls-12" points="24.85 7.17 23.13 6.87 23.9 8.03 24.85 7.17"/>
              <polygon class="cls-4" points="24.4 8.78 26.31 11.64 26.49 9.2 25.82 7.34 25.28 7.24 24.4 8.78"/>
              <polygon class="cls-14" points="19.71 12.94 19.13 12.39 19.02 12.5 19.71 12.94"/>
              <polygon class="cls-4" points="20.89 14.98 20.9 14.96 20.88 14.96 20.89 14.98"/>
              <polygon class="cls-13" points="21.04 14.72 21.22 14.39 20.4 13.61 20.8 14.73 21.04 14.72"/>
              <path class="cls-4" d="M14.79,20.52l.63,2.01c.62-.19,1.24-.37,1.87-.56l-2.5-1.45h0Z"/>
              <polygon class="cls-7" points="16.4 15.78 15.93 17.18 18.9 18.26 19.09 18.15 20.89 14.98 20.88 14.96 16.4 15.78"/>
              <path class="cls-6" d="M20.4,13.61c-.86-.82-.54-.56-1.38-1.11l-2.18,2-.13.4,4.09-.16-.39-1.12h-.01Z"/>
              <polygon class="cls-4" points="19.23 23.09 17.61 22.15 20.34 25.14 19.23 23.09"/>
              <polygon class="cls-7" points="14.8 20.48 15.66 20.01 15.15 19.45 14.8 20.48"/>
              <path class="cls-14" d="M14.79,20.51h0v-.03h-.02v.03h.02Z"/>
              <polygon class="cls-14" points="25.28 7.24 25.59 6.69 25.54 6.53 24.85 7.17 25.28 7.24"/>
              <polygon class="cls-13" points="24.4 8.78 25.28 7.24 24.85 7.17 23.9 8.03 24.4 8.78"/>
              <polygon class="cls-8" points="26.56 34.26 26.56 34.25 26.55 34.26 26.56 34.26"/>
              <path class="cls-3" d="M13.74.1s.07,0,.1,0c.14-.02.04,0-.1,0Z"/>
              <path class="cls-15" d="M.5,15.53h0c-.19.99-.32,2.01-.4,3.05H.1c.07-.97.21-2.03.4-3.05Z"/>
              <path class="cls-3" d="M29.88,17.01h0c.01.1.01.09,0,0Z"/>
              <path class="cls-6" d="M26.63,7.47h0s-.37-.6-.38-.61c.13.2.26.4.38.61h0Z"/>
              <path class="cls-9" d="M30.08,19.18h0c.03.5.03.43,0,0Z"/>
              <path class="cls-3" d="M.08,18.74H.08c-.02.28-.04.57-.05.86H.03c.01-.29.03-.57.05-.86Z"/>
              <path class="cls-14" d="M2.17,10.06h0c-.26.6-.5,1.21-.72,1.85h0c.22-.63.46-1.25.72-1.85Z"/>
              <path class="cls-13" d="M3.44,7.6h0c-.46.78-.88,1.6-1.25,2.46h0c.38-.86.8-1.68,1.26-2.46h0Z"/>
              <path class="cls-14" d="M30.08,19.18c-.02-.32-.03-.38,0-.01h0Z"/>
              <path class="cls-8" d="M1.46,11.91h0c-.4,1.15-.72,2.37-.96,3.63h0c.24-1.26.56-2.47.96-3.63Z"/>
              <path class="cls-3" d="M16.19,41.55c-.06,0-.12,0-.18,0-.05,0,.13,0,.18,0Z"/>
              <path class="cls-13" d="M29.99,18c0,.06.01.13.02.19h0c0-.06-.01-.13-.02-.19h0Z"/>
              <path class="cls-12" d="M13.91.08h.07c.15,0,.08,0-.07,0Z"/>
              <path class="cls-15" d="M30.01,18.19h0c.04.45.04.41,0,0Z"/>
              <path class="cls-6" d="M.02,20.11c-.02.9-.02.97,0,0H.02Z"/>
              <path class="cls-9" d="M.02,20.11H.02c0-.42,0-.38,0,0Z"/>
              <path class="cls-5" d="M14.48.03h.1c.27,0,.13,0-.1,0Z"/>
              <polygon class="cls-10" points="26.63 7.47 26.62 7.47 26.63 7.48 26.63 7.47"/>
              <path class="cls-9" d="M13.91.08h-.07c.13,0,.2-.02.07,0Z"/>
              <path class="cls-9" d="M3.83,34.65c.1.16.21.31.31.47h0c-.11-.16-.21-.31-.32-.48h0Z"/>
              <path class="cls-3" d="M.09,22.99s0-.1,0-.15c0-.03,0,.12,0,.15Z"/>
              <path class="cls-12" d="M16.71,41.49s-.06,0-.08,0c-.3.04-.19.03.08,0Z"/>
              <path class="cls-15" d="M9.01,36.26c-.03.11-.06.22-.09.32.2.06.4.12.59.18l.03-.1-.53-.4Z"/>
              <path class="cls-10" d="M9.91,1.26h0c.44-.22.33-.17,0,0Z"/>
              <path class="cls-14" d="M12.93.23s.03,0,.05-.01c.16-.03.1-.02-.05.01Z"/>
              <path class="cls-6" d="M12.64.28c.06,0,.12-.02.19-.04.15-.03-.05,0-.19.04Z"/>
              <path class="cls-4" d="M3.63,34.33h0c.07.11.13.22.2.32h0c-.07-.11-.14-.22-.2-.32Z"/>
              <path class="cls-15" d="M11.66.55c.11-.04.23-.07.34-.1-.11.03-.23.06-.34.1Z"/>
              <path class="cls-14" d="M.26,24.6c.05.35.1.7.16,1.04H.42c-.06-.34-.12-.69-.16-1.04Z"/>
              <path class="cls-12" d="M13.65.11h0c.11,0,.12-.02,0,0Z"/>
              <path class="cls-9" d="M.66,26.76h0c-.08-.37-.15-.74-.22-1.12H.43c.08.46.17.92.27,1.38h.02c-.02-.08-.04-.17-.06-.25h0Z"/>
              <path class="cls-10" d="M1.88,30.85c.46,1.14.98,2.21,1.58,3.21l-.52-2.41s-1.06-.8-1.06-.8Z"/>
              <path class="cls-14" d="M3.79,32.3l-.86-.65.52,2.41c.06.09.11.18.17.27,0,0,.17-2.02.17-2.03Z"/>
              <path class="cls-12" d="M2.06,27.64l-1.04.6c-.11-.4-.21-.81-.3-1.22h-.02c.3,1.34.7,2.62,1.18,3.82l1.06.8-.87-4.01h0Z"/>
              <path class="cls-8" d="M8.92,36.19l-.28.31c.09.03.19.06.28.08.03-.11.06-.21.09-.32,0,0-.09-.07-.09-.07Z"/>
              <path class="cls-5" d="M4.08,6.61h-.01c-.09.14-.18.27-.27.41h0c.09-.13.18-.27.27-.41h.01Z"/>
              <path class="cls-6" d="M25.83,6.26h0c-.24-.34-.49-.67-.74-.98h0c.21.26.53.68.74.98Z"/>
              <polygon class="cls-10" points="3.27 26.95 4.2 27.37 4.28 26.37 3.27 26.95"/>
              <path class="cls-13" d="M14.42.03c-.23,0-.57.05-.2.02,0,0,.19-.02.2-.02Z"/>
              <path class="cls-7" d="M7.95,2.49h-.01c-1.13.84-2.18,1.88-3.11,3.08h0c.94-1.19,1.99-2.23,3.12-3.08Z"/>
              <path class="cls-12" d="M3.5,7.52h0c.1-.17.2-.33.31-.5h0c-.12.18-.25.38-.37.58l.03-.03s.02-.03.03-.05Z"/>
              <path class="cls-11" d="M25.02,5.21h0c-.5-.61-1.02-1.17-1.58-1.69h0c.55.51,1.08,1.08,1.58,1.69Z"/>
              <path class="cls-12" d="M16.18.08h0c-.37-.04-.73-.07-1.11-.07h0c.37,0,.74.03,1.11.07Z"/>
              <path class="cls-6" d="M19.07.76h0c-.12-.05-.23-.09-.35-.13h0c.12.04.24.09.36.13h-.01Z"/>
              <path class="cls-3" d="M20.76,40.07h0s-.03.02,0,0Z"/>
              <path class="cls-10" d="M8.03,2.43c.13-.09.25-.18.38-.27h0c-.13.08-.25.17-.38.26h0Z"/>
              <path class="cls-13" d="M20.76,40.07c.45-.25.53-.3,0,0h0Z"/>
              <path class="cls-3" d="M23.91,37.64h0c-.15.15-.12.12,0,0Z"/>
              <path class="cls-3" d="M23.91,37.64h0c.21-.21.42-.43.62-.65h0c-.2.22-.41.44-.62.65Z"/>
              <path class="cls-11" d="M24.73,36.75h0c.18-.21.2-.24,0,0Z"/>
              <path class="cls-9" d="M25.83,6.27h0s.02.02,0,0Z"/>
              <polygon class="cls-12" points="3.27 26.95 2.06 27.64 2.93 31.65 3.79 32.3 4.2 27.37 3.27 26.95"/>
              <path class="cls-7" d="M30.06,22.83h0q-.02.26,0,0Z"/>
              <path class="cls-6" d="M8.92,36.19l.09.07c.02-.08.05-.16.07-.25l-.16.18Z"/>
              <path class="cls-13" d="M24.94,36.52c.32-.38.63-.78.92-1.2h0c-.3.42-.6.82-.92,1.2Z"/>
              <path class="cls-5" d="M4.16,35.12h0c.22.32.45.63.68.93h0c-.23-.31-.45-.61-.67-.93h0Z"/>
              <path class="cls-8" d="M8.61,39.58l.9-2.82c-.2-.06-.4-.12-.59-.18-.29,1-.56,1.89-.8,2.67.61.44,1.24.82,1.89,1.14h.01c-.48-.25-.95-.51-1.41-.82h0Z"/>
              <path class="cls-4" d="M25.86,35.31c.22-.31.25-.36,0,0h0Z"/>
              <path class="cls-14" d="M26.55,34.26h0s-.02.04,0,0Z"/>
              <path class="cls-4" d="M28.11,10.4c-.43-1.03-.93-2.01-1.48-2.92h0c.55.91,1.05,1.89,1.48,2.92Z"/>
              <path class="cls-14" d="M9.97,35.04h0l-.89.97c-.02.08-.05.16-.07.25l.53.4.49-1.55-.06-.08h0Z"/>
              <path class="cls-5" d="M26.56,34.25c.3-.49.3-.5,0,0h0Z"/>
              <polygon class="cls-12" points="9.97 35.04 9.97 35.04 10.03 35.11 10.04 35.11 9.98 35.03 9.97 35.04"/>
              <polygon class="cls-8" points="26.55 34.26 26.55 34.26 26.56 34.25 26.56 34.25 26.55 34.26"/>
              <polygon class="cls-12" points="4.82 6.01 4.82 6.56 5.08 6.54 4.82 6.01"/>
              <path class="cls-12" d="M4.82,7.32v-.76l-.74.05c-.09.14-.18.28-.27.42l.36.39s.65-.1.65-.1Z"/>
              <path class="cls-3" d="M13.84.08s-.16.02-.18.02c0,0,.18-.02.18-.02Z"/>
              <path class="cls-9" d="M8.3,4.66c.07.54.13,1.09.2,1.65l1.22-.08-1.43-1.57h.01Z"/>
              <path class="cls-3" d="M8.42,2.17h0c-.13.08-.26.17-.38.26h0c.13-.08.26-.18.39-.27h-.01Z"/>
              <path class="cls-13" d="M5.44,6.52l3.07-.2c-.07-.56-.14-1.11-.2-1.65l-1.28-1.41c.31-.27.62-.52.94-.76h-.01c-1.14.85-2.19,1.89-3.12,3.09v.29l.61.65h-.01Z"/>
              <path class="cls-15" d="M3.5,7.57v-.04s-.02.03-.03.05h.03Z"/>
              <path class="cls-3" d="M3.81,7.02c-.1.16-.21.33-.31.5l.67-.1-.36-.39h0Z"/>
              <path class="cls-14" d="M13.31.16c-.16.03-.23.04-.33.06.17-.03.49-.09.33-.06Z"/>
              <path class="cls-7" d="M9.92,1.27c1.17-.59,2.22-.86,2.09-.82-.74.21-1.32.43-2.09.82h0Z"/>
              <path class="cls-4" d="M10.96.8c.23-.09.47-.17.71-.25-.24.08-.48.16-.71.25Z"/>
              <path class="cls-10" d="M12.01.45s.03,0,.04,0c.04,0,.05,0-.04,0Z"/>
              <path class="cls-15" d="M10,6.53l-.27-.3-1.22.08c.02.15.04.29.05.44l1.44-.22Z"/>
              <path class="cls-13" d="M12.64.28c-.11.02-.15.04-.21.05.23-.06.63-.15.21-.05Z"/>
              <path class="cls-6" d="M12.39.35h.04c.07-.02.09-.02-.04,0Z"/>
              <path class="cls-14" d="M10,6.53h0l-1.44.22h0s1.44-.22,1.44-.22Z"/>
              <polygon class="cls-3" points="4.82 7.32 4.17 7.42 4.2 7.45 4.82 7.36 4.82 7.32"/>
              <polygon class="cls-13" points="4.2 7.45 4.17 7.42 3.5 7.52 3.5 7.52 3.5 7.57 4.2 7.45"/>
              <path class="cls-4" d="M.09,18.59H.09c.06-.8.05-.67,0,0Z"/>
              <polygon class="cls-6" points="10.62 5.73 10.27 6.19 10.74 6.16 10.62 5.73"/>
              <path class="cls-15" d="M.5,15.53c-.14.74-.25,1.49-.33,2.26.08-.77.2-1.52.34-2.26h0Z"/>
              <path class="cls-3" d="M.43,25.65c-.13-.72-.46-3.25-.17-1.05.05.35.1.7.16,1.05h.01Z"/>
              <path class="cls-12" d="M.16,23.71c.01.12.01.1,0,0H.16Z"/>
              <path class="cls-10" d="M.09,22.99c.02.22.04.44.06.66-.04-.43-.1-1.11-.06-.66Z"/>
              <path class="cls-14" d="M.15,23.65H.15c-.08-.8-.09-.95,0,0Z"/>
              <path class="cls-10" d="M2.18,10.07h0c-.26.58-.5,1.2-.72,1.84h0c.22-.63.45-1.24.71-1.84h0Z"/>
              <path class="cls-6" d="M.76,14.4h0c.06-.24.23-.92.34-1.29h0c.12-.41.24-.8.38-1.2h0c-.4,1.15-.72,2.36-.96,3.62h0c.07-.38.16-.76.24-1.14h0Z"/>
              <path class="cls-7" d="M14.73.02h-.15c.31,0,.84-.03.15,0Z"/>
              <path class="cls-8" d="M14.22.05c-.2.02-.03,0-.24.02.06,0,.17-.02.24-.02Z"/>
              <path class="cls-3" d="M16.71,41.49h.01c-.13.02-.12.02-.01,0Z"/>
              <path class="cls-12" d="M.43,25.65c.07.38.14.75.22,1.12h0c-.08-.37-.16-.74-.22-1.12h0Z"/>
              <path class="cls-4" d="M26.62,7.47h0c-.13-.21-.26-.42-.39-.62.13.2.26.41.39.62Z"/>
              <path class="cls-6" d="M26.23,6.85h0s.01.02,0,0Z"/>
              <path class="cls-5" d="M25.83,6.27c.42.59.32.45,0,0h0Z"/>
              <path class="cls-10" d="M26.01,6.52c.03.05.07.1.1.15.01.02-.09-.14-.1-.15Z"/>
              <path class="cls-6" d="M2.18,10.07c.38-.88.81-1.71,1.28-2.5l-.03.03c-.46.77-.88,1.6-1.26,2.46h0Z"/>
              <path class="cls-6" d="M4.16,35.12c.22.31.44.62.67.91v-.71c-.22-.07-.45-.14-.67-.21h0Z"/>
              <polygon class="cls-5" points="10.01 6.53 10.01 6.54 11.03 7.22 10.74 6.16 10.27 6.19 10.01 6.53 10.01 6.53"/>
              <path class="cls-9" d="M4.82,34.46l-.72-.08-.27.27c.1.16.21.32.32.48.22.07.45.14.67.21v-.87h0Z"/>
              <path class="cls-15" d="M25.83,6.26s-.01-.01,0,0h0Z"/>
              <path class="cls-13" d="M6.95,34.7l-2.13-.24v.87c1.25.39,2.53.78,3.81,1.17l.28-.31-1.97-1.49h.01Z"/>
              <path class="cls-7" d="M9.38,34.97c-.1.36-.2.71-.3,1.04l.89-.98h0l-.59-.07h0Z"/>
              <path class="cls-15" d="M13.53.13s-.19.03-.18.02c.05,0,.18-.02.18-.02Z"/>
              <path class="cls-3" d="M13.35.15c.06,0,.12-.02.17-.02.09,0-.09.01-.17.02Z"/>
              <path class="cls-13" d="M3.64,34.33h0c.07.11.13.21.2.32l.16-.28s-.36-.04-.36-.04Z"/>
              <path class="cls-3" d="M9.38,34.97l-2.43-.27,1.97,1.49.16-.18c.1-.34.2-.69.3-1.04Z"/>
              <polygon class="cls-10" points="26.63 7.48 26.62 7.47 26.62 7.47 26.63 7.48 26.63 7.48"/>
              <polygon class="cls-12" points="9.97 35.03 9.97 35.04 9.98 35.03 9.97 35.03"/>
              <polygon class="cls-7" points="9.98 35.03 10.04 35.11 10.08 34.97 9.98 35.03"/>
              <polygon class="cls-15" points="4 34.37 4.77 33.04 3.79 32.3 3.63 34.32 3.63 34.33 3.64 34.33 4 34.37"/>
              <path class="cls-15" d="M9.89,33.21c-.17.61-.34,1.2-.5,1.76l.59.07-.08-1.83h-.01Z"/>
              <polygon class="cls-14" points="4.82 27.66 4.82 32.95 7.27 28.77 4.82 27.66"/>
              <polygon class="cls-13" points="9.01 29.57 9.74 29.9 9.69 28.9 9.01 29.57"/>
              <polygon class="cls-4" points="7.9 27.69 4.82 26.54 4.82 27.66 7.27 28.77 7.9 27.69"/>
              <polygon class="cls-10" points="4.82 32.95 4.82 27.66 4.2 27.37 3.79 32.3 4.77 33.04 4.82 32.95"/>
              <polygon class="cls-10" points="4.82 33.68 4.82 34.46 6.95 34.7 5.17 33.34 4.82 33.68"/>
              <path class="cls-5" d="M9.89,33.21l-.15-3.31-.73-.33-3.84,3.78,1.79,1.36,2.43.27c.16-.56.33-1.15.5-1.76h0Z"/>
              <polygon class="cls-3" points="4.11 34.38 4.82 34.46 4.82 33.68 4.11 34.38"/>
              <polygon class="cls-3" points="4.33 26.35 4.28 26.37 4.2 27.37 4.82 27.66 4.82 26.54 4.33 26.35"/>
              <path class="cls-4" d="M11.77,29.64l-.74-.46c-.11.39-.22.78-.32,1.16l.75.34.32-1.01v-.03h-.01Z"/>
              <polygon class="cls-13" points="5.37 15.34 6.31 15.3 5.58 14.38 4.82 14.66 4.82 15.06 5.37 15.34"/>
              <polygon class="cls-12" points="4.82 14.66 4.38 14.83 4.82 15.06 4.82 14.66"/>
              <path class="cls-13" d="M9.74,29.9l.15,3.31c.26-.91.53-1.87.81-2.87,0,0-.96-.44-.96-.44Z"/>
              <path class="cls-9" d="M11.02,29.18l-1-.61-.33.33.05,1,.96.44c.11-.38.21-.77.32-1.16Z"/>
              <polygon class="cls-15" points="8.88 15.2 6.31 15.3 7.01 16.19 8.33 16.88 8.88 15.2"/>
              <polygon class="cls-9" points="8.3 13.38 6.91 13.89 8.89 14.61 8.3 13.38"/>
              <path class="cls-10" d="M9.98,35.03l.1-.06,1.37-4.29-.75-.34c-.28,1-.55,1.95-.81,2.87l.08,1.83h.01Z"/>
              <path class="cls-3" d="M4.12,12.88l-.05-.41-1.88-2.39c-.26.59-.5,1.21-.71,1.84l2.65.96h0Z"/>
              <polygon class="cls-5" points="10.84 12.23 12.19 11.49 11.03 7.22 10.01 6.54 9.74 11.06 10.84 12.23"/>
              <polygon class="cls-8" points="10.27 6.19 9.73 6.23 10 6.53 10.01 6.53 10.27 6.19"/>
              <path class="cls-3" d="M.75,14.4h0c.07-.29.05-.25,0,0Z"/>
              <path class="cls-13" d="M7.52,24.91l1.2.85-.4-1.1c-.27.08-.54.16-.8.24h0Z"/>
              <path class="cls-4" d="M13.84.08c-.4.04.1,0,.37-.03-.14,0-.21.02-.37.03Z"/>
              <polygon class="cls-5" points="4.33 26.35 4.82 26.54 4.82 26.06 4.33 26.35"/>
              <path class="cls-3" d="M14.46.03c-.25,0,.27-.02.6-.02-.17,0-.51,0-.6.02Z"/>
              <path class="cls-14" d="M12.05.44c-.73.21-1.44.48-2.12.83h0c1.18-.59,2.17-.85,2.12-.83Z"/>
              <path class="cls-7" d="M12.09.43h-.04s.04,0,.04,0Z"/>
              <path class="cls-15" d="M12.07.43h.01c.12-.03.09-.03-.01,0Z"/>
              <path class="cls-14" d="M8.15,24.17l-.92.53.3.21c.27-.08.53-.16.8-.24l-.18-.5Z"/>
              <path class="cls-12" d="M12.43.34c-.47.12.22-.05.45-.1-.15.03-.3.06-.45.1Z"/>
              <path class="cls-15" d="M12.33.36s-.08.02-.12.03c.19-.05.31-.08.12-.03Z"/>
              <path class="cls-13" d="M12.19.4h.02c.15-.04.17-.05-.02,0Z"/>
              <path class="cls-13" d="M12.88.24s-.04,0-.06.01c.01,0,.06-.01.06-.01Z"/>
              <path class="cls-5" d="M12.98.22c-.26.05.13-.03.55-.09-.16.02-.26.03-.55.09Z"/>
              <path class="cls-8" d="M12.98.22s-.06.01-.09.02c0,0,.08-.02.09-.02Z"/>
              <path class="cls-13" d="M8.72,25.76l-1.2-.85c-1.79.55-1.22.31-2.7,1.15v.47l3.08,1.15.94-1.6s-.12-.32-.12-.32Z"/>
              <path class="cls-10" d="M3.5,7.57h-.03c-.47.79-.9,1.62-1.28,2.5l1.88,2.39-.57-4.9h0Z"/>
              <path class="cls-13" d="M6.06,25.36c.48-.15.97-.3,1.46-.45l-.3-.21-1.16.66Z"/>
              <path class="cls-4" d="M10.27,6.19l.36-.46-.54-1.98-1.27-1.21-.78-.05c.08.7.17,1.42.26,2.16l1.43,1.57.54-.04h0Z"/>
              <path class="cls-4" d="M8.82,2.55l-.4-.38c-.13.09-.26.18-.39.28v.05l.78.05h.01Z"/>
              <path class="cls-3" d="M7.96,2.49c-.32.24-.63.49-.94.76l1.28,1.41c-.09-.74-.18-1.46-.26-2.16h-.08Z"/>
              <polygon class="cls-6" points="8.82 2.55 10.09 3.76 9.77 2.61 8.82 2.55"/>
              <path class="cls-11" d="M4.12,12.88l-2.65-.96c-.13.39-.26.79-.38,1.2l3.25,1.69s-.22-1.93-.22-1.93Z"/>
              <polygon class="cls-5" points="4.51 13.02 4.82 13.42 4.82 13.13 4.51 13.02"/>
              <path class="cls-9" d="M11.63,26.99l-.27.26c.02.15.05.29.07.44h0c.06-.23.13-.46.19-.7h.01Z"/>
              <polygon class="cls-15" points="4.82 13.13 4.82 8.14 4.2 7.45 3.5 7.57 4.07 12.46 4.51 13.02 4.82 13.13"/>
              <path class="cls-9" d="M9.87,16.96c.04.26.07.52.11.78l.51.26-.5-1.07-.11.02h-.01Z"/>
              <path class="cls-13" d="M9.83,16.61c.02.12.03.23.05.35l.11-.02-.16-.33Z"/>
              <path class="cls-9" d="M10.68,22.73l-2.53,1.44.18.5c.54-.16,1.09-.33,1.64-.5l.74-1.26c0-.06-.02-.12-.03-.18Z"/>
              <path class="cls-14" d="M11.43,27.69l-.3-.21-1.11,1.09,1,.61c.14-.49.27-.99.41-1.49h0Z"/>
              <path class="cls-15" d="M11.13,27.48l.3.21c-.02-.14-.05-.29-.07-.44l-.23.22h0Z"/>
              <path class="cls-12" d="M9.87,16.96c-.02-.12-.03-.23-.05-.35l-.67-1.42h-.28l-.55,1.69.51.27,1.04-.19Z"/>
              <path class="cls-7" d="M10.01,6.54h0l-1.44.23c.14,1.15.29,2.33.44,3.52l.73.78.27-4.53Z"/>
              <path class="cls-15" d="M8.33,24.67l.4,1.1.22.15,1.02-1.75c-.55.17-1.1.33-1.64.5Z"/>
              <polygon class="cls-4" points="4.82 7.36 4.2 7.45 4.82 8.14 4.82 7.36"/>
              <polygon class="cls-11" points="4.38 14.83 4.82 14.66 4.82 13.42 4.51 13.02 4.12 12.88 4.34 14.8 4.38 14.83"/>
              <polygon class="cls-4" points="4.07 12.46 4.12 12.88 4.51 13.02 4.07 12.46"/>
              <polygon class="cls-3" points="10.84 12.23 13.02 14.52 12.19 11.49 10.84 12.23"/>
              <path class="cls-15" d="M12.22,28.25l-.79-.56h0c.11.7.22,1.35.33,1.95h.01s.45-1.39.45-1.39Z"/>
              <path class="cls-4" d="M11.43,27.69c-.14.5-.28,1-.41,1.49l.74.46c-.11-.6-.22-1.25-.33-1.95Z"/>
              <path class="cls-3" d="M11.63,26.99c-.06.23-.13.47-.19.7l.79.56.86-2.68-1.45,1.43h-.01Z"/>
              <polygon class="cls-6" points="4.82 13.42 4.82 14.66 5.58 14.38 4.82 13.42"/>
              <polygon class="cls-14" points="8.84 26.09 8.94 25.92 8.72 25.76 8.84 26.09"/>
              <polygon class="cls-11" points="8.3 13.38 6.9 10.42 4.82 8.14 4.82 13.13 6.91 13.89 8.3 13.38"/>
              <polygon class="cls-7" points="5.44 6.52 4.82 5.87 4.82 6.01 5.08 6.54 5.44 6.52"/>
              <polygon class="cls-9" points="3.84 34.65 3.84 34.65 4.11 34.38 4 34.37 3.84 34.65"/>
              <polygon class="cls-7" points="4.77 33.04 4.82 33.08 4.82 32.95 4.77 33.04"/>
              <polygon class="cls-14" points="4.82 32.95 4.82 33.08 5.17 33.34 9.01 29.57 7.27 28.77 4.82 32.95"/>
              <polygon class="cls-6" points="4.82 33.08 4.77 33.04 4 34.37 4.11 34.38 4.82 33.68 4.82 33.08"/>
              <polygon class="cls-8" points="9.66 28.35 9.66 28.35 7.9 27.69 7.27 28.77 9.01 29.57 9.69 28.9 9.66 28.35"/>
              <polygon class="cls-6" points="4.82 33.68 5.17 33.34 4.82 33.08 4.82 33.68"/>
              <path class="cls-10" d="M9.05,14.67l.37-1.14c-.02-.14-.04-.28-.05-.42l-.09-.1-.98.36.58,1.23.16.06h.01Z"/>
              <path class="cls-15" d="M9.51,13.27l.12-.38-.28.1s.01.08.02.12l.14.15h0Z"/>
              <path class="cls-14" d="M9.66,28.35h0l.03.55.33-.33s-.35-.22-.36-.22Z"/>
              <polygon class="cls-6" points="7.9 27.69 9.66 28.35 8.84 26.09 7.9 27.69"/>
              <polygon class="cls-10" points="9.63 12.89 10.84 12.23 9.74 11.06 9.63 12.89"/>
              <path class="cls-4" d="M10.85,23.9c.18,1.19.35,2.32.51,3.35l.27-.26c.33-1.18.66-2.39,1-3.62-.6.18-1.19.36-1.78.54h0Z"/>
              <polygon class="cls-15" points="13.54 16.29 13.52 16.3 13.54 16.31 13.54 16.29"/>
              <path class="cls-15" d="M14.02,18.22l.13.14-.09-.3s-.03.1-.04.16Z"/>
              <path class="cls-9" d="M9.96,24.17c.29-.09.59-.18.88-.27-.05-.33-.1-.66-.15-1l-.74,1.26h0Z"/>
              <path class="cls-15" d="M8.94,25.92l-.1.17.82,2.26s.35.22.36.22l1.11-1.09s-2.19-1.56-2.19-1.56Z"/>
              <path class="cls-6" d="M13.47,24.4l-.82-1.04h-.03c-.34,1.23-.67,2.44-1,3.62l1.45-1.43.4-1.16h0Z"/>
              <path class="cls-12" d="M9.16,15.19l.67,1.42c-.06-.48-.13-.96-.19-1.44,0,0-.48.02-.48.02Z"/>
              <polygon class="cls-9" points="6.9 10.42 8.3 13.38 9.28 13.02 6.9 10.42"/>
              <path class="cls-9" d="M10.85,23.9c-.3.09-.59.18-.88.27l-1.02,1.75,2.19,1.56.23-.22c-.17-1.03-.34-2.16-.51-3.35h-.01Z"/>
              <path class="cls-6" d="M9.51,13.27l1.68,1.84,1.98-.08-.15-.51-2.17-2.3-1.21.66.11-1.83-.73-.78c.11.9.23,1.8.35,2.71l.28-.1-.12.38h-.02Z"/>
              <path class="cls-8" d="M11.71,22.16l.92,1.17c.18-.65.36-1.3.53-1.96l-1.46.79h.01Z"/>
              <path class="cls-8" d="M12.62,23.37h.03l-.02-.03v.03h0Z"/>
              <path class="cls-5" d="M9.6,14.87c.01.1.03.2.04.3l.7-.03-.74-.27Z"/>
              <path class="cls-14" d="M12.45,16.49l-.8-.87-1.31-.48-.7.03c.06.48.13.96.19,1.44l.16.33,2.47-.45h-.01Z"/>
              <path class="cls-6" d="M12.45,16.49l-2.47.45.5,1.07,3.1,1.8c.14-.53.29-1.06.43-1.59l-1.57-1.72h0Z"/>
              <polygon class="cls-13" points="13.52 16.3 13.54 16.29 13.17 15.03 11.19 15.11 11.65 15.62 13.52 16.3"/>
              <path class="cls-3" d="M12.65,23.36l.82,1.04.49-1.44c-.44.13-.88.26-1.31.39h0Z"/>
              <path class="cls-9" d="M14.02,18.22s.03-.1.04-.16l-.52-1.75h-.03l-1.07.18,1.57,1.72h0Z"/>
              <polygon class="cls-9" points="11.65 15.62 11.19 15.11 10.34 15.14 11.65 15.62"/>
              <path class="cls-15" d="M9.42,13.53l-.37,1.14.55.2c-.06-.45-.12-.89-.18-1.34Z"/>
              <polygon class="cls-11" points="13.52 16.3 11.65 15.62 12.45 16.49 13.52 16.3"/>
              <path class="cls-9" d="M.08,22.84H.08c-.02-.28-.02-.26,0,0Z"/>
              <path class="cls-13" d="M16.44,41.52h-.05c-.26.03-.28.04.05,0Z"/>
              <path class="cls-14" d="M17.18,41.4c-.09.02-.19.03-.28.05-.36.06-.08.02.28-.05Z"/>
              <path class="cls-15" d="M.08,18.74c-.02.28-.04.57-.05.86H.03c.01-.29.03-.57.05-.86H.08Z"/>
              <path class="cls-6" d="M16.19,41.55c.07,0,.13-.02.2-.03-.23.03-.6.07-.2.03Z"/>
              <path class="cls-15" d="M.02,20.11H.02c0,.23,0,.46,0,.7H0c0-.24,0-.47,0-.7Z"/>
              <path class="cls-5" d="M.02,20.11c0-.17,0-.34,0-.51H.03s0,.41-.02.51h0Z"/>
              <path class="cls-13" d="M0,20.82h0c0,.64.03,1.4.08,2.02-.05-.67-.07-1.34-.07-2.02h0Z"/>
              <path class="cls-15" d="M16.73,41.48c.06,0,.11-.02.17-.03-.06,0-.22.04-.17.03Z"/>
              <polygon class="cls-14" points="4.28 26.33 2.42 26.55 3.27 26.95 4.28 26.37 4.28 26.33"/>
              <path class="cls-4" d="M11.85,37.46c-.69-.2-1.38-.41-2.08-.62l2.49,1.89.36-.27-.77-1Z"/>
              <path class="cls-12" d="M1.85,26.66c.07-.02.13-.04.2-.06l-.21.02v.04h.01Z"/>
              <path class="cls-7" d="M.71,27.02c.09.41.19.82.3,1.22l1.04-.6-.21-.98c-.39.12-.76.24-1.14.36h.01Z"/>
              <path class="cls-15" d="M16.44,41.52c.06,0,.12-.02.18-.02-.14.02-.33.04-.18.02Z"/>
              <path class="cls-9" d="M22.67,38.76c.51-.42-.1.08-.4.3.14-.1.27-.2.4-.3Z"/>
              <path class="cls-12" d="M20.75,40.07h0c.41-.23.47-.28.69-.42-.23.15-.46.29-.7.42h.01Z"/>
              <path class="cls-13" d="M23.14,38.37c.08-.07.14-.14.22-.21-.24.22-.81.72-.22.21Z"/>
              <path class="cls-15" d="M21.55,39.58c.2-.13.4-.27.6-.42-.2.14-.4.28-.6.42Z"/>
              <path class="cls-15" d="M23.53,38.01c-.06.05-.12.1-.17.15-.4.36-.2.2.17-.15Z"/>
              <path class="cls-10" d="M22.66,38.77c-.13.1-.26.2-.39.29-.01,0,.27-.2.39-.29Z"/>
              <path class="cls-6" d="M21.55,39.58c.2-.13.4-.27.6-.42l-.6.42Z"/>
              <path class="cls-12" d="M21.45,39.64h0c-.21.14-.24.15,0,0Z"/>
              <path class="cls-12" d="M1.84,26.62l-1.18.14c.02.08.04.17.06.25.37-.12.75-.23,1.14-.36v-.04h-.02Z"/>
              <path class="cls-12" d="M9.54,36.66l.24.18c.69.21,1.39.42,2.08.62l-1.82-2.35-.49,1.55h-.01Z"/>
              <path class="cls-10" d="M2.42,26.55c-.45.05-.37.04-.57.11l.21.98,1.21-.69-.86-.39h0Z"/>
              <path class="cls-10" d="M20.75,40.07s-.06.04-.09.05h0c-1.67.92-3.45,1.31-2.64,1.09.9-.25,1.87-.64,2.75-1.14h-.02Z"/>
              <path class="cls-13" d="M17.81,41.26c.29-.07.26-.07,0,0h0Z"/>
              <path class="cls-13" d="M17.18,41.4c.34-.07.2-.04.58-.13-.36.09-1.33.28-.58.13Z"/>
              <path class="cls-15" d="M17.76,41.27h0c-.44.11-.43.11,0,0Z"/>
              <path class="cls-14" d="M9.54,36.66l-.03.1c.09.03.18.05.27.08,0,0-.24-.18-.24-.18Z"/>
              <path class="cls-13" d="M9.51,36.76l-.9,2.82c.46.3.93.57,1.41.81.67-.49,1.42-1.05,2.25-1.66l-2.49-1.89c-.09-.03-.18-.05-.27-.08Z"/>
              <path class="cls-6" d="M12.26,38.73l1.39,1.05-1.03-1.32c-.12.09-.24.18-.36.27Z"/>
              <rect class="cls-12" x="13.14" y="38.28" height="1.68"/>
              <polygon class="cls-10" points="11.85 37.46 12.63 38.46 12.63 38.46 11.86 37.46 11.85 37.46"/>
              <polygon class="cls-14" points="10.04 35.11 10.03 35.11 11.85 37.46 11.86 37.46 10.04 35.11"/>
              <path class="cls-14" d="M2.05,26.6l.37-.04-.09-.04c-.09.03-.18.06-.28.09h0Z"/>
              <path class="cls-14" d="M1.76,26.26l.08.37c.25-.03.15,0,.48-.11l-.56-.26Z"/>
              <path class="cls-3" d="M20.63,40.03l-1.13-3.87-2.33,2.87c1.23.36,2.39.69,3.47,1h-.01Z"/>
              <path class="cls-15" d="M4.02,25.99c-.58.18-1.14.35-1.69.52l.09.04,1.87-.22-.27-.35h0Z"/>
              <polygon class="cls-9" points=".6 19.99 1.73 18.44 .12 18.73 .36 19.83 .6 19.99 .6 19.99"/>
              <path class="cls-13" d="M.12,18.73h-.04c-.02.29-.04.58-.05.87l.33.23s-.24-1.1-.24-1.1Z"/>
              <path class="cls-15" d="M4.34,14.84h0l-3.59-.44c-.09.37-.17.75-.24,1.14l3.43-.14.4-.55h0Z"/>
              <path class="cls-3" d="M.36,19.83l-.33-.23c0,.17,0,.34,0,.51l.39-.08-.04-.2h0Z"/>
              <path class="cls-5" d="M.12,18.73l1.61-.29,2.21-3.04-3.43.14c-.21,1.11-.33,2.03-.42,3.06,0,0,.03.13.03.13Z"/>
              <path class="cls-10" d="M1.76,26.26l-1.33-.61c.07.38.14.75.22,1.11l1.18-.14-.08-.37h.01Z"/>
              <path class="cls-14" d="M.02,20.11c0,.23,0,.46,0,.69l.43-.6-.42-.1h0Z"/>
              <path class="cls-15" d="M.8,21.84l-.8-1.02c0,1.66.14,3.23.42,4.83l1.33.61-.96-4.42h0Z"/>
              <path class="cls-8" d="M1.09,13.11c-.05.16-.05.19,0,0h0Z"/>
              <path class="cls-6" d="M17.17,39.03l-1.72,2.12.55.42c1.64-.14,3.19-.64,4.65-1.46l-.02-.08c-1.07-.31-2.24-.65-3.47-1h.01Z"/>
              <path class="cls-6" d="M17.81,41.26h0c-.07.02-.06.02,0,0Z"/>
              <path class="cls-15" d="M4.02,25.99l-3.22-4.15.96,4.42.56.26c.55-.17,1.12-.35,1.69-.52h0Z"/>
              <polygon class="cls-6" points=".36 19.83 .41 20.03 .6 19.99 .36 19.83"/>
              <path class="cls-15" d="M13.37,37.91c-.25.19-.5.37-.74.55l1.03,1.33,1.33,1.01-.31-2.5c-.43-.13-.87-.26-1.31-.39Z"/>
              <path class="cls-10" d="M13.98,32.71c-.56.52-.93.88-1.07,1.02-.08.09-.18-.04-.29-.32l-2.54,1.56-.04.14,1.82,2.36c.51.15,1.01.3,1.51.45.37-.28.76-.56,1.15-.86l-.55-4.35h.01Z"/>
              <polygon class="cls-10" points="17.91 33.63 16.03 32.33 15.99 32.76 17.91 33.63"/>
              <path class="cls-5" d="M12.62,33.41c.11.29.21.41.29.32.13-.14.51-.5,1.07-1.02l-.02-.13s-1.34.83-1.34.83Z"/>
              <path class="cls-6" d="M18.53,34.07c-1,.75-1.97,1.47-2.9,2.16l-.23,2.29c.6.18,1.19.35,1.76.52l2.33-2.87-.52-1.78-.45-.31h.01Z"/>
              <path class="cls-9" d="M15.41,38.51l-.24,2.42.29.22,1.72-2.12c-.57-.17-1.16-.34-1.76-.52h-.01Z"/>
              <path class="cls-7" d="M13.37,37.91c.44.13.88.26,1.31.39l-.16-1.24c-.4.29-.78.58-1.15.86h0Z"/>
              <path class="cls-4" d="M15.99,32.76l-.35,3.47c.92-.69,1.89-1.41,2.9-2.16-.8-.56-.29-.28-2.55-1.31Z"/>
              <path class="cls-5" d="M11.86,37.46l.77,1c.24-.18.49-.36.74-.55-.5-.15-1-.3-1.51-.45Z"/>
              <path class="cls-12" d="M4.02,25.99l.27.35.26-.51c-.18.05-.35.11-.52.16h-.01Z"/>
              <polygon class="cls-3" points="4.28 26.37 4.33 26.35 4.28 26.33 4.28 26.37"/>
              <path class="cls-9" d="M.45,20.21H.45l-.43.6H.02s.79,1.03.79,1.03l-.35-1.63h-.01Z"/>
              <polygon class="cls-5" points="1.12 20.36 4.82 23 4.82 21.22 1.12 20.36"/>
              <polygon class="cls-3" points="6.65 21.64 4.82 21.22 4.82 23 5.67 23.59 6.65 21.64"/>
              <polygon class="cls-6" points="4.82 23 4.82 25.26 5.67 23.59 4.82 23"/>
              <polygon class="cls-15" points="5.59 17.74 4.82 17.88 4.82 19.14 6.09 18.89 5.59 17.74"/>
              <polygon class="cls-10" points="4.82 15.96 4.57 15.37 3.94 15.4 1.73 18.44 4.82 17.88 4.82 15.96"/>
              <polygon class="cls-6" points="4.82 19.14 4.82 17.88 1.73 18.44 .6 19.99 4.82 19.14"/>
              <path class="cls-10" d="M4.54,25.83l.28-.56v-2.27l-3.71-2.63-.67-.16.35,1.63,3.22,4.15c.17-.05.35-.11.52-.16h0Z"/>
              <polygon class="cls-4" points="4.34 14.84 3.94 15.4 4.57 15.37 4.34 14.84"/>
              <path class="cls-8" d="M16.33,31.17l-.2.11-.11,1.05c2.21,1.53,1.66,1.21,2.63,1.65.06-.04.11-.08.17-.13l-.34-1.15-2.16-1.53h.01Z"/>
              <polygon class="cls-5" points="4.82 15.36 5.37 15.34 4.82 15.06 4.82 15.36"/>
              <path class="cls-6" d="M18.53,34.07l.45.31-.09-.29-.24-.11s-.08.06-.12.09Z"/>
              <polygon class="cls-10" points="8.33 16.88 7.01 16.19 7.89 17.32 8.2 17.26 8.33 16.88"/>
              <polygon class="cls-4" points="4.57 15.37 4.82 15.96 4.82 15.36 4.57 15.37"/>
              <polygon class="cls-3" points="8.1 17.58 7.89 17.32 5.59 17.74 6.09 18.89 7.78 18.55 8.1 17.58"/>
              <path class="cls-4" d="M18.9,34.08l-.07-.23c-.06.04-.11.08-.17.13l.24.11h0Z"/>
              <polygon class="cls-4" points="4.82 15.06 4.38 14.83 4.35 14.84 4.34 14.84 4.57 15.37 4.82 15.36 4.82 15.06"/>
              <polygon class="cls-10" points="18.49 32.7 17.8 30.33 16.33 31.17 18.49 32.7"/>
              <path class="cls-10" d="M17.91,33.63l.62.43s.08-.06.12-.09l-.75-.34h0Z"/>
              <path class="cls-11" d="M11.78,29.65v.02c.07.45.15.88.23,1.27l1.85.85-.12-.92-1.97-1.21h.01Z"/>
              <path class="cls-3" d="M11.77,29.67l-.32,1.01.56.26c-.08-.39-.16-.81-.24-1.27Z"/>
              <path class="cls-3" d="M11.45,30.68l-1.37,4.29,2.54-1.56c-.17-.45-.38-1.3-.61-2.47,0,0-.56-.26-.56-.26Z"/>
              <path class="cls-14" d="M13.86,31.78l-1.85-.85c.23,1.17.44,2.03.61,2.47l1.34-.83-.1-.8h0Z"/>
              <path class="cls-13" d="M4.34,14.8l-3.25-1.69c-.15.5-.23.86-.34,1.29l3.59.44v-.03h0Z"/>
              <path class="cls-15" d="M4.82,26.06l1.24-.7c-.42.13-.83.25-1.24.38v.33h0Z"/>
              <path class="cls-4" d="M4.82,25.74c-.09.03-.19.06-.28.09l-.26.51.04.02.5-.28v-.33h0Z"/>
              <polygon class="cls-6" points="7.28 21.79 6.65 21.64 5.67 23.59 7.22 24.7 8.15 24.17 7.28 21.79"/>
              <path class="cls-10" d="M4.82,25.26l-.28.56c.09-.03.19-.06.28-.09v-.48h0Z"/>
              <path class="cls-7" d="M7.22,24.7l-1.55-1.1-.84,1.67v.48c1.52-.47,1-.24,2.4-1.04h-.01Z"/>
              <path class="cls-8" d="M17.47,29.47c-.45.41-.87.8-1.27,1.17l-.04.41.17.12,1.46-.84-.21-.71-.12-.15h.01Z"/>
              <polygon class="cls-10" points="16.14 31.28 16.33 31.17 16.16 31.05 16.14 31.28"/>
              <polygon class="cls-9" points="12.22 28.25 11.78 29.65 13.74 30.86 13.53 29.18 12.22 28.25"/>
              <path class="cls-10" d="M10.03,18.1l.46-.09-.51-.26c.02.12.03.24.05.36h0Z"/>
              <path class="cls-6" d="M16.2,30.64c.4-.37.82-.76,1.27-1.17l-1.02-1.29s-.25,2.46-.25,2.46Z"/>
              <path class="cls-13" d="M17.59,29.62l-.06-.21-.06.06s.12.15.12.15Z"/>
              <path class="cls-9" d="M10.65,22.57l-3.37-.78.87,2.38,2.53-1.44s-.02-.11-.02-.16h0Z"/>
              <path class="cls-12" d="M16.45,28.18l1.02,1.29.06-.06-.89-3.05-.18,1.82h-.01Z"/>
              <polygon class="cls-12" points="7.78 18.55 8.72 18.36 8.1 17.58 7.78 18.55"/>
              <polygon class="cls-4" points="4.38 14.83 4.34 14.8 4.34 14.84 4.35 14.84 4.38 14.83"/>
              <polygon class="cls-15" points="13.08 25.56 12.22 28.25 13.53 29.18 13.08 25.56"/>
              <polygon class="cls-5" points="8.33 16.88 8.2 17.26 8.84 17.15 8.33 16.88"/>
              <polygon class="cls-13" points=".45 20.21 .41 20.03 .02 20.11 .02 20.11 .44 20.21 .45 20.21"/>
              <polygon class="cls-13" points=".6 19.99 .41 20.03 .45 20.21 .6 20 .6 19.99"/>
              <path class="cls-10" d="M13.96,32.58l.02.13c.13-.13.28-.26.43-.41,0,0-.45.28-.45.28Z"/>
              <path class="cls-5" d="M14.66,32.15c-.31.19-.17.08-.68.56l.55,4.35c.36-.27.74-.55,1.12-.83l.35-3.47-1.33-.61h-.01Z"/>
              <path class="cls-13" d="M15.41,38.51c-.24-.07-.48-.14-.73-.21l.31,2.5.17.13.24-2.42h0Z"/>
              <polygon class="cls-15" points="14.66 32.15 15.99 32.76 16.03 32.33 15.25 31.79 14.66 32.15"/>
              <path class="cls-4" d="M14.52,37.06l.16,1.24c.24.07.49.14.73.21l.23-2.29c-.38.28-.75.56-1.12.83h0Z"/>
              <path class="cls-3" d="M6.65,21.64l.33-.66-.9-2.09-1.26.25v2.08s1.83.42,1.83.42Z"/>
              <polygon class="cls-15" points=".6 20 .45 20.21 .45 20.21 1.12 20.36 .6 20"/>
              <polygon class="cls-10" points="4.82 19.14 .6 19.99 .6 20 1.12 20.36 4.82 21.22 4.82 19.14"/>
              <path class="cls-9" d="M13.86,31.78l.1.8c.53-.33.4-.23.64-.46,0,0-.74-.34-.74-.34Z"/>
              <path class="cls-8" d="M15.08,31.68l-1.34-.82.12.92.74.34c.15-.14.31-.29.48-.44Z"/>
              <path class="cls-4" d="M15.08,31.68c-.17.15-.32.3-.48.44l.06.03.59-.36s-.17-.11-.17-.11Z"/>
              <polygon class="cls-6" points="6.09 18.89 6.99 20.98 7.78 18.55 6.09 18.89"/>
              <path class="cls-13" d="M14.41,32.3l.25-.16-.06-.03c-.07.06-.13.12-.19.18h0Z"/>
              <polygon class="cls-11" points="16.03 32.33 16.14 31.28 15.25 31.79 16.03 32.33"/>
              <path class="cls-15" d="M6.99,20.98l-.33.66.63.14s-.29-.8-.29-.81h-.01Z"/>
              <path class="cls-9" d="M16.16,31.05l.04-.41c-.09.08-.18.17-.27.25l.23.16Z"/>
              <path class="cls-9" d="M13.47,24.4l2.98,3.78.18-1.82-1.21-3.84c-.49.15-.98.29-1.46.44,0,0-.49,1.44-.49,1.44Z"/>
              <path class="cls-4" d="M13.74,30.86l1.34.82c.27-.25.55-.51.86-.8l-2.4-1.71.21,1.68h0Z"/>
              <path class="cls-9" d="M13.47,24.4l-.4,1.16.45,3.61,2.4,1.71c.09-.08.18-.16.27-.25l.25-2.46-2.98-3.78h0Z"/>
              <path class="cls-14" d="M7.28,21.79l3.37.78c-.1-.69-.2-1.41-.3-2.13l-1.63-2.07-.94.19-.79,2.43s.29.8.29.81h0Z"/>
              <path class="cls-13" d="M13.17,21.37c.14-.52.28-1.04.42-1.56l-3.1-1.8-.46.09c.11.79.21,1.57.32,2.33l1.36,1.73s1.46-.79,1.46-.79Z"/>
              <path class="cls-14" d="M15.94,30.89c-.3.28-.59.55-.86.8l.17.11.89-.51.02-.23-.23-.16h0Z"/>
              <path class="cls-12" d="M29.77,16.27h0c-.02-.1-.02-.11,0,0Z"/>
              <path class="cls-5" d="M29.39,14.38h0c.03.11.02.09,0,0Z"/>
              <path class="cls-6" d="M27.36,32.83h0c-.1.2-.11.21,0,0Z"/>
              <path class="cls-15" d="M30.09,22.33h0c-.04.69-.03.59,0,0Z"/>
              <path class="cls-5" d="M29.71,25.7h0c-.04.26-.04.23,0,0Z"/>
              <path class="cls-13" d="M28.08,31.29c.19-.44.23-.54,0,0h0Z"/>
              <path class="cls-9" d="M30.04,23.02c-.05.65-.12,1.3-.21,1.93.09-.63.16-1.28.21-1.93Z"/>
              <path class="cls-14" d="M29.71,25.7h0c.12-.7.14-.84,0,0Z"/>
              <path class="cls-15" d="M30.09,22.33h0c.02-.41.02-.45,0,0Z"/>
              <path class="cls-9" d="M30.04,18.56c0,.1.01.2.02.3.01.17,0-.13-.02-.3Z"/>
              <path class="cls-7" d="M29.16,13.46h0c-.29-1.06-.64-2.08-1.05-3.06.41.97.76,1.99,1.05,3.06Z"/>
              <path class="cls-14" d="M30.11,21.81c.01-.33.02-.66.02-1h0c0,.34,0,.67-.02,1Z"/>
              <path class="cls-8" d="M30.08,19.16h0c-.02-.42-.02-.38,0,0Z"/>
              <path class="cls-10" d="M30.08,19.16h0c.03.57.03.55,0,0Z"/>
              <path class="cls-12" d="M30.13,20.81h0c0-.33,0-.67-.02-.99.01.33.02.66.02.99Z"/>
              <path class="cls-8" d="M29.88,17.01h0c.02.18.02.16,0,0Z"/>
              <path class="cls-4" d="M29.88,17.08v.05c.07.49.07.53,0-.05Z"/>
              <path class="cls-13" d="M29.6,15.32q-.03-.14-.04-.18c.02.11.06.29.04.18Z"/>
              <path class="cls-3" d="M29.55,15.12v.02c.02.09.01.07,0-.02Z"/>
              <path class="cls-13" d="M29.75,16.19c-.05-.32-.03-.16-.05-.28.03.19.08.47.05.28Z"/>
              <path class="cls-7" d="M30.01,18.19c.04.47.04.48,0,0h0Z"/>
              <path class="cls-6" d="M30.01,18.19h0c0-.06-.01-.13-.02-.19h0c0,.06.01.13.02.19Z"/>
              <path class="cls-7" d="M29.39,14.38h0c.02.07.02.08,0,0Z"/>
              <path class="cls-12" d="M17.32,3.07L16.18.08c-.37-.04-.74-.06-1.11-.06h0l2.25,3.05Z"/>
              <path class="cls-8" d="M20.61,3.34l.06-.17-1.6-2.4c-.12-.05-.24-.09-.36-.13-.21.8-.44,1.65-.67,2.53,0,0,2.57.17,2.57.17Z"/>
              <path class="cls-8" d="M25.85,35.31c-.36.51-.73.99-1.12,1.44h0c.34-.39.67-.8,1.12-1.44h0Z"/>
              <path class="cls-12" d="M25.02,5.21h0c-.5-.61-1.03-1.17-1.58-1.69h-.02c.6.55,1.2,1.21,1.59,1.69h.01Z"/>
              <path class="cls-14" d="M27.79,27.14l1.47.6c-.07.27-.14.53-.22.79h0c-.28.95-.6,1.87-.97,2.74h0c.78-1.83,1.3-3.67,1.63-5.58-.64.48-1.28.96-1.92,1.44h.01Z"/>
              <path class="cls-14" d="M25.45,5.76c-.12-.16-.24-.32-.37-.47v.02c.13.15.25.3.37.45Z"/>
              <path class="cls-14" d="M23.91,37.64h0c.21-.21.42-.43.62-.65h0c-.2.23-.41.44-.62.65Z"/>
              <path class="cls-9" d="M29.2,22.01h0l-3.13,3.99.2.53,1.52.62c.64-.48,1.28-.96,1.92-1.44.14-.79.26-1.64.35-2.88l-.86-.82Z"/>
              <path class="cls-5" d="M29.2,22.01l.86.82c.01-.19.02-.31.03-.5l-.88-.32h-.01Z"/>
              <path class="cls-9" d="M26.63,7.48h0c1.07,1.77,1.93,3.79,2.53,5.98h0c-.6-2.19-1.47-4.23-2.53-5.98h0Z"/>
              <path class="cls-10" d="M23.91,37.64c-.15.16-.14.14,0,0h0Z"/>
              <path class="cls-5" d="M23.81,37.74h-.01q-.21.22.01,0Z"/>
              <path class="cls-4" d="M29.2,22h0l.88.33c.01-.24.04-.69.04-1.52l-.93,1.19h.01Z"/>
              <path class="cls-15" d="M27.35,32.83c-.22.43-.61,1.12-.8,1.42h0c.29-.47.55-.94.8-1.42h0Z"/>
              <path class="cls-9" d="M26.55,34.26c-.22.36-.45.71-.69,1.05h0c.17-.23.34-.48.69-1.05h0Z"/>
              <polygon class="cls-12" points="25.8 26.33 26.26 26.52 26.06 26 25.8 26.33 25.8 26.33"/>
              <polygon class="cls-12" points="19.86 5.55 19.19 5.6 19.64 6.21 19.86 5.55"/>
              <polygon class="cls-15" points="29.19 22.01 29.2 22.01 29.2 22 29.19 22.01"/>
              <path class="cls-5" d="M18.04,3.16l-.68-.05.51.7c.06-.22.12-.44.17-.65Z"/>
              <path class="cls-5" d="M14.22.05h.02c.16,0,.18,0-.02,0Z"/>
              <path class="cls-10" d="M13.55.12h.04c.1,0,.06,0-.04,0Z"/>
              <polygon class="cls-3" points="26.55 34.25 26.55 34.26 26.55 34.26 26.56 34.25 26.56 34.25 26.55 34.25 26.55 34.25"/>
              <path class="cls-11" d="M13.6.12s.06,0,.1,0h-.1Z"/>
              <path class="cls-14" d="M14.37.04s-.08,0-.13,0c.08,0,.21-.02.13,0Z"/>
              <path class="cls-9" d="M28.77,15.51c-.17-.46-.07-.28-.42-.8l-.53.09.95.72h0Z"/>
              <polygon class="cls-14" points="29.2 22 30.14 20.81 30.14 20.81 29.2 22"/>
              <path class="cls-10" d="M17.1,6.7c-.18.67-.36,1.34-.54,2.04l1.58-1.25s-1.04-.79-1.04-.79Z"/>
              <path class="cls-9" d="M28.77,15.51l.98,2.72c.08-.08.16-.15.25-.22-.03-.34-.07-.67-.12-1l-.88-1.32-.23-.17h0Z"/>
              <path class="cls-12" d="M29.98,17.87q-.04-.39-.09-.74c.06.47.12,1.02.09.74Z"/>
              <path class="cls-9" d="M29.74,18.23v.04c.1-.02.18-.05.26-.07,0-.06-.01-.13-.02-.19-.08.07-.16.15-.25.22h.01Z"/>
              <path class="cls-9" d="M29.68,18.29s.05-.02.08-.02v-.04s-.06.04-.08.06Z"/>
              <path class="cls-10" d="M26.56,34.25c.22-.36.29-.48,0,0h0Z"/>
              <polygon class="cls-3" points="25.26 24.89 30 23.11 30 23.11 25.26 24.89"/>
              <polygon class="cls-8" points="14.41 4.67 14.65 2.94 12.89 2.82 12.55 3.26 14.41 4.67"/>
              <polygon class="cls-14" points="25.72 26.18 26.14 26.13 26.14 26.13 25.72 26.18"/>
              <path class="cls-4" d="M17.76,4.23c.04-.14.07-.27.11-.41l-.51-.7h-.02l.42,1.11Z"/>
              <polygon class="cls-3" points="17.34 3.12 17.32 3.07 15.07 0 15.43 2.99 17.34 3.12"/>
              <path class="cls-14" d="M28.86,19.04l1.27,1.77c0-.83-.03-1.36-.05-1.65l-.32-.89s-.05.02-.08.02c-.26.24-.54.49-.82.74h0Z"/>
              <path class="cls-11" d="M30.11,19.82s0-.23-.01-.24c0,.08,0,.16.01.24Z"/>
              <path class="cls-8" d="M30.01,18.19c-.08.02-.17.05-.25.07l.32.89c-.04-.63-.03-.53-.07-.97h0Z"/>
              <path class="cls-9" d="M25.02,5.21c-.13-.16-.15-.17,0,0h0Z"/>
              <path class="cls-10" d="M24.5,4.62s.02.03.04.04c.27.3.2.22-.04-.04Z"/>
              <polygon class="cls-3" points="25.84 26.76 26.49 27.12 26.26 26.52 25.8 26.33 25.84 26.76"/>
              <path class="cls-9" d="M27.35,32.83h0c-.16.32-.14.27,0,0Z"/>
              <polygon class="cls-5" points="18.81 6.97 19.59 6.36 19.64 6.21 19.19 5.6 18.31 5.66 18.81 6.97"/>
              <path class="cls-6" d="M18.31,5.66l-.55-1.43c-.13.49-.26.99-.4,1.5l.94-.06h0Z"/>
              <path class="cls-15" d="M17.37,5.72c.13-.51.27-1.01.4-1.5l-.42-1.11-1.91-.13.33,2.7.17.13,1.43-.1h0Z"/>
              <polygon class="cls-4" points="12.48 6.05 11.28 4.9 10.62 5.73 10.74 6.16 12.48 6.05"/>
              <path class="cls-10" d="M25.1,5.32c.27.34.56.72.73.95h0c-.25-.37-.5-.67-.74-.97h0v.02Z"/>
              <path class="cls-14" d="M17.37,5.72l-1.43.1,1.17.89c.09-.33.17-.66.26-.98h0Z"/>
              <path class="cls-9" d="M29,15.69l.77.58c-.09-.56-.17-1-.34-1.74l-.96.16c.2.55.08.33.53,1Z"/>
              <path class="cls-6" d="M29.55,15.12c-.01-.07-.03-.14-.05-.21.02.09.06.3.05.21Z"/>
              <path class="cls-9" d="M29.71,15.91c0-.05-.1-.56-.1-.56.04.19.07.37.1.56Z"/>
              <path class="cls-8" d="M29.43,14.53h0c.19.84.16.69,0,0Z"/>
              <path class="cls-6" d="M29.43,14.53h0c.12.52.11.47,0,0Z"/>
              <path class="cls-12" d="M29.04,28.54c.08-.26.15-.53.22-.79l-1.47-.6c-.18.13-.36.27-.53.4l1.79.99h0Z"/>
              <polygon class="cls-4" points="14.23 5.93 14.41 4.67 12.55 3.26 11.28 4.9 12.48 6.05 14.23 5.93"/>
              <polygon class="cls-7" points="14.01 7.5 12.48 6.05 10.74 6.16 11.03 7.22 13.79 9.07 14.01 7.5"/>
              <path class="cls-5" d="M13.55.12h-.02c.07,0,.1,0,.02,0Z"/>
              <polygon class="cls-8" points="15.93 5.82 15.76 5.69 15.78 5.83 15.93 5.82"/>
              <polygon class="cls-3" points="14.65 2.94 15.07 0 15.07 0 12.89 2.82 14.65 2.94"/>
              <path class="cls-9" d="M26.49,27.12l.76.42c.18-.13.36-.27.53-.4l-1.52-.62.23.6Z"/>
              <path class="cls-12" d="M28.86,19.04c.28-.25.55-.5.82-.74-.37.11-.74.22-1.11.33l.3.42h0Z"/>
              <path class="cls-13" d="M26.04,15.09h0l2.52,3.53c.37-.11.75-.22,1.11-.33.02-.02.04-.04.07-.06l-.98-2.72-.95-.72-1.77.29h0Z"/>
              <path class="cls-10" d="M26.62,7.47h0c-.25-.42-.44-.71-.79-1.21h0c.24.34.66.99.79,1.21Z"/>
              <path class="cls-3" d="M26.23,6.85s-.13-.18-.12-.18c.04.05.09.13.12.18Z"/>
              <path class="cls-14" d="M17.93,11.25l1.06-3.12-.84-.64-1.58,1.25c-.08.32-.17.64-.26.96l1.63,1.55h0Z"/>
              <polygon class="cls-3" points="25.4 26.52 25.84 26.76 25.8 26.33 25.8 26.33 25.4 26.52"/>
              <path class="cls-10" d="M23.82,19.29l1.37.33c.39-.11.77-.23,1.16-.34l-1.67-1.59-.85,1.61h-.01Z"/>
              <path class="cls-9" d="M26.34,19.28l.87.83.38.09c.44-.4.86-.79,1.27-1.16l-.3-.42c-.73.22-1.47.43-2.22.66Z"/>
              <path class="cls-14" d="M27.21,20.11l-.87-.83c-.38.11-.77.23-1.16.34l2.03.49Z"/>
              <path class="cls-14" d="M24.21,23.28l1.58,3.05h0l.26-.33-1.24-3.26c-.2.18-.4.37-.6.55h0Z"/>
              <path class="cls-3" d="M25.97,21.68c-.38.35-.76.7-1.15,1.05l1.24,3.26,3.13-3.99-1.74-.64-1.48.31h0Z"/>
              <polygon class="cls-13" points="29.2 22 30.13 20.81 28.34 21.18 29.2 22"/>
              <path class="cls-12" d="M30.13,20.81l-1.27-1.77c-.41.38-.84.76-1.27,1.16,0,0,2.54.61,2.54.61Z"/>
              <path class="cls-9" d="M24.82,22.73c.39-.35.77-.71,1.15-1.05l-1.44.3.29.75Z"/>
              <path class="cls-5" d="M26.34,19.28c.75-.22,1.49-.44,2.22-.66l-2.52-3.53-1.37,2.59,1.67,1.59h0Z"/>
              <polygon class="cls-9" points="19.59 6.36 18.81 6.97 19.11 7.77 19.59 6.36"/>
              <path class="cls-8" d="M16.25,9.64l.02.2s.02-.09.04-.14c0,0-.06-.06-.06-.06Z"/>
              <polygon class="cls-12" points="27.45 21.37 29.19 22.01 29.2 22 28.34 21.18 27.45 21.37"/>
              <polygon class="cls-13" points="23.47 19.21 23.82 19.29 24.67 17.68 23.09 16.18 22.44 16.5 23.47 19.21"/>
              <path class="cls-15" d="M25.4,26.52l.4-.18-1.58-3.05c-.58.53-1.17,1.07-1.75,1.6l2.94,1.63h-.01Z"/>
              <polygon class="cls-14" points="26.04 15.09 25.58 14.95 23.09 16.18 24.67 17.68 26.04 15.09 26.04 15.09 26.04 15.09"/>
              <polygon class="cls-6" points="12.89 2.82 11.88 2.75 12.55 3.26 12.89 2.82"/>
              <polygon class="cls-8" points="10.09 3.76 10.62 5.73 11.28 4.9 10.09 3.76"/>
              <polygon class="cls-6" points="13.55 10.75 13.79 9.07 11.03 7.22 12.19 11.49 13.55 10.75"/>
              <path class="cls-14" d="M11.88,2.75l1.01.07L15.07,0C13.27,0,11.54.46,9.93,1.28l1.95,1.47Z"/>
              <path class="cls-10" d="M12.09.43c-.1.03.08-.02.18-.05-.02,0-.14.04-.18.05Z"/>
              <path class="cls-5" d="M12.19.4q-.06.02-.1.03c.07-.02.17-.05.1-.03Z"/>
              <polygon class="cls-4" points="10.09 3.76 11.28 4.9 12.55 3.26 11.88 2.75 9.77 2.61 10.09 3.76"/>
              <polygon class="cls-14" points="12.19 11.49 13.02 14.52 13.55 10.75 12.19 11.49"/>
              <path class="cls-4" d="M28.37,14.42l.1.27.96-.16s-.03-.13-.03-.15l-1.02.04h0Z"/>
              <path class="cls-15" d="M29.43,14.53c-.02-.09-.03-.1,0,0h0Z"/>
              <path class="cls-10" d="M29.43,14.53c-.03-.13-.03-.12,0,0h0Z"/>
              <polygon class="cls-8" points="27.38 14.46 28.16 14.43 27.78 13.86 27.05 14.22 27.38 14.46"/>
              <polygon class="cls-12" points="27.78 13.86 28.16 14.43 28.37 14.42 28.11 13.69 27.78 13.86"/>
              <polygon class="cls-7" points="27.38 14.46 27.05 14.22 26.49 14.5 27.38 14.46"/>
              <path class="cls-6" d="M29.08,13.22l-.83.41.9-.16c-.6-2.19-1.46-4.21-2.53-5.97h0c1.02,1.71,1.86,3.63,2.46,5.73h0Z"/>
              <path class="cls-14" d="M24.71,4.85s.02.03.03.04c.1.11.11.13-.03-.04Z"/>
              <polygon class="cls-10" points="27.82 14.8 28.35 14.71 28.16 14.43 27.38 14.46 27.82 14.8"/>
              <polygon class="cls-7" points="26.07 14.7 26.04 15.09 27.82 14.8 27.38 14.46 26.49 14.5 26.07 14.7"/>
              <polygon class="cls-7" points="26.04 15.09 26.07 14.7 26.07 14.7 26.04 15.09"/>
              <path class="cls-3" d="M25.83,6.27h0c.06.09.06.08,0,0Z"/>
              <path class="cls-12" d="M25.1,5.32h0c.36.45.32.39,0,0Z"/>
              <path class="cls-3" d="M25.82,6.27c-.1-.14-.21-.28-.31-.42.1.14.21.28.31.43h0Z"/>
              <path class="cls-6" d="M24.71,4.85c-.06-.07-.12-.13-.17-.19.11.12.28.31.17.19Z"/>
              <polygon class="cls-7" points="26.62 7.5 26.63 7.5 26.63 7.49 26.63 7.49 26.62 7.5"/>
              <path class="cls-15" d="M26.62,7.47c-.21-.34-.25-.39-.01,0h.01Z"/>
              <polygon class="cls-6" points="26.04 15.09 26.07 14.7 25.58 14.95 26.04 15.09"/>
              <path class="cls-8" d="M26.62,7.5h0v-.03h-.01s.01.02.02.03h-.01Z"/>
              <polygon class="cls-6" points="15.78 5.83 15.76 5.69 14.41 4.67 14.23 5.93 15.78 5.83"/>
              <polygon class="cls-9" points="15.76 5.69 15.43 2.99 14.65 2.94 14.41 4.67 15.76 5.69"/>
              <polygon class="cls-14" points="15.07 0 15.07 0 14.65 2.94 15.43 2.99 15.07 0"/>
              <path class="cls-9" d="M15.05,9.93l.82-.64-1.86-1.78-.22,1.57s1.26.85,1.27.85h0Z"/>
              <polygon class="cls-10" points="23.79 20.04 23.79 20.03 23.78 20.03 23.79 20.04"/>
              <path class="cls-10" d="M25.97,21.68l1.48-.31-.82-.3c-.22.2-.44.4-.66.61Z"/>
              <path class="cls-14" d="M27.44,20.33l.89.85,1.79-.37-2.54-.61s-.1.09-.14.13Z"/>
              <path class="cls-4" d="M23.79,20.04l.74,1.94,1.44-.3c.22-.2.44-.41.66-.61l-2.84-1.03Z"/>
              <path class="cls-13" d="M23.79,20.03h0l2.84,1.04c.27-.25.55-.5.81-.74l-.23-.22-2.03-.49c-.46.14-.93.27-1.4.41h.01Z"/>
              <path class="cls-15" d="M23.79,20.03c.47-.14.93-.28,1.4-.41l-1.37-.33-.18.34s.15.4.15.4Z"/>
              <path class="cls-13" d="M23.78,20.03l-.3-.11-.12.23c.14-.04.28-.08.42-.13h0Z"/>
              <path class="cls-3" d="M27.45,21.37l.89-.19-.89-.85c-.27.24-.54.49-.81.74l.82.3h-.01Z"/>
              <path class="cls-14" d="M16.07,10.58c.07-.25.13-.5.2-.75l-.02-.2-.37-.36-.82.64,1.02.66h-.01Z"/>
              <path class="cls-13" d="M27.59,20.2l-.38-.09.23.22s.1-.09.14-.13h.01Z"/>
              <path class="cls-10" d="M22.77,20.33c.19-.06.39-.12.58-.17l.12-.23-.97-.35.27.76h0Z"/>
              <polygon class="cls-9" points="23.64 19.63 23.82 19.29 23.47 19.21 23.64 19.63"/>
              <path class="cls-15" d="M15.05,9.93s-1.26-.85-1.27-.85l-.24,1.67,1.5-.82h0Z"/>
              <path class="cls-8" d="M14.59,16.1c.1-.38.21-.76.31-1.14l-1.73.07.37,1.27,1.05-.19h0Z"/>
              <path class="cls-7" d="M14.45,16.64c.05-.18.1-.36.14-.53l-1.05.19h0l.9.34h.01Z"/>
              <path class="cls-10" d="M13.54,16.31l.52,1.75c.13-.47.26-.95.38-1.42l-.9-.33Z"/>
              <path class="cls-6" d="M16.7,14.89l-1.8.07c-.1.38-.2.76-.31,1.14l1.81-.33.3-.89h0Z"/>
              <path class="cls-12" d="M17.61,22.15l-.2-.22s-.08.02-.12.03l.32.18h0Z"/>
              <path class="cls-14" d="M18.9,18.26l-3.24,1.75,1.75,1.92c1.79-.54,3.59-1.07,5.36-1.6l-.27-.76-3.61-1.31h.01Z"/>
              <path class="cls-10" d="M16.07,10.58l-1.02-.66-1.5.82-.53,3.77.15.51,1.73-.07c.4-1.48.79-2.95,1.17-4.38h0Z"/>
              <path class="cls-3" d="M15.93,17.18l-1.48-.54c-.13.47-.26.95-.38,1.42l.09.3,1,1.09.77-2.28h0Z"/>
              <polygon class="cls-6" points="25.83 6.28 25.83 6.27 25.83 6.27 25.82 6.27 25.83 6.28"/>
              <path class="cls-8" d="M22.35,35.66l1.56,1.98c.21-.21.42-.43.62-.66-1.55-1.1-1.07-.81-2.18-1.32Z"/>
              <polygon class="cls-12" points="21.75 35.01 21.14 35.11 22.35 35.66 21.95 35.15 21.75 35.01"/>
              <path class="cls-5" d="M21.83,35l.12.15c1.58,1.12.95.76,2.79,1.6.39-.45.77-.93,1.12-1.44l-.83-.81-3.19.5h-.01Z"/>
              <polygon class="cls-13" points="21.95 35.15 22.35 35.66 23.23 36.07 21.95 35.15"/>
              <path class="cls-15" d="M24.82,4.98s.03.04.05.06c.08.1.03.04-.05-.06Z"/>
              <path class="cls-8" d="M28.08,31.28c.37-.87.69-1.79.97-2.74h0c-.27.94-.6,1.86-.96,2.73h-.01Z"/>
              <polygon class="cls-6" points="21.75 35.01 21.95 35.15 21.83 35 21.75 35.01"/>
              <polygon class="cls-12" points="19.68 6.27 20.62 5.5 19.86 5.55 19.64 6.21 19.68 6.27"/>
              <path class="cls-7" d="M25.86,35.31c.24-.34.47-.69.69-1.05l-1.16.18.47.86h0Z"/>
              <polygon class="cls-3" points="20.79 3.35 21.66 4.65 23.06 3.5 20.79 3.35"/>
              <path class="cls-6" d="M23.42,3.52h0c.44.41.48.44,0,0Z"/>
              <polygon class="cls-12" points="20.67 3.16 20.61 3.34 20.79 3.35 20.67 3.16"/>
              <path class="cls-5" d="M23.91,37.64l-1.56-1.98-1.21-.55c-.39.06-.19.03-.9.14l2.91,3.08c-.76.67-1.57,1.25-2.41,1.73h.01c1.04-.59,2.14-1.4,3.15-2.42h.01Z"/>
              <path class="cls-4" d="M23.64,37.91s.11-.1.16-.16c-.23.22-.74.71-.16.16Z"/>
              <path class="cls-6" d="M21.45,39.64l.1-.07s-.07.04-.1.07Z"/>
              <path class="cls-4" d="M22.15,39.16l.12-.09-.12.09Z"/>
              <path class="cls-13" d="M22.88,38.59h-.01s0,0,.01,0Z"/>
              <path class="cls-9" d="M22.27,39.07s-.08.06-.12.09c.04-.03.08-.06.12-.09Z"/>
              <path class="cls-6" d="M21.55,39.58s-.06.04-.1.07c.03-.02.06-.04.1-.07Z"/>
              <path class="cls-9" d="M20.66,40.12s.06-.04.09-.05h-.01s-.06.03-.08.05h0Z"/>
              <polygon class="cls-12" points="25.39 34.44 25.39 34.44 26.55 34.26 26.55 34.25 25.39 34.44"/>
              <polygon class="cls-7" points="20.83 35.16 21.14 35.11 21.14 35.11 20.83 35.16"/>
              <polygon class="cls-8" points="22.2 35.8 24.65 33.7 24.65 33.7 22.2 35.8"/>
              <polygon class="cls-14" points="21.75 35.01 21.83 35 21.83 35 21.75 35.01"/>
              <polygon class="cls-3" points="21.14 35.1 21.76 35 21.76 35 21.14 35.1"/>
              <path class="cls-13" d="M26.79,27.89l1.29,3.38c.37-.87.69-1.79.96-2.74l-1.79-.99c-.16.12-.31.23-.47.35h.01Z"/>
              <path class="cls-12" d="M26.31,31.68l.24,2.56c.31-.51.53-.9.8-1.42,0,0-1.04-1.14-1.04-1.14Z"/>
              <path class="cls-14" d="M26.01,28.48c.26-.19.52-.39.78-.58l-.29-.77-.65-.36.16,1.72h0Z"/>
              <polygon class="cls-6" points="19.68 6.27 19.64 6.21 19.59 6.36 19.69 6.28 19.68 6.27"/>
              <path class="cls-3" d="M24.5,4.62h0q.05.06,0,0Z"/>
              <path class="cls-11" d="M25.01,5.21h0c-.2-.24-.18-.22,0,0Z"/>
              <path class="cls-9" d="M20.24,35.25l-.74.91,1.13,3.87s.07.02.11.03c.84-.48,1.65-1.06,2.41-1.73l-2.91-3.08h0Z"/>
              <polygon class="cls-3" points="20.24 35.25 20.83 35.16 20.24 35.25 20.24 35.25"/>
              <path class="cls-10" d="M27.25,27.54l-.76-.42.29.77c.16-.12.31-.23.47-.35Z"/>
              <path class="cls-8" d="M20.66,40.11s.06-.03.08-.05c-.04,0-.07-.02-.11-.03l.02.08h.01Z"/>
              <path class="cls-6" d="M23.27,30.53l2.12,3.91,1.16-.18h0s-.24-2.57-.24-2.57l-1.86-2.04c-.4.3-.79.59-1.18.89h0Z"/>
              <path class="cls-4" d="M21.95,31.52c-.52.39-1.04.77-1.55,1.16l-.03.48,1.46,1.85,3.19-.5-3.07-2.98h0Z"/>
              <polygon class="cls-9" points="19.35 8.4 19.91 8.82 19.69 6.28 19.59 6.36 19.11 7.77 19.35 8.4"/>
              <path class="cls-4" d="M20.4,32.67c.51-.38,1.03-.77,1.55-1.16l-1.39-1.35-.16,2.5h0Z"/>
              <polygon class="cls-4" points="20.37 33.15 20.32 34 21.75 35.01 21.83 35 20.37 33.15"/>
              <polygon class="cls-3" points="20.28 34.71 21.14 35.11 21.75 35.01 20.32 34 20.28 34.71"/>
              <polygon class="cls-15" points="19.91 8.82 19.35 8.4 20.03 10.17 19.91 8.82"/>
              <polygon class="cls-4" points="19.13 12.39 20.14 11.47 20.03 10.17 19.35 8.4 18.99 8.13 17.93 11.25 19.13 12.39"/>
              <path class="cls-13" d="M20.28,34.71l-.03.54c.71-.11.51-.08.9-.14,0,0-.87-.4-.87-.4Z"/>
              <path class="cls-3" d="M22.72,27.75l1.73,1.89c.52-.39,1.04-.78,1.55-1.17l-.16-1.72-.44-.24-2.68,1.23h0Z"/>
              <path class="cls-3" d="M23.27,30.53c.39-.29.79-.59,1.18-.89l-1.73-1.89-.77.36,1.32,2.43h0Z"/>
              <polygon class="cls-9" points="19.5 36.16 20.24 35.25 20.24 35.25 18.98 34.38 19.5 36.16"/>
              <polygon class="cls-12" points="20.9 14.96 21.67 14.82 21.54 14.7 21.04 14.72 20.9 14.96"/>
              <polygon class="cls-10" points="21.54 14.7 21.75 14.69 21.47 13.96 21.22 14.39 21.54 14.7"/>
              <path class="cls-6" d="M18.83,33.85c.21-.15.42-.31.63-.47l-.96-.68.34,1.15h-.01Z"/>
              <path class="cls-10" d="M21.6,13.73l-.13.23.28.73c1.04-.04.56.02,2.11-.27,0,0-2.26-.69-2.26-.69Z"/>
              <path class="cls-15" d="M19.64,29.28l-1.6.91,2.1,2.67c.09-.06.17-.13.26-.19l.16-2.5-.92-.89Z"/>
              <path class="cls-9" d="M18.04,30.19l-.24.14.69,2.37.96.68c.23-.17.46-.34.69-.52,0,0-2.1-2.67-2.1-2.67Z"/>
              <path class="cls-6" d="M20.15,32.87l.23.29.03-.48c-.09.06-.17.13-.26.19Z"/>
              <path class="cls-14" d="M19.45,33.38l.87.62.05-.84-.23-.29c-.23.17-.46.35-.69.52h0Z"/>
              <path class="cls-11" d="M21.79,14.8l.08.22,1.22,1.16,2.49-1.23-1.19-.36c-2.17.09-1.6.03-2.6.22h0Z"/>
              <polygon class="cls-14" points="21.79 14.8 22.58 14.65 21.75 14.69 21.79 14.8"/>
              <polygon class="cls-4" points="21.87 15.01 21.79 14.8 21.67 14.82 21.87 15.01"/>
              <polygon class="cls-6" points="18.98 34.38 20.24 35.25 20.24 35.25 20.28 34.71 18.9 34.08 18.98 34.38"/>
              <path class="cls-10" d="M21.53,25.74l-.16.53,1.35,1.48,2.68-1.23-2.94-1.63c-.31.29-.63.57-.93.86h0Z"/>
              <polygon class="cls-14" points="22.44 16.5 23.09 16.18 21.87 15.01 22.44 16.5"/>
              <polygon class="cls-12" points="22.58 14.65 24.39 14.58 23.86 14.42 22.58 14.65"/>
              <polygon class="cls-6" points="21.23 26.77 21.95 28.11 22.72 27.75 21.37 26.27 21.23 26.77"/>
              <path class="cls-6" d="M19.45,33.38c-.21.16-.42.31-.63.47l.07.23,1.38.63.04-.72-.87-.62h.01Z"/>
              <path class="cls-9" d="M17.53,29.42c.37-.34.76-.7,1.16-1.06l-2.05-1.99.89,3.05Z"/>
              <path class="cls-3" d="M20.95,26.27l.27.5.15-.5-.19-.21c-.08.07-.15.14-.23.21Z"/>
              <path class="cls-9" d="M21.37,26.27l.16-.53c-.12.11-.23.21-.35.32,0,0,.19.21.19.21Z"/>
              <polygon class="cls-3" points="17.8 30.33 18.04 30.19 17.59 29.62 17.8 30.33"/>
              <path class="cls-13" d="M21.18,26.06l-.84-.92.61,1.12c.08-.07.15-.14.23-.21h0Z"/>
              <path class="cls-4" d="M18.69,28.35c-.4.37-.78.72-1.16,1.06l.06.21.45.57,1.6-.91-.96-.93h0Z"/>
              <polygon class="cls-9" points="26.09 14.51 26.49 14.5 27.05 14.22 26.65 13.92 26.13 14.01 26.09 14.51"/>
              <polygon class="cls-8" points="26.49 14.5 26.09 14.51 26.07 14.7 26.49 14.5"/>
              <polygon class="cls-10" points="26.65 13.92 27.05 14.22 27.78 13.86 27.69 13.73 26.65 13.92"/>
              <polygon class="cls-7" points="26.16 13.55 26.65 13.92 27.69 13.73 26.31 11.64 26.16 13.55"/>
              <polygon class="cls-6" points="26.13 14.01 26.65 13.92 26.16 13.55 26.13 14.01"/>
              <polygon class="cls-6" points="27.69 13.73 27.78 13.86 28.11 13.69 28.1 13.65 27.69 13.73"/>
              <path class="cls-14" d="M23.41,3.52c.36.33.72.69,1.06,1.06-.56-.62-.82-.85-1.05-1.06h-.01Z"/>
              <path class="cls-6" d="M23.91,3.99c.19.19.38.39.56.59.13.15-.21-.24-.56-.59Z"/>
              <path class="cls-6" d="M28.1,13.65l.16-.03.83-.41c-.6-2.09-1.43-4.01-2.46-5.71l-.13,1.7s1.6,4.45,1.6,4.45Z"/>
              <path class="cls-12" d="M24.82,4.98s-.05-.06-.08-.08c.1.12.18.21.08.08Z"/>
              <rect class="cls-6" x="26.14" y="13.54" height=".47"/>
              <polygon class="cls-13" points="19.69 6.28 19.69 6.28 23.13 6.87 22.16 5.4 20.62 5.5 19.68 6.27 19.69 6.28"/>
              <path class="cls-8" d="M25.54,6.53l.29-.26c-.38-.54-.53-.71-.72-.95l.44,1.21h-.01Z"/>
              <polygon class="cls-9" points="26.5 9.2 26.63 7.5 26.62 7.5 26.49 9.2 26.5 9.2"/>
              <rect class="cls-10" x="26.1" y="14.01" height=".5"/>
              <polygon class="cls-14" points="26.16 13.54 26.3 11.64 26.3 11.64 26.16 13.54"/>
              <path class="cls-15" d="M25.01,5.21c-.44-.54-.94-1.08-1.6-1.69l-.36-.02-1.4,1.15.5.75,2.86-.19Z"/>
              <path class="cls-9" d="M24.5,4.61s-.02-.02-.03-.03c.01.01.02.02.03.03Z"/>
              <rect class="cls-7" x="26.08" y="14.5" height=".19"/>
              <path class="cls-3" d="M25.59,6.69l.23.65.78.13c-.14-.24-.31-.53-.78-1.19l-.23.41Z"/>
              <polygon class="cls-9" points="20.42 11.21 21.62 10.12 19.91 8.82 20.03 10.17 20.42 11.21"/>
              <polygon class="cls-15" points="21.62 10.12 23.9 8.03 23.13 6.87 19.69 6.28 19.69 6.28 19.91 8.82 21.62 10.12"/>
              <polygon class="cls-15" points="23.86 14.42 26.12 14.01 26.16 13.54 23.04 11.19 21.6 13.73 23.86 14.42"/>
              <polygon class="cls-13" points="26.16 13.54 26.31 11.64 24.4 8.78 23.04 11.19 26.16 13.54"/>
              <polygon class="cls-4" points="24.39 14.58 25.58 14.95 26.07 14.7 26.08 14.51 24.39 14.58"/>
              <polygon class="cls-10" points="20.03 10.17 20.14 11.47 20.42 11.21 20.03 10.17"/>
              <path class="cls-7" d="M25.82,7.34l.67,1.86.13-1.69-.02-.03-.78-.13h0Z"/>
              <polygon class="cls-15" points="24.39 14.58 26.08 14.51 26.12 14.01 23.86 14.42 24.39 14.58"/>
              <polygon class="cls-11" points="25.02 34.5 25.85 35.31 25.86 35.31 25.39 34.44 25.02 34.5"/>
              <polygon class="cls-15" points="25.02 34.5 25.39 34.44 25.39 34.44 25.02 34.5"/>
              <path class="cls-13" d="M20.65,28.7l-.09,1.47,1.39,1.35c.44-.33.88-.66,1.32-.99l-1.32-2.43-1.3.6Z"/>
              <path class="cls-12" d="M21.95,31.52l3.07,2.98.37-.06-2.12-3.91c-.44.33-.88.66-1.32.99Z"/>
              <path class="cls-13" d="M20.3,13.33l-.16-1.86-1.01.92c.71.67.44.46,1.17.94Z"/>
              <polygon class="cls-3" points="20.8 14.73 20.88 14.96 20.9 14.96 21.04 14.72 20.8 14.73"/>
              <polygon class="cls-14" points="21.6 13.73 21.36 13.65 21.47 13.96 21.6 13.73"/>
              <polygon class="cls-6" points="20.56 30.17 20.65 28.7 19.64 29.28 20.56 30.17"/>
              <polygon class="cls-4" points="20.4 13.61 21.22 14.39 21.47 13.96 21.36 13.65 20.3 13.33 20.4 13.61"/>
              <polygon class="cls-15" points="21.95 28.11 21.23 26.77 20.65 28.7 21.95 28.11"/>
              <path class="cls-15" d="M18.69,28.35l.96.93,1.01-.58.57-1.94-.27-.5c-.78.72-1.54,1.42-2.27,2.08h0Z"/>
              <polygon class="cls-15" points="20.8 14.73 16.7 14.89 16.4 15.78 20.88 14.96 20.8 14.73"/>
              <path class="cls-10" d="M17.61,22.15l-.32-.18c-.62.19-1.25.37-1.87.56l1.21,3.84,2.05,1.99c.72-.67,1.49-1.37,2.27-2.08-.78-1.44-.13-.6-3.35-4.12h.01Z"/>
              <polygon class="cls-10" points="20.3 13.33 19.71 12.94 20.4 13.61 20.3 13.33"/>
              <polygon class="cls-3" points="15.15 19.45 15.66 20.01 18.9 18.26 15.93 17.18 15.15 19.45"/>
              <polygon class="cls-12" points="25.83 6.28 25.82 6.27 25.54 6.53 25.59 6.69 25.83 6.28"/>
              <polygon class="cls-6" points="21.62 10.12 23.04 11.19 24.4 8.78 23.9 8.03 21.62 10.12"/>
              <polygon class="cls-12" points="21.36 13.65 21.6 13.73 23.04 11.19 21.62 10.12 20.42 11.21 21.36 13.65"/>
              <polygon class="cls-13" points="21.36 13.65 20.42 11.21 20.14 11.47 20.3 13.33 21.36 13.65"/>
            </g>
            <path class="cls-1" d="M15.07,0C8.37,0,2.71,6.05.75,14.4l3.59.44L0,20.81l4.28,5.52s-.66,7.98-.66,8h0l6.34.7,5.27-3.25,4.99,3.47.41-6.55,5.15-2.37-2.83-5.44,3.07-5.8-5.74-1.76c-6.45-4.19-4.1-2.64-10.3-6.8L15.07,0Z"/>
          </g>
        </g>
      </g>
    </g>
  </g>
</svg>