<?xml version="1.0" encoding="UTF-8"?>
<svg id="Layer_2" data-name="Layer 2" xmlns="http://www.w3.org/2000/svg" viewBox="0 0 41.71 41.72">
  <defs>
    <style>
      .cls-1 {
        fill: #282b2d;
      }

      .cls-2 {
        fill: #e7e7f9;
      }

      .cls-3 {
        fill: #e6e6e6;
      }

      .cls-4 {
        fill: #cecece;
      }

      .cls-5 {
        fill: #ccc;
      }

      .cls-6 {
        isolation: isolate;
      }

      .cls-7 {
        fill: #c4c4c4;
      }

      .cls-8 {
        fill: #fff;
      }

      .cls-9 {
        fill: #f3f2f4;
      }

      .cls-10 {
        fill: #a8a7ab;
      }

      .cls-11 {
        fill: #706e6a;
      }

      .cls-12 {
        fill: #b3b3b3;
      }

      .cls-13 {
        fill: #d5d6de;
      }

      .cls-14 {
        fill: #fdfefa;
      }

      .cls-15 {
        fill: #020006;
      }
    </style>
  </defs>
  <g id="Layer_1-2" data-name="Layer 1">
    <g class="cls-6">
      <g id="Layer_2-2" data-name="Layer 2">
        <g id="uuid-0d5ada86-94c0-4490-a802-be3da0469f91" data-name="Layer 1-2">
          <g>
            <g>
              <path class="cls-1" d="M34.39,41.42h0s-.06,0-.06,0h.07s0,0,0,0Z"/>
              <polygon class="cls-2" points="41.56 28.12 41.66 28.11 41.56 28.02 41.56 28.12"/>
              <path class="cls-2" d="M12.77.07h-.57l.2.27c.12-.09.24-.18.37-.27Z"/>
              <path class="cls-4" d="M14.09,1.6c1.19.45,12.95,0,12.95,0l-3.29,1.68,3.5-.03c.42-.22,1.35-.83,2.44-1.57l-5.03-1.43-1.95.77-.65-.39-3.74.98-1.68-1.53h-3.19l.11,1.85.33.45.2-.77h0Z"/>
              <path class="cls-13" d="M2.72,30l-.1,1.36s.06,0,.09.01v-1.37h0Z"/>
              <polygon class="cls-4" points="24.1 .08 24.06 .07 21.16 .07 22.07 .62 24.1 .08"/>
              <polygon class="cls-13" points="24.66 .25 25.1 .07 24.14 .07 24.1 .08 24.66 .25"/>
              <path class="cls-11" d="M9.6,38.23l-.68.91.93.67-1.29-.18-.65.88h2.5c.07-.04.14-.08.21-.12l-1.01-2.15h0Z"/>
              <path class="cls-13" d="M10.71,1.56l-.55-.64-.31.85L8.81.07h-.38l.13,1.69.59.75c.31-.12.88-.48,1.56-.94h0Z"/>
              <path class="cls-1" d="M38.62,28.49h-.07l2.22,5.14.25.2c.21-.12.4-.24.59-.34l-.03-2.93-1.41.72s-1.55-2.79-1.55-2.79Z"/>
              <polygon class="cls-3" points=".29 29.53 .3 30.58 1.22 29.48 .29 29.53"/>
              <path class="cls-11" d="M14.62,3.36l-.72-.98-.25.97-.08-1.42-1.16-1.57c-.59.44-1.18.86-1.7,1.22l1.57,1.81,2.34-.02h0Z"/>
              <path class="cls-11" d="M1.05,10.48l.47-.39-1.08-1.49c-.13.11-.25.21-.36.32v.29H.08l.96,1.27h0Z"/>
              <polygon class="cls-8" points="1.22 29.48 2.27 29.42 1.55 29.08 1.22 29.48"/>
              <path class="cls-2" d="M40.07,11.26l.19,1.21-2.22,1.18.31,14.35.27.49,2.93-.36v-.11l-1.38-1.29-.09-12.77,1.31-2.04-.02-1.8c-.69.17-1.4.5-1.3,1.14Z"/>
              <polygon class="cls-1" points="37.98 10.44 41.04 7.22 37.95 9.42 37.98 10.44"/>
              <polygon class="cls-4" points="41.35 7.65 41.34 7.01 41.1 7.18 41.35 7.65"/>
              <path class="cls-8" d="M.07,8.08v.43c.05-.07.1-.15.15-.22,0,0-.15-.21-.15-.21Z"/>
              <polygon class="cls-2" points="8.09 .07 7.24 .07 7.85 .86 8.09 .07"/>
              <polygon class="cls-5" points="10.47 .07 9.42 .07 10.16 .93 10.47 .07"/>
              <path class="cls-4" d="M30.95,39.86l-.24.26c.05.22.1.44.15.66l.87.16c.03-.12.07-.24.1-.36l-.88-.71h0Z"/>
              <path class="cls-1" d="M31.78,37.87h-1.62c.04.16.22.87.42,1.69l.37.3,1.29-1.39s-.46-.6-.46-.6Z"/>
              <path class="cls-8" d="M12.01,3.38c-.69-.21-2.18-.67-2.82-.82l.66.84,2.16-.02Z"/>
              <polygon class="cls-1" points="38.37 28.52 38.56 28.49 38.35 28.02 38.37 28.52"/>
              <path class="cls-11" d="M32.36,38.63c-.12.45-.32,1.22-.53,1.95l.61.49,1.87.34h.06c-.11-.18-.24-.41-.38-.66l-1.63-2.13h0Z"/>
              <path class="cls-11" d="M22.48,39.23l-1.76-.32-2.54.29-3.34-1.37s-2.21,1.38-4.23,2.55l.06.12h1.56l1.49-1.3s8.76.03,8.76.03Z"/>
              <polygon class="cls-2" points="12.23 40.5 11.13 41.46 28.83 41.42 28.62 40.5 12.23 40.5"/>
              <path class="cls-4" d="M31.46,3.22v-.38l-.51.06.02.33h.49Z"/>
              <path class="cls-14" d="M30.75,2.92c-1.02.12-2.07.24-2.8.33l2.6-.02c.08-.12.14-.22.2-.31Z"/>
              <polygon class="cls-11" points="7.18 41.47 4.97 39.12 4.97 39.12 7.18 41.47 7.58 41.47 7.9 40.5 7.18 41.47"/>
              <path class="cls-2" d="M10.4,40.5c-.62.36-1.22.7-1.72.96h2.44l-.45-.96s-.27,0-.27,0Z"/>
              <path class="cls-4" d="M27.06,37.86h-.04l-17.11-.04-.31.42,5.24-.4,5.88,1.08,7.35-.84-.05-.21h-.96Z"/>
              <path class="cls-11" d="M30.21,40.66l-.71.76h1.51c-.04-.2-.09-.42-.14-.64l-.65-.12h-.01Z"/>
              <polygon class="cls-14" points="2.1 28.44 3.92 28.64 3.69 14.47 3.69 14.47 3.69 14.47 3.65 11.66 3.62 11.62 3.65 11.62 3.62 9.51 2.88 8.97 1.52 10.09 2.72 11.75 2.19 12 3.62 13.88 .29 14.17 2.34 15.47 2.34 25.06 .26 26.89 .27 27.71 3.62 26.62 2.1 28.44"/>
              <polygon class="cls-2" points="1.7 8.55 2.13 8.42 2.02 8.33 1.7 8.55"/>
              <path class="cls-14" d="M31.73,40.94c-.05.17-.09.33-.14.48h1.28l-.43-.35-.71-.13Z"/>
              <polygon class="cls-2" points="28.47 37.86 28.64 38 29.82 37.86 28.47 37.86"/>
              <polygon class="cls-4" points="1.05 10.48 .1 11.26 .12 12.96 2.19 12 1.05 10.48"/>
              <path class="cls-14" d="M39.59,32.67l1.08.87c-.19-.28-.5-.8-.6-1.41-.12-.71-1.21-2.16-1.69-2.78v.3l1.21,3.01h0Z"/>
              <polygon class="cls-13" points="2.27 29.42 3.94 30.2 3.93 29.33 2.27 29.42"/>
              <polygon class="cls-2" points="4.75 10.35 3.62 9.51 3.65 11.62 4.5 11.72 4.75 10.35"/>
              <path class="cls-2" d="M23.1,36.4c-.47.2-10.53.19-12.27.19l-.91,1.22,17.11.04c-.3-.14-3.43-1.66-3.92-1.45h-.01Z"/>
              <polygon class="cls-8" points="6.17 27.26 5.37 28.81 6.82 28.97 6.73 28.34 6.17 27.26"/>
              <path class="cls-14" d="M5.5,12.49c.52,1.51,1.17,3.41,1.44,4.34-.23-1.25-.68-4.22-.78-4.9l-.13-.02-.53.58Z"/>
              <polygon class="cls-4" points="4.79 13.27 4.07 14.06 3.97 14.55 6.14 15.18 4.79 13.27"/>
              <polygon class="cls-2" points="35.97 29.75 36.36 28.77 35.04 28.93 35.04 29 35.97 29.75"/>
              <path class="cls-11" d="M30.5,37.07l.33-.44-.55-.71-3.22,1.94h.96l-.1-.44.55.44h1.35l.33-.03v.04h1.62l-.46-.6-.82-.2h0Z"/>
              <polygon class="cls-14" points="11.59 35.57 11.57 35.59 30.29 35.92 29.62 35.04 11.59 35.57"/>
              <path class="cls-4" d="M25.17,5.57l-10.11.18-2.04-1.1-2.16.03,1.39,1.76,13.63-.02-.72-.86h0Z"/>
              <polygon class="cls-11" points="36.52 10.43 37.55 10.88 37.98 10.44 37.95 9.42 36.52 10.43"/>
              <polygon class="cls-2" points="34.54 12.75 34.98 13.6 35.54 12.53 35.63 11.89 34.51 12.02 34.54 12.75"/>
              <polygon class="cls-13" points="31.47 4.17 31.46 3.22 30.97 3.23 31.07 4.63 31.47 4.17"/>
              <polygon class="cls-11" points="35.66 11.7 35.76 10.97 34.81 11.65 35.66 11.7"/>
              <polygon class="cls-13" points="6.64 29.18 3.93 29.33 3.94 30.2 4.83 30.62 6.64 29.18"/>
              <path class="cls-13" d="M10.85,4.66l1.91-.16-.16-.09,6.69-1.04-4.58.1-.1-.14-2.34.02.1.12s-.14-.04-.37-.11l-2.16.02,1,1.27h0Z"/>
              <path class="cls-4" d="M19.3,3.39l3.36.32,4.39-.36s.11-.04.21-.09l-3.5.03h0s-4.46.1-4.46.1Z"/>
              <path class="cls-4" d="M29.82,4.38l-3.69.06c-.23.27-.46.54-.63.75l3.03,1.2c.8-1.23,1.58-2.46,2.02-3.16l-2.6.02c-.48.06-.82.09-.91.1-.03.04-.28.34-.59.71l3.37.32Z"/>
              <path class="cls-13" d="M6.02,11.91l.11-.12s0,.05.02.14l.89.11-2.29-1.69s.21.61.51,1.47c0,0,.76.09.76.09Z"/>
              <polygon class="cls-2" points="4.33 12.63 3.65 11.66 3.69 14.47 4.07 14.06 4.33 12.63"/>
              <polygon class="cls-11" points="3.87 25.89 4.95 24.92 4.8 24.64 5.4 24.51 6.43 23.58 6.51 17.67 3.72 15.94 3.97 14.55 3.69 14.47 3.92 28.64 5.32 28.8 3.87 25.89"/>
              <polygon class="cls-8" points="36.53 28.33 36.36 28.77 38.37 28.52 38.35 28.02 38.31 27.92 38.35 28 38.04 13.65 36.1 14.68 36.53 28.33"/>
              <path class="cls-13" d="M38.39,29.66v-.3c-.14-.17-.23-.28-.23-.28l.23.58Z"/>
              <path class="cls-1" d="M35.75,24.03c-.16.55-.46,1.45-.78,2.41l.06,2.07c.16-1.08.52-3.41.72-4.48Z"/>
              <polygon class="cls-4" points="35.32 23.2 35.24 17.28 34.66 16.76 34.87 23.47 35.32 23.2"/>
              <polygon class="cls-14" points="28.4 33.45 28.11 33.07 13.39 33.16 12.86 33.87 28.36 33.5 28.4 33.45"/>
              <polygon class="cls-14" points="33.61 16.22 33.75 15.94 33.24 15.48 33.5 24.32 34.87 23.47 34.66 16.76 34.21 16.35 33.61 16.22"/>
              <polygon class="cls-13" points="8.78 26.98 8.75 13.3 7.72 12.54 7.29 26.19 8.78 26.98"/>
              <polygon class="cls-1" points="33.6 27.59 34.94 25.69 34.94 25.69 33.55 26.09 33.6 27.59"/>
              <path class="cls-13" d="M34.39,28.47l.58.47c0-.1.04-.24.06-.42l-.06-2.07c-.22.65-.45,1.32-.66,1.93,0,0,.08.09.08.09Z"/>
              <path class="cls-13" d="M27.27,8.08l-1.39-1.66-13.63.02,1.31,1.67,13.7-.03h0ZM25.02,7l2.02,1.08h-7.9c.97-.55,1.86-.6,2.75-.83s3.12-.24,3.12-.24h0Z"/>
              <polygon class="cls-13" points="34.19 12.09 34.54 12.75 34.51 12.02 34.25 12.05 34.19 12.09"/>
              <polygon class="cls-4" points="33.19 13.95 34.07 12.18 33.16 12.82 33.19 13.95"/>
              <polygon class="cls-4" points="35.04 29 35.04 28.93 34.97 28.94 35.04 29"/>
              <polygon class="cls-15" points="9.85 26.62 9.9 14.15 10.46 13.56 10.46 13.56 9.9 14.15 8.75 13.3 8.78 26.98 9.15 27.17 9.85 26.62 10.55 27.39 10.55 27.39 9.85 26.62"/>
              <path class="cls-11" d="M17.79,9.34h.04l8.72.04c.23-.33.5-.74.81-1.19l-.08-.1-13.7.03.95,1.21h3.26,0Z"/>
              <polygon class="cls-13" points="27.16 31.83 14.47 31.72 13.39 33.16 28.11 33.07 27.16 31.83"/>
              <polygon class="cls-14" points="33.19 13.95 33.16 12.82 31.95 13.68 32.42 14.25 31.61 13.99 32.17 26.67 32.97 27.32 32.87 26.81 32.5 26.4 32.78 26.32 32.52 24.92 33.5 24.32 33.24 15.48 32.68 14.98 33.19 13.95"/>
              <polygon class="cls-13" points="32.87 26.81 33.59 27.6 33.6 27.59 33.55 26.09 32.78 26.32 32.87 26.81"/>
              <polygon class="cls-4" points="14.1 31.31 14.47 31.72 14.1 31.31 14.1 31.31"/>
              <polygon class="cls-13" points="14.52 9.32 13.95 9.92 13.95 9.92 14.52 9.32"/>
              <polygon class="cls-8" points="10.46 13.56 11.4 12.58 11.4 12.58 10.46 13.56"/>
              <polygon class="cls-11" points="11.37 14.14 10.46 13.56 9.9 14.15 9.85 26.62 10.55 27.39 11.27 26.9 11.37 14.14"/>
              <path class="cls-1" d="M16.25,29.1l2.05-.05.25-1.52s-1.21.82-2.3,1.58h0Z"/>
              <polygon class="cls-14" points="19.3 29.02 26.47 28.83 25.34 27.05 22.41 27.03 19.3 29.02"/>
              <polygon class="cls-8" points="23.63 11 23.32 11.01 23.68 11.03 23.63 11"/>
              <polygon class="cls-11" points="26.48 12.45 15.73 12.54 16.78 14.07 16.78 14.06 25.43 13.97 25.44 13.98 26.56 12.34 25.72 12.07 26.48 12.45"/>
              <polygon class="cls-2" points="18.18 29.74 19.3 29.02 18.3 29.05 18.18 29.74"/>
              <polygon class="cls-8" points="27.31 11.23 27.51 10.95 25.96 11.16 27.31 11.23"/>
              <polygon class="cls-13" points="23.82 11.45 22.54 11.03 14.84 11.23 15.73 12.54 23.82 11.45"/>
              <path class="cls-1" d="M14.48,16.14l-1.45-.93c.07,3.45.69,10.06.69,10.06l-.85-1.86-.03,2.45h0l1.6-1.07h0l.05-8.66h-.01Z"/>
              <path class="cls-14" d="M20.84,9.59l2.79,1.42,3.91-.1.42-.61-.28-.28c-1.1.14-1.84.21-1.73.15.07-.04.29-.33.6-.78l-8.72-.04,1.69,1.32,1.32-1.07h0Z"/>
              <path class="cls-2" d="M27.9,31.06h0c-.33-.32-.49-.5-.38-.49.03,0,.08.03.13.08l-1.09-1.71c-3.42.4-12.07,1.42-12.03,1.36l-.49.74.06.26.37.41,12.69.11h0l.74-.76Z"/>
              <polygon class="cls-8" points="13.96 31.16 14.1 31.31 13.98 31.13 13.96 31.16"/>
              <polygon class="cls-11" points="14.84 11.23 17.79 9.34 14.52 9.32 13.95 9.92 14.84 11.23"/>
              <polygon class="cls-8" points="29.8 14.61 31.15 15.81 31.15 25.4 29.77 26.27 30.58 26.82 31.91 26.94 32.17 26.67 32.17 26.67 31.61 13.99 31.03 13.8 29.8 14.61"/>
              <path class="cls-2" d="M14.52,30.31s.84-.6,1.73-1.21l-.95.02-.78,1.19Z"/>
              <polygon class="cls-14" points="11.27 26.9 11.27 26.9 10.55 27.39 13.96 31.16 13.98 31.13 11.27 26.9"/>
              <polygon class="cls-2" points="14.52 30.31 15.3 29.12 14.84 29.14 16.71 26.96 14.44 24.79 12.84 25.86 14.04 31.05 14.52 30.31 14.52 30.31 14.52 30.31"/>
              <path class="cls-1" d="M27.95,31.01l.69-.71-.21-1.09-1.44-1.19.93-.58-2.03-.94-.55.55h0l1.14,1.78,1.45-.04s-.53.06-1.37.16l1.09,1.71c.08.07.18.19.31.35h-.01Z"/>
              <polygon class="cls-8" points="28.12 27.53 28.08 27.34 27.91 27.44 28.12 27.53"/>
              <polygon class="cls-14" points="25.97 26.42 27.94 26.59 27.6 24.8 27.6 24.79 25.97 26.42"/>
              <polygon class="cls-2" points="29.13 29.79 30.33 28.56 28.12 27.53 28.43 29.21 29.13 29.79"/>
              <polygon class="cls-1" points="30.58 26.82 29.77 26.27 29.1 26.69 30.58 26.82"/>
              <polygon class="cls-13" points="11.37 14.14 12.85 12.76 11.41 12.58 10.46 13.56 11.37 14.14 11.37 14.14"/>
              <path class="cls-14" d="M15.48,12.16s-.25.36-.57.85l1.25.15s-2.6,2.38-2.73,2.3c-.09-.06.85-1.49,1.48-2.45l-1.1-.14c-.25.11-.47.21-.62.29s-.19.88-.17,2.04l1.45.93h0l2.3-2.07-1.04-1.53h0l-.89-1.31h0l-.89-1.31-.63.66,1.21.61-1.67,1.56.97.12c.72-.32,1.66-.71,1.66-.71h0Z"/>
              <polygon class="cls-14" points="27.9 12.94 29.8 14.61 31.03 13.8 28.1 12.84 27.9 12.94"/>
              <polygon class="cls-14" points="27.92 10.89 27.51 10.95 27.31 11.23 29 11.33 27.96 10.29 27.54 10.9 27.92 10.89"/>
              <polygon class="cls-14" points="27.89 12.77 26.56 12.34 25.44 13.98 25.6 14.15 25.58 14.03 27.9 12.94 27.73 12.79 27.89 12.77"/>
              <polygon class="cls-8" points="28.1 12.84 28.36 12.72 27.89 12.77 28.1 12.84"/>
              <polygon class="cls-1" points="25.24 23.19 25.65 17.35 23.67 18.65 23.66 22.12 25.24 23.19"/>
              <polygon class="cls-4" points="18.76 16.98 19.29 16.4 18.42 16.48 18.76 16.98"/>
              <polygon class="cls-13" points="22.79 19.23 23.55 18.73 21.07 20.36 22.79 21.53 22.79 19.23"/>
              <polygon class="cls-13" points="16.23 23.6 16.86 17.75 16.85 17.75 15.58 23.6 16.16 17.38 16.85 17.75 16.87 17.67 16.86 17.75 17.65 18.17 17.65 18.17 14.48 16.14 14.43 24.79 14.44 24.79 16.23 23.6 16.23 23.6"/>
              <polygon class="cls-8" points="25.69 17.32 25.69 23.19 25.24 23.19 27.6 24.79 27.6 24.79 26.14 17.02 25.69 17.32"/>
              <polygon class="cls-13" points="23.61 24.34 18.18 24.75 18.18 24.75 16.79 26.87 17.65 25.86 24.48 25.7 22.41 27.03 25.34 27.05 23.61 24.34 23.61 24.34"/>
              <polygon class="cls-4" points="16.78 14.06 16.78 14.07 18.42 16.48 21.38 14.15 19.29 16.4 24.04 16.01 19.59 17.38 19.16 17.56 21.07 20.36 25.44 13.98 25.43 13.97 16.78 14.06"/>
              <polygon class="cls-4" points="17.65 18.17 16.23 23.6 16.23 23.6 21.07 20.36 17.65 18.17 17.65 18.17"/>
              <polygon class="cls-14" points="18.18 24.75 19.45 23.27 22.92 23.27 21.07 20.36 18.18 24.75 18.18 24.75"/>
              <polygon class="cls-12" points="18.18 24.75 21.07 20.36 16.23 23.6 18.18 24.75"/>
              <polygon class="cls-14" points="18.18 24.75 15.58 24.18 16.23 23.6 14.44 24.79 16.71 26.96 16.79 26.87 18.18 24.75"/>
              <polygon class="cls-2" points="25.97 26.42 27.6 24.79 25.24 23.19 25.24 23.19 25.24 23.19 23.66 22.12 23.66 22.12 22.79 21.53 22.79 21.53 21.07 20.36 22.92 23.27 23.1 23.27 24.31 22.56 23.61 24.34 25.34 27.05 25.34 27.05 25.89 26.5 25.65 26.39 25.97 26.42"/>
              <polygon class="cls-11" points="18.42 16.48 18.42 16.48 18.42 16.48 16.78 14.07 14.48 16.13 14.48 16.14 17.65 18.17 18.76 16.98 18.42 16.48"/>
              <polygon class="cls-14" points="17.65 18.17 21.07 20.36 19.16 17.56 17.65 18.17"/>
              <polygon class="cls-14" points="21.07 20.36 23.55 18.73 23.67 18.65 23.67 18.65 25.65 17.35 25.69 16.72 25.69 17.32 26.14 17.02 25.6 14.15 25.44 13.98 21.07 20.36"/>
              <polygon class="cls-11" points="41.34 7 41.34 7 41.34 7 41.34 7.01 41.35 7 38.61 4.03 38.61 4.04 41.34 7"/>
              <rect class="cls-1" x="37.51" y="2.07" height="1.54"/>
              <rect class="cls-14" x="35.62" y="0" height="1.63"/>
              <polygon class="cls-8" points="37.86 9.29 37.95 9.39 37.95 9.42 41.04 7.22 41.1 7.16 37.86 9.29"/>
              <polygon class="cls-4" points="41.34 7 41.1 7.16 41.1 7.18 41.34 7.01 41.34 7 41.34 7"/>
              <path class="cls-2" d="M38.22,6.97c-.09.13-.73.79-1.27,1.33l.92.99,3.23-2.13h0l.25-.16-2.74-2.96c-.11,1.11-.29,2.79-.39,2.94h0Z"/>
              <polygon class="cls-14" points="34.24 5.37 38.02 3.41 36.98 2.27 33.63 4.7 34.24 5.37"/>
              <polygon class="cls-14" points="35.07 .21 34.73 1.61 36.18 1.41 35.07 .21"/>
              <polygon class="cls-2" points="36.52 10.43 37.95 9.42 37.95 9.39 37.86 9.29 36.29 10.33 36.52 10.43"/>
              <polygon class="cls-13" points="31.15 5.63 31.48 5.15 31.47 4.17 31.07 4.63 31.15 5.63"/>
              <polygon class="cls-11" points="34.33 11.62 34.81 11.65 35.76 10.97 35.81 10.65 34.33 11.62"/>
              <polygon class="cls-2" points="30.66 7.23 31.24 6.92 31.21 6.46 30.33 7.1 30.66 7.23"/>
              <path class="cls-13" d="M36.21,9.04l-3,1.41,1.07,1.18h.04l1.48-.97.07-.49.41.18,1.58-1.04-.92-.99c-.4.4-.74.74-.74.74v-.02Z"/>
              <polygon class="cls-11" points="31.49 6.79 34.24 5.37 33.63 4.7 31.48 6.26 31.49 6.79"/>
              <polygon class="cls-2" points="31.28 7.47 31.5 7.56 31.49 6.79 31.24 6.92 31.28 7.47"/>
              <polygon class="cls-13" points="31.21 6.46 31.48 6.26 31.48 5.15 31.15 5.63 31.21 6.46"/>
              <polygon class="cls-11" points="33.16 12.82 34.07 12.18 34.13 12.06 33.56 12.13 33.15 12.4 33.16 12.82"/>
              <polygon class="cls-8" points="34.25 12.05 34.17 12.06 34.19 12.09 34.25 12.05"/>
              <path class="cls-14" d="M31.5,10.49l.02.03v-1.02s-.07,0-.1.01l.07.98h.01Z"/>
              <polygon class="cls-1" points="33.15 12.4 33.56 12.13 32.97 12.2 33.15 12.39 33.15 12.4"/>
              <polygon class="cls-13" points="32.39 11.52 34.28 11.62 33.21 10.44 31.97 11.03 32.39 11.52"/>
              <polygon class="cls-11" points="31.68 13.37 31.95 13.68 33.16 12.82 33.15 12.4 31.68 13.37"/>
              <path class="cls-13" d="M27.96,10.29l.24-.35c-.18.02-.36.05-.52.07,0,0,.28.28.28.28Z"/>
              <polygon class="cls-1" points="31.68 13.37 33.15 12.4 33.15 12.39 32.97 12.2 30.9 12.43 31.68 13.37"/>
              <path class="cls-8" d="M27.96,10.29l1.04,1.04,1.03.06-1.27-1.52c-.19.03-.38.05-.56.07,0,0-.24.35-.24.35Z"/>
              <polygon class="cls-11" points="31.08 11.44 30.03 11.39 30.36 11.78 31.08 11.44"/>
              <polygon class="cls-4" points="31.52 10.86 31.52 10.51 31.5 10.49 31.52 10.86"/>
              <polygon class="cls-1" points="32.39 11.52 31.97 11.03 31.08 11.44 32.39 11.52"/>
              <polygon class="cls-2" points="7.85 .86 7.24 .07 7.83 .94 7.85 .86"/>
              <polygon class="cls-1" points="3.82 9.3 3.07 8.82 2.88 8.97 3.62 9.51 3.62 9.51 3.82 9.3"/>
              <polygon class="cls-2" points="2.16 8.24 2.02 8.33 2.13 8.42 2.34 8.35 2.16 8.24"/>
              <path class="cls-13" d="M8.92,2.54h0l.72,1.06.21-.2h0l-.66-.84s-.07-.02-.1-.02c-.08.03-.14.03-.17,0h0Z"/>
              <path class="cls-13" d="M8.89,2.5s.1,0,.2.03c.02,0,.04,0,.06-.02l-.59-.75.02.29.3.45h0Z"/>
              <polygon class="cls-2" points="7.39 2.4 7.83 .94 7.24 .07 6.42 .85 6.86 2.53 7.39 2.4"/>
              <path class="cls-4" d="M2.43,4.76l-.05-.07L.12,6.83l.96.12c.43-.69.89-1.44,1.35-2.2h0Z"/>
              <path class="cls-11" d="M4.07,6.93l-.64-.84c-.41.34-.82.68-1.22,1.01l1.34.18.51-.35h0Z"/>
              <polygon class="cls-2" points="4.43 7.4 3.56 7.28 2.16 8.24 2.34 8.35 4.41 7.71 6.24 6.21 6.52 5.26 4.07 6.93 4.43 7.4"/>
              <path class="cls-8" d="M7.2,3.02c-.06.05-.12.1-.18.15l.06.24.12-.39Z"/>
              <path class="cls-4" d="M4.41,7.71l-1.34,1.11.76.48,5.82-5.71-.72-1.06s-.05-.04-.03-.04l-.3-.45.16,2.09-2.51,2.07-.31,1.03-1.51.47h-.02Z"/>
              <polygon class="cls-11" points="12.26 6.45 12.26 6.45 10.87 4.68 10.57 4.69 10.85 4.66 9.85 3.39 9.85 3.39 9.64 3.6 11.87 6.87 12.26 6.45"/>
              <polygon class="cls-1" points="4.75 10.35 4.75 10.35 7.04 12.04 7.08 12.04 7.39 11.7 7.34 11.55 3.82 9.3 3.62 9.51 3.62 9.51 4.75 10.35 4.75 10.35"/>
              <polygon class="cls-4" points="6.49 8.78 4.5 9.74 6.47 8.33 6.43 7.24 10.57 5.4 6.47 8.33 6.49 8.78 11.52 6.35 10.89 7.92 11.87 6.87 9.64 3.6 3.82 9.3 7.34 11.55 6.51 9.44 6.49 8.78"/>
              <polygon class="cls-1" points="8.75 12.46 8.34 12.2 7.55 12.1 7.72 12.54 7.72 12.54 8.75 13.3 8.75 12.46"/>
              <polygon class="cls-4" points="7.39 11.7 7.08 12.04 7.55 12.1 7.39 11.7"/>
              <polygon class="cls-4" points="13.57 8.11 12.26 6.45 12.26 6.45 11.87 6.87 12.72 8.12 13.57 8.11"/>
              <path class="cls-14" d="M9.35,11.79s1.77-2.15,1.92-3.06.76-1.63.76-1.63l-1.44,3.34,2.14-2.33h0l-.85-1.25-.98,1.05-1.54,3.87h0Z"/>
              <polygon class="cls-14" points="8.75 12.45 8.91 12.27 8.34 12.2 8.75 12.46 8.75 12.45"/>
              <polygon class="cls-14" points="10.46 13.56 8.75 12.46 8.75 13.3 9.9 14.15 10.46 13.56"/>
              <polygon class="cls-11" points="14.52 9.32 13.57 8.11 12.72 8.12 13.95 9.92 14.52 9.32"/>
              <polygon class="cls-8" points="11.41 12.58 9.82 12.38 9.5 12.95 9.75 12.37 8.91 12.27 8.75 12.45 8.75 12.46 10.46 13.56 11.41 12.58"/>
              <polygon class="cls-11" points="9.82 12.38 11.37 9.59 13.32 10.58 13.95 9.92 12.72 8.12 12.72 8.12 10.58 10.45 9.75 12.37 9.82 12.38"/>
              <polygon class="cls-2" points="8.41 39.61 7.18 41.47 7.9 40.5 7.9 40.5 7.9 40.5 8.56 39.63 8.41 39.61"/>
              <polygon class="cls-2" points="9.6 38.23 9.91 37.81 9.89 37.81 9.66 37.69 8.78 39.04 8.92 39.14 9.6 38.23 9.6 38.23 9.6 38.23"/>
              <polygon class="cls-8" points="4.97 39.12 7.18 41.47 8.41 39.61 4.97 39.12"/>
              <polygon class="cls-2" points="2.4 34.41 2.26 36.25 2.66 36.67 2.68 34.61 2.4 34.41"/>
              <polygon class="cls-11" points="2.68 34.07 2.68 34.61 8.78 39.04 9.66 37.69 2.68 34.07"/>
              <polygon class="cls-2" points="2.47 33.39 2.43 33.94 2.68 34.07 2.69 33.31 2.47 33.39"/>
              <polygon class="cls-11" points="1.85 33.64 1.52 33.77 2.4 34.41 2.43 33.94 1.85 33.64"/>
              <polygon class="cls-13" points="11.42 35.57 11.41 35.59 11.57 35.59 11.59 35.57 11.42 35.57"/>
              <path class="cls-1" d="M10.57,36.59l.84-1h-.36l.37-.02.8-.95-.3-.36-2.06,3.13c.02.25.04.41.04.41h.02l.91-1.22h-.26Z"/>
              <polygon class="cls-4" points="6.85 29.17 6.64 29.18 4.83 30.62 5.35 30.86 6.94 29.8 6.85 29.17"/>
              <path class="cls-14" d="M9.41,33.89c.12.18.35,2.54.45,3.51l2.06-3.13-3.5-4.15-1.35.59-.13-.91-1.59,1.06,2.06.96s1.86,1.84,2.01,2.06h-.01Z"/>
              <polygon class="cls-13" points="12.86 33.87 12.86 33.87 13.39 33.16 12.64 33.17 11.92 34.27 12.22 34.63 12.86 33.87"/>
              <polygon class="cls-1" points="12.64 33.17 12.6 33.11 12.29 33.71 8.75 29.98 8.42 30.12 11.92 34.27 12.64 33.17 12.64 33.17"/>
              <polygon class="cls-2" points="9.15 27.17 10.11 27.68 10.55 27.39 9.85 26.62 9.15 27.17"/>
              <polygon class="cls-11" points="14.1 31.31 14.1 31.31 14.1 31.31 13.96 31.16 12.64 33.17 13.39 33.16 14.47 31.72 14.1 31.31"/>
              <path class="cls-1" d="M10.55,27.39l-.44.29,1.35.71-.19,1.21c-.19,1.21,2.47,1.31,2.47,1.31l-1.14,2.2.05.05h0l1.32-2s-3.42-3.77-3.42-3.77Z"/>
              <rect class="cls-1" x="35.75" y="39.13" height="2.1"/>
              <path class="cls-8" d="M40.67,33.54l-1.08-.87.15.37,1.22.83s.04-.03.07-.04l-.25-.2.06.14s-.07-.08-.16-.22h-.01Z"/>
              <path class="cls-1" d="M32.83,38.8h0l-.76-1.19-.29.26h0l.46.6.22-.24s-.04.15-.1.4l1.63,2.13c-.27-.47-.61-1.04-.99-1.68l-.18-.28h0Z"/>
              <path class="cls-4" d="M38.88,35.11c.41-.25.81-.49,1.19-.72l-2.97-1.43-.54.5,2.31,1.65h.01Z"/>
              <path class="cls-14" d="M33.01,39.07c-.05-.09-.11-.18-.16-.28h0l.18.28h-.01Z"/>
              <path class="cls-2" d="M35.16,34.75l1.82,1.5c.58-.35,1.18-.72,1.77-1.07l-2.74-1.22-.85.79Z"/>
              <path class="cls-2" d="M32.11,37.57l-.04.04.76,1.19h0c-.23-.39-.48-.8-.73-1.22h.01Z"/>
              <polygon class="cls-11" points="35.55 38.8 35 40.91 36.49 39.43 36.29 38.8 35.55 38.8"/>
              <polygon class="cls-2" points="35.33 35.61 35.09 34.82 34.7 35.18 35.33 35.61"/>
              <path class="cls-13" d="M40.96,33.87l-1.22-.83.5,1.26c.25-.15.49-.29.72-.43Z"/>
              <polygon class="cls-14" points="31.32 37.27 31.78 37.87 31.79 37.87 32.07 37.61 31.95 37.42 31.32 37.27"/>
              <polygon class="cls-4" points="29.73 33.93 29.52 33.96 29.08 34.34 29.62 35.04 29.62 35.04 30.29 35.92 30.29 35.92 30.29 35.92 30.83 36.63 31.17 36.19 29.73 33.93"/>
              <polygon class="cls-4" points="35.05 29.01 34.51 29.49 35.75 30.33 35.97 29.75 35.04 29 35.05 29.01"/>
              <polygon class="cls-11" points="33.22 33.16 31.13 32.51 30.98 32.64 32.37 33.58 33.23 33.47 32.88 33.94 34.7 35.18 35.09 34.82 35.04 34.66 33.22 33.16"/>
              <path class="cls-11" d="M29.73,33.93l1.44,2.26.06-.09c-.46-.75-.92-1.5-1.35-2.2l-.16.02h.01Z"/>
              <polygon class="cls-1" points="35.28 32.53 36.57 33.46 37.11 32.96 35.29 32.09 35.28 32.53"/>
              <path class="cls-1" d="M32.04,37.44l-.08-.02.12.18.04-.04s-.05-.08-.07-.12h-.01Z"/>
              <path class="cls-14" d="M33.56,30.52l-.03-.16-1.77,1.59,1.46,1.21,1.51.47.31,1.03.12.1.85-.79-.77-.34.04-1.09-1.97-1.41,1.98.96.02-.66.43-1.1-1.24-.84-.85.76c-.06.17-.09.27-.09.27Z"/>
              <path class="cls-4" d="M32.25,34.77l.64-.84-.51-.35-1.34.18c.4.33.81.67,1.22,1.01h-.01Z"/>
              <path class="cls-11" d="M34.94,29.08l-.11-.12-.76.09s-.03.08-.04.12l.48.32.54-.48h0l-.08-.07h0c0,.09-.02.14-.02.14h0Z"/>
              <polygon class="cls-8" points="28.11 33.07 28.4 33.45 28.67 33.07 28.11 33.07"/>
              <polygon class="cls-2" points="34.97 28.94 34.97 28.93 34.39 28.47 34.83 28.95 34.97 28.94"/>
              <polygon class="cls-2" points="29.08 34.34 29.52 33.96 28.85 34.04 29.08 34.34"/>
              <path class="cls-1" d="M33.65,30.25l.85-.76-.48-.32c-.16.47-.3.85-.38,1.09h.01Z"/>
              <polygon class="cls-13" points="30.98 32.64 31.13 32.51 30.5 32.31 30.98 32.64"/>
              <polygon class="cls-11" points="31.02 31.34 31.76 31.95 33.53 30.36 33.32 29.2 31.02 31.34"/>
              <polygon class="cls-13" points="28.94 32.7 27.9 31.06 27.16 31.83 27.16 31.83 28.11 33.07 28.67 33.07 28.94 32.7"/>
              <polygon class="cls-14" points="31.91 26.94 32.42 26.98 31.88 27.7 32.99 28.46 33.14 28.24 32.97 27.32 32.17 26.67 32.17 26.67 31.91 26.94"/>
              <path class="cls-4" d="M28.18,31.33c-.1-.1-.2-.18-.28-.26h0l1.04,1.64.09-.13c-.32-.49-.61-.92-.85-1.25Z"/>
              <path class="cls-2" d="M28.89,31.66l-.25-1.35-.69.71c.07.09.15.2.23.31.29.26.65.58,1.07.94l1.08-1.49-.47-.39-.96,1.27h-.01Z"/>
              <polygon class="cls-11" points="29.85 30.38 31 28.87 30.33 28.56 29.13 29.79 29.85 30.38"/>
              <polygon class="cls-2" points="31.52 29.11 30.33 30.77 31.02 31.34 33.32 29.2 33.31 29.14 32.42 29.25 32.99 28.46 31.88 27.7 31 28.87 31.52 29.11"/>
              <polygon class="cls-4" points="31.91 26.94 31.91 26.94 32.17 26.67 32.17 26.67 32.17 26.67 31.91 26.94"/>
              <polygon class="cls-2" points="27.9 31.06 27.9 31.06 27.16 31.83 27.16 31.83 27.16 31.83 27.9 31.06"/>
              <polygon class="cls-14" points="29.14 29.8 30.34 28.57 30.34 28.57 29.14 29.8"/>
              <polygon class="cls-4" points="8.56 1.76 8.44 .07 8.09 .07 7.85 .86 8.56 1.76"/>
              <polygon class="cls-2" points=".32 32.9 .34 34.21 1.19 33.53 .32 32.9"/>
              <polygon class="cls-4" points="1.36 33.39 .32 32.85 .32 32.9 1.19 33.53 1.36 33.39"/>
              <path class="cls-11" d="M2.7,32.32v-.95s-.05,0-.08-.01l-.08,1.09s.16-.13.16-.13Z"/>
              <path class="cls-13" d="M2.54,32.45l.08-1.09c-.77-.11-1.57-.22-2.31-.32l.02,1.8,1.04.54,1.18-.94h0Z"/>
              <polygon class="cls-4" points="2.34 15.47 .29 14.17 .13 14.19 .26 26.89 2.34 25.06 2.34 15.47"/>
              <polygon class="cls-11" points=".28 28.23 .28 28.49 1.55 29.08 2.1 28.44 .28 28.23"/>
              <polygon class="cls-13" points=".13 14.07 .13 14.19 .29 14.17 .13 14.07"/>
              <polygon class="cls-1" points="3.62 13.88 2.19 12 .12 12.96 .13 14.07 .29 14.17 3.62 13.88"/>
              <polygon class="cls-13" points="2.1 28.44 3.62 26.62 .27 27.71 .28 28.23 2.1 28.44"/>
              <path class="cls-14" d="M2.62,31.36l.1-1.36v1.37c.33.05.67.1.99.14l.25-.2h0l-.02-1.11-1.67-.78-1.05.06-.92,1.1v.46c.75.1,1.55.21,2.32.32Z"/>
              <path class="cls-11" d="M3.71,31.52c-.32-.05-.66-.09-1-.14v.95s1-.81,1-.81Z"/>
              <polygon class="cls-2" points="3.92 28.64 2.1 28.44 1.55 29.08 2.27 29.42 3.93 29.33 3.92 28.64"/>
              <path class="cls-11" d="M.22,8.29c-.05.08-.1.15-.15.22v.4c.12-.1.24-.21.37-.32l-.22-.31H.22Z"/>
              <polygon class="cls-2" points="2.72 11.75 1.52 10.09 1.05 10.48 2.19 12 2.72 11.75"/>
              <path class="cls-11" d="M.78,7.42c-.19.31-.38.6-.56.87l.22.31c.28-.24.58-.5.9-.77,0,0-.56-.41-.56-.41Z"/>
              <path class="cls-10" d="M.78,7.42L.06,6.89v1.19l.16.21c.18-.27.37-.56.56-.87Z"/>
              <polygon class="cls-1" points="1.05 10.48 .08 9.21 .08 9.21 .1 11.26 1.05 10.48"/>
              <path class="cls-13" d="M2.13,8.42l-.44.14.32-.22-.67-.5c-.32.27-.62.53-.9.77l1.08,1.49,1.36-1.12-.75-.55h0Z"/>
              <polygon class="cls-5" points="1.55 29.08 .28 28.49 .29 29.53 1.22 29.48 1.55 29.08"/>
              <polygon class="cls-14" points="9.85 39.81 8.92 39.14 8.56 39.63 9.85 39.81"/>
              <polygon class="cls-13" points=".36 34.23 .36 34.23 .34 34.21 .36 34.23"/>
              <polygon class="cls-4" points="6.82 28.97 5.37 28.81 5.34 28.85 5.32 28.8 3.92 28.64 3.93 29.33 6.64 29.18 6.83 29.03 6.82 28.97"/>
              <polygon class="cls-14" points="3.94 30.2 3.96 31.31 3.96 31.32 4.83 30.62 3.94 30.2"/>
              <path class="cls-14" d="M1.43,7.77s-.06.05-.08.07l.67.5.14-.1s-.73-.47-.73-.47Z"/>
              <polygon class="cls-13" points="2.34 8.35 2.13 8.42 2.88 8.97 3.07 8.82 2.34 8.35"/>
              <path class="cls-4" d="M.06,6.89l.72.53s.02-.03.03-.05c0,0-.75-.48-.75-.48Z"/>
              <path class="cls-2" d="M1.43,7.77l-.61-.39s-.02.03-.03.05l.56.41s.06-.05.08-.07Z"/>
              <polygon class="cls-14" points="8.56 1.76 7.85 .86 7.83 .94 8.59 2.05 8.56 1.76"/>
              <polygon class="cls-14" points="2.34 8.35 3.07 8.82 4.41 7.71 2.34 8.35"/>
              <path class="cls-2" d="M2.6,4.48l-.22.21.05.07c.06-.09.11-.19.17-.28Z"/>
              <path class="cls-4" d="M.81,7.37c.09-.14.17-.27.26-.41l-.96-.12-.06.05.75.48h.01Z"/>
              <polygon class="cls-13" points="4.07 6.93 3.56 7.28 4.43 7.4 4.07 6.93"/>
              <path class="cls-8" d="M6.52,5.26l.56-1.85-.06-.24c-.92.74-2.25,1.83-3.58,2.93l.64.84,2.45-1.67h0Z"/>
              <path class="cls-11" d="M3.56,7.28l-1.34-.18c-.27.22-.53.45-.79.66l.73.47s1.4-.95,1.4-.95Z"/>
              <polygon class="cls-14" points="7.4 4.66 7.08 3.41 6.52 5.26 7.4 4.66"/>
              <polygon class="cls-1" points="5.92 7.24 6.24 6.21 4.41 7.71 5.92 7.24"/>
              <polygon class="cls-2" points="6.86 2.53 6.42 .85 3.87 3.27 6.86 2.53"/>
              <path class="cls-4" d="M7.2,3.02l-.12.39.32,1.25-.88.6-.29.95,2.51-2.07-.16-2.09-.76-1.11-.44,1.46.83-.2s-.39.32-1.02.82h0Z"/>
              <path class="cls-4" d="M7.2,3.02l.19-.62-.53.13.16.63c.06-.05.12-.1.18-.15h0Z"/>
              <path class="cls-11" d="M7.02,3.17l-.16-.63-2.98.73-1.28,1.21c-.06.09-.11.19-.17.28l1.01,1.33c1.33-1.1,2.66-2.18,3.58-2.93h0Z"/>
              <path class="cls-2" d="M3.44,6.09l-1.01-1.33c-.46.75-.92,1.5-1.35,2.2l1.14.15c.4-.33.81-.67,1.22-1.01h0Z"/>
              <path class="cls-2" d="M8.22,2.2l-.83.2-.19.62c.63-.51,1.02-.82,1.02-.82Z"/>
              <path class="cls-13" d="M2.22,7.11l-1.14-.15c-.09.14-.17.28-.26.41l.61.39c.25-.21.52-.43.79-.66h0Z"/>
              <polygon class="cls-4" points="2.52 32.75 2.54 32.45 1.36 33.39 1.48 33.45 2.52 32.75"/>
              <polygon class="cls-14" points="8.41 39.61 8.56 39.63 8.92 39.14 8.78 39.04 8.41 39.61"/>
              <polygon class="cls-8" points="1.36 33.39 1.19 33.53 1.27 33.59 1.48 33.45 1.36 33.39"/>
              <polygon class="cls-1" points="2.69 32.63 2.7 32.32 2.54 32.45 2.52 32.75 2.69 32.63"/>
              <polygon class="cls-11" points="1.19 33.53 .34 34.21 1.27 33.59 1.19 33.53"/>
              <path class="cls-4" d="M3.96,31.32l-.25.2c.17.02.34.05.5.07l-.25-.27Z"/>
              <path class="cls-2" d="M2.69,32.63l1.54-1.03-.02-.02c-.16-.02-.33-.05-.5-.07l-1.01.81v.31h0Z"/>
              <polygon class="cls-2" points="9.66 37.69 9.89 37.81 9.71 37.62 9.66 37.69"/>
              <polygon class="cls-4" points="4.96 32.41 2.69 33.31 2.68 34.07 9.66 37.69 9.71 37.62 4.96 32.41"/>
              <polygon class="cls-8" points="2.47 33.39 2.69 33.31 2.69 32.63 2.52 32.75 2.47 33.39"/>
              <polygon class="cls-14" points="2.52 32.75 1.48 33.45 1.85 33.64 2.47 33.39 2.52 32.75"/>
              <polygon class="cls-11" points="1.52 33.77 .36 34.23 2.26 36.25 2.4 34.41 1.52 33.77"/>
              <polygon class="cls-14" points="4.96 32.41 4.23 31.61 2.69 32.63 2.69 33.31 4.96 32.41"/>
              <polygon class="cls-13" points="1.27 33.59 .34 34.21 .36 34.23 1.52 33.77 1.27 33.59"/>
              <polygon class="cls-13" points="8.78 39.04 2.68 34.61 2.66 36.67 4.97 39.12 8.41 39.61 8.78 39.04"/>
              <polygon class="cls-2" points="1.85 33.64 2.43 33.94 2.47 33.39 1.85 33.64"/>
              <polygon class="cls-14" points="1.48 33.45 1.27 33.59 1.52 33.77 1.85 33.64 1.48 33.45"/>
              <polygon class="cls-13" points="2.43 33.94 2.4 34.41 2.68 34.61 2.68 34.07 2.43 33.94"/>
              <path class="cls-14" d="M4.25,31.6l1.1-.73-.52-.24-.87.69.25.27h.04Z"/>
              <path class="cls-8" d="M9.71,37.62l.18.2s-.01-.16-.04-.41l-.14.21Z"/>
              <path class="cls-1" d="M4.21,31.59l.02.02h.02s-.03-.02-.04-.02Z"/>
              <polygon class="cls-14" points="6.83 29.03 6.64 29.18 6.85 29.17 6.83 29.03"/>
              <path class="cls-11" d="M4.96,32.41l4.75,5.21.14-.21c-.09-.97-.33-3.34-.45-3.51-.15-.22-2.01-2.06-2.01-2.06l-2.06-.96-1.1.73c1.18.17,2.04.29,2.04.29l-1.32.52h0Z"/>
              <path class="cls-11" d="M6.29,31.89s-.85-.12-2.04-.29h-.02l.73.82,1.32-.52h0Z"/>
              <polygon class="cls-2" points="3.62 11.62 3.65 11.66 3.65 11.62 3.62 11.62"/>
              <polygon class="cls-11" points="4.33 12.63 4.07 14.06 4.79 13.27 4.33 12.63"/>
              <polygon class="cls-11" points="5.4 24.51 4.8 24.64 4.95 24.92 5.23 24.67 5.4 24.51"/>
              <polygon class="cls-11" points="4.07 14.06 3.69 14.47 3.69 14.47 3.97 14.55 4.07 14.06"/>
              <polygon class="cls-1" points="4.5 11.72 3.65 11.62 3.65 11.66 4.33 12.63 4.5 11.72"/>
              <path class="cls-1" d="M6.02,11.91l.13.02c-.01-.09-.02-.14-.02-.14l-.11.12Z"/>
              <path class="cls-2" d="M7.24,28.7l-.17-16.64-.03-.02-.89-.11c.1.68.55,3.65.78,4.9.09.3.14.5.13.55-.01.06-.06-.16-.13-.55-.27-.93-.92-2.84-1.44-4.34l-.71.78,1.35,1.91-2.16-.63-.26,1.39,2.79,1.73-.07,5.91-1.03.93,1.79-.38-.46,2.06-.56,1.07.56,1.07.09.64h.06l.35-.27h.01Z"/>
              <polygon class="cls-8" points="4.95 24.92 3.87 25.89 5.32 28.8 5.37 28.81 6.17 27.26 4.95 24.92"/>
              <polygon class="cls-14" points="6.73 26.19 7.19 24.13 5.4 24.51 5.23 24.67 4.95 24.92 6.17 27.26 6.73 26.19"/>
              <path class="cls-13" d="M4.75,10.35h0l-.25,1.38.77.09c-.3-.86-.51-1.47-.51-1.47h-.01Z"/>
              <path class="cls-14" d="M5.5,12.49c-.08-.24-.16-.46-.23-.67l-.77-.09-.17.9.46.64.71-.78Z"/>
              <path class="cls-8" d="M5.27,11.82c.07.21.15.44.23.67l.53-.58s-.76-.09-.76-.09Z"/>
              <path class="cls-4" d="M7.07,17.38s-.04-.25-.13-.55c.07.39.12.61.13.55Z"/>
              <polygon class="cls-1" points="8.78 26.98 7.29 26.19 7.72 12.54 7.07 12.06 7.24 28.7 8.78 27.47 8.78 26.98"/>
              <polygon class="cls-8" points="8.78 27.47 9.15 27.17 8.78 26.98 8.78 27.47"/>
              <path class="cls-13" d="M12.87,23.41l-.94-2.05,1.05-6.18-.11,8.23.85,1.86s-.63-6.61-.69-10.06l-1.67-1.07-.09,12.77,1.57-1.05h0s.03-2.45.03-2.45Z"/>
              <polygon class="cls-14" points="11.94 21.36 12.87 23.41 12.99 15.18 11.94 21.36"/>
              <polygon class="cls-4" points="14.1 31.31 14.1 31.31 14.04 31.05 13.98 31.13 14.1 31.31"/>
              <polygon class="cls-14" points="11.27 26.9 11.27 26.9 13.98 31.13 14.04 31.05 12.84 25.86 11.27 26.9"/>
              <polygon class="cls-13" points="13.32 10.58 11.41 12.58 12.85 12.76 14.52 11.2 13.32 10.58"/>
              <path class="cls-14" d="M13.2,13.17c.15-.08.37-.18.62-.29l-.97-.12-1.48,1.38h0l1.67,1.07c-.02-1.16.02-1.97.17-2.04h0Z"/>
              <path class="cls-1" d="M15.48,12.16s-.94.39-1.66.71l1.1.14c.32-.48.57-.85.57-.85h-.01Z"/>
              <path class="cls-11" d="M13.43,15.47c.13.08,2.73-2.3,2.73-2.3l-1.25-.15c-.64.96-1.57,2.4-1.48,2.45Z"/>
              <polygon class="cls-11" points="7.34 11.55 7.39 11.7 7.46 11.63 7.34 11.55"/>
              <polygon class="cls-4" points="7.07 12.05 7.08 12.04 7.04 12.04 7.07 12.06 7.07 12.05"/>
              <polygon class="cls-13" points="6.43 7.24 6.47 8.33 10.57 5.4 6.43 7.24"/>
              <polygon class="cls-11" points="10.89 7.92 11.52 6.35 6.49 8.78 6.51 9.44 7.34 11.55 7.46 11.63 10.89 7.92"/>
              <polygon class="cls-2" points="4.5 9.74 6.49 8.78 6.47 8.33 4.5 9.74"/>
              <polygon class="cls-11" points="7.07 12.06 7.72 12.54 7.72 12.54 7.55 12.1 7.08 12.04 7.07 12.05 7.07 12.06"/>
              <polygon class="cls-11" points="8.34 12.2 7.46 11.63 7.39 11.7 7.55 12.1 8.34 12.2"/>
              <path class="cls-1" d="M12.03,7.1s-.61.72-.76,1.63-1.91,3.06-1.92,3.06l1.23-1.34,1.44-3.34h0Z"/>
              <polygon class="cls-4" points="9.35 11.79 10.89 7.92 7.46 11.63 8.34 12.2 8.91 12.27 9.35 11.79"/>
              <polygon class="cls-14" points="9.5 12.95 9.82 12.38 9.75 12.37 9.5 12.95"/>
              <polygon class="cls-8" points="11.37 9.59 9.82 12.38 11.41 12.58 13.32 10.58 11.37 9.59"/>
              <polygon class="cls-11" points="10.58 10.45 9.35 11.79 9.35 11.79 9.35 11.79 8.91 12.27 9.75 12.37 10.58 10.45"/>
              <polygon class="cls-14" points="7.58 29.13 6.85 29.17 6.94 29.8 7.71 29.28 7.58 29.13"/>
              <polygon class="cls-2" points="7.24 28.7 6.89 28.98 7.52 29.05 7.24 28.72 7.24 28.7"/>
              <polygon class="cls-2" points="6.94 29.8 7.07 30.71 8.42 30.12 7.71 29.28 6.94 29.8"/>
              <polygon class="cls-13" points="8.78 27.47 7.24 28.7 7.24 28.72 7.52 29.05 7.98 29.1 7.58 29.13 7.71 29.28 8.79 28.57 8.78 28.56 8.78 27.47"/>
              <polygon class="cls-1" points="12.29 33.71 12.6 33.11 8.79 28.57 7.71 29.28 8.42 30.12 8.75 29.98 12.29 33.71"/>
              <polygon class="cls-14" points="9.15 27.17 8.78 27.47 8.78 28.56 8.79 28.57 10.11 27.68 9.15 27.17"/>
              <path class="cls-2" d="M11.27,29.6l.19-1.21-1.35-.71-1.32.88,3.81,4.54,1.14-2.2s-2.67-.1-2.47-1.31h0Z"/>
              <polygon class="cls-11" points="5.34 28.85 5.37 28.81 5.32 28.8 5.34 28.85"/>
              <polygon class="cls-8" points="6.82 28.97 6.83 29.03 6.89 28.98 6.82 28.97"/>
              <polygon class="cls-4" points="7.52 29.05 6.89 28.98 6.83 29.03 6.85 29.17 7.58 29.13 7.52 29.05"/>
              <polygon class="cls-1" points="7.52 29.05 7.58 29.13 7.98 29.1 7.52 29.05"/>
              <path class="cls-13" d="M33.99,40.75c.15.25.28.47.38.66h.12l-.5-.65h0Z"/>
              <path class="cls-4" d="M30.97,3.23l-.02-.33c-.07,0-.13.02-.2.02-.05.09-.12.19-.2.31h.42Z"/>
              <path class="cls-1" d="M32.26,3.22h0l.46-.53c-.37.04-.81.1-1.27.15v.38h.81Z"/>
              <path class="cls-2" d="M29.56,6.42l1.52-1.79-.1-1.4h-.42c-.45.7-1.23,1.93-2.02,3.16l.08.03h.95-.01Z"/>
              <polygon class="cls-14" points="34.51 11.87 34.51 11.87 34.51 12.02 35.63 11.89 35.66 11.7 34.81 11.65 34.51 11.87"/>
              <polygon class="cls-2" points="32.27 3.23 32.26 3.22 31.46 3.22 31.47 4.17 32.27 3.23"/>
              <path class="cls-8" d="M25.17,5.57h0l.72.86h2.63s.01-.03.02-.04l-3.03-1.2c-.19.23-.33.38-.33.38h-.01Z"/>
              <path class="cls-14" d="M28.61,6.42l-.08-.03s-.01.02-.02.03h.1Z"/>
              <polygon class="cls-4" points="30.5 37.07 31.32 37.27 30.83 36.63 30.5 37.07"/>
              <path class="cls-14" d="M28.15,8.08l1.17-1.38-.71-.28h-.1c-.37.57-.74,1.14-1.09,1.66h.73Z"/>
              <path class="cls-2" d="M28.51,6.42h-2.63l1.39,1.66h.15c.34-.52.72-1.09,1.09-1.66Z"/>
              <polygon class="cls-13" points="34.51 12.02 34.51 11.87 34.51 11.87 34.25 12.05 34.51 12.02"/>
              <polygon class="cls-11" points="29.56 6.42 28.61 6.42 29.32 6.7 29.56 6.42"/>
              <polygon class="cls-11" points="28.4 33.45 28.36 33.5 28.43 33.5 28.4 33.45"/>
              <path class="cls-4" d="M28.15,8.08h-.72s-.05.07-.07.1l.35.42s.44-.52.44-.52Z"/>
              <polygon class="cls-14" points="31.61 13.99 32.42 14.25 31.95 13.68 31.61 13.93 31.61 13.99"/>
              <path class="cls-14" d="M27.42,8.08h-.15l.08.1s.04-.07.07-.1Z"/>
              <path class="cls-11" d="M27.7,8.6l-.35-.42c-.3.46-.58.87-.81,1.19h.5l.66-.77Z"/>
              <polygon class="cls-11" points="31.91 26.94 30.58 26.82 31.45 27.41 31.91 26.94"/>
              <path class="cls-14" d="M27.51,30.57c-.1-.01.05.17.38.48l-.25-.4c-.06-.05-.1-.08-.13-.08Z"/>
              <polygon class="cls-11" points="24.36 11.37 25.72 12.07 26.56 12.34 27.31 11.23 25.96 11.16 24.36 11.37"/>
              <polygon class="cls-2" points="31.3 13.62 31.03 13.8 31.61 13.99 31.61 13.93 31.3 13.62"/>
              <polygon class="cls-4" points="24.36 11.37 23.68 11.03 23.32 11.01 22.54 11.03 23.82 11.45 24.36 11.37"/>
              <path class="cls-8" d="M25.95,10.15c-.11.06.63-.01,1.73-.15l-.63-.63h-.5c-.31.44-.53.74-.6.78Z"/>
              <polygon class="cls-11" points="27.75 24.94 27.75 24.94 27.75 24.95 29.92 26.42 31.3 25.55 31.3 15.96 29.94 14.76 27.58 16.32 27.75 24.94"/>
              <polygon class="cls-11" points="26.99 28.02 28.43 29.21 28.12 27.53 27.91 27.44 26.99 28.02"/>
              <polygon class="cls-11" points="28.43 29.21 28.64 30.3 29.13 29.79 28.43 29.21"/>
              <polygon class="cls-14" points="28.08 27.34 28.12 27.53 30.33 28.56 31.45 27.41 30.58 26.82 29.1 26.69 28.08 27.34"/>
              <polygon class="cls-4" points="29.1 26.69 27.94 26.59 28.08 27.34 29.1 26.69"/>
              <polygon class="cls-14" points="27.94 26.59 29.1 26.69 29.77 26.27 27.6 24.8 27.94 26.59"/>
              <path class="cls-2" d="M27.95,31.01c-.12-.16-.23-.28-.31-.35l.25.4h0l.05-.05h.01Z"/>
              <polygon class="cls-13" points="25.89 26.5 27.91 27.44 28.08 27.34 27.94 26.59 25.97 26.42 25.89 26.5"/>
              <polygon class="cls-1" points="25.58 14.03 25.6 14.15 27.43 16.16 27.43 16.17 29.8 14.61 27.9 12.94 25.58 14.03"/>
              <polygon class="cls-14" points="27.73 12.79 27.9 12.94 28.1 12.84 27.89 12.77 27.73 12.79"/>
              <polygon class="cls-13" points="26.56 12.34 27.89 12.77 28.36 12.72 29.75 12.07 29 11.33 27.31 11.23 26.56 12.34"/>
              <polygon class="cls-14" points="30.19 12.51 29.75 12.07 28.36 12.72 30.19 12.51"/>
              <polygon class="cls-13" points="28.36 12.72 28.1 12.84 31.03 13.8 31.3 13.62 30.19 12.51 28.36 12.72"/>
              <polygon class="cls-13" points="27.6 24.79 27.6 24.79 27.43 16.17 26.14 17.02 27.6 24.79"/>
              <polygon class="cls-4" points="25.65 26.39 25.89 26.5 25.97 26.42 25.65 26.39"/>
              <polygon class="cls-13" points="27.43 16.17 27.43 16.16 25.6 14.15 26.14 17.02 27.43 16.17"/>
              <rect class="cls-14" x="36.57" y="1.25" height="1.18"/>
              <polygon class="cls-1" points="38.61 4.04 38.61 4.03 38.03 3.4 38.02 3.41 38.61 4.04"/>
              <path class="cls-1" d="M32.57,3.55l.6-.87-.11-.03c-.1,0-.21.03-.33.04l-.46.54s.3.32.3.32Z"/>
              <polygon class="cls-13" points="33.16 2.68 32.57 3.55 33.63 4.7 36.98 2.27 36.18 1.41 34.73 1.61 34.39 3.03 33.16 2.68"/>
              <path class="cls-14" d="M36.95,8.3c.54-.54,1.18-1.2,1.27-1.33.1-.15.28-1.82.39-2.94l-.58-.63-3.78,1.96,2.71,2.93h0Z"/>
              <polygon class="cls-2" points="30.16 7.07 30.18 7.04 30.1 7.01 30.16 7.07"/>
              <polygon class="cls-4" points="34.51 11.87 34.81 11.65 34.33 11.62 34.3 11.64 34.51 11.87"/>
              <polygon class="cls-13" points="30.1 7.01 30.18 7.04 31.15 5.63 31.07 4.63 29.56 6.42 29.56 6.42 30.1 7.01"/>
              <polygon class="cls-2" points="31.47 4.17 31.48 5.15 32.57 3.55 32.27 3.23 31.47 4.17"/>
              <polygon class="cls-4" points="30.24 7.16 30.33 7.1 30.18 7.04 30.16 7.07 30.24 7.16"/>
              <polygon class="cls-8" points="30.41 7.35 30.66 7.23 30.33 7.1 30.24 7.16 30.41 7.35"/>
              <polygon class="cls-1" points="34.33 11.62 34.28 11.62 34.3 11.64 34.33 11.62"/>
              <path class="cls-2" d="M31.49,6.79v.76l3.6,1.42s-1.26.18-2.84.41l.96,1.06,3-1.41s.34-.34.74-.74l-2.71-2.93s-2.75,1.43-2.75,1.43Z"/>
              <polygon class="cls-13" points="31.21 6.46 31.24 6.92 31.49 6.79 31.48 6.26 31.21 6.46"/>
              <polygon class="cls-11" points="31.48 6.26 33.63 4.7 32.57 3.55 31.48 5.15 31.48 6.26"/>
              <polygon class="cls-2" points="30.41 7.35 31.34 8.38 31.28 7.47 30.66 7.23 30.41 7.35"/>
              <path class="cls-1" d="M32.26,9.39c1.58-.22,2.84-.41,2.84-.41l-3.6-1.42v1l.76.83Z"/>
              <polygon class="cls-13" points="31.34 8.38 31.5 8.56 31.5 7.56 31.28 7.47 31.34 8.38"/>
              <polygon class="cls-8" points="30.18 7.04 30.33 7.1 31.21 6.46 31.15 5.63 30.18 7.04"/>
              <polygon class="cls-13" points="31.28 7.47 31.24 6.92 30.66 7.23 31.28 7.47"/>
              <polygon class="cls-4" points="33.56 12.13 34.13 12.06 34.15 12.01 34.17 12.06 34.25 12.05 34.51 11.87 34.3 11.64 33.56 12.13"/>
              <polygon class="cls-2" points="29.41 8.08 29.45 8.11 29.72 7.71 29.01 8.08 29.41 8.08"/>
              <polygon class="cls-14" points="29.96 7.36 30.16 7.07 30.1 7.01 29.32 6.7 28.15 8.08 28.97 8.08 29.96 7.36"/>
              <polygon class="cls-8" points="30.1 7.01 29.56 6.42 29.56 6.42 29.32 6.7 30.1 7.01"/>
              <polygon class="cls-4" points="28.97 8.08 29.01 8.08 29.72 7.71 29.96 7.36 28.97 8.08"/>
              <polygon class="cls-11" points="30.24 7.16 30.16 7.07 29.96 7.36 30.24 7.16"/>
              <polygon class="cls-11" points="32.97 12.2 33.56 12.13 34.3 11.64 34.28 11.62 32.39 11.52 32.97 12.2"/>
              <path class="cls-2" d="M31.52,10.51l.45.52,1.25-.59-.96-1.06c-.24.03-.49.07-.74.1v1.02h0Z"/>
              <polygon class="cls-2" points="29.96 7.36 29.72 7.71 30.41 7.35 30.24 7.16 29.96 7.36"/>
              <path class="cls-14" d="M31.51,9.49v-.93l-.17-.18.08,1.12s.06,0,.09,0Z"/>
              <path class="cls-11" d="M31.51,9.49c.25-.04.5-.07.74-.1l-.75-.83v.93h.01Z"/>
              <path class="cls-11" d="M29.72,7.71l-.27.4,1.28,1.49c.23-.03.47-.06.7-.1l-.08-1.12-.93-1.03-.69.36h-.01Z"/>
              <path class="cls-1" d="M31.43,9.5c-.23.03-.46.06-.7.1l.77.89-.07-.98h0Z"/>
              <polygon class="cls-13" points="29.01 8.08 28.87 8.15 28.97 8.08 28.15 8.08 27.7 8.6 28.48 9.53 29.45 8.11 29.41 8.08 29.01 8.08"/>
              <polygon class="cls-11" points="29.01 8.08 28.97 8.08 28.87 8.15 29.01 8.08"/>
              <path class="cls-2" d="M27.68,10.01c.17-.02.34-.04.52-.07l.28-.41-.77-.93-.66.78.63.63Z"/>
              <polygon class="cls-11" points="31.3 13.62 31.61 13.93 31.95 13.68 31.68 13.37 31.3 13.62"/>
              <path class="cls-14" d="M28.76,9.87c.62-.08,1.3-.17,1.97-.27l-1.28-1.49-.97,1.42.28.34Z"/>
              <polygon class="cls-13" points="31.3 13.62 31.68 13.37 30.9 12.43 30.19 12.51 31.3 13.62"/>
              <polygon class="cls-13" points="29.75 12.07 30.36 11.78 30.03 11.39 29 11.33 29.75 12.07"/>
              <path class="cls-13" d="M28.2,9.94c.18-.02.37-.05.56-.07l-.28-.34s-.28.41-.28.41Z"/>
              <polygon class="cls-4" points="30.19 12.51 30.9 12.43 30.36 11.78 29.75 12.07 30.19 12.51"/>
              <path class="cls-8" d="M31.5,10.49l-.77-.89c-.67.09-1.35.19-1.97.27l1.27,1.52,1.05.06.88-.41-.45-.52v.35l-.02-.38h.01Z"/>
              <polygon class="cls-2" points="30.36 11.78 30.9 12.43 32.97 12.2 32.39 11.52 31.08 11.44 30.36 11.78"/>
              <polygon class="cls-11" points="36.49 39.43 37.13 38.79 37.13 38.79 36.49 39.43"/>
              <polygon class="cls-14" points="34.51 41.4 35 40.91 35 40.91 34.51 41.4"/>
              <path class="cls-11" d="M33.99,40.75l.5.66-1.49-2.34c.38.64.71,1.21.99,1.68Z"/>
              <polygon class="cls-2" points="34.5 41.41 34.51 41.4 35 40.91 35 40.91 34.5 41.41"/>
              <path class="cls-13" d="M32.2,37.48l1.97.48c.33-.2.72-.44,1.13-.69-.46-.37-.98-.8-1.53-1.25l-1.57,1.45h0Z"/>
              <path class="cls-1" d="M32.11,37.57c.25.42.5.83.73,1.22.07-.04.58-.36,1.34-.82l-1.97-.48-.09.08h0Z"/>
              <path class="cls-13" d="M35.33,35.61l.42,1.4c.1-.06.2-.12.3-.18l.16-.62s-.88-.6-.88-.6Z"/>
              <path class="cls-2" d="M32.84,38.8c.06.09.11.19.16.28l1.49,2.34.5-.5.54-2.11h-2.7,0Z"/>
              <path class="cls-14" d="M33.78,36.03c.55.45,1.07.88,1.53,1.25.14-.09.29-.18.45-.27l-.42-1.4-.63-.43-.92.85h-.01Z"/>
              <polygon class="cls-8" points="36.49 39.43 37.13 38.8 36.29 38.8 36.49 39.43"/>
              <path class="cls-13" d="M35.09,34.82l.24.79.88.6-.16.62c.3-.18.62-.37.93-.57l-1.82-1.5s-.07.06-.07.06Z"/>
              <polygon class="cls-4" points="29.52 33.96 29.73 33.93 29.66 33.83 29.52 33.96"/>
              <polygon class="cls-13" points="30.83 36.63 31.32 37.27 31.95 37.42 31.17 36.19 30.83 36.63"/>
              <path class="cls-8" d="M31.17,36.19l.79,1.23.08.02c-.26-.44-.53-.89-.81-1.34,0,0-.06.09-.06.09Z"/>
              <path class="cls-2" d="M32.04,37.44s.05.08.07.12l.09-.08-.17-.04h0Z"/>
              <polygon class="cls-11" points="35.09 34.82 35.16 34.75 35.04 34.66 35.09 34.82"/>
              <path class="cls-4" d="M33.78,36.03c-.49-.4-1.01-.83-1.53-1.26l-1.01,1.33c.27.45.54.9.81,1.34l.17.04,1.57-1.45h0Z"/>
              <path class="cls-4" d="M29.77,33.73l-.11.1.06.1.16-.02c-.04-.06-.08-.12-.11-.18Z"/>
              <path class="cls-8" d="M31.02,33.76l1.34-.18-1.38-.94-.63.56c.22.18.44.37.66.56h0Z"/>
              <path class="cls-8" d="M29.88,33.91c.43.69.89,1.44,1.35,2.2l1.01-1.33c-.41-.34-.82-.68-1.22-1.01l-1.14.15h0Z"/>
              <path class="cls-11" d="M29.88,33.91l1.14-.15c-.23-.19-.45-.37-.66-.56l-.59.53c.04.06.07.12.11.18Z"/>
              <path class="cls-4" d="M33.78,36.03l.92-.85-1.82-1.24-.64.84c.52.43,1.04.85,1.53,1.26h.01Z"/>
              <polygon class="cls-11" points="34.73 33.62 33.22 33.16 35.04 34.66 34.73 33.62"/>
              <polygon class="cls-8" points="33.22 33.16 31.76 31.95 31.13 32.51 33.22 33.16"/>
              <polygon class="cls-14" points="33.23 33.47 32.37 33.58 32.88 33.94 33.23 33.47"/>
              <polygon class="cls-14" points="29.17 33.06 28.67 33.07 28.4 33.45 28.43 33.5 28.43 33.5 28.85 34.04 29.52 33.96 29.66 33.83 29.17 33.06"/>
              <path class="cls-14" d="M29.77,33.73l.59-.53c-.24-.2-.48-.4-.7-.59l-.38.35c.16.24.32.5.49.77Z"/>
              <path class="cls-4" d="M29.17,33.06h0l.49.76.11-.1c-.17-.27-.33-.52-.49-.77l-.11.1h0Z"/>
              <path class="cls-11" d="M29.66,32.61c.22.19.46.39.7.59l.63-.56-.48-.33.63.2.62-.56-.74-.61s-1.36,1.27-1.36,1.27Z"/>
              <polygon class="cls-14" points="28.67 33.07 29.17 33.06 28.94 32.7 28.67 33.07"/>
              <polygon class="cls-14" points="31.88 27.7 32.42 26.98 31.91 26.94 31.45 27.41 31.88 27.7"/>
              <polygon class="cls-2" points="30.46 28.2 31.13 28.51 32.01 27.34 31.58 27.05 30.46 28.2"/>
              <path class="cls-8" d="M27.9,31.06c.08.08.18.17.28.26-.08-.12-.16-.22-.23-.31,0,0-.05.05-.05.05Z"/>
              <polygon class="cls-1" points="28.89 31.66 29.85 30.38 29.13 29.79 28.64 30.3 28.89 31.66"/>
              <path class="cls-2" d="M29.28,32.96c-.09-.13-.17-.26-.25-.39l-.09.13.23.37h0l.11-.1h0Z"/>
              <path class="cls-13" d="M29.03,32.57l.22-.31c-.42-.36-.78-.68-1.07-.94.24.33.53.76.85,1.25Z"/>
              <polygon class="cls-2" points="30.33 30.77 31.52 29.11 31 28.87 29.85 30.38 30.33 30.77"/>
              <path class="cls-4" d="M29.25,32.27c.13.11.27.23.41.35l1.36-1.27-.69-.57-1.08,1.49Z"/>
              <path class="cls-2" d="M29.03,32.57c.08.13.17.26.25.39l.38-.35c-.14-.12-.28-.23-.41-.35,0,0-.22.31-.22.31Z"/>
              <polygon class="cls-14" points="31.44 27.41 31.9 26.93 31.9 26.93 31.44 27.41"/>
              <polygon class="cls-13" points="27.9 31.06 27.95 31.01 27.95 31.01 27.9 31.06"/>
              <polygon class="cls-14" points="38.35 28.02 38.56 28.49 38.62 28.49 38.35 28 38.35 28.02"/>
              <polygon class="cls-4" points="40.17 26.73 41.56 28.02 41.52 24.05 40.74 19.51 41.45 17.96 41.39 11.92 40.08 13.96 40.17 26.73"/>
              <polygon class="cls-4" points="40.74 19.51 41.52 24.05 41.45 17.96 40.74 19.51"/>
              <polygon class="cls-9" points="38.62 28.49 40.18 31.28 41.58 30.56 41.56 28.12 38.62 28.49"/>
              <path class="cls-11" d="M41.04,7.22l-3.06,3.22.07,3.21,2.22-1.18-.19-1.21c-.1-.65.61-.98,1.3-1.14l-.03-2.47-.24-.47-.07.05h0Z"/>
              <polygon class="cls-14" points="38.43 31.74 38.43 31.74 39.59 32.67 38.39 29.66 38.43 31.74"/>
              <path class="cls-11" d="M38.38,29.36c.48.61,1.58,2.07,1.69,2.78.1.61.4,1.13.6,1.41l.1.08-2.22-5.14-.19.02.02.84h0Z"/>
              <path class="cls-4" d="M35.88,23.49c0-.06-.06.16-.13.55.09-.3.14-.5.13-.55Z"/>
              <path class="cls-13" d="M35.97,29.75l2.46,1.99h0l-.04-2.08-.23-.58s.09.11.22.28l-.02-.84-2.01.25-.38.98Z"/>
              <path class="cls-13" d="M36.52,10.43l-.76.54-.1.72,1.13.06-1.16.13-.09.64-.56,1.07.56,1.07.46,2.06-1.35-.29v.31l.59.52.07,5.91-.44.27.07,2.22h0l.02.75c.32-.96.62-1.86.78-2.41.07-.39.12-.61.13-.55,0,.05-.04.25-.13.55-.2,1.07-.55,3.4-.72,4.48v.42l1.33-.16.17-.44-.43-13.65,1.95-1.03-.07-3.21-.42.44-1.03-.45v.03Z"/>
              <polygon class="cls-13" points="34.59 14.35 34.98 13.6 34.54 12.75 34.59 14.35"/>
              <polygon class="cls-4" points="38.35 28.02 38.35 28 38.31 27.92 38.35 28.02"/>
              <polygon class="cls-1" points="34.65 16.45 36 16.74 35.54 14.68 34.98 13.6 34.59 14.35 34.65 16.45"/>
              <path class="cls-11" d="M33.6,27.6l.71.77c.21-.61.44-1.28.66-1.93l-.02-.75-1.34,1.9h0Z"/>
              <polygon class="cls-12" points="33.55 26.09 34.94 25.69 34.87 23.47 33.5 24.32 33.55 26.09"/>
              <path class="cls-2" d="M34.97,28.94h.07v-.43c-.04.18-.06.33-.07.42h0Z"/>
              <polygon class="cls-11" points="34.07 12.18 33.19 13.95 33.24 15.48 33.75 15.94 34.59 14.35 34.54 12.75 34.19 12.09 34.07 12.18"/>
              <path class="cls-13" d="M34.3,28.4v-.02l-.71-.77v.23l.7.56h0Z"/>
              <path class="cls-14" d="M34.39,28.47l-.08-.09v.02l.09.07h0Z"/>
              <polygon class="cls-4" points="33.75 15.94 34.04 16.2 34.21 16.35 34.65 16.45 34.59 14.35 33.75 15.94"/>
              <polygon class="cls-11" points="34.66 16.76 34.65 16.45 34.21 16.35 34.66 16.76"/>
              <polygon class="cls-11" points="34.21 16.35 34.04 16.2 33.75 15.94 33.61 16.22 34.21 16.35"/>
              <polygon class="cls-14" points="33.59 27.6 32.87 26.81 32.97 27.32 33.49 27.74 33.59 27.6"/>
              <polygon class="cls-8" points="32.5 26.4 32.87 26.81 32.78 26.32 32.5 26.4"/>
              <polygon class="cls-1" points="32.68 14.98 33.24 15.48 33.19 13.95 32.68 14.98"/>
              <polygon class="cls-13" points="33.6 27.6 33.6 27.59 33.59 27.6 33.6 27.6"/>
              <polygon class="cls-4" points="33.49 27.74 33.61 27.84 33.6 27.6 33.59 27.6 33.49 27.74"/>
              <polygon class="cls-13" points="32.78 26.32 33.55 26.09 33.5 24.32 32.52 24.92 32.78 26.32"/>
              <polygon class="cls-2" points="41.04 7.22 41.1 7.18 41.1 7.16 41.1 7.16 41.04 7.22"/>
              <polygon class="cls-8" points="35.81 10.65 35.76 10.97 36.52 10.43 36.29 10.33 35.81 10.65"/>
              <polygon class="cls-13" points="35.88 10.15 35.81 10.65 36.29 10.33 35.88 10.15"/>
              <polygon class="cls-13" points="34.19 12.09 34.17 12.06 34.13 12.06 34.07 12.18 34.19 12.09"/>
              <polygon class="cls-13" points="38.17 31.98 39.74 33.04 39.59 32.67 38.43 31.74 38.17 31.98"/>
              <path class="cls-13" d="M40.84,33.77l-.06-.14-.1-.08c.1.14.16.22.16.22Z"/>
              <path class="cls-14" d="M37.11,32.96l2.97,1.43s.11-.07.16-.1l-.5-1.26-1.56-1.06-1.07.98h0Z"/>
              <path class="cls-2" d="M36.02,33.97l2.74,1.22s.08-.05.13-.08l-2.31-1.65-.55.51h-.01Z"/>
              <polygon class="cls-11" points="38.17 31.98 38.43 31.74 35.97 29.75 35.75 30.33 38.17 31.98"/>
              <path class="cls-1" d="M33.56,30.52s.03-.1.09-.27l-.12.11.03.16Z"/>
              <polygon class="cls-14" points="35.32 31.43 35.29 32.09 37.11 32.96 38.17 31.98 35.75 30.33 35.32 31.43"/>
              <polygon class="cls-11" points="36.02 33.97 36.57 33.46 35.28 32.53 35.24 33.62 36.02 33.97"/>
              <polygon class="cls-11" points="35.28 32.53 35.29 32.09 33.31 31.13 35.28 32.53"/>
              <path class="cls-4" d="M33.64,28.9l.26.17.18-.02c.07-.2.15-.42.23-.65l-.69-.56.03,1.06h0Z"/>
              <path class="cls-11" d="M34.07,29.05l.76-.09-.44-.48-.09-.07c-.08.23-.15.45-.23.65h0Z"/>
              <path class="cls-11" d="M34.97,28.94l-.13.02.11.12s0-.05.02-.14Z"/>
              <path class="cls-1" d="M34.03,29.17s.03-.08.04-.12l-.18.02.14.1Z"/>
              <polygon class="cls-2" points="33.89 29.07 33.64 28.9 33.38 29.13 33.89 29.07"/>
              <path class="cls-1" d="M33.38,29.13l-.07.06.22,1.17.12-.11c.08-.24.22-.62.38-1.09l-.14-.1-.51.06h0Z"/>
              <polygon class="cls-14" points="33.49 27.74 32.97 27.32 33.14 28.24 33.49 27.74"/>
              <polygon class="cls-2" points="33.14 28.24 32.99 28.46 33.21 28.6 33.14 28.24"/>
              <polygon class="cls-14" points="33.21 28.6 33.64 28.9 33.64 28.9 33.61 27.84 33.49 27.74 33.14 28.24 33.21 28.6"/>
              <polygon class="cls-14" points="33.38 29.13 33.64 28.9 33.21 28.6 33.31 29.14 33.38 29.13"/>
              <polygon class="cls-11" points="33.32 29.2 33.38 29.13 33.31 29.14 33.32 29.2"/>
              <polygon class="cls-2" points="33.31 29.14 33.21 28.6 32.99 28.46 32.42 29.25 33.31 29.14"/>
              <polygon class="cls-8" points="36.79 11.76 35.66 11.7 35.63 11.89 36.79 11.76"/>
              <polygon class="cls-2" points="34.15 12.01 34.13 12.06 34.17 12.06 34.15 12.01"/>
              <path class="cls-4" d="M41.62,34.31v-.82c-.19.11-.39.22-.6.34l.6.48Z"/>
              <polygon class="cls-2" points="41.62 34.32 41.62 34.32 41.62 34.32 37.42 38.5 37.42 38.51 41.63 34.32 41.62 34.31 41.62 34.32 41.62 34.32"/>
              <polygon class="cls-13" points="37.41 38.5 41.61 34.32 41.61 34.32 37.41 38.5"/>
              <path class="cls-2" d="M41.62,34.32h0l-.6-.49s-.04.03-.07.04l.66.45h0Z"/>
              <polygon class="cls-11" points="35.55 38.8 36.29 38.8 36.19 38.46 35.66 38.33 35.55 38.8"/>
              <path class="cls-4" d="M40.32,34.52l-.25-.12c-.38.23-.78.47-1.19.72l.49.35-.62-.28c-.59.35-1.19.72-1.77,1.07l.57.47-.14,1.78,4.2-4.19h0l-.66-.45c-.23.14-.47.28-.72.43,0,0,.09.22.09.22Z"/>
              <path class="cls-2" d="M36.01,37.84l-.12-.39-.06.24c.06.05.12.1.18.15Z"/>
              <polygon class="cls-13" points="37.13 38.8 37.4 38.8 37.42 38.51 37.13 38.8"/>
              <polygon class="cls-14" points="37.12 38.81 37.41 38.52 37.41 38.52 37.12 38.81"/>
              <path class="cls-8" d="M35.31,37.28c.18.15.36.29.52.42l.06-.24-.14-.45c-.15.09-.3.18-.45.27h0Z"/>
              <path class="cls-1" d="M35.89,37.46l.16-.63c-.1.06-.2.12-.3.18l.14.45Z"/>
              <path class="cls-14" d="M35.66,38.33l.53.13-.19-.62c-.06-.05-.12-.1-.18-.15l-.16.63h0Z"/>
              <path class="cls-11" d="M36.99,36.26c-.32.19-.63.38-.93.57l-.16.63.12.39c.63.51,1.02.82,1.02.82l-.83-.2.1.33h.83l.29-.29.14-1.78-.57-.47h0Z"/>
              <path class="cls-2" d="M35.66,38.33l.16-.63c-.16-.13-.33-.27-.52-.42-.41.25-.8.49-1.13.69l1.49.36Z"/>
              <path class="cls-13" d="M34.18,37.97c-.76.46-1.27.78-1.34.82h2.7l.12-.46-1.49-.36h.01Z"/>
              <path class="cls-4" d="M37.03,38.67s-.39-.32-1.02-.82l.19.62.83.2Z"/>
              <path class="cls-13" d="M39.37,35.46l-.49-.35s-.08.05-.13.08l.62.28h0Z"/>
              <path class="cls-2" d="M40.24,34.3s-.11.06-.16.1l.25.12s-.09-.22-.09-.22Z"/>
              <path class="cls-2" d="M9.19,2.55c.65.16,2.13.61,2.82.82h.27l-1.57-1.81c-.68.47-1.24.82-1.56.94l.04.05Z"/>
              <polygon class="cls-13" points="24.14 .07 24.06 .07 24.1 .08 24.14 .07"/>
              <polygon class="cls-4" points="13.89 2.37 13.56 1.92 13.65 3.34 13.89 2.37"/>
              <polygon class="cls-2" points="22.07 .62 21.16 .07 16.65 .07 18.33 1.6 22.07 .62"/>
              <polygon class="cls-4" points="33.49 1.78 34.94 .07 32.46 .07 33.49 1.78 33.49 1.78"/>
              <path class="cls-4" d="M31.45,2.19v-.12l2.04-.29-1.03-1.71h-.44c-.78.55-1.6,1.11-2.34,1.61l1.76.5h0Z"/>
              <path class="cls-5" d="M29.69,1.69c.74-.5,1.55-1.07,2.34-1.61h-6.92l-.44.17,5.03,1.44h0Z"/>
              <polygon class="cls-1" points="22.07 .62 22.72 1.01 24.66 .25 24.1 .08 22.07 .62"/>
              <polygon class="cls-2" points="9.85 1.77 10.16 .93 9.42 .07 8.81 .07 9.85 1.77"/>
              <path class="cls-13" d="M13.56,1.92l-.11-1.85h-.68c-.12.09-.24.18-.37.27l1.16,1.57h0Z"/>
              <path class="cls-14" d="M10.71,1.56c.52-.36,1.1-.78,1.7-1.22l-.2-.27h-1.74l-.31.85.55.64Z"/>
              <path class="cls-14" d="M27.04,1.6s-11.76.45-12.95,0l-.2.77.72.98,9.14-.07,3.29-1.68Z"/>
              <path class="cls-13" d="M30.75,2.92c.12-.18.18-.29.18-.29l.02.26.51-.06v-.65l-1.77-.5c-1.09.74-2.02,1.35-2.44,1.57h.7c.73-.09,1.78-.21,2.8-.33Z"/>
              <path class="cls-8" d="M12.28,3.37h-.27c.23.07.37.12.37.12,0,0-.1-.12-.1-.12Z"/>
              <polygon class="cls-13" points="19.3 3.39 19.3 3.39 19.3 3.39 23.76 3.28 23.76 3.28 14.62 3.36 14.72 3.49 19.3 3.39"/>
              <path class="cls-14" d="M27.04,3.35c.09,0,.43-.05.91-.1h-.7c-.1.06-.17.09-.21.1h0Z"/>
              <polygon class="cls-11" points="35.07 .21 35.07 .21 34.94 .07 35.07 .21"/>
              <polygon class="cls-11" points="35.07 .21 34.94 .07 35.07 .21 35.07 .21"/>
              <polygon class="cls-4" points="33.8 1.74 34.94 .07 33.49 1.78 33.8 1.74"/>
              <polygon class="cls-14" points="34.73 1.61 35.07 .21 34.94 .07 33.8 1.74 34.73 1.61"/>
              <path class="cls-11" d="M9.15,2.51s-.04.02-.06.02c.03,0,.06,0,.1.02l-.04-.05h0Z"/>
              <path class="cls-2" d="M8.92,2.54s.09,0,.17,0c-.1-.02-.17-.03-.2-.03l.03.04h0Z"/>
              <path class="cls-14" d="M8.92,2.54l-.03-.04s-.02.02.03.04Z"/>
              <path class="cls-11" d="M32.72,2.69l.09-.11-1.36-.39v.65c.47-.05.9-.11,1.27-.15Z"/>
              <path class="cls-11" d="M30.93,2.64s-.07.1-.18.29c.07,0,.13-.02.2-.02l-.02-.26h0Z"/>
              <polygon class="cls-11" points="33.49 1.78 33.49 1.78 31.45 2.07 31.45 2.19 32.81 2.58 33.49 1.78"/>
              <path class="cls-14" d="M33.16,2.68l.03-.05s-.09,0-.14.02l.11.03Z"/>
              <path class="cls-4" d="M32.81,2.58l-.09.11c.12,0,.23-.03.33-.04l-.24-.07Z"/>
              <path class="cls-14" d="M33.19,2.63l.43-.63-.13-.22-.68.8.24.07s.1,0,.14-.02Z"/>
              <polygon class="cls-14" points="33.62 2 33.8 1.74 33.49 1.78 33.49 1.78 33.62 2"/>
              <path class="cls-1" d="M33.94,2.54l-.32-.54-.43.63c.46-.06.75-.09.75-.09Z"/>
              <path class="cls-14" d="M33.94,2.54s-.29.03-.75.09l-.03.05,1.23.35.34-1.42-.93.13-.18.26s.32.54.32.54Z"/>
              <path class="cls-11" d="M26.45,4.06c-.1.12-.21.25-.31.38l3.69-.06-3.37-.32h-.01Z"/>
              <polygon class="cls-1" points="19.3 3.39 19.3 3.39 12.61 4.42 12.77 4.51 22.66 3.7 19.3 3.39"/>
              <path class="cls-11" d="M25.17,5.57l-.63-.76.97.38c.18-.21.41-.48.63-.75l-13.11.21,2.04,1.1s10.09-.21,10.11-.18h-.01Z"/>
              <polygon class="cls-14" points="13.02 4.65 12.77 4.51 10.85 4.66 10.87 4.68 13.02 4.65"/>
              <path class="cls-14" d="M26.14,4.44c.11-.13.21-.26.31-.38l-3.79-.36-9.89.8.26.14,13.11-.21h0Z"/>
              <path class="cls-14" d="M27.04,3.35s-.04,0,0,0l-4.39.36,3.79.36c.31-.37.56-.67.59-.71h0Z"/>
              <polygon class="cls-14" points="10.87 4.68 10.85 4.66 10.57 4.69 10.87 4.68"/>
              <path class="cls-11" d="M25.17,5.57h0s.14-.15.33-.38l-.97-.38.63.76h.01Z"/>
              <polygon class="cls-13" points="17.81 9.32 17.79 9.34 17.83 9.34 17.81 9.32"/>
              <polygon class="cls-11" points="25.96 11.16 27.51 10.95 27.54 10.9 23.63 11 23.68 11.03 25.96 11.16"/>
              <polygon class="cls-14" points="25.72 12.07 23.82 11.45 15.73 12.54 15.73 12.54 26.48 12.45 25.72 12.07"/>
              <polygon class="cls-8" points="14.84 11.23 22.54 11.03 22.3 10.96 23.32 11.01 23.63 11 20.84 9.59 19.52 10.65 17.83 9.34 17.79 9.34 14.84 11.23 14.84 11.23"/>
              <polygon class="cls-2" points="27.92 10.89 27.54 10.9 27.51 10.95 27.92 10.89"/>
              <polygon class="cls-8" points="23.68 11.03 24.36 11.37 25.96 11.16 23.68 11.03"/>
              <polygon class="cls-2" points="24.36 11.37 23.82 11.45 25.72 12.07 24.36 11.37"/>
              <polygon class="cls-2" points="22.3 10.96 22.54 11.03 23.32 11.01 22.3 10.96"/>
              <path class="cls-14" d="M27.04,8.07l-2.02-1.08s-2.23.01-3.12.24-1.78.29-2.75.83h7.9-.01Z"/>
              <polygon class="cls-14" points="11.12 41.47 11.13 41.46 11.12 41.46 11.12 41.47"/>
              <polygon class="cls-11" points="22.48 39.23 13.72 39.2 12.23 40.5 28.62 40.5 28.59 40.36 22.48 39.23"/>
              <path class="cls-4" d="M10.4,40.5h.27l-.06-.12c-.07.04-.14.08-.21.12Z"/>
              <polygon class="cls-14" points="10.67 40.5 11.12 41.46 11.13 41.46 12.23 40.5 10.67 40.5"/>
              <path class="cls-13" d="M7.9,40.5h0l-.32.96h1.1c.5-.26,1.09-.6,1.72-.96h-2.5Z"/>
              <path class="cls-14" d="M9.6,38.23l1.01,2.15c2.02-1.17,4.23-2.55,4.23-2.55l-5.24.4h0Z"/>
              <path class="cls-14" d="M30.58,39.56l-1.94-1.56-.57.07.49,2.18.24.15,1.41.26.5-.54c-.04-.19-.09-.37-.13-.56Z"/>
              <polygon class="cls-4" points="22.48 39.23 27.04 39.25 28.56 40.24 28.07 38.07 20.72 38.91 22.48 39.23"/>
              <polygon class="cls-14" points="18.18 39.2 20.72 38.91 14.84 37.83 18.18 39.2"/>
              <path class="cls-13" d="M30.71,40.12l.24-.26-.37-.3c.04.18.09.37.13.56Z"/>
              <path class="cls-14" d="M30.21,40.66l.65.12c-.05-.21-.1-.44-.15-.66l-.5.54Z"/>
              <polygon class="cls-2" points="32.44 41.07 32.87 41.41 34.31 41.41 32.44 41.07"/>
              <polygon class="cls-14" points="28.8 40.4 28.96 40.5 28.62 40.5 28.83 41.42 29.5 41.42 30.21 40.66 28.8 40.4"/>
              <path class="cls-2" d="M29.82,37.86l-1.18.14,1.94,1.56c-.2-.82-.38-1.53-.42-1.7h-.34Z"/>
              <path class="cls-2" d="M30.87,40.78c.05.22.1.44.14.64h.59c.04-.15.09-.32.14-.48,0,0-.87-.16-.87-.16Z"/>
              <path class="cls-13" d="M31.73,40.94l.71.13-.61-.49c-.03.12-.07.24-.1.36Z"/>
              <path class="cls-11" d="M30.95,39.86l.88.71c.2-.74.41-1.5.53-1.95l-.12-.16-1.29,1.39h0Z"/>
              <polygon class="cls-14" points="28.02 37.86 28.07 38.07 28.64 38 28.47 37.86 28.02 37.86"/>
              <path class="cls-14" d="M29.82,37.86h.34v-.04l-.33.04h-.01Z"/>
              <polygon class="cls-14" points="28.02 37.86 28.47 37.86 27.92 37.42 28.02 37.86"/>
              <path class="cls-14" d="M32.25,38.47l.12.16c.06-.24.1-.4.1-.4,0,0-.22.24-.22.24Z"/>
              <path class="cls-11" d="M34.39,41.42c.05.09.1.17.14.25l.08-.2-.23-.04h0Z"/>
              <polygon class="cls-13" points="28.62 40.5 28.96 40.5 28.8 40.4 28.59 40.36 28.62 40.5"/>
              <polygon class="cls-13" points="22.48 39.23 28.59 40.36 28.56 40.24 27.04 39.25 22.48 39.23"/>
              <polygon class="cls-14" points="28.59 40.36 28.8 40.4 28.56 40.24 28.59 40.36"/>
              <path class="cls-4" d="M27.04,37.87h.02-.04s.02,0,.02,0Z"/>
              <polygon class="cls-4" points="29.08 34.35 12.26 34.67 11.59 35.57 29.62 35.04 29.08 34.34 29.08 34.35"/>
              <path class="cls-11" d="M30.29,35.92l-18.72-.32-.75,1c1.74,0,11.8,0,12.27-.19.49-.21,3.63,1.31,3.92,1.45h.04l3.22-1.94h.02Z"/>
              <polygon class="cls-11" points="29.08 34.35 29.08 34.34 28.85 34.04 27.88 34.17 28.36 33.5 12.86 33.87 12.26 34.67 29.08 34.35"/>
              <polygon class="cls-4" points="12.26 34.67 12.26 34.67 12.22 34.63 11.42 35.57 11.59 35.57 12.26 34.67"/>
              <path class="cls-4" d="M10.57,36.59h.26l.75-1h-.16l-.84,1h-.01Z"/>
              <polygon class="cls-14" points="11.05 35.59 11.41 35.59 11.42 35.57 11.05 35.59"/>
              <polygon class="cls-1" points="12.26 34.67 12.86 33.87 12.86 33.87 12.22 34.63 12.26 34.67 12.26 34.67"/>
              <rect class="cls-14" x="28.97" y="34" height=".38"/>
              <polygon class="cls-4" points="28.36 33.5 27.88 34.17 28.85 34.04 28.43 33.5 28.36 33.5"/>
              <polygon class="cls-13" points="16.85 17.75 16.86 17.75 16.87 17.67 16.85 17.75"/>
              <polygon class="cls-13" points="15.58 23.6 16.85 17.75 16.16 17.38 15.58 23.6"/>
              <polygon class="cls-8" points="16.86 17.75 16.23 23.6 17.65 18.17 16.86 17.75"/>
              <polygon class="cls-13" points="18.18 24.75 23.61 24.34 23.61 24.34 22.92 23.27 19.45 23.27 18.18 24.75"/>
              <polygon class="cls-11" points="24.31 22.56 23.1 23.27 22.92 23.27 23.61 24.34 24.31 22.56"/>
              <polygon class="cls-2" points="22.79 21.53 23.66 22.12 23.67 18.65 23.55 18.73 22.79 19.23 22.79 21.53"/>
              <rect class="cls-2" x="23.22" y="21.3" height="1.05"/>
              <polygon class="cls-2" points="23.67 18.65 23.55 18.73 23.67 18.65 23.67 18.65"/>
              <polygon class="cls-2" points="25.24 23.19 25.69 23.19 25.69 17.32 25.65 17.35 25.24 23.19 25.24 23.19"/>
              <polygon class="cls-11" points="25.69 16.72 25.65 17.35 25.69 17.32 25.69 16.72"/>
              <path class="cls-14" d="M16.72,26.98h0l-1.41,2.15.95-.02c1.09-.75,2.3-1.58,2.3-1.58l-.25,1.52,1.01-.03,3.11-1.99-5.69-.05h-.02Z"/>
              <path class="cls-4" d="M19.3,29.02l-1.12.72.12-.69-2.05.05c-.89.61-1.71,1.18-1.73,1.21h0c-.04.06,8.61-.95,12.03-1.36l-.08-.12s-7.17.19-7.17.19Z"/>
              <polygon class="cls-1" points="16.71 26.96 14.84 29.14 15.3 29.12 16.72 26.98 16.71 26.96"/>
              <path class="cls-11" d="M26.47,28.83l.08.12c.84-.1,1.37-.16,1.37-.16,0,0-1.45.04-1.45.04Z"/>
              <polygon class="cls-11" points="16.72 26.98 22.41 27.03 24.48 25.7 17.65 25.86 16.79 26.87 16.72 26.98 16.72 26.98"/>
              <polygon class="cls-2" points="16.79 26.87 16.71 26.96 16.72 26.98 16.79 26.87"/>
              <polygon class="cls-4" points="19.16 17.56 19.59 17.38 24.04 16.01 19.29 16.4 18.76 16.98 19.16 17.56"/>
              <polygon class="cls-4" points="19.29 16.4 21.38 14.15 18.42 16.48 18.42 16.48 19.29 16.4"/>
              <polygon class="cls-2" points="19.16 17.56 18.76 16.98 17.65 18.17 17.65 18.17 19.16 17.56"/>
              <polygon class="cls-2" points="16.23 23.6 16.23 23.6 15.58 24.18 18.18 24.75 18.18 24.75 16.23 23.6"/>
            </g>
            <path class="cls-7" d="M7.18,41.72s-.03,0-.03,0L.29,34.4s0-.02,0-.03L0,6.9s0-.03,0-.03L7.2.01s.02,0,.03,0h27.75s.03,0,.03.02l6.41,6.97s0,.02,0,.03l.28,27.47s0,.02,0,.03l-7.13,7.13s-.02,0-.03,0l-27.36.06h0ZM.37,34.35l6.83,7.27,27.32-.06,7.1-7.11-.28-27.43L34.96.09H7.25L.09,6.92l.28,27.43Z"/>
          </g>
        </g>
      </g>
    </g>
  </g>
</svg>