<?xml version="1.0" encoding="UTF-8"?>
<svg id="Layer_2" data-name="Layer 2" xmlns="http://www.w3.org/2000/svg" xmlns:xlink="http://www.w3.org/1999/xlink" viewBox="0 0 220.12 220.12">
  <defs>
    <style>
      .cls-1 {
        stroke: #fff;
        stroke-linecap: round;
        stroke-linejoin: round;
        stroke-width: 10px;
      }

      .cls-1, .cls-2 {
        fill: #fff;
      }

      .cls-3 {
        stroke: url(#linear-gradient);
        stroke-miterlimit: 10;
        stroke-width: 12px;
      }
    </style>
    <linearGradient id="linear-gradient" x1="0" y1="110.06" x2="220.12" y2="110.06" gradientUnits="userSpaceOnUse">
      <stop offset="0" stop-color="aqua"/>
      <stop offset="1" stop-color="#f0f"/>
    </linearGradient>
  </defs>
  <g id="Layer_1-2" data-name="Layer 1">
    <rect class="cls-3" x="6" y="6" width="208.12" height="208.12" rx="41.93" ry="41.93"/>
    <g>
      <g>
        <line class="cls-1" x1="110.06" y1="100.86" x2="110.06" y2="118.55"/>
        <line class="cls-1" x1="110.06" y1="47.78" x2="110.06" y2="83.17"/>
        <line class="cls-1" x1="101.22" y1="100.86" x2="118.91" y2="100.86"/>
      </g>
      <g>
        <line class="cls-1" x1="79.1" y1="83.17" x2="79.1" y2="118.55"/>
        <line class="cls-1" x1="79.1" y1="47.78" x2="79.1" y2="65.47"/>
        <line class="cls-1" x1="70.25" y1="65.48" x2="87.95" y2="65.48"/>
      </g>
      <g>
        <line class="cls-1" x1="141.02" y1="83.17" x2="141.02" y2="118.55"/>
        <line class="cls-1" x1="141.02" y1="47.78" x2="141.02" y2="64.63"/>
        <line class="cls-1" x1="132.18" y1="65.48" x2="149.87" y2="65.48"/>
      </g>
    </g>
    <g>
      <path class="cls-2" d="M70.86,169.86c.16,0,.31.07.43.2l1.21,1.31c-.76.92-1.7,1.63-2.81,2.12-1.11.5-2.43.75-3.97.75-1.37,0-2.6-.24-3.71-.71-1.1-.47-2.04-1.13-2.82-1.97-.78-.84-1.38-1.85-1.8-3.02-.42-1.17-.63-2.45-.63-3.86s.22-2.69.67-3.86c.45-1.17,1.07-2.18,1.88-3.03.81-.84,1.78-1.5,2.91-1.97,1.13-.47,2.37-.7,3.73-.7s2.54.22,3.58.66,1.93,1.02,2.69,1.75l-1,1.42c-.07.1-.15.18-.25.25-.1.07-.23.1-.39.1-.17,0-.37-.08-.59-.24-.22-.16-.5-.34-.84-.53-.34-.19-.77-.37-1.29-.53-.52-.16-1.16-.24-1.93-.24-.89,0-1.71.16-2.45.47-.74.31-1.39.77-1.92,1.36-.54.6-.95,1.32-1.25,2.18-.3.86-.45,1.83-.45,2.92s.16,2.08.47,2.94.74,1.59,1.29,2.18c.55.59,1.19,1.05,1.92,1.36.74.31,1.53.47,2.38.47.52,0,.98-.03,1.4-.08.41-.06.79-.15,1.14-.27.35-.13.67-.28.98-.47.31-.19.61-.42.92-.7.17-.16.35-.23.52-.23Z"/>
      <path class="cls-2" d="M90.61,155.33v18.7h-3.04v-8.32h-9.39v8.32h-3.05v-18.7h3.05v8.18h9.39v-8.18h3.04Z"/>
      <path class="cls-2" d="M110.71,174.03h-2.35c-.27,0-.48-.07-.65-.2s-.29-.3-.38-.5l-1.56-4.13h-8.05l-1.56,4.13c-.07.17-.19.33-.36.48s-.39.22-.65.22h-2.35l7.41-18.7h3.08l7.41,18.7ZM104.96,167.02l-2.57-6.83c-.21-.53-.42-1.2-.64-2.01-.1.41-.2.78-.31,1.12-.11.34-.22.64-.31.9l-2.57,6.82h6.4Z"/>
      <path class="cls-2" d="M128.37,155.33v18.7h-1.55c-.23,0-.43-.04-.6-.12-.16-.08-.32-.22-.47-.41l-10.27-13.19c.03.25.05.5.06.75.01.25.02.47.02.68v12.3h-2.67v-18.7h1.58c.13,0,.24,0,.33.02.09.01.18.04.25.07s.15.09.22.16.14.16.22.26l10.28,13.21c-.03-.27-.04-.53-.06-.79-.01-.26-.02-.5-.02-.73v-12.19h2.66Z"/>
      <path class="cls-2" d="M148.13,164.82v7.4c-1.86,1.34-4.02,2.01-6.49,2.01-1.51,0-2.88-.24-4.11-.71-1.22-.47-2.27-1.13-3.14-1.97-.87-.84-1.53-1.85-2-3.02-.47-1.17-.7-2.45-.7-3.86s.23-2.7.68-3.88c.45-1.17,1.09-2.18,1.94-3.03.84-.84,1.85-1.5,3.04-1.96,1.19-.46,2.52-.69,4-.69.75,0,1.45.06,2.1.17.64.12,1.24.28,1.8.49s1.06.46,1.53.75.9.62,1.29.99l-.87,1.39c-.14.22-.32.35-.53.4-.22.05-.45,0-.7-.16-.25-.15-.52-.3-.8-.47-.28-.16-.6-.32-.97-.46s-.78-.26-1.26-.35c-.48-.09-1.04-.14-1.69-.14-.99,0-1.88.16-2.67.49s-1.47.79-2.03,1.39c-.56.6-1,1.33-1.3,2.19-.3.86-.45,1.81-.45,2.87,0,1.12.16,2.11.48,2.99.32.88.78,1.62,1.36,2.23.59.61,1.3,1.08,2.14,1.4s1.77.48,2.8.48c.77,0,1.46-.08,2.06-.25.6-.16,1.19-.39,1.77-.69v-3.71h-2.61c-.2,0-.36-.05-.47-.16s-.17-.25-.17-.42v-1.73h5.99Z"/>
      <path class="cls-2" d="M163.4,171.58v2.45h-11.67v-18.7h11.66v2.45h-8.61v5.64h6.88v2.38h-6.88v5.78h8.62Z"/>
    </g>
  </g>
</svg>