<?xml version="1.0" encoding="UTF-8"?>
<svg id="Layer_2" data-name="Layer 2" xmlns="http://www.w3.org/2000/svg" viewBox="0 0 32 41.7">
  <defs>
    <style>
      .cls-1 {
        fill: #282b2d;
      }

      .cls-2 {
        fill: #a0a09f;
      }

      .cls-3 {
        fill: #e7e7f9;
      }

      .cls-4 {
        isolation: isolate;
      }

      .cls-5 {
        fill: #fff;
      }

      .cls-6 {
        fill: #c4c6c9;
      }

      .cls-7 {
        fill: #b5d4e5;
      }

      .cls-8 {
        fill: #a8a7ab;
      }

      .cls-9 {
        fill: #706e6a;
      }

      .cls-10 {
        fill: #d1cbd8;
      }

      .cls-11 {
        fill: #505d63;
      }

      .cls-12 {
        fill: #d5d6de;
      }

      .cls-13 {
        fill: #fdfefa;
      }

      .cls-14 {
        fill: #c7c7c6;
      }

      .cls-15 {
        fill: #c7c6cd;
      }
    </style>
  </defs>
  <g id="Layer_1-2" data-name="Layer 1">
    <g class="cls-4">
      <g id="Layer_2-2" data-name="Layer 2">
        <g id="uuid-c71bc166-5336-4e75-9373-7d1363fa16b4" data-name="Layer 1-2">
          <g>
            <g>
              <polygon class="cls-13" points="22.67 41.55 22.77 41.59 22.8 41.55 22.67 41.55"/>
              <path class="cls-12" d="M1.06,36.2v-1.47L0,33.97v1.63c.34.21.69.44,1,.64l.06-.03h0Z"/>
              <path class="cls-10" d="M16.38,2.37c.05-.15.11-.33.17-.54l-.13-.1-.76.44c.11.07.23.13.34.2h.38Z"/>
              <path class="cls-12" d="M16.61,1.62c.02-.08.05-.17.07-.25l-.68.03.43.33.19-.11h-.01Z"/>
              <polygon class="cls-6" points="7.47 2.46 8.36 2.45 7.32 1.4 7.1 2.17 7.47 2.46"/>
              <path class="cls-13" d="M4.75.41l-.15-.14.17.13s.09-.09.13-.13h-.56l.26.29c.05-.05.1-.1.14-.14h0Z"/>
              <path class="cls-13" d="M14.32,1.48l-1.72.08,1.43.43.53-.33c-.08-.06-.15-.11-.24-.17h0Z"/>
              <polygon class="cls-12" points="6.36 .43 6.18 .25 5.95 .26 5.66 1.08 5.69 1.1 6.36 .43"/>
              <path class="cls-1" d="M11.19,2.42h.86l-.92-.69c-.05.05-.1.09-.15.13l-.14.34.35.21h0Z"/>
              <polygon class="cls-8" points="7.65 .27 8.11 .55 7.83 .24 7.66 .24 7.65 .27"/>
              <polygon class="cls-5" points="7.65 .27 7.61 .24 6.53 .25 6.36 .43 7.32 1.4 7.65 .27"/>
              <path class="cls-15" d="M14.87,1.45l-.39.02c.06.04.12.07.19.11l.21-.13h0Z"/>
              <path class="cls-1" d="M12.73.31s-.04.04-.06.05c.28.17.56.35.85.52-.26-.19-.52-.38-.79-.57Z"/>
              <polygon class="cls-9" points="24.11 2.2 24.04 2.3 25.45 2.28 25.57 2.16 23.15 1.23 24.68 .09 23.52 .1 21.15 2.2 24.11 2.2"/>
              <path class="cls-10" d="M17.07,1.35l2.08-1.22-2.17.02c-.11.43-.21.85-.31,1.21l.39-.02h.01Z"/>
              <path class="cls-6" d="M15.37,2.38h.15s-.06-.05-.1-.07l-.1.06h.05Z"/>
              <polygon class="cls-12" points="16.94 .16 14.42 .18 15.53 1.04 16.94 .16"/>
              <polygon class="cls-10" points="5.61 1.22 5.59 1.2 5.39 1.4 5.5 1.52 5.61 1.22"/>
              <path class="cls-15" d="M12.67.37c-.09-.06-.18-.11-.27-.17h-.72l-.62,1.48.07.05c.49-.43,1.01-.89,1.54-1.37h0Z"/>
              <path class="cls-15" d="M12.87.19h-.3c.05.04.11.08.16.12.04-.04.09-.08.13-.12h.01Z"/>
              <polygon class="cls-5" points="10.85 .21 9.09 .23 10.19 1.04 10.85 .21"/>
              <polygon class="cls-14" points="9.78 1.56 8.11 .55 9.43 2 9.78 1.56"/>
              <path class="cls-6" d="M10.98,1.87l.08-.19-.87-.64-.42.52.92.56c.09-.08.19-.17.29-.25Z"/>
              <path class="cls-15" d="M5.63,1.16l.03-.09-.89-.68s-.01,0-.02.02l.84.79s.04-.04.04-.04Z"/>
              <polygon class="cls-15" points=".72 4.23 .94 4.08 .94 4.08 .72 4.23"/>
              <path class="cls-1" d="M5.5,1.52l-.11-.12s-.21.21-.24.24l.2.31.15-.44h0Z"/>
              <path class="cls-12" d="M4.3.31l.21.33s.06-.06.09-.09l-.26-.28-1.76,1.96h0l1.73-1.92h-.01Z"/>
              <path class="cls-5" d="M.96,4.03l.12-.14s-.12.13-.12.14h0Z"/>
              <path class="cls-14" d="M6.6,40.83l-.27.82h1.5c-.09-.24-.2-.51-.31-.81h-.92Z"/>
              <polygon class="cls-8" points="8.87 40.86 8.48 41.64 10.74 41.62 11.64 40.9 8.87 40.86"/>
              <polygon class="cls-9" points="22.02 41.28 22.67 41.55 22.8 41.55 23.21 41.07 22.09 41.05 22.02 41.28"/>
              <polygon class="cls-15" points="24.66 39.38 25.7 40.43 26.17 40.23 25.64 39.38 24.66 39.38"/>
              <polygon class="cls-8" points="12.85 39.94 11.64 40.9 12.92 40.92 14.11 40.32 12.85 39.94"/>
              <path class="cls-6" d="M12.92,40.92l-1.39.7,4.66-.03c.04-.2.08-.4.12-.62,0,0-3.39-.05-3.39-.05Z"/>
              <polygon class="cls-5" points="22.49 39.59 23.53 40.7 24.65 39.38 22.54 39.38 22.49 39.59"/>
              <polygon class="cls-3" points="14.51 40.12 15.97 39.39 14.51 39.39 14.51 40.12"/>
              <polygon class="cls-14" points="4.53 41.66 4.61 41.66 4.57 41.62 4.53 41.66"/>
              <path class="cls-9" d="M9.59,39.4h-2.52l-.04.14c.05.13.1.27.15.4.07,0,2.17-.17,2.24-.18l.18-.36h-.01Z"/>
              <polygon class="cls-9" points="26.17 40.23 26.99 41.53 27.5 41.52 26.32 40.17 26.17 40.23"/>
              <path class="cls-14" d="M6.89,39.96l-.05.15.38-.05s-.03-.08-.04-.12c0,0-.29.02-.29.02Z"/>
              <polygon class="cls-9" points="24.11 41.08 23.89 41.08 24.32 41.54 26.8 41.53 25.7 40.43 24.11 41.08"/>
              <path class="cls-13" d="M7.22,40.06c.1.27.2.54.3.78l1.35.02.55-1.1c-.06,0-2.13.29-2.19.29h-.01Z"/>
              <path class="cls-5" d="M21.46,41.05l-2.02-.03c-.34.19-.67.38-.99.56l3.5-.02.07-.28-.56-.24h0Z"/>
              <polygon class="cls-10" points="4.56 41.61 4.53 41.66 4.57 41.62 4.56 41.61"/>
              <path class="cls-10" d="M1.06,36.22v-.02l-.06.03s.01,0,.02,0c0,0,.04-.02.04-.02Z"/>
              <polygon class="cls-14" points="30.51 5.57 30.83 6.38 30.52 36.28 30.76 36.76 31.9 37.48 31.99 6.3 30.73 5.45 30.51 5.57"/>
              <polygon class="cls-12" points="31.99 6.11 32 4.75 31.51 5.03 31.99 6.11"/>
              <polygon class="cls-9" points="29.84 36.18 30.52 36.61 30.52 36.28 29.84 34.91 29.84 36.18"/>
              <polygon class="cls-1" points="25.57 2.16 25.45 2.28 25.89 2.28 25.57 2.16"/>
              <polygon class="cls-12" points="26.32 40.17 27.5 41.52 26.61 40.05 26.32 40.17"/>
              <polygon class="cls-14" points="2.69 6.71 2.69 7.56 2.82 6.92 2.69 6.71"/>
              <polygon class="cls-11" points="3.64 34.33 3.72 34.79 4.14 34.56 3.64 34.33"/>
              <path class="cls-5" d="M16.38,2.37h-.38c.11.07.21.13.31.19.02-.06.04-.12.07-.19Z"/>
              <path class="cls-3" d="M19.68,3.66l2.41.72h.46l.5-.71-2.58-.86c-.6.53-.42.34-.8.86h.01Z"/>
              <path class="cls-1" d="M9.3,4.68l1.06-.03-.33-.25c-.47-.06-.87-.11-1.19-.16l.46.43h0Z"/>
              <polygon class="cls-10" points="23.87 4.07 23.5 4.34 23.64 4.33 23.87 4.07"/>
              <polygon class="cls-15" points="13.75 3.67 13.16 3.62 14.7 4.55 14.94 4.54 13.75 3.67"/>
              <polygon class="cls-6" points="8.15 3.6 7 2.52 6.86 2.98 7.82 4.01 8.15 3.6"/>
              <path class="cls-1" d="M18.98,4.12s-.19-.11-.43-.25l-.07.21.5.04h0Z"/>
              <polygon class="cls-11" points="8.46 3.21 8.75 2.84 8.36 2.45 7.47 2.46 8.46 3.21"/>
              <path class="cls-14" d="M15.63,2.46s-.07-.05-.1-.08h-.15l.25.08Z"/>
              <polygon class="cls-3" points="12.65 2.85 12.05 2.41 11.19 2.42 12.28 3.08 12.65 2.85"/>
              <path class="cls-8" d="M16.64,2.76c-.11-.06-.22-.13-.33-.2-.01.03-.02.06-.04.09,0,0,.37.11.37.11Z"/>
              <path class="cls-9" d="M8.49,3.92c.13-.09.28-.2.46-.34l-.49-.37-.31.39s.34.32.34.32Z"/>
              <path class="cls-6" d="M18.99,4.13h-.02l-.37.33h.51l.57-.8-.13-.04-.57.5h.01Z"/>
              <path class="cls-12" d="M18.67,3.48l-.26-.2-1.77-.53c.81.48,1.49.87,1.9,1.11,0,0,.13-.38.13-.38Z"/>
              <polygon class="cls-10" points="18.35 4.46 18.48 4.08 15.02 3.78 15.43 4.53 18.35 4.46"/>
              <polygon class="cls-10" points="23.96 3.97 25.45 2.28 24.04 2.3 23.05 3.66 23.96 3.97"/>
              <polygon class="cls-15" points="7.25 4.73 7.82 4.01 6.86 2.98 6.59 3.92 7.11 4.73 7.25 4.73"/>
              <path class="cls-9" d="M25.14,38.81l-.49.57h.98s-.48-.56-.49-.57Z"/>
              <path class="cls-6" d="M16.11,37.36l-1.46,1.16h2.11c.07-.44.14-.84.19-1.16h-.84Z"/>
              <polygon class="cls-14" points="14.51 39.36 14.51 39.39 15.97 39.39 16.3 39.22 14.51 39.36"/>
              <path class="cls-15" d="M23.9,37.37h-.81l-.09.34c1.25,1.25.7.71.92.92l1.01-.08-1.02-1.18h-.01Z"/>
              <path class="cls-15" d="M23.91,38.63l-.37.03c-.21.12-.54.31-.96.55l-.05.17h2.11l-.75-.75h.02Z"/>
              <path class="cls-6" d="M8.11,38.51h1.92l.31-.62c-.57-.19-1.15-.38-1.69-.55h-.42l-.78.91-.38,1.15h2.52l.19-.39s-1.67-.5-1.67-.5Z"/>
              <path class="cls-10" d="M6.59,38.3s.04.1.05.16l.83-.27-.02.06.78-.91h-1.06l-.59.96h0Z"/>
              <polygon class="cls-15" points="4.25 34.61 4.14 34.56 3.72 34.79 3.74 34.87 4.25 34.61"/>
              <polygon class="cls-6" points="29.42 35.91 29.84 36.18 29.84 34.91 29.55 34.33 29.42 35.91"/>
              <polygon class="cls-10" points="27.95 7.28 28.59 7.98 29.52 6.12 27.95 6.99 27.95 7.28"/>
              <polygon class="cls-9" points="28.59 34.33 27.87 34.93 28.79 35.51 28.59 34.33"/>
              <path class="cls-12" d="M23.64,4.33l1.29-.03h0l-.93-.32c-.11.08-.07.03-.36.35Z"/>
              <polygon class="cls-6" points="24 3.98 25.94 2.59 26.08 2.35 25.89 2.28 25.45 2.28 23.96 3.97 24 3.98"/>
              <polygon class="cls-10" points="25.63 39.37 25.22 38.72 25.14 38.81 25.63 39.37"/>
              <polygon class="cls-3" points="25.39 38.51 25.11 38.54 25.22 38.72 25.39 38.51"/>
              <polygon class="cls-12" points="24.92 38.55 25.11 38.54 24.37 37.37 23.9 37.37 24.92 38.55"/>
              <polygon class="cls-13" points="4.92 7.66 5.03 7.52 4.87 7.45 4.92 7.66"/>
              <polygon class="cls-13" points="23.46 4.54 23.64 4.33 23.5 4.34 23.36 4.44 23.46 4.54"/>
              <polygon class="cls-5" points="14.94 4.54 14.7 4.55 14.7 4.55 14.94 4.54"/>
              <polygon class="cls-1" points="10.36 4.65 9.3 4.68 9.3 4.68 10.36 4.65"/>
              <polygon class="cls-10" points="18.35 4.46 18.35 4.46 15.43 4.53 18.35 4.46"/>
              <path class="cls-1" d="M15.58,5.09c-1.27-.15-2.59-.32-3.77-.46l.34.37,3.7.31-.04-.08-.23-.14Z"/>
              <path class="cls-6" d="M15.75,5.11h-.05l.08.06-.03-.05h0Z"/>
              <polygon class="cls-13" points="16.11 5.41 15.96 5.32 15.86 5.31 16.43 6.38 17.48 5.45 15.99 5.32 16.11 5.41"/>
              <path class="cls-6" d="M15.7,5.1l-.76-.56h-.24l.89.55s.07,0,.11,0Z"/>
              <polygon class="cls-12" points="9.39 4.77 10.65 4.87 10.36 4.65 9.3 4.68 9.39 4.77"/>
              <path class="cls-8" d="M15.75,5.11c.65.08,1.28.16,1.86.23l.64-.57.1-.31-2.92.07.31.58h0Z"/>
              <path class="cls-12" d="M17.48,5.45l.52.04.03-.1c-.14-.02-.29-.03-.43-.05l-.12.11Z"/>
              <polygon class="cls-1" points="22.55 4.36 22.09 4.37 22.46 4.48 22.55 4.36"/>
              <path class="cls-1" d="M18.25,4.77l-.21.62c.12.01.24.03.35.04l.71-.99h-.51l-.35.33h.01Z"/>
              <path class="cls-12" d="M20.91,5.73s-1.04-.12-2.52-.3l-.06.09c.89.07,1.7.14,2.58.22h0Z"/>
              <polygon class="cls-6" points="17.71 6.38 18.33 5.52 18.01 5.49 17.71 6.38"/>
              <polygon class="cls-9" points="23.29 4.73 23.46 4.54 23.36 4.44 23.05 4.66 23.29 4.73"/>
              <polygon class="cls-15" points="4.86 7.38 4.87 7.45 5.03 7.52 5.06 7.47 4.86 7.38"/>
              <polygon class="cls-14" points="7.11 4.73 7.17 4.83 7.25 4.73 7.11 4.73"/>
              <polygon class="cls-15" points="23.25 36.77 23.09 37.36 23.9 37.37 23.38 36.77 23.38 36.77 23.25 36.77"/>
              <path class="cls-6" d="M16.8,36.81l-.69.55h.84c.04-.23.07-.42.09-.55h-.24Z"/>
              <path class="cls-7" d="M8.24,37.34h.42c-.11-.03-.22-.07-.33-.1l-.09.1Z"/>
              <path class="cls-15" d="M17.07,36.58l-.28.22h.24c.02-.14.04-.22.04-.22Z"/>
              <polygon class="cls-1" points="9.37 36.02 11.55 36.2 11.84 35.86 11.49 35.53 9.77 35.55 9.37 36.02"/>
              <polygon class="cls-3" points="23.25 36.77 23.38 36.77 23.28 36.66 23.25 36.77"/>
              <path class="cls-13" d="M7.39,36.99l-.22.36h1.06l.09-.1c-.34-.1-.65-.19-.93-.26Z"/>
              <polygon class="cls-6" points="8.26 35.57 8.05 35.91 9.37 36.02 9.77 35.55 8.26 35.57"/>
              <polygon class="cls-15" points="26.03 8.3 26.27 7.92 26.11 8 26.03 8.3"/>
              <polygon class="cls-10" points="23.77 4.87 24.47 5.08 24.92 4.3 24.92 4.3 23.64 4.33 23.46 4.54 23.77 4.87"/>
              <polygon class="cls-1" points="23.77 4.87 23.46 4.54 23.29 4.73 23.77 4.87"/>
              <polygon class="cls-12" points="23.38 36.77 23.9 37.37 24.37 37.37 23.78 36.43 23.38 36.77"/>
              <polygon class="cls-5" points="23.28 36.66 23.38 36.77 23.78 36.43 23.47 35.94 23.28 36.66"/>
              <polygon class="cls-12" points="11.49 35.53 10.54 34.66 9.77 35.55 11.49 35.53"/>
              <polygon class="cls-14" points="8.11 34.01 7.5 34.69 8.26 35.57 9.77 35.55 10.54 34.66 10.12 34.27 8.11 34.01"/>
              <path class="cls-5" d="M.97,4.12l-.04-.06-.18.2.13.23.15.06c-.02-.14-.04-.29-.05-.43h0Z"/>
              <path class="cls-5" d="M2.42,2.66l-.11-.12-.05.27s.11-.1.16-.15Z"/>
              <path class="cls-5" d="M1.34,4.68l.55.22c.38-2.14.31-1.73.37-2.1-1.38,1.3-1.04.93-1.3,1.22,0,.03,0,.06,0,.09l.37.56h0Z"/>
              <path class="cls-14" d="M1.77,5.58l.04-.2-.46-.7-.32-.13c0,.09.02.17.03.26l.41.72s.3.05.3.05Z"/>
              <path class="cls-10" d="M4.51.64l-.21-.33-1.73,1.92.18.1c.61-.58,1.21-1.16,1.76-1.69Z"/>
              <path class="cls-5" d="M3.64,2.84l-.88-.5c-.11.11-.23.21-.34.32l1.03,1.11.18-.93h0Z"/>
              <polygon class="cls-13" points="5.34 1.95 5.15 1.64 3.96 2.84 4.2 4.09 4.83 3.4 5.34 1.95"/>
              <polygon class="cls-15" points="7.11 4.73 6.59 3.92 6.08 5.68 7.11 4.73 7.11 4.73"/>
              <polygon class="cls-9" points="5.39 6.31 5.62 6.1 4.35 4.74 4.34 4.78 4.58 5.98 5.39 6.31"/>
              <path class="cls-13" d="M5.34,6.36c-.16-.01-.4-.04-.7-.06l.12.59s.58-.53.58-.53Z"/>
              <polygon class="cls-9" points="4.35 4.74 4.83 3.4 4.2 4.09 4.33 4.71 4.35 4.74"/>
              <path class="cls-15" d="M5.34,6.36l-.58.53.1.49.21.1,2.11-2.64-.06-.1h0l-1.03.95-.2.7-.26-.28-.23.21.17.07s-.08,0-.22-.02h-.01Z"/>
              <polygon class="cls-6" points="30.49 5.52 30.51 5.57 30.73 5.45 30.69 5.42 30.49 5.52"/>
              <polygon class="cls-1" points="31.51 5.03 32 4.75 31.5 5.01 31.51 5.03"/>
              <polygon class="cls-9" points="26.27 2.43 27.21 3.34 27.48 2.89 26.27 2.43"/>
              <polygon class="cls-13" points="29.69 5.77 30.07 5.01 30.01 4.97 29.28 5.36 29.69 5.77"/>
              <polygon class="cls-12" points="30.69 5.42 30.37 5.21 30.49 5.52 30.69 5.42"/>
              <polygon class="cls-15" points="29.87 3.8 29.8 3.78 29.83 3.87 29.87 3.8"/>
              <path class="cls-7" d="M28.55,3.81l-.47.38.93.91.37-.56c-.2-.14-.04,0-.84-.73h0Z"/>
              <polygon class="cls-14" points="31.5 5.01 32 4.75 31.45 4.19 31.2 4.33 31.5 5.01"/>
              <polygon class="cls-13" points="27.95 6.99 29.52 6.12 29.59 5.98 27.95 6.81 27.95 6.99"/>
              <polygon class="cls-5" points="26.65 5.83 26.64 5.87 26.91 6.13 26.65 5.83"/>
              <polygon class="cls-15" points="26.63 4.31 27.21 3.34 26.27 2.43 26.08 2.35 25.94 2.59 26.03 2.52 26.63 4.31"/>
              <polygon class="cls-12" points="26.67 5.73 26.52 5.69 26.65 5.83 26.67 5.73"/>
              <polygon class="cls-13" points="27.37 6.54 27.27 6.24 27.19 6.38 27.37 6.54"/>
              <polygon class="cls-5" points="26.09 5.21 25.39 4.45 24.93 4.29 24.92 4.3 26.03 5.31 26.09 5.21"/>
              <polygon class="cls-15" points="28.59 5.73 29.01 5.1 28.08 4.19 26.91 5.15 27.27 6.24 27.95 5.09 27.95 6.81 29.59 5.98 29.69 5.77 29.28 5.36 28.59 5.73"/>
              <polygon class="cls-5" points="26.91 5.15 26.63 4.31 26.09 5.21 26.4 5.56 26.91 5.15"/>
              <polygon class="cls-7" points="26.52 5.69 26.4 5.56 26.34 5.6 26.39 5.65 26.52 5.69"/>
              <polygon class="cls-10" points="26.41 7.68 26.47 7.57 26.36 7.63 26.41 7.68"/>
              <polygon class="cls-14" points="26.18 7.72 26.11 8 26.27 7.92 26.41 7.68 26.36 7.63 26.18 7.72"/>
              <polygon class="cls-6" points="27.42 6.68 27.37 6.54 27.19 6.38 27.17 6.41 27.42 6.68"/>
              <path class="cls-14" d="M26.47,7.57l.69-1.16c-.31-.34-.19-.22-.53-.53l-.4,1.62.13.13.11-.06Z"/>
              <polygon class="cls-14" points="26.39 5.65 26.34 5.6 26.32 5.63 26.39 5.65"/>
              <polygon class="cls-5" points="25.91 5.51 26.03 5.31 24.92 4.3 24.47 5.08 25.91 5.51"/>
              <polygon class="cls-12" points="26.36 7.63 26.24 7.49 26.18 7.72 26.36 7.63"/>
              <polygon class="cls-1" points="29.84 36.18 29.84 36.18 29.76 36.24 30.52 36.68 30.52 36.61 29.84 36.18"/>
              <polygon class="cls-14" points="30.8 36.85 31.9 37.48 30.76 36.76 30.8 36.85"/>
              <polygon class="cls-15" points="29.5 36.48 30.52 37.01 30.52 36.68 29.76 36.24 29.5 36.48"/>
              <polygon class="cls-15" points="29.23 38.19 29.3 37.44 29.11 37.43 29.23 38.19"/>
              <polygon class="cls-1" points="27.95 37.98 28.24 38.39 28.17 37.65 27.95 37.83 27.95 37.98"/>
              <polygon class="cls-15" points="29.07 37.21 29.31 37.34 29.37 36.59 29.02 36.9 29.07 37.21"/>
              <polygon class="cls-14" points="27.37 39.74 27.31 40.12 27.18 39.81 26.61 40.05 27.5 41.52 28.48 40.62 28.34 39.33 27.37 39.74"/>
              <polygon class="cls-10" points="27.08 38.6 26.78 38.87 27.18 39.81 27.37 39.74 27.47 38.99 27.08 38.6"/>
              <path class="cls-3" d="M29.23,39.8l-.06.18,1.1-1.01c0-.08.02-.16.02-.24,0,0-1.06,1.07-1.06,1.07Z"/>
              <path class="cls-12" d="M30.4,37.95c.02-.17.05-.32.07-.44l-.96-.06.89.5Z"/>
              <polygon class="cls-12" points="28.34 39.33 28.78 39.15 28.24 38.39 28.34 39.33"/>
              <polygon class="cls-5" points="31.02 37.27 31.72 37.64 31.9 37.48 30.8 36.85 31.02 37.27"/>
              <polygon class="cls-8" points="28.82 35.69 28.79 35.51 27.87 34.93 27.72 35.06 28.82 35.69"/>
              <polygon class="cls-9" points="29.41 36.04 29.76 36.24 29.84 36.18 29.84 36.18 29.42 35.91 29.41 36.04"/>
              <polygon class="cls-14" points="25.82 36.62 26.09 37.25 27.5 37.33 26.57 36 25.82 36.62"/>
              <polygon class="cls-9" points="29.41 36.04 29.38 36.42 29.5 36.48 29.76 36.24 29.41 36.04"/>
              <polygon class="cls-3" points="26.78 38.87 27.08 38.6 26.35 37.87 26.78 38.87"/>
              <polygon class="cls-6" points="27.5 37.33 27.68 37.58 27.71 37.35 27.5 37.33"/>
              <polygon class="cls-1" points="27.95 37.36 27.95 37.83 28.17 37.65 28.14 37.37 27.95 37.36"/>
              <polygon class="cls-5" points="27.95 35.67 27.71 37.35 27.95 37.36 27.95 36.58 28.06 36.64 27.96 35.67 27.95 35.67"/>
              <polygon class="cls-14" points="26.47 35.87 26.57 36 27.35 35.36 27.11 35.23 26.47 35.87"/>
              <polygon class="cls-15" points="28.9 36.16 29.02 36.9 29.37 36.59 29.38 36.42 28.9 36.16"/>
              <polygon class="cls-6" points="27.72 35.06 27.35 35.36 27.95 35.67 27.95 35.62 27.96 35.67 28.9 36.16 28.82 35.69 27.72 35.06"/>
              <polygon class="cls-11" points="25.93 34.61 25.72 34.79 26.47 35.87 27.11 35.23 25.93 34.61"/>
              <polygon class="cls-14" points="25.39 34.33 25.72 34.79 25.93 34.61 25.39 34.33"/>
              <polygon class="cls-6" points="3.59 38.79 3.09 37.92 1.96 38.81 2.78 39.7 3.36 39.51 3.59 38.79"/>
              <path class="cls-15" d="M1.06,36.26v.74c.27-.06.54-.13.82-.2-.17-.11-.47-.31-.82-.54Z"/>
              <path class="cls-10" d="M1.02,36.24s.03.02.04.02v-.04l-.04.02Z"/>
              <path class="cls-6" d="M1.07,37.08v.79l.45.47.51-1.41c-.31.05-.64.1-.96.15Z"/>
              <polygon class="cls-13" points="3.23 40.25 3.52 40.56 3.58 40.55 3.29 40.24 3.23 40.25"/>
              <polygon class="cls-15" points="2.78 39.7 2.73 39.71 3.16 40.17 3.18 40.12 2.78 39.7"/>
              <polygon class="cls-9" points="1.52 38.34 1.5 38.38 1.92 38.84 1.96 38.81 1.52 38.34"/>
              <polygon class="cls-12" points="3.8 40.79 3.73 40.79 4.53 41.66 4.56 41.61 3.8 40.79"/>
              <path class="cls-10" d="M1.07,37c-.24.06-.47.11-.69.16l.02.02c.22-.04.44-.07.67-.11v-.08h0Z"/>
              <path class="cls-12" d="M6.73,36.84c-.33-.05-.53-.04-.53.06,0,.19.16.73.39,1.4l.59-.96h-.02s-.43-.5-.43-.5Z"/>
              <polygon class="cls-13" points="4.25 34.61 3.74 34.87 3.76 34.98 5.08 34.98 4.25 34.61"/>
              <path class="cls-7" d="M7.15,37.34h.02l.22-.36c-.26-.06-.48-.11-.66-.14l.43.5h0Z"/>
              <path class="cls-5" d="M6.2,35.48l-.32.25h.17c.29-.06.47-.11.47-.11,0,0-.32-.14-.32-.14Z"/>
              <polygon class="cls-6" points="6.52 35.78 7.71 35.88 7.05 35.19 6.52 35.78"/>
              <polygon class="cls-14" points="7.5 34.69 7.05 35.19 7.71 35.88 8.05 35.91 8.26 35.57 7.5 34.69"/>
              <path class="cls-7" d="M16.98.16v-.03l-.05.03h.05Z"/>
              <polygon class="cls-15" points="30.87 3.59 30.83 3.5 30.81 3.53 30.87 3.59"/>
              <path class="cls-5" d="M1,36.23C.69,36.03.34,35.81,0,35.59v1.17l1-.53Z"/>
              <path class="cls-5" d="M.76,5.86C.48,5.82.23,5.78,0,5.74v28.22l1.04.76L.76,5.86Z"/>
              <polygon class="cls-9" points="1.7 5.95 1.71 5.92 1.67 5.9 1.7 5.95"/>
              <path class="cls-1" d="M1.4,7.66l.3-1.68c-.17-.02-.34-.04-.51-.06.12,1.03.21,1.75.21,1.75h0Z"/>
              <polygon class="cls-12" points="2.14 34.98 1.4 34.98 2.14 35.52 2.14 34.98"/>
              <path class="cls-14" d="M1.71,5.92v.06c.06,0,.12.01.17.02l-.18-.08h0Z"/>
              <path class="cls-5" d="M1.16,5.65l-.4-.19v.4c.14.02.29.04.43.06,0-.09-.02-.17-.03-.27Z"/>
              <path class="cls-9" d="M1.69,5.98h.02l-.02-.03v.03Z"/>
              <polygon class="cls-1" points="1.4 34.98 1.04 34.72 1.06 36.2 1.85 35.77 1.4 34.98"/>
              <path class="cls-3" d="M1.67,5.9l-.52-.25c0,.09.02.18.03.27.17.02.33.04.51.06v-.03s-.02-.05-.02-.05Z"/>
              <path class="cls-3" d="M2.14,34.98l.16-27.97-.58-1.03h-.02l-.3,1.68s-.08-.72-.21-1.75c-.15-.02-.29-.04-.43-.06l.28,28.86.35.26h.75,0Z"/>
              <path class="cls-14" d="M0,5.09v.65c.23.04.48.08.76.12v-.4L0,5.09Z"/>
              <polygon class="cls-10" points="2.14 35.52 1.4 34.98 1.85 35.77 2.14 35.62 2.14 35.52"/>
              <path class="cls-9" d="M1.88,6s-.11-.01-.16-.02l.58,1.03v-.8l-.42-.21Z"/>
              <path class="cls-11" d="M17.23,2.36l-.68-.53c-.06.21-.12.39-.17.54h.85Z"/>
              <polygon class="cls-15" points="10.84 2.21 10.75 2.42 11.19 2.42 10.84 2.21"/>
              <polygon class="cls-1" points="7.1 2.17 7.01 2.46 7.47 2.46 7.1 2.17"/>
              <path class="cls-3" d="M15.53,2.38h.47c-.11-.07-.22-.14-.34-.2l-.23.13s.06.05.1.07Z"/>
              <path class="cls-9" d="M15.43,2.31l.23-.13c-.32-.19-.65-.39-.99-.59l-.11.07c.33.25.63.47.88.66h-.01Z"/>
              <polygon class="cls-9" points="15.33 2.37 14.03 1.98 13.36 2.4 15.3 2.38 15.33 2.37"/>
              <polygon class="cls-5" points="25.57 2.16 26.1 1.56 25.39 .91 26.37 1.25 27.43 .06 24.68 .09 23.15 1.23 25.57 2.16"/>
              <path class="cls-3" d="M16.61,1.62l-.19.11.13.1c.02-.07.04-.14.06-.21Z"/>
              <polygon class="cls-9" points="6.93 2.46 5.61 1.22 5.5 1.52 6.38 2.47 6.93 2.46"/>
              <path class="cls-15" d="M15.43,2.31c-.24-.18-.54-.41-.88-.66l-.53.33,1.3.39.1-.06h0Z"/>
              <polygon class="cls-5" points="19.63 1.23 21.55 .11 19.15 .14 17.07 1.35 19.63 1.23"/>
              <path class="cls-12" d="M15.53,1.04l.46.36.68-.03c.1-.37.2-.78.31-1.21h-.05l-1.41.89h0Z"/>
              <polygon class="cls-9" points="20.73 2.2 21.15 2.2 23.52 .1 22.23 .11 20.73 2.2"/>
              <polygon class="cls-15" points="21 2.33 21.15 2.2 20.73 2.2 20.63 2.33 21 2.33"/>
              <polygon class="cls-5" points="24.04 2.3 24.11 2.2 21.15 2.2 21 2.33 24.04 2.3"/>
              <polygon class="cls-15" points="19.11 2.34 20.63 2.33 20.73 2.2 18.67 2.2 19.11 2.34"/>
              <path class="cls-6" d="M16.55,1.83l.68.53,1.88-.02-.44-.15h2.05L22.23.11h-.69l-1.91,1.13-2.57.12-.46.27c-.02.07-.04.14-.06.21h0Z"/>
              <polygon class="cls-3" points="15.33 2.37 15.3 2.38 15.37 2.38 15.33 2.37"/>
              <path class="cls-15" d="M4.6.27l.15.14s.01,0,.02-.02l-.17-.13h0Z"/>
              <polygon class="cls-8" points="6.18 .25 6.36 .43 6.53 .25 6.18 .25"/>
              <polygon class="cls-3" points="7.66 .24 7.61 .24 7.65 .27 7.66 .24"/>
              <polygon class="cls-1" points="25.39 .91 26.1 1.56 26.37 1.25 25.39 .91"/>
              <polygon class="cls-11" points="9.43 2 9.07 2.44 9.82 2.43 9.43 2"/>
              <polygon class="cls-10" points="5.69 1.1 5.66 1.08 5.63 1.16 5.69 1.1"/>
              <path class="cls-15" d="M9.82,2.43h.51c.12-.11.24-.21.36-.32l-.92-.56-.35.44s.4.44.4.44Z"/>
              <polygon class="cls-1" points="7.32 1.4 8.36 2.45 9.07 2.44 9.43 2 8.11 .55 7.65 .27 7.32 1.4"/>
              <path class="cls-5" d="M5.59,1.2l-.84-.79s-.1.09-.14.14l.79.85.2-.2h0Z"/>
              <path class="cls-15" d="M17.07,1.35l-.39.02c-.02.09-.05.17-.07.25l.46-.27Z"/>
              <path class="cls-1" d="M14.67,1.58c.34.2.67.4.99.59l.76-.44-.43-.33-1.12.05-.21.13h.01Z"/>
              <polygon class="cls-6" points="15.99 1.4 15.53 1.04 14.87 1.45 15.99 1.4"/>
              <path class="cls-12" d="M11.13,1.73l-.07-.05-.08.19c.05-.04.1-.09.15-.13h0Z"/>
              <path class="cls-6" d="M12.73.31c.95.69.6.46,1.75,1.16l.39-.02.65-.41-1.11-.86h-1.55c-.05.05-.09.09-.13.14h0Z"/>
              <path class="cls-15" d="M14.48,1.47c-.32-.19-.64-.39-.96-.58.28.2.55.4.8.59h.16Z"/>
              <polygon class="cls-5" points="5.63 1.16 5.59 1.2 5.61 1.22 5.63 1.16"/>
              <polygon class="cls-5" points="6.93 2.46 7.01 2.46 7.1 2.17 5.69 1.1 5.63 1.16 5.61 1.22 6.93 2.46"/>
              <polygon class="cls-11" points="7.32 1.4 6.36 .43 5.69 1.1 7.1 2.17 7.32 1.4"/>
              <path class="cls-10" d="M12.57.2h-.17c.09.06.18.11.27.17.02-.02.04-.04.06-.05-.05-.04-.11-.08-.16-.12Z"/>
              <polygon class="cls-12" points="8.11 .55 9.78 1.56 10.19 1.04 9.09 .23 7.83 .24 8.11 .55"/>
              <path class="cls-10" d="M5.66,1.08l.29-.82h-1.05c-.04.05-.09.1-.13.14,0,0,.89.68.89.68Z"/>
              <path class="cls-8" d="M13.36,2.4l.67-.42-1.43-.43,1.72-.08c-1-.74-.63-.48-1.65-1.11-.53.47-1.05.94-1.54,1.37l.92.68h1.31,0Z"/>
              <path class="cls-9" d="M14.55,1.65l.11-.07c-.06-.04-.12-.07-.19-.11h-.16c.08.07.16.12.24.18Z"/>
              <path class="cls-9" d="M10.98,1.87c-.1.08-.19.17-.29.25l.15.09s.14-.34.14-.34Z"/>
              <path class="cls-15" d="M10.84,2.21l-.15-.09c-.12.11-.24.21-.36.31h.41l.09-.22h0Z"/>
              <polygon class="cls-1" points="11.06 1.68 11.68 .2 10.85 .21 10.19 1.04 11.06 1.68"/>
              <polygon class="cls-1" points=".61 4.38 .76 4.28 .76 4.28 .61 4.38"/>
              <path class="cls-8" d="M1.71,5.89v.02l.17.08h.07l-.24-.11h0Z"/>
              <polygon class="cls-6" points="1.66 5.87 1.67 5.9 1.71 5.92 1.71 5.89 1.66 5.87"/>
              <path class="cls-12" d="M5.39,1.4l-.79-.85s-.06.06-.09.09l.64,1s.21-.21.24-.24Z"/>
              <path class="cls-9" d="M1.95,6.01h-.07l.43.21v-.03l-.36-.17h0Z"/>
              <polygon class="cls-11" points="2.31 2.53 2.58 2.23 2.58 2.23 2.31 2.53"/>
              <path class="cls-15" d="M.76,5.45h0l.4.2v-.02l-.4-.19h0Z"/>
              <path class="cls-13" d="M1.66,5.87l-.5-.24v.02l.52.25-.02-.03Z"/>
              <polygon class="cls-14" points="0 5.09 .76 5.46 .76 5.45 0 5.09"/>
              <polygon class="cls-1" points=".63 4.4 0 5.09 .63 4.4 .63 4.4"/>
              <path class="cls-13" d="M2.3,2.53h0l-1.23,1.36s1.22-1.36,1.23-1.36Z"/>
              <path class="cls-9" d="M6.38,2.47l-.88-.95-.15.44.33.52h.71,0Z"/>
              <polygon class="cls-6" points="11.37 39.49 12.11 39.4 11.05 39.4 11.37 39.49"/>
              <path class="cls-5" d="M7.03,39.54l.04-.14h-.1s.03.09.05.14h0Z"/>
              <polygon class="cls-9" points="5.26 40.81 4.57 41.62 4.61 41.66 6.33 41.65 6.6 40.83 5.26 40.81"/>
              <path class="cls-14" d="M6.47,39.4l-.54.63.96-.08.14-.42s-.03-.09-.05-.14h-.51,0Z"/>
              <polygon class="cls-10" points="9.59 39.4 9.41 39.76 11.37 39.49 11.05 39.4 9.59 39.4"/>
              <polygon class="cls-9" points="22.02 41.28 21.95 41.56 22.67 41.55 22.02 41.28"/>
              <polygon class="cls-15" points="23.21 41.07 22.8 41.55 24.32 41.54 23.89 41.08 23.21 41.07"/>
              <polygon class="cls-13" points="25.7 40.43 26.8 41.53 26.99 41.53 26.17 40.23 25.7 40.43"/>
              <path class="cls-6" d="M16.31,40.97c-.04.22-.08.42-.12.62h2.26c.32-.19.65-.38.99-.57,0,0-3.13-.05-3.13-.05Z"/>
              <polygon class="cls-8" points="11.64 40.9 10.74 41.62 11.53 41.62 12.92 40.92 11.64 40.9"/>
              <path class="cls-8" d="M7.52,40.84c.11.3.22.57.31.8h.65l.39-.78-1.35-.02Z"/>
              <path class="cls-9" d="M19.44,41.02l2.02.03-1.2-.5c-.27.16-.55.31-.82.47Z"/>
              <path class="cls-7" d="M7.18,39.94c-.05-.13-.1-.27-.15-.4l-.14.42s.29-.02.29-.02Z"/>
              <polygon class="cls-6" points="22.49 39.59 22.09 41.05 23.21 41.07 23.53 40.7 22.49 39.59"/>
              <path class="cls-3" d="M22.49,39.59l-.19-.2h0c-.59.34-1.29.74-2.02,1.16l1.2.5h.62l.4-1.46h-.01Z"/>
              <polygon class="cls-15" points="21.46 41.05 22.02 41.28 22.09 41.05 21.46 41.05"/>
              <polygon class="cls-6" points="23.21 41.07 23.89 41.08 23.53 40.7 23.21 41.07"/>
              <polygon class="cls-15" points="13.48 39.45 14.14 39.39 13.54 39.39 13.48 39.45"/>
              <path class="cls-5" d="M17.71,39.48l.13-.09h-1.24c-.09.53-.19,1.08-.29,1.58l3.13.05c.27-.16.55-.31.82-.47l-2.55-1.07Z"/>
              <path class="cls-13" d="M17.71,39.48l2.55,1.07c.73-.42,1.43-.82,2.02-1.16h-4.45l-.13.09h.01Z"/>
              <polygon class="cls-5" points="24.65 39.38 23.53 40.7 23.89 41.08 24.11 41.08 25.7 40.43 24.66 39.38 24.65 39.38"/>
              <polygon class="cls-14" points="25.64 39.38 26.17 40.23 26.32 40.17 25.64 39.38 25.64 39.38"/>
              <polygon class="cls-15" points="14.51 40.44 14.51 40.12 14.11 40.32 14.51 40.44"/>
              <polygon class="cls-9" points="22.3 39.38 22.49 39.59 22.54 39.38 22.3 39.38"/>
              <path class="cls-3" d="M13.54,39.39c-1.72,0-1.24-.02-2.17.1l.3.09,1.8-.14.06-.05h0Z"/>
              <polygon class="cls-6" points="9.41 39.76 9.41 39.76 11.68 39.59 11.37 39.49 9.41 39.76"/>
              <polygon class="cls-7" points="9.37 39.77 9.41 39.76 9.41 39.76 9.37 39.77"/>
              <path class="cls-12" d="M7.22,40.06l2.15-.29-2.19.17s.03.08.04.12Z"/>
              <polygon class="cls-1" points="11.68 39.59 12.85 39.94 13.48 39.45 11.68 39.59"/>
              <path class="cls-1" d="M15.97,39.39l-1.45.73v.32l-.4-.12-1.2.6,3.39.05c.1-.5.2-1.05.29-1.58h-.64,0Z"/>
              <polygon class="cls-13" points="11.68 39.59 9.41 39.76 8.87 40.86 11.64 40.9 12.85 39.94 11.68 39.59"/>
              <polygon class="cls-6" points="5.93 40.04 5.73 40.26 6.84 40.11 6.89 39.96 5.93 40.04"/>
              <path class="cls-9" d="M6.84,40.11l-.24.72h.92c-.1-.23-.2-.5-.3-.77l-.38.05Z"/>
              <polygon class="cls-14" points="5.73 40.26 5.26 40.81 6.6 40.83 6.84 40.11 5.73 40.26"/>
              <path class="cls-10" d="M13.48,39.45l-.62.5,1.26.38.4-.2v-.73c-.47,0-.24,0-1.04.05Z"/>
              <polygon class="cls-10" points="1.87 35.81 1.85 35.77 1.06 36.2 1.06 36.22 1.87 35.81"/>
              <path class="cls-9" d="M1,36.23L0,36.76l1.02-.52s0,0-.02,0Z"/>
              <polygon class="cls-15" points="4.91 41.05 4.92 41.08 4.9 41.06 4.56 41.61 4.57 41.62 5.26 40.81 5.05 40.81 4.91 41.05"/>
              <polygon class="cls-3" points="5.36 40.31 5.05 40.81 5.26 40.81 5.73 40.26 5.36 40.31"/>
              <polygon class="cls-3" points="5.51 40.07 5.36 40.31 5.73 40.26 5.93 40.04 5.51 40.07"/>
              <polygon class="cls-3" points="4.92 41.08 4.91 41.05 4.9 41.06 4.92 41.08"/>
              <polygon class="cls-14" points="2.14 35.62 1.85 35.77 1.87 35.81 2.14 35.67 2.14 35.62"/>
              <polygon class="cls-1" points="5.91 39.4 5.51 40.07 5.93 40.04 6.47 39.4 5.91 39.4"/>
              <polygon class="cls-6" points="30.73 5.45 31.99 6.3 31.99 6.11 31.51 5.03 30.73 5.45"/>
              <polygon class="cls-14" points="29.84 34.91 30.52 36.28 30.83 6.38 30.51 5.57 29.86 5.93 29.84 34.91"/>
              <polygon class="cls-8" points="30.76 36.76 30.52 36.28 30.52 36.61 30.76 36.76"/>
              <polygon class="cls-6" points="26.66 1.36 26.37 1.25 26.1 1.56 26.39 1.83 26.66 1.36"/>
              <polygon class="cls-5" points="27.43 .06 26.37 1.25 26.66 1.36 27.43 .06"/>
              <polygon class="cls-6" points="26.12 2.28 26.12 2.28 26.39 1.83 26.1 1.56 25.57 2.16 25.89 2.28 26.12 2.28"/>
              <polygon class="cls-6" points="25.64 39.38 26.32 40.17 26.61 40.05 26.2 39.38 25.64 39.38"/>
              <polygon class="cls-8" points="2.14 35.52 2.14 35.62 2.22 35.58 2.14 35.52"/>
              <path class="cls-12" d="M2.69,6.71l-.32-.48-.06-.03v.8l.37.65c.03-.15.02,0,0-.95h0Z"/>
              <polygon class="cls-13" points="2.99 34.98 2.99 35.17 3.36 34.98 2.99 34.98"/>
              <polygon class="cls-3" points="2.91 6.5 2.68 6.39 2.69 6.71 2.82 6.92 2.91 6.5"/>
              <polygon class="cls-5" points="2.37 6.24 2.69 6.71 2.68 6.39 2.37 6.24"/>
              <path class="cls-12" d="M3.72,34.79l-.09-.45.51.23.5-.27-.2-27.05-.84-.41-.29.82-.49-.74c-.18.92-.16-1.92.17,28.06h.37s.36-.19.36-.19Z"/>
              <polygon class="cls-1" points="2.69 7.56 2.68 7.66 2.3 7.01 2.14 34.98 2.99 34.98 2.69 7.56"/>
              <polygon class="cls-6" points="2.22 35.58 2.99 35.17 2.99 34.98 2.14 34.98 2.14 35.52 2.22 35.58"/>
              <polygon class="cls-9" points="2.82 6.92 3.32 7.66 3.61 6.84 2.91 6.5 2.82 6.92"/>
              <path class="cls-6" d="M10.45,3.13l.29-.7h-.41c-.1.09-.2.17-.29.25l.41.45Z"/>
              <polygon class="cls-1" points="20.63 2.33 19.11 2.34 20.33 2.75 20.63 2.33"/>
              <polygon class="cls-12" points="12.65 2.85 12.28 3.08 13.16 3.62 13.75 3.67 12.65 2.85"/>
              <polygon class="cls-15" points="20.47 2.8 21 2.33 20.63 2.33 20.33 2.75 20.47 2.8"/>
              <path class="cls-10" d="M16.31,2.56c.43.25.07.12,2.11.72l-1.19-.92h-.85c-.02.08-.05.14-.07.2Z"/>
              <path class="cls-9" d="M19.55,3.62c.53-.47.35-.27.78-.87l-1.22-.41-1.88.02,1.19.92s1.13.34,1.13.34Z"/>
              <path class="cls-5" d="M23.5,4.34c.42-.3.33-.22.46-.37l-.91-.3-.5.7.95-.02h0Z"/>
              <polygon class="cls-13" points="19.98 3.23 20.47 2.8 20.33 2.75 19.98 3.23"/>
              <path class="cls-10" d="M18.55,3.87c.25.14.4.23.43.25l.57-.5-1.13-.34.26.2-.13.38h0Z"/>
              <polygon class="cls-10" points="11.63 3.48 13.16 3.62 12.28 3.08 11.63 3.48"/>
              <polygon class="cls-1" points="22.09 4.37 19.68 3.66 19.11 4.44 22.09 4.37"/>
              <path class="cls-1" d="M10.34,2.43h-.51l.22.25c.1-.08.19-.16.29-.25Z"/>
              <path class="cls-6" d="M11.76,4.62c-.64-.08-1.23-.15-1.74-.22l.33.25,1.41-.03Z"/>
              <path class="cls-15" d="M16.11,2.84s-.22-.18-.49-.39l-.25-.08h-.07l-.79.46.51.94,3.45.3.07-.21c-2.23-1.29-1.76-1.07-2.27-1.22-.07.16-.12.23-.16.19h0Z"/>
              <path class="cls-13" d="M8.46,4.7l.84-.02-.46-.43c-.54-.07-.83-.12-.72-.12.06,0,.19-.07.38-.2l-.34-.32-.33.41.64.69h-.01Z"/>
              <path class="cls-9" d="M8.84,4.24l-.34-.32c-.19.13-.32.2-.38.2-.11,0,.18.04.72.12Z"/>
              <path class="cls-13" d="M10.02,4.4l-1.08-.82c-.18.14-.33.25-.46.34l.34.32c.32.04.72.1,1.19.16h.01Z"/>
              <path class="cls-12" d="M9.25,3.34c.24-.19.51-.42.79-.66l-.22-.24h-.75l-.32.41.5.5h0Z"/>
              <polygon class="cls-10" points="18.6 4.46 18.98 4.12 18.48 4.08 18.35 4.46 18.6 4.46"/>
              <path class="cls-1" d="M15.43,4.53l-.41-.75c-.23-.02.08,0-1.27-.11l1.18.88h.49v-.02Z"/>
              <polygon class="cls-9" points="19.98 3.23 19.55 3.62 19.68 3.66 19.98 3.23"/>
              <polygon class="cls-6" points="9.07 2.44 8.36 2.45 8.75 2.84 9.07 2.44"/>
              <polygon class="cls-5" points="13.36 2.4 12.05 2.41 12.65 2.85 13.36 2.4"/>
              <path class="cls-11" d="M9.25,3.34l-.5-.5-.29.37.49.37c.1-.07.2-.15.3-.24Z"/>
              <path class="cls-12" d="M13.75,3.67c1.32.12.99.09,1.27.11l-.51-.94.79-.46-1.94.02-.72.45s1.11.82,1.11.82Z"/>
              <polygon class="cls-15" points="14.7 4.55 13.16 3.62 11.63 3.48 12.28 3.08 11.19 2.42 10.75 2.42 10.45 3.13 11.81 4.62 14.7 4.55"/>
              <path class="cls-1" d="M10.45,3.13l-.41-.45c-.29.25-.56.47-.79.66l.78.79.42-1Z"/>
              <path class="cls-8" d="M16.27,2.65l-.65-.19c.27.21.44.34.49.39.04.04.09-.04.16-.19h0Z"/>
              <polygon class="cls-15" points="7.01 2.46 6.93 2.46 7 2.52 7.01 2.46"/>
              <polygon class="cls-13" points="6.86 2.98 7 2.52 6.93 2.46 6.38 2.47 6.86 2.98"/>
              <polygon class="cls-12" points="8.15 3.6 8.46 3.21 7.47 2.46 7.01 2.46 7 2.52 8.15 3.6"/>
              <path class="cls-5" d="M16.27,2.65s.02-.06.04-.09c-.1-.06-.21-.12-.31-.19h-.47s.07.06.1.08l.65.19h-.01Z"/>
              <path class="cls-12" d="M10.02,4.4c.08,0,1.71.22,1.79.22l-1.35-1.49-.42,1-.78-.79c-.11.09-.21.17-.3.24l1.08.82h-.02Z"/>
              <polygon class="cls-15" points="20.47 2.8 23.05 3.66 24.04 2.3 21 2.33 20.47 2.8"/>
              <polygon class="cls-8" points="3.62 6.8 3.61 6.84 4.45 7.24 4.45 7.18 3.62 6.8"/>
              <polygon class="cls-1" points="7.82 4.01 7.25 4.73 8.46 4.7 7.82 4.01"/>
              <polygon class="cls-8" points="2.91 6.46 2.91 6.5 3.61 6.84 3.62 6.8 2.91 6.46"/>
              <polygon class="cls-15" points="2.68 6.35 2.34 6.19 2.37 6.24 2.68 6.39 2.68 6.35"/>
              <polygon class="cls-13" points="2.31 6.18 2.31 6.21 2.37 6.24 2.34 6.19 2.31 6.18"/>
              <polygon class="cls-1" points="6.38 2.47 5.67 2.47 5.67 2.47 6.59 3.92 6.86 2.98 6.38 2.47"/>
              <polygon class="cls-6" points="2.68 6.35 2.68 6.39 2.91 6.5 2.91 6.46 2.68 6.35"/>
              <path class="cls-10" d="M8.66,37.34c.54.17,1.12.36,1.69.55l.27-.55h-1.96Z"/>
              <path class="cls-9" d="M13.85,39.15c-.13-.05-.82-.31-1.73-.63h-2.08l-.25.5,1.26.38c1.33,0,.71.05,2.79-.24h.02-.01Z"/>
              <path class="cls-6" d="M17.71,38.51l-1.05.53s-.02.11-.03.16l1.66-.13.8-.55h-1.39.01Z"/>
              <polygon class="cls-1" points="14.51 38.62 14.65 38.51 14.51 38.51 14.51 38.62"/>
              <path class="cls-6" d="M16.95,37.36c-.05.32-.12.72-.19,1.16h.96l2.29-1.15h-3.06,0Z"/>
              <polygon class="cls-6" points="19.1 38.51 18.3 39.07 21.75 38.8 21.48 38.51 19.1 38.51"/>
              <path class="cls-15" d="M12.12,38.51c.91.33,1.6.58,1.73.63l.66-.53v-.11h-2.4,0Z"/>
              <polygon class="cls-10" points="20.4 37.36 20.01 37.36 17.71 38.51 19.1 38.51 20.54 37.51 20.4 37.36"/>
              <path class="cls-5" d="M14.51,38.19l-.5-.84h-3.4l-.27.54c.62.21,1.24.43,1.77.62h2.4v-.32Z"/>
              <polygon class="cls-1" points="23.79 38.51 22.99 37.71 22.78 38.51 23.79 38.51"/>
              <path class="cls-3" d="M6.98,39.4c-.05-.14-.1-.28-.15-.42l-.36.42h.51Z"/>
              <path class="cls-10" d="M13.85,39.15h.02-.04l-.29.24c.72,0,.52,0,.97-.03v-.74s-.66.53-.66.53Z"/>
              <path class="cls-14" d="M10.03,38.51h2.08c-.54-.19-1.15-.41-1.77-.62l-.31.62Z"/>
              <path class="cls-15" d="M16.76,38.51h-2.11l-.13.11v.74l1.78-.14.37-.19c.03-.18.06-.36.09-.53h0Z"/>
              <path class="cls-9" d="M16.3,39.22l.34-.03s.02-.11.03-.16l-.37.19Z"/>
              <polygon class="cls-10" points="14.51 39.39 14.51 39.36 14.14 39.39 14.51 39.39"/>
              <polygon class="cls-8" points="12.11 39.4 13.54 39.39 13.83 39.16 12.11 39.4"/>
              <polygon class="cls-1" points="19.1 38.51 21.48 38.51 20.54 37.51 19.1 38.51"/>
              <path class="cls-13" d="M16.67,39.04l1.05-.53h-.96c-.03.17-.06.35-.09.53Z"/>
              <polygon class="cls-10" points="9.78 39.02 10.03 38.51 8.11 38.51 9.78 39.02"/>
              <polygon class="cls-3" points="14.01 37.35 14.51 38.19 14.51 38.51 14.65 38.51 16.11 37.36 14.01 37.35"/>
              <polygon class="cls-13" points="9.78 39.02 9.59 39.4 11.05 39.4 9.78 39.02"/>
              <path class="cls-13" d="M22.59,39.21c-.09.05-.19.11-.29.17h.24s.05-.17.05-.17Z"/>
              <polygon class="cls-1" points="22.78 38.51 21.48 38.51 21.75 38.8 22.72 38.72 22.78 38.51"/>
              <polygon class="cls-5" points="20.76 37.36 20.54 37.51 21.48 38.51 22.78 38.51 22.99 37.71 22.65 37.36 20.76 37.36"/>
              <polygon class="cls-14" points="23.91 38.63 24.66 39.38 25.14 38.81 24.92 38.55 23.91 38.63"/>
              <path class="cls-13" d="M6.83,38.99c.05.14.1.28.15.42h.1l.38-1.15s-.63.73-.63.73Z"/>
              <path class="cls-14" d="M22.59,39.21c.41-.24.75-.43.96-.55l-.82.06-.13.49h-.01Z"/>
              <path class="cls-13" d="M21.75,38.8l.55.58c.1-.06.2-.12.29-.17l.13-.49s-.97.08-.97.08Z"/>
              <path class="cls-6" d="M16.64,39.2c-.01.06-.02.13-.03.19h1.24l.46-.32-1.66.13h0Z"/>
              <path class="cls-12" d="M16.3,39.22l-.33.17h.64c.01-.07.02-.13.03-.19l-.34.03h0Z"/>
              <polygon class="cls-13" points="21.75 38.8 18.3 39.07 17.84 39.39 22.29 39.38 22.29 39.38 21.75 38.8"/>
              <polygon class="cls-13" points="25.64 39.38 25.64 39.38 25.63 39.37 25.64 39.38"/>
              <path class="cls-1" d="M22.78,38.51l-.06.21.82-.06c.16-.09.25-.14.25-.14h-1.02.01Z"/>
              <path class="cls-6" d="M23.54,38.66l.37-.03-.12-.12s-.09.05-.25.14h0Z"/>
              <polygon class="cls-1" points="22.99 37.71 23.09 37.36 22.65 37.36 22.99 37.71"/>
              <polygon class="cls-9" points="20.54 37.51 20.76 37.36 20.4 37.36 20.54 37.51"/>
              <polygon class="cls-1" points="2.22 35.58 2.14 35.62 2.14 35.67 2.26 35.61 2.22 35.58"/>
              <path class="cls-1" d="M6.64,38.46s-.04-.11-.05-.16l-.13.22.19-.06h0Z"/>
              <polygon class="cls-1" points="2.99 35.24 2.99 35.17 2.22 35.58 2.26 35.61 2.99 35.24"/>
              <polygon class="cls-12" points="3.72 34.79 3.36 34.98 3.51 34.98 3.74 34.87 3.72 34.79"/>
              <polygon class="cls-10" points="4.65 34.41 4.65 34.41 4.64 34.3 4.14 34.56 4.25 34.61 4.65 34.41"/>
              <path class="cls-8" d="M6.45,38.52l-.54.88h.56l.36-.42c-.06-.18-.13-.36-.19-.53l-.19.06h0Z"/>
              <polygon class="cls-12" points="3.51 34.98 3.36 34.98 2.99 35.17 2.99 35.24 3.51 34.98"/>
              <path class="cls-10" d="M6.64,38.46c.06.17.12.35.19.53l.63-.73.02-.06-.83.27h-.01Z"/>
              <polygon class="cls-10" points="27.89 7.02 27.89 7.2 27.95 7.28 27.95 6.99 27.89 7.02"/>
              <polygon class="cls-14" points="28.59 7.98 27.95 7.28 27.95 8.3 27.88 8.08 27.59 34.75 27.59 34.75 27.87 34.93 28.59 34.33 28.79 35.51 29.42 35.91 29.55 34.33 29.84 34.91 29.86 5.93 29.52 6.12 28.59 7.98"/>
              <polygon class="cls-1" points="27.88 8.08 27.95 8.3 27.95 7.28 27.89 7.2 27.88 8.08"/>
              <polygon class="cls-5" points="25.94 2.59 24 3.98 24.93 4.29 25.94 2.59"/>
              <polygon class="cls-14" points="24 3.98 23.96 3.97 23.87 4.07 24 3.98"/>
              <polygon class="cls-1" points="26.12 2.28 25.89 2.28 26.08 2.35 26.12 2.28 26.12 2.28"/>
              <path class="cls-9" d="M24.37,37.37l.73,1.17.29-.02-.17.2s.4.64.42.66h.56l-1.22-2.01h-.61Z"/>
              <polygon class="cls-5" points="25.14 38.81 25.22 38.72 25.11 38.54 24.92 38.55 25.14 38.81"/>
              <polygon class="cls-8" points="5.65 33.75 5.75 7.87 5.03 7.52 4.92 7.66 4.87 7.45 4.45 7.24 4.64 34.3 5.66 33.76 5.65 33.75"/>
              <polygon class="cls-6" points="6.49 8.23 5.75 7.87 5.65 33.75 5.66 33.76 6.46 33.33 6.49 8.23"/>
              <path class="cls-13" d="M11.76,4.62l-1.41.03,1.41-.03Z"/>
              <polygon class="cls-10" points="8.66 4.69 9.3 4.68 9.3 4.68 8.46 4.7 8.56 4.8 8.66 4.69"/>
              <path class="cls-9" d="M23.28,4.34l.09.09.14-.1-.95.02s.72-.02.73-.02h0Z"/>
              <path class="cls-15" d="M22.09,4.37l-2.98.07,2.98-.07Z"/>
              <path class="cls-14" d="M18.04,5.39l.21-.62-.64.57c.15.02.29.04.43.05Z"/>
              <path class="cls-1" d="M15.75,5.11l.03.05.22.16,1.49.12.12-.11c-.58-.07-1.21-.15-1.86-.23h0Z"/>
              <path class="cls-5" d="M15.75,5.11l-.31-.58h-.49l.76.57h.05-.01Z"/>
              <path class="cls-1" d="M20.91,5.73c-.9-.07-1.7-.14-2.58-.22l-.62.86.29-.89-.52-.04-1.05.93-.58-1.07-3.7-.31,1.24,1.36,8.34.12,1.55-1.75-.23-.07-1.5,1.07.91-1.25-.37-.11-2.98.07-.71.99c1.48.18,2.52.3,2.52.3h-.01Z"/>
              <path class="cls-9" d="M15.58,5.09l-.89-.54-2.89.07h0c1.18.15,2.5.32,3.77.47h.01Z"/>
              <polygon class="cls-3" points="12.59 6.35 13.39 6.36 12.16 5 10.65 4.87 12.59 6.35"/>
              <polygon class="cls-14" points="16.11 5.41 15.99 5.32 15.96 5.32 16.11 5.41"/>
              <path class="cls-5" d="M18.33,5.52l.06-.09c-.12-.01-.23-.03-.35-.04l-.03.1.33.03h0Z"/>
              <polygon class="cls-3" points="23.05 4.66 23.36 4.44 23.28 4.34 22.55 4.36 22.46 4.48 23.05 4.66"/>
              <polygon class="cls-5" points="21.55 5.73 23.05 4.66 22.46 4.48 21.55 5.73"/>
              <polygon class="cls-12" points="18.6 4.46 18.35 4.46 18.25 4.77 18.6 4.46"/>
              <polygon class="cls-13" points="12.59 6.35 10.65 4.87 9.39 4.77 9.3 4.68 8.66 4.69 8.56 4.8 9.96 6.31 12.59 6.35"/>
              <polygon class="cls-13" points="15.81 5.23 15.86 5.31 15.96 5.32 15.81 5.23"/>
              <path class="cls-10" d="M12.16,5l-.34-.37c-.08-.01-1.38.03-1.46.03l.29.22,1.51.13h0Z"/>
              <polygon class="cls-10" points="15.96 5.32 15.99 5.32 15.77 5.16 15.81 5.23 15.96 5.32"/>
              <path class="cls-14" d="M15.77,5.16l-.08-.06s-.07,0-.11-.01l.23.14s-.04-.07-.04-.07Z"/>
              <polygon class="cls-5" points="8.56 4.8 8.46 4.7 7.25 4.73 7.17 4.83 7.72 5.7 8.56 4.8"/>
              <polygon class="cls-6" points="5.06 7.47 5.03 7.52 5.75 7.87 5.75 7.8 5.06 7.47"/>
              <polygon class="cls-1" points="4.86 7.38 4.45 7.18 4.45 7.24 4.87 7.45 4.86 7.38"/>
              <polygon class="cls-10" points="9.96 6.31 8.56 4.8 7.72 5.7 8.09 6.29 9.96 6.31"/>
              <polygon class="cls-1" points="6.49 8.15 5.75 7.8 5.75 7.87 6.49 8.23 6.49 8.15"/>
              <polygon class="cls-9" points="13.7 36.82 14.01 37.35 16.11 37.36 16.8 36.81 13.7 36.82"/>
              <path class="cls-12" d="M11.01,36.84c-.38.45-.3.34-.39.51h3.4l-.32-.52-2.69.02h0Z"/>
              <polygon class="cls-12" points="22.07 36.78 22.65 37.36 23.09 37.36 23.25 36.77 22.07 36.78"/>
              <path class="cls-14" d="M11.01,36.84h-2.35s-.33.4-.33.4c.11.03.22.07.33.1h1.96c.09-.17,0-.06.39-.5Z"/>
              <polygon class="cls-9" points="20.01 37.36 20.4 37.36 20.27 37.23 20.01 37.36"/>
              <path class="cls-9" d="M17.04,36.8c-.02.13-.05.32-.09.55h3.06l.27-.13.13.13h.36l.84-.58-4.56.03h-.01Z"/>
              <polygon class="cls-3" points="20.76 37.36 22.65 37.36 22.07 36.78 21.6 36.78 20.76 37.36"/>
              <polygon class="cls-1" points="12.92 35.52 12.13 35.52 11.84 35.86 12.27 36.26 11.55 36.2 11.01 36.84 13.7 36.82 12.92 35.52"/>
              <polygon class="cls-14" points="12.27 36.26 11.84 35.86 11.55 36.2 12.27 36.26"/>
              <polygon class="cls-15" points="12.13 35.52 11.49 35.53 11.84 35.86 12.13 35.52"/>
              <polygon class="cls-9" points="9.37 36.02 8.66 36.85 8.66 36.85 11.01 36.84 11.55 36.2 9.37 36.02"/>
              <polygon class="cls-9" points="21.6 36.78 22.07 36.78 21.87 36.58 21.6 36.78"/>
              <path class="cls-5" d="M13.7,36.82l3.1-.02.28-.22s-.01.08-.04.22l4.56-.03.28-.19.19.19h1.18l.03-.12-1.07-1.24-9.29.1s.78,1.31.78,1.31Z"/>
              <path class="cls-5" d="M7.39,36.99c.28.07.59.16.93.26l.33-.39-.73-.75-.54.88h.01Z"/>
              <polygon class="cls-10" points="4.65 34.41 5.74 33.85 5.66 33.76 4.64 34.3 4.65 34.41 4.65 34.41"/>
              <polygon class="cls-12" points="8.05 35.91 7.93 36.11 8.66 36.85 9.37 36.02 8.05 35.91"/>
              <polygon class="cls-9" points="6.46 33.33 5.66 33.76 5.74 33.85 6.46 33.48 6.46 33.33"/>
              <polygon class="cls-12" points="27.78 7.08 27.58 7.19 27.88 8.08 27.89 7.2 27.78 7.08"/>
              <polygon class="cls-6" points="27.89 7.2 27.89 7.02 27.78 7.08 27.89 7.2"/>
              <polygon class="cls-5" points="26.51 7.78 26.55 34.09 26.55 34.09 27.59 34.75 27.59 34.75 27.88 8.08 27.58 7.19 26.51 7.78"/>
              <polygon class="cls-13" points="26.03 8.3 26.11 8 25.45 8.37 25.5 33.43 26.55 34.09 26.55 34.09 26.51 7.78 26.27 7.92 26.03 8.3"/>
              <polygon class="cls-9" points="24.47 5.08 23.77 4.87 24.28 5.41 24.47 5.08"/>
              <polygon class="cls-15" points="21.73 6.48 23.63 6.51 24.28 5.41 23.77 4.87 23.29 4.73 21.73 6.48"/>
              <polygon class="cls-14" points="23.78 36.43 24.37 37.37 24.98 37.37 24.2 36.08 23.78 36.43"/>
              <polygon class="cls-1" points="22.21 35.42 23.28 36.66 23.47 35.94 23.78 36.43 24.2 36.08 23.79 35.4 22.21 35.42"/>
              <polygon class="cls-14" points="8.11 32.41 8.11 9.02 6.49 8.23 6.46 33.33 8.15 32.44 8.11 32.41"/>
              <polygon class="cls-13" points="11.3 10.56 8.11 9.02 8.11 32.41 8.15 32.44 11.34 30.75 11.3 10.56 11.3 10.56"/>
              <polygon class="cls-1" points="12.92 11.34 11.3 10.56 11.3 10.56 11.34 30.75 13.23 29.75 12.92 11.34"/>
              <polygon class="cls-10" points="14.83 28.87 14.2 11.96 13.57 11.66 14.19 29.19 13.88 29.4 16.02 28.27 16.07 12.87 14.83 12.27 14.83 28.87"/>
              <polygon class="cls-15" points="13.28 6.87 13.89 6.91 13.39 6.36 12.59 6.35 13.28 6.87"/>
              <polygon class="cls-1" points="20.91 7.34 20.94 7.37 21.73 6.48 13.39 6.36 13.89 6.91 20.91 7.34"/>
              <polygon class="cls-1" points="10.34 6.71 10.35 6.7 13.28 6.87 12.59 6.35 9.96 6.31 10.34 6.71"/>
              <polygon class="cls-7" points="13.89 6.91 13.28 6.87 15.15 8.3 13.89 6.91"/>
              <polygon class="cls-8" points="10.34 6.71 12.41 8.94 12.47 8.85 19.48 8.88 19.56 8.93 20.94 7.37 20.91 7.34 13.89 6.91 15.15 8.3 13.28 6.87 10.35 6.7 10.34 6.71"/>
              <polygon class="cls-15" points="12.47 8.85 12.41 8.94 16.07 12.87 19.56 8.93 19.48 8.88 12.47 8.85"/>
              <polygon class="cls-8" points="8.11 8.95 10.34 6.71 9.96 6.31 8.09 6.29 6.49 8.15 6.49 8.23 8.11 9.02 8.11 8.95"/>
              <polygon class="cls-10" points="12.41 8.94 10.34 6.71 8.11 8.95 8.11 9.02 11.3 10.56 12.41 8.94"/>
              <polygon class="cls-1" points="14.2 11.96 14.19 11.84 13.57 11.52 13.57 11.66 14.2 11.96"/>
              <polygon class="cls-11" points="12.92 11.34 12.91 11.2 13.57 11.52 13.55 11.2 14.19 11.84 14.83 12.16 14.83 12.27 16.07 12.87 12.41 8.94 11.3 10.56 12.92 11.34"/>
              <polygon class="cls-5" points="20.91 34.01 10.82 34.33 10.54 34.66 11.49 35.53 12.13 35.52 12.59 34.98 12.92 35.52 22.21 35.42 20.96 33.97 20.91 34.01"/>
              <polygon class="cls-1" points="12.44 32.56 12.4 32.49 10.82 34.33 20.91 34.01 20.96 33.97 19.98 32.84 12.44 32.56"/>
              <polygon class="cls-5" points="12.59 34.98 12.13 35.52 12.92 35.52 12.59 34.98"/>
              <polygon class="cls-15" points="12.4 32.49 12.44 32.56 19.98 32.84 16.02 28.27 12.4 32.49"/>
              <polygon class="cls-1" points="10.12 34.27 8.15 32.44 6.46 33.33 6.46 33.48 7.5 34.69 8.11 34.01 10.12 34.27"/>
              <path class="cls-15" d="M11.34,30.75h0l-3.19,1.69,1.97,1.83c.64.08.5.07.7.07l1.58-1.84-1.06-1.74h0Z"/>
              <path class="cls-8" d="M10.12,34.27l.42.39.28-.33c-.2,0-.06.02-.7-.07h0Z"/>
              <path class="cls-13" d="M13.23,29.84v-.09l-1.9,1h0l1.06,1.74,3.62-4.22c-2.51,1.33-1.95,1.01-2.78,1.57Z"/>
              <polygon class="cls-8" points="21.05 31.19 21.05 31.19 22.75 32.17 22.83 32.09 22.83 9.42 21.44 10.13 21.05 31.19"/>
              <polygon class="cls-5" points="25.45 8.37 25.27 8.18 22.83 9.42 22.83 32.09 22.75 32.17 25.31 33.66 25.5 33.43 25.45 8.37"/>
              <path class="cls-14" d="M18.75,29.27c.18-3.03-.06-17.11-.08-17.73l-.64.33-.32,16.36,1.04,1.04Z"/>
              <path class="cls-14" d="M17.83,29.32s-.08-.09-.11-.13c-.31-.31.29-16.59.32-17.33l-1.96,1-.05,15.4,1.81,1.05h0Z"/>
              <path class="cls-14" d="M19.31,29.84l-.56-.57c-.02.3-.04.49-.07.55l2.37,1.37h0l.39-21.06-2.13,1.08v18.62h0Z"/>
              <polygon class="cls-13" points="20.94 7.37 19.56 8.93 21.44 10.13 21.44 10.13 22.83 9.42 22.83 9.27 20.94 7.37"/>
              <polygon class="cls-1" points="22.83 9.27 22.83 9.42 25.27 8.18 23.63 6.51 21.73 6.48 20.94 7.37 22.83 9.27"/>
              <path class="cls-9" d="M18.03,11.87v-.03.03l.64-.33v-.02l.64-.32v.02l2.13-1.08h0l-1.88-1.2-3.49,3.94,1.96-1h0Z"/>
              <polygon class="cls-9" points="19.99 32.84 19.98 32.84 20.96 33.97 22.75 32.17 21.05 31.19 19.99 32.84"/>
              <polygon class="cls-7" points="20.96 33.97 22.21 35.42 23.79 35.4 25.31 33.66 22.75 32.17 20.96 33.97"/>
              <path class="cls-11" d="M18.67,29.84c-.28.28-.56-.18-.85-.52l-1.81-1.05,3.96,4.57h0l1.07-1.65-2.37-1.37s0,.02-.01.02h0Z"/>
              <polygon class="cls-1" points="2.31 2.54 2.31 2.53 2.3 2.53 2.31 2.54"/>
              <path class="cls-7" d="M1.13,5.48c0,.05,0,.11.02.16l.5.24-.19-.34-.33-.05h0Z"/>
              <polygon class="cls-5" points="1.77 5.58 1.46 5.53 1.66 5.87 1.71 5.89 1.77 5.58"/>
              <path class="cls-6" d="M1.05,4.81c.03.23.06.45.08.66l.33.05-.41-.72h0Z"/>
              <polygon class="cls-6" points=".63 4.4 .87 4.5 .74 4.27 .63 4.4"/>
              <path class="cls-15" d="M.87,4.5l.18.32c0-.08-.02-.17-.03-.26,0,0-.15-.06-.15-.06Z"/>
              <polygon class="cls-10" points="1.89 4.9 1.34 4.68 1.8 5.38 1.89 4.9"/>
              <path class="cls-5" d="M1.34,4.68l-.37-.56c.02.15.04.29.05.43,0,0,.32.13.32.13Z"/>
              <path class="cls-13" d="M.76,5.41v.03l.4.19c0-.05,0-.11-.02-.16,0,0-.38-.06-.38-.06Z"/>
              <path class="cls-12" d="M.76,5.41l.38.06c-.03-.21-.05-.44-.08-.66l-.18-.32-.25-.1-.63.69.76.36s0-.03,0-.03Z"/>
              <path class="cls-8" d="M2.42,2.66c.11-.11.22-.21.34-.32l-.18-.1-.27.3h0l.11.13h0Z"/>
              <path class="cls-1" d="M1.89,4.9l1.16.47.11-.12c.09-.45.03-.14.29-1.48l-1.03-1.11s-.11.1-.16.15c-.06.33,0-.04-.37,2.1h0Z"/>
              <path class="cls-9" d="M3.16,5.24l.82-.91-.53-.57c-.21,1.04-.18.92-.29,1.48Z"/>
              <path class="cls-15" d="M2.31,2.54h0l-1.23,1.36c.37-.34.77-.7,1.18-1.09,0,0,.05-.27.05-.27Z"/>
              <polygon class="cls-14" points="1.96 5.61 2.68 5.73 2.68 5.77 3.04 5.37 1.89 4.9 1.8 5.38 1.96 5.61"/>
              <path class="cls-1" d="M3.64,2.84l-.18.93.53.57.22-.25-.25-1.25,1.19-1.2-.64-1c-.54.53-1.15,1.12-1.76,1.69l.88.5h0Z"/>
              <polygon class="cls-8" points="1.8 5.38 1.77 5.58 1.96 5.61 1.8 5.38"/>
              <path class="cls-15" d="M2.32,6.16l.09-.1c-.06,0-.11-.01-.17-.02,0,0,.08.12.08.12Z"/>
              <path class="cls-6" d="M1.96,5.61l-.19-.03-.06.31.24.11c.1.01.19.02.29.03l-.29-.43h0Z"/>
              <path class="cls-14" d="M2.41,6.06l.26-.29v-.04l-.72-.12.29.43c.06,0,.11.01.17.02Z"/>
              <polygon class="cls-9" points="5.34 1.95 4.83 3.4 5.67 2.47 5.34 1.95"/>
              <path class="cls-5" d="M2.32,6.16l-.08-.12c-.1-.01-.19-.02-.29-.03l.36.17h0v-.02Z"/>
              <polygon class="cls-6" points="4.2 4.09 3.98 4.34 4.33 4.71 4.2 4.09"/>
              <polygon class="cls-15" points="2.31 6.18 2.31 6.18 2.34 6.19 2.32 6.16 2.31 6.18"/>
              <path class="cls-10" d="M2.68,6.09v-.32l-.27.29c.09.01.18.02.27.03Z"/>
              <path class="cls-6" d="M2.68,6.09c.1.01.2.02.3.03l.14-.72-.08-.03-.37.41v.32h0Z"/>
              <polygon class="cls-13" points="3.13 5.4 4 5.75 4.34 4.78 4.33 4.71 3.98 4.34 3.16 5.24 3.13 5.4"/>
              <path class="cls-12" d="M3.83,6.21l.16-.46-.87-.35-.14.72c.29.03.58.06.85.09Z"/>
              <polygon class="cls-9" points="4.34 4.78 4 5.75 4.58 5.98 4.34 4.78"/>
              <path class="cls-13" d="M4.64,6.29l-.06-.31-.59-.24-.16.46c.3.03.57.06.81.08h0Z"/>
              <path class="cls-1" d="M4.45,7.18h0l.31-.3-.12-.59c-.24-.02-.51-.05-.81-.08l-.21.58.82.39h0Z"/>
              <polygon class="cls-6" points="3.16 5.24 3.04 5.37 3.13 5.4 3.16 5.24"/>
              <path class="cls-5" d="M5.39,6.31l-.81-.32.06.31c.3.03.54.05.7.06,0,0,.05-.05.05-.05Z"/>
              <polygon class="cls-1" points="6.08 5.68 6.59 3.92 5.67 2.47 4.83 3.4 4.35 4.74 5.62 6.1 6.08 5.68"/>
              <path class="cls-9" d="M3.62,6.8l.21-.58c-.27-.03-.55-.06-.85-.09l-.07.34s.71.33.71.33Z"/>
              <path class="cls-7" d="M2.41,6.06l-.09.1.02.03.34.16v-.26c-.09,0-.18-.02-.27-.03Z"/>
              <polygon class="cls-3" points="4.33 4.71 4.34 4.78 4.35 4.74 4.33 4.71"/>
              <path class="cls-13" d="M2.98,6.12c-.1-.01-.2-.02-.3-.03v.26l.23.11s.07-.34.07-.34Z"/>
              <polygon class="cls-1" points="5.75 7.8 7.72 5.7 7.17 4.83 5.06 7.47 5.75 7.8 5.75 7.8"/>
              <polygon class="cls-10" points="6.08 5.68 5.62 6.1 5.88 6.38 6.08 5.68"/>
              <polygon class="cls-7" points="4.45 7.17 4.45 7.18 4.86 7.38 4.76 6.89 4.45 7.17"/>
              <path class="cls-1" d="M5.56,6.38l-.17-.07-.05.05c.14.01.22.02.22.02Z"/>
              <polygon class="cls-6" points="7.72 5.7 5.75 7.8 5.75 7.8 6.49 8.15 8.09 6.29 7.72 5.7"/>
              <polygon class="cls-6" points="29.8 5.88 29.86 5.93 29.86 5.93 30.51 5.57 30.49 5.52 29.8 5.88"/>
              <polygon class="cls-6" points="30.73 5.45 31.51 5.03 31.5 5.01 30.69 5.42 30.73 5.45"/>
              <polygon class="cls-6" points="29.5 3.03 29.96 2.66 29.73 2.43 29.19 2.24 29.5 3.03"/>
              <polygon class="cls-15" points="29.8 3.78 29.5 3.03 28.98 3.46 29.8 3.78"/>
              <polygon class="cls-12" points="29.38 4.55 30.01 4.97 30.13 4.9 30.19 4.77 29.83 3.87 29.38 4.55"/>
              <polygon class="cls-5" points="29.87 3.8 29.83 3.87 30.19 4.77 30.81 3.53 29.96 2.66 29.5 3.03 29.8 3.78 29.87 3.8"/>
              <polygon class="cls-9" points="30.23 4.85 30.19 4.77 30.13 4.9 30.23 4.85"/>
              <polygon class="cls-1" points="30.19 4.77 30.23 4.85 31.2 4.33 30.87 3.59 30.81 3.53 30.19 4.77"/>
              <polygon class="cls-10" points="29.69 5.77 29.8 5.88 30.49 5.52 30.37 5.21 30.07 5.01 29.69 5.77"/>
              <polygon class="cls-1" points="30.07 5.01 30.37 5.21 30.23 4.85 30.13 4.9 30.07 5.01"/>
              <polygon class="cls-8" points="27.48 2.89 27.5 2.85 26.39 1.83 26.12 2.28 26.27 2.43 27.48 2.89"/>
              <polygon class="cls-14" points="30.37 5.21 30.69 5.42 31.5 5.01 31.2 4.33 30.23 4.85 30.37 5.21"/>
              <polygon class="cls-6" points="27.58 2.93 28.98 3.46 29.5 3.03 29.19 2.24 28.09 1.86 27.5 2.85 27.58 2.93"/>
              <polygon class="cls-9" points="29.73 2.43 28.94 1.61 29.19 2.24 29.73 2.43"/>
              <polygon class="cls-9" points="29.19 2.24 28.94 1.61 28.51 1.17 28.09 1.86 29.19 2.24"/>
              <polygon class="cls-6" points="28.98 3.46 27.58 2.93 28.55 3.81 28.98 3.46"/>
              <polygon class="cls-12" points="28.09 1.86 26.66 1.36 26.39 1.83 27.5 2.85 28.09 1.86"/>
              <polygon class="cls-8" points="28.55 3.81 27.58 2.93 27.48 2.89 27.21 3.34 28.08 4.19 28.55 3.81"/>
              <polygon class="cls-6" points="28.09 1.86 28.51 1.17 27.43 .06 26.66 1.36 28.09 1.86"/>
              <path class="cls-10" d="M29.38,4.55l.45-.68-.04-.09-.82-.31-.43.35c.79.73.63.6.84.73Z"/>
              <polygon class="cls-9" points="27.5 2.85 27.48 2.89 27.58 2.93 27.5 2.85"/>
              <polygon class="cls-6" points="31.2 4.33 31.45 4.19 30.87 3.59 31.2 4.33"/>
              <polygon class="cls-6" points="30.13 4.9 30.01 4.97 30.07 5.01 30.13 4.9"/>
              <polygon class="cls-10" points="29.28 5.36 30.01 4.97 29.38 4.55 29.01 5.1 29.28 5.36"/>
              <polygon class="cls-1" points="27.89 7.02 27.89 7.02 27.95 6.99 27.95 6.81 27.77 6.91 27.89 7.02"/>
              <polygon class="cls-13" points="29.52 6.12 29.86 5.93 29.86 5.93 29.8 5.88 29.59 5.98 29.52 6.12"/>
              <polygon class="cls-15" points="25.39 4.45 26.09 5.21 26.63 4.31 26.03 2.52 25.94 2.59 24.93 4.29 25.39 4.45"/>
              <polygon class="cls-5" points="27.77 6.91 27.95 6.81 27.95 5.09 27.27 6.24 27.37 6.54 27.77 6.91"/>
              <polygon class="cls-5" points="26.12 2.28 26.08 2.35 26.27 2.43 26.12 2.28"/>
              <path class="cls-12" d="M26.67,5.73l-.03.1c.33.36.2.24.54.54l.08-.14-.36-1.09-.51.41.12.13.16.05Z"/>
              <polygon class="cls-12" points="28.08 4.19 27.21 3.34 26.63 4.31 26.91 5.15 28.08 4.19"/>
              <polygon class="cls-12" points="26.34 5.6 26.4 5.56 26.09 5.21 26.03 5.31 26.34 5.6"/>
              <polygon class="cls-11" points="29.28 5.36 29.01 5.1 28.59 5.73 29.28 5.36"/>
              <polygon class="cls-10" points="29.59 5.98 29.8 5.88 29.69 5.77 29.59 5.98"/>
              <polygon class="cls-13" points="26.52 5.69 26.39 5.65 26.64 5.87 26.65 5.83 26.52 5.69"/>
              <polygon class="cls-5" points="26.47 7.57 26.41 7.68 26.51 7.78 26.51 7.78 27.58 7.19 27.53 7.03 26.47 7.57"/>
              <polygon class="cls-6" points="27.53 7.03 27.58 7.19 27.78 7.08 27.67 6.96 27.53 7.03"/>
              <polygon class="cls-6" points="27.77 6.91 27.67 6.96 27.78 7.08 27.89 7.02 27.89 7.02 27.77 6.91"/>
              <polygon class="cls-5" points="25.27 8.18 25.45 8.37 26.11 8 26.18 7.72 25.27 8.18"/>
              <polygon class="cls-12" points="26.41 7.68 26.27 7.92 26.51 7.78 26.51 7.78 26.41 7.68"/>
              <polygon class="cls-3" points="26.32 5.63 25.91 5.51 25.39 6.38 26.32 5.63"/>
              <polygon class="cls-9" points="26.24 7.49 26.64 5.87 26.39 5.65 26.32 5.63 25.39 6.38 25.91 5.51 24.47 5.08 24.28 5.41 26.24 7.49"/>
              <polygon class="cls-14" points="26.34 5.6 26.03 5.31 25.91 5.51 26.32 5.63 26.34 5.6"/>
              <polygon class="cls-14" points="27.53 7.03 27.67 6.96 27.42 6.68 27.53 7.03"/>
              <polygon class="cls-1" points="27.67 6.96 27.77 6.91 27.37 6.54 27.42 6.68 27.67 6.96"/>
              <polygon class="cls-13" points="27.17 6.41 26.47 7.57 27.53 7.03 27.42 6.68 27.17 6.41"/>
              <polygon class="cls-7" points="27.19 6.38 26.91 6.13 27.17 6.41 27.19 6.38"/>
              <polygon class="cls-15" points="26.18 7.72 26.24 7.49 24.28 5.41 23.63 6.51 25.27 8.18 26.18 7.72"/>
              <polygon class="cls-5" points="30.52 36.68 30.8 36.85 30.76 36.76 30.52 36.61 30.52 36.68"/>
              <polygon class="cls-9" points="28.82 37.07 28.46 37.39 29.11 37.43 29.07 37.21 28.82 37.07"/>
              <path class="cls-6" d="M30.52,37.01l-1.02-.53-.13.11-.06.75.2.11.96.06c.06-.36.05-.21.05-.5Z"/>
              <path class="cls-8" d="M30.83,38.19l-.44-.24c-.03.23-.07.51-.1.78,0,0,.54-.54.54-.54Z"/>
              <polygon class="cls-1" points="27.31 40.12 27.37 39.74 27.18 39.81 27.31 40.12"/>
              <polygon class="cls-15" points="28.78 39.15 29.23 39.8 29.55 38.83 28.78 39.15"/>
              <path class="cls-14" d="M29.3,37.44l-.06.75-.13-.76-.65-.04-.29.26.08.74.54.76.77-.32-.32.96,1.06-1.07c.03-.28.07-.55.1-.78l-.89-.5h-.21Z"/>
              <polygon class="cls-9" points="29.11 37.43 29.3 37.44 29.31 37.34 29.07 37.21 29.11 37.43"/>
              <polygon class="cls-13" points="27.89 37.89 27.95 37.98 27.95 37.83 27.89 37.89"/>
              <polygon class="cls-5" points="27.08 38.6 27.47 38.99 27.59 38.15 27.08 38.6"/>
              <polygon class="cls-9" points="27.95 37.98 27.95 39.48 27.47 38.99 27.37 39.74 28.34 39.33 28.24 38.39 27.95 37.98"/>
              <polygon class="cls-7" points="29.51 37.45 29.31 37.34 29.3 37.44 29.51 37.45"/>
              <polygon class="cls-5" points="27.59 38.15 27.47 38.99 27.95 39.48 27.95 37.98 27.89 37.89 27.59 38.15"/>
              <path class="cls-5" d="M31.02,37.27l.14.28-.69-.04c-.02.12-.04.27-.07.44l.44.24-.54.54c0,.08-.02.16-.02.24l1.45-1.33-.71-.37Z"/>
              <polygon class="cls-1" points="26.2 39.38 26.2 39.38 26.61 40.05 27.18 39.81 26.78 38.87 26.2 39.38"/>
              <polygon class="cls-12" points="29.07 37.21 29.02 36.9 28.82 37.07 29.07 37.21"/>
              <polygon class="cls-15" points="28.78 39.15 28.34 39.33 28.48 40.62 29.17 39.98 29.23 39.8 28.78 39.15"/>
              <polygon class="cls-11" points="30.52 36.68 30.52 37.01 31.02 37.27 30.8 36.85 30.52 36.68"/>
              <path class="cls-15" d="M30.47,37.51l.69.04-.14-.28-.5-.26c0,.28,0,.14-.05.5Z"/>
              <polygon class="cls-14" points="28.79 35.51 28.82 35.69 29.41 36.04 29.42 35.91 28.79 35.51"/>
              <polygon class="cls-14" points="27.72 35.06 27.87 34.93 27.59 34.75 27.45 34.9 27.72 35.06"/>
              <polygon class="cls-1" points="27.11 35.23 27.35 35.36 27.72 35.06 27.45 34.9 27.11 35.23"/>
              <polygon class="cls-6" points="27.68 37.58 27.89 37.89 27.95 37.83 27.95 37.36 27.71 37.35 27.68 37.58"/>
              <polygon class="cls-9" points="25.34 37.01 25.82 36.62 25.79 36.55 25.34 37.01"/>
              <polygon class="cls-8" points="27.95 35.67 27.35 35.36 26.57 36 27.5 37.33 27.71 37.35 27.95 35.67"/>
              <polygon class="cls-5" points="27.59 38.15 27.89 37.89 27.68 37.58 27.59 38.15"/>
              <polygon class="cls-6" points="28.9 36.16 29.38 36.42 29.41 36.04 28.82 35.69 28.9 36.16"/>
              <polygon class="cls-13" points="28.06 36.64 28.82 37.07 29.02 36.9 28.9 36.16 27.96 35.67 28.06 36.64"/>
              <polygon class="cls-9" points="27.95 37.36 28.14 37.37 28.06 36.64 27.95 36.58 27.95 37.36"/>
              <polygon class="cls-12" points="27.95 35.62 27.95 35.67 27.96 35.67 27.95 35.62"/>
              <polygon class="cls-12" points="26.35 37.87 26.09 37.25 25.71 37.23 26.35 37.87"/>
              <polygon class="cls-10" points="26.47 35.87 25.79 36.55 25.82 36.62 26.57 36 26.47 35.87"/>
              <polygon class="cls-10" points="27.68 37.58 27.5 37.33 26.09 37.25 26.35 37.87 27.08 38.6 27.59 38.15 27.68 37.58"/>
              <polygon class="cls-1" points="28.06 36.64 28.14 37.37 28.46 37.39 28.82 37.07 28.06 36.64"/>
              <polygon class="cls-15" points="29.37 36.59 29.5 36.48 29.38 36.42 29.37 36.59"/>
              <path class="cls-5" d="M25.71,37.23l.38.02-.27-.63c-.59.49-.4.32-.84.75h0l1.22,2.01h0l.58-.51-.43-1s-.64-.64-.64-.64Z"/>
              <polygon class="cls-13" points="28.17 37.65 28.46 37.39 28.14 37.37 28.17 37.65"/>
              <polygon class="cls-15" points="26.35 34.26 27.45 34.9 27.59 34.75 26.55 34.09 26.35 34.26"/>
              <polygon class="cls-12" points="25.31 33.66 26.35 34.26 26.55 34.09 25.5 33.43 25.31 33.66"/>
              <polygon class="cls-8" points="27.11 35.23 27.45 34.9 26.35 34.26 25.93 34.61 27.11 35.23"/>
              <path class="cls-10" d="M25.39,35.62l-.32,1.61c.33-.27.17-.12.72-.67l-.4-.93h0Z"/>
              <polygon class="cls-5" points="25.39 35.62 25.79 36.55 26.47 35.87 25.72 34.79 24.2 36.08 24.98 37.37 24.98 37.37 25.34 37.01 25.07 37.23 25.39 35.62"/>
              <polygon class="cls-9" points="25.93 34.61 26.35 34.26 25.31 33.66 23.79 35.4 24.2 36.08 25.72 34.79 25.39 34.33 25.93 34.61"/>
              <polygon class="cls-9" points="3.29 40.24 3.18 40.12 3.16 40.17 3.23 40.25 3.29 40.24"/>
              <polygon class="cls-14" points="1.96 38.81 1.92 38.84 2.73 39.71 2.78 39.7 1.96 38.81"/>
              <polygon class="cls-13" points="4.73 40.13 4.38 40.16 4.53 40.42 4.78 40.39 4.73 40.13"/>
              <path class="cls-9" d="M1.08,37.87v-.79c-.24.04-.46.07-.68.11l1.1,1.19v-.04l-.43-.47h.01Z"/>
              <polygon class="cls-14" points="4.55 39.13 3.91 39.34 4.38 40.16 4.73 40.13 4.55 39.13"/>
              <polygon class="cls-12" points="4.75 40.8 3.8 40.79 4.56 41.61 4.9 41.06 4.75 40.8"/>
              <polygon class="cls-13" points="4.53 40.42 3.58 40.55 3.8 40.79 4.75 40.8 4.53 40.42"/>
              <polygon class="cls-14" points="4.38 40.16 3.29 40.24 3.58 40.55 4.53 40.42 4.38 40.16"/>
              <path class="cls-3" d="M1.06,36.26s-.03-.02-.04-.02L0,36.76l.38.41c.22-.05.45-.11.69-.16v-.74h0Z"/>
              <path class="cls-6" d="M2.04,36.91s-.06-.04-.16-.1c-.28.07-.55.14-.81.2v.08c.32-.05.65-.1.96-.15v-.02h0Z"/>
              <polygon class="cls-14" points="4.75 40.8 4.9 41.06 4.91 41.05 4.86 40.8 4.75 40.8"/>
              <polygon class="cls-15" points="4.78 40.39 4.53 40.42 4.75 40.8 4.86 40.8 4.78 40.39"/>
              <polygon class="cls-14" points="4.86 40.8 5.05 40.81 5.36 40.31 4.78 40.39 4.86 40.8"/>
              <path class="cls-8" d="M2.48,36.86c-.15.02-.3.05-.45.07l-.51,1.41.44.47,1.14-.89-.61-1.06h0Z"/>
              <polygon class="cls-14" points="4.73 40.13 4.78 40.39 5.36 40.31 5.51 40.07 4.73 40.13"/>
              <polygon class="cls-5" points="2.78 39.7 3.18 40.12 3.36 39.51 2.78 39.7"/>
              <polygon class="cls-8" points="3.36 39.51 3.18 40.12 3.29 40.24 4.38 40.16 3.91 39.34 3.36 39.51"/>
              <polygon class="cls-12" points="4.91 41.05 5.05 40.81 4.86 40.8 4.91 41.05"/>
              <path class="cls-1" d="M2.97,36.53l-.84-.82v-.03l-.26.13.5.87c.2-.05.4-.1.6-.15Z"/>
              <path class="cls-9" d="M2.38,36.68l-.5-.87-.81.41v.04c.35.23.65.43.82.54.16-.04.33-.08.5-.12h0Z"/>
              <path class="cls-10" d="M2.97,36.53c-.2.05-.4.1-.6.15l.1.18c.26-.04.5-.08.72-.11,0,0-.22-.22-.22-.22Z"/>
              <path class="cls-5" d="M3.2,36.75c-.22.03-.46.07-.72.11l.61,1.06.72-.57-.62-.6h0Z"/>
              <polygon class="cls-15" points="3.58 40.55 3.52 40.56 3.73 40.79 3.8 40.79 3.58 40.55"/>
              <polygon class="cls-12" points="3.36 39.51 3.91 39.34 3.59 38.79 3.36 39.51"/>
              <polygon class="cls-1" points="3.82 37.35 3.09 37.92 3.59 38.79 3.98 37.52 3.82 37.35"/>
              <path class="cls-10" d="M1.88,36.8c.1.07.16.1.16.1v.02c.15-.02.3-.05.44-.07l-.1-.18c-.17.04-.33.08-.5.12h0Z"/>
              <polygon class="cls-1" points="5.91 39.4 5.37 38.87 4.55 39.13 4.73 40.13 5.51 40.07 5.91 39.4 5.91 39.4"/>
              <polygon class="cls-10" points="3.98 37.52 3.59 38.79 3.91 39.34 4.55 39.13 4.3 37.82 3.98 37.52"/>
              <polygon class="cls-13" points="4.3 37.82 4.55 39.13 5.37 38.87 4.3 37.82"/>
              <polygon class="cls-5" points="4.14 36.98 4.14 37.01 4.15 36.99 4.14 36.98"/>
              <path class="cls-12" d="M4.28,36.58s-.08,0-.21.03l.07.36h.01l.13-.4h0Z"/>
              <path class="cls-6" d="M4,36.27l.07.35c.13-.02.21-.03.21-.03l-.13.4.07.05,1.56-1.22c-.45.12-1.07.28-1.77.45h-.01Z"/>
              <polygon class="cls-6" points="4.14 37.01 4.16 37.08 4.21 37.04 4.15 36.99 4.14 37.01"/>
              <path class="cls-3" d="M5.82,35.78l-.05-.06c-1.41-.12-.99-.1-1.89-.1l.12.65c.69-.18,1.32-.34,1.77-.45l.05-.04Z"/>
              <polygon class="cls-15" points="5.08 34.98 5.17 35.02 5.13 34.98 5.08 34.98"/>
              <polygon class="cls-9" points="4.11 37.12 4.16 37.08 4.14 37.01 4.11 37.12"/>
              <path class="cls-10" d="M5.77,35.81s.04,0,.06-.02l-.02-.02-.05.04h.01Z"/>
              <polygon class="cls-10" points="5.13 34.98 4.65 34.41 4.25 34.61 5.08 34.98 5.13 34.98"/>
              <path class="cls-15" d="M5.77,35.72l-.6-.7-.1-.04h-1.32c0,.07.11.57.12.64.9,0,.48-.02,1.89.1h.01Z"/>
              <path class="cls-9" d="M5.77,35.81l-1.56,1.22.7.51,1.24-1.37-.32-.38s-.04,0-.06.02Z"/>
              <path class="cls-1" d="M4.14,37.01v-.03l-.43-.31c-.15.02-.32.05-.51.08l.62.6.29-.23.03-.11Z"/>
              <polygon class="cls-6" points="5.37 38.87 5.91 39.4 5.91 39.4 6.45 38.52 5.37 38.87"/>
              <polygon class="cls-10" points="3.82 37.35 3.98 37.52 4.11 37.12 3.82 37.35"/>
              <path class="cls-15" d="M6.59,38.3c-.23-.67-.39-1.21-.39-1.4,0-.1.2-.11.53-.06l-.57-.67-1.24,1.37-.7-.51-.06.05.14.74,1.07,1.05,1.09-.35s.13-.22.13-.22Z"/>
              <path class="cls-1" d="M3.71,36.67l-.33-.24c-.13.03-.27.07-.4.1l.22.22c.19-.03.36-.06.51-.08Z"/>
              <path class="cls-3" d="M2.26,35.61l-.13.06v.03l.84.82c.14-.03.27-.07.4-.1l-1.12-.82h0Z"/>
              <polygon class="cls-10" points="4.11 37.12 3.98 37.52 4.3 37.82 4.16 37.08 4.11 37.12"/>
              <path class="cls-12" d="M3.88,35.62c0-.07-.11-.57-.12-.64h-.24l-.52.26v.38h.89-.01Z"/>
              <path class="cls-9" d="M4.07,36.62c-.09,0-.21.03-.36.05l.42.31-.07-.36h.01Z"/>
              <path class="cls-8" d="M3.88,35.62h-.88v-.38l-.73.37,1.12.82c.21-.05.42-.11.62-.16l-.12-.65h0Z"/>
              <polygon class="cls-11" points="3.74 34.87 3.51 34.98 3.76 34.98 3.74 34.87"/>
              <path class="cls-5" d="M4,36.27c-.2.05-.41.1-.62.16l.33.24c.14-.02.26-.04.36-.05,0,0-.07-.35-.07-.35Z"/>
              <polygon class="cls-10" points="6.2 35.48 5.17 35.02 5.77 35.72 5.88 35.73 6.2 35.48"/>
              <polygon class="cls-5" points="5.77 35.72 5.82 35.78 5.88 35.73 5.77 35.72"/>
              <path class="cls-15" d="M5.82,35.78l.02.02c.08-.02.15-.04.21-.06h-.17l-.06.04Z"/>
              <path class="cls-1" d="M6.05,35.74c-.07.02-.14.04-.21.06l.32.38.36-.39-.47-.04h0Z"/>
              <polygon class="cls-5" points="6.84 34.98 5.13 34.98 5.17 35.02 6.2 35.48 6.84 34.98"/>
              <path class="cls-9" d="M7.71,35.88l-1.2-.1-.36.39.57.67c.18.03.41.08.66.14l.54-.88-.22-.22h0Z"/>
              <path class="cls-1" d="M6.84,34.98l-.64.5.32.14s-.17.05-.47.12l.47.04.53-.59-1.3-1.34-1.1.56.49.57h1.7Z"/>
              <polygon class="cls-5" points="7.93 36.11 8.05 35.91 7.71 35.88 7.93 36.11"/>
              <polygon class="cls-5" points="7.5 34.69 6.46 33.48 5.74 33.85 7.05 35.19 7.5 34.69"/>
              <polygon class="cls-9" points="14.83 28.87 14.83 12.27 14.2 11.96 14.83 28.87"/>
              <path class="cls-5" d="M13.57,11.66l-.65-.32.32,18.4c.78-.41.57-.29.96-.55l-.62-17.53h-.01Z"/>
              <polygon class="cls-3" points="13.57 11.52 12.91 11.2 12.92 11.34 13.57 11.66 13.57 11.52"/>
              <polygon class="cls-9" points="13.55 11.2 13.57 11.52 14.19 11.84 13.55 11.2"/>
              <polygon class="cls-14" points="14.83 12.27 14.83 12.16 14.19 11.84 14.2 11.96 14.83 12.27"/>
              <polygon class="cls-12" points="13.23 29.84 13.88 29.4 13.23 29.75 13.23 29.84"/>
              <path class="cls-13" d="M18.75,29.27l.56.57V11.22l-.64.33c.01.62.26,14.7.08,17.73h0Z"/>
              <path class="cls-9" d="M17.71,29.19s.08.08.11.13l.86.5c.03-.06.05-.25.07-.55l-1.04-1.04.32-16.36h0c-.03.74-.63,17.01-.32,17.33h0Z"/>
              <path class="cls-13" d="M19.31,11.2l-.64.32v.02l.64-.33v-.02h0Z"/>
              <path class="cls-11" d="M18.67,29.84s0-.01.01-.02l-.86-.5c.28.33.56.8.85.52Z"/>
            </g>
            <path class="cls-2" d="M6.82,41.7s-.02,0-.03-.02l-3.63-4.91V5.05L6.63.23s.02-.02.03-.02l18.49-.21s.02,0,.03,0l3.66,4.7v.02l-.08,32.74v.03l-3.52,4.05s-.02,0-.03,0l-18.39.13h0ZM3.23,36.74l3.62,4.88,18.35-.13,3.5-4.02.08-32.72L25.13.08,6.68.29l-3.45,4.79v31.65h0Z"/>
          </g>
        </g>
      </g>
    </g>
  </g>
</svg>