<?xml version="1.0" encoding="UTF-8"?>
<svg id="Layer_2" data-name="Layer 2" xmlns="http://www.w3.org/2000/svg" viewBox="0 0 612.87 72.5">
  <defs>
    <style>
      .cls-1 {
        fill: #fff;
      }

      .cls-2 {
        fill: #fcfcfc;
      }
    </style>
  </defs>
  <g id="Layer_1-2" data-name="Layer 1">
    <polygon class="cls-2" points="282.57 25.18 238.95 72.5 195.33 25.18 210.19 6.08 267.71 6.08 282.57 25.18"/>
    <g>
      <path class="cls-1" d="M32.2,50.22c.08,0,.18.05.31.14l.6.63c-.84.84-1.75,1.61-2.72,2.31-.97.7-2.04,1.29-3.21,1.79s-2.44.88-3.82,1.16c-1.39.28-2.91.42-4.57.42-2.73,0-5.25-.48-7.55-1.45s-4.28-2.34-5.94-4.13c-1.66-1.79-2.96-3.95-3.9-6.49-.94-2.54-1.4-5.39-1.4-8.54s.47-5.88,1.4-8.41c.94-2.53,2.26-4.7,3.97-6.5,1.71-1.81,3.75-3.2,6.13-4.2,2.38-.99,5-1.49,7.86-1.49,2.69,0,5.08.41,7.16,1.23,2.08.82,4.02,2.01,5.82,3.55l-.43.63c-.08.13-.23.2-.46.2-.11,0-.31-.1-.59-.32-.28-.21-.64-.47-1.09-.79-.45-.32-.99-.66-1.63-1.03-.64-.37-1.39-.72-2.25-1.03-.86-.31-1.83-.58-2.92-.79-1.09-.21-2.29-.31-3.61-.31-2.6,0-4.98.45-7.16,1.35-2.18.9-4.05,2.18-5.62,3.84-1.57,1.66-2.78,3.68-3.65,6.06s-1.3,5.05-1.3,8.01.43,5.72,1.3,8.09,2.08,4.39,3.62,6.05c1.55,1.65,3.37,2.92,5.47,3.8,2.1.88,4.38,1.32,6.85,1.32,1.55,0,2.93-.1,4.15-.31,1.22-.21,2.34-.53,3.37-.95,1.02-.42,1.97-.94,2.84-1.55.87-.61,1.73-1.31,2.59-2.09.13-.13.26-.2.37-.2Z"/>
      <path class="cls-1" d="M71.2,56.21h-1.23c-.29,0-.5-.16-.63-.49l-5.24-12.75h-20.69l-5.24,12.75c-.1.33-.32.49-.66.49h-1.17L53,15.92h1.52l16.67,40.28ZM63.58,41.77l-9.23-22.43c-.21-.52-.41-1.09-.6-1.72-.17.63-.37,1.2-.6,1.72l-9.23,22.43h19.65Z"/>
      <path class="cls-1" d="M105.35,56.21h-1.29c-.21,0-.4-.03-.56-.09-.16-.06-.32-.19-.47-.4l-14.21-17.39c-.15-.21-.31-.38-.47-.52-.16-.13-.34-.24-.54-.33-.2-.09-.44-.15-.72-.19-.28-.04-.62-.06-1.02-.06h-5.87v18.97h-1.58V15.92h9.71c4.37,0,7.7.85,9.97,2.55,2.27,1.7,3.41,4.28,3.41,7.74,0,1.59-.3,3.02-.89,4.31-.59,1.29-1.42,2.41-2.49,3.35-1.07.95-2.37,1.7-3.9,2.26-1.53.56-3.22.9-5.07,1.02.34.19.68.48,1,.86l14.98,18.19ZM80.19,36.04h7.68c1.89,0,3.6-.22,5.11-.67,1.52-.45,2.81-1.1,3.87-1.95,1.06-.85,1.87-1.88,2.44-3.08.56-1.2.85-2.56.85-4.07,0-3.11-1.01-5.4-3.04-6.88-2.02-1.47-4.95-2.21-8.77-2.21h-8.14v18.85Z"/>
      <path class="cls-1" d="M142.34,56.21h-1.23c-.29,0-.5-.16-.63-.49l-5.24-12.75h-20.69l-5.24,12.75c-.1.33-.32.49-.66.49h-1.17l16.67-40.28h1.52l16.67,40.28ZM134.71,41.77l-9.23-22.43c-.21-.52-.41-1.09-.6-1.72-.17.63-.37,1.2-.6,1.72l-9.23,22.43h19.65Z"/>
      <path class="cls-1" d="M171.39,17.3h-14.75v38.91h-1.58V17.3h-14.84v-1.38h31.17v1.38Z"/>
    </g>
    <g>
      <path class="cls-1" d="M343.72,50.22c.08,0,.18.05.32.14l.6.63c-.84.84-1.75,1.61-2.72,2.31-.97.7-2.04,1.29-3.21,1.79-1.17.5-2.44.88-3.83,1.16s-2.91.42-4.57.42c-2.73,0-5.25-.48-7.55-1.45-2.3-.96-4.28-2.34-5.95-4.13-1.66-1.79-2.96-3.95-3.9-6.49-.94-2.54-1.4-5.39-1.4-8.54s.47-5.88,1.4-8.41c.94-2.53,2.26-4.7,3.97-6.5,1.71-1.81,3.75-3.2,6.13-4.2,2.38-.99,5-1.49,7.86-1.49,2.69,0,5.08.41,7.16,1.23,2.08.82,4.02,2.01,5.82,3.55l-.43.63c-.08.13-.23.2-.46.2-.11,0-.31-.1-.59-.32-.28-.21-.64-.47-1.09-.79-.45-.32-.99-.66-1.63-1.03-.64-.37-1.39-.72-2.25-1.03-.86-.31-1.83-.58-2.92-.79-1.09-.21-2.29-.31-3.61-.31-2.6,0-4.99.45-7.16,1.35-2.18.9-4.05,2.18-5.62,3.84-1.57,1.66-2.78,3.68-3.65,6.06-.87,2.38-1.3,5.05-1.3,8.01s.43,5.72,1.3,8.09c.87,2.38,2.08,4.39,3.62,6.05,1.55,1.65,3.37,2.92,5.47,3.8,2.1.88,4.38,1.32,6.85,1.32,1.55,0,2.93-.1,4.16-.31,1.22-.21,2.34-.53,3.37-.95,1.02-.42,1.97-.94,2.84-1.55s1.73-1.31,2.59-2.09c.13-.13.26-.2.37-.2Z"/>
      <path class="cls-1" d="M387.62,36.06c0,3.15-.46,5.99-1.38,8.52-.92,2.53-2.21,4.69-3.87,6.48-1.66,1.79-3.65,3.16-5.96,4.11-2.31.96-4.87,1.43-7.68,1.43s-5.31-.48-7.62-1.43c-2.31-.96-4.3-2.33-5.96-4.11-1.66-1.79-2.95-3.94-3.87-6.48-.92-2.53-1.38-5.37-1.38-8.52s.46-5.97,1.38-8.51c.92-2.54,2.21-4.7,3.87-6.49,1.66-1.79,3.65-3.17,5.96-4.14,2.31-.97,4.85-1.46,7.62-1.46s5.37.48,7.68,1.45c2.31.96,4.3,2.34,5.96,4.13,1.66,1.79,2.95,3.95,3.87,6.49.92,2.54,1.38,5.39,1.38,8.54ZM385.96,36.06c0-3-.42-5.69-1.25-8.07-.83-2.38-2-4.4-3.52-6.06s-3.33-2.93-5.44-3.81c-2.11-.88-4.45-1.32-7-1.32s-4.84.44-6.95,1.32c-2.11.88-3.93,2.15-5.44,3.81s-2.7,3.68-3.55,6.06c-.85,2.38-1.27,5.07-1.27,8.07s.42,5.69,1.27,8.07c.85,2.38,2.03,4.39,3.55,6.03,1.52,1.64,3.33,2.9,5.44,3.78,2.11.88,4.43,1.32,6.95,1.32s4.89-.44,7-1.32,3.93-2.14,5.44-3.78c1.52-1.64,2.69-3.65,3.52-6.03.83-2.38,1.25-5.07,1.25-8.07Z"/>
      <path class="cls-1" d="M436.38,15.92v40.28h-1.38V19.36c0-.15,0-.31.01-.46,0-.15.01-.31.01-.46l-16.9,29.65c-.19.33-.42.49-.69.49h-.29c-.29,0-.53-.16-.72-.49l-17.42-29.71c.02.17.03.34.04.5,0,.16.01.32.01.47v36.85h-1.38V15.92h.95c.15,0,.28.02.39.07.1.05.21.15.3.3l17.48,29.68c.17.36.33.72.49,1.06.08-.17.15-.35.23-.53.08-.18.16-.37.26-.56l16.96-29.65c.1-.15.2-.25.3-.3.11-.05.23-.07.39-.07h.95Z"/>
      <path class="cls-1" d="M458.79,15.92c4.55,0,8,.97,10.36,2.92s3.54,4.87,3.54,8.77c0,1.7-.33,3.27-.99,4.71-.66,1.44-1.6,2.68-2.82,3.72s-2.69,1.85-4.4,2.44c-1.71.58-3.61.87-5.69.87h-8.05v16.85h-1.58V15.92h9.63ZM458.79,38.07c1.89,0,3.6-.27,5.11-.8,1.52-.53,2.81-1.27,3.87-2.21,1.06-.94,1.88-2.04,2.45-3.32.57-1.28.86-2.65.86-4.13,0-3.4-1.02-5.99-3.07-7.76s-5.12-2.66-9.23-2.66h-8.05v20.89h8.05Z"/>
      <path class="cls-1" d="M508.32,56.21h-1.23c-.29,0-.5-.16-.63-.49l-5.24-12.75h-20.69l-5.24,12.75c-.1.33-.32.49-.66.49h-1.17l16.67-40.28h1.52l16.67,40.28ZM500.7,41.77l-9.23-22.43c-.21-.52-.41-1.09-.6-1.72-.17.63-.37,1.2-.6,1.72l-9.23,22.43h19.65Z"/>
      <path class="cls-1" d="M542.47,56.21h-1.29c-.21,0-.4-.03-.56-.09s-.32-.19-.47-.4l-14.21-17.39c-.15-.21-.31-.38-.47-.52-.16-.13-.34-.24-.54-.33-.2-.09-.44-.15-.72-.19-.28-.04-.62-.06-1.02-.06h-5.87v18.97h-1.58V15.92h9.71c4.37,0,7.7.85,9.97,2.55,2.27,1.7,3.41,4.28,3.41,7.74,0,1.59-.3,3.02-.89,4.31-.59,1.29-1.42,2.41-2.49,3.35-1.07.95-2.37,1.7-3.9,2.26s-3.22.9-5.07,1.02c.34.19.68.48,1,.86l14.98,18.19ZM517.32,36.04h7.68c1.89,0,3.6-.22,5.11-.67,1.52-.45,2.81-1.1,3.87-1.95,1.06-.85,1.87-1.88,2.44-3.08.56-1.2.85-2.56.85-4.07,0-3.11-1.01-5.4-3.04-6.88-2.03-1.47-4.95-2.21-8.77-2.21h-8.14v18.85Z"/>
      <path class="cls-1" d="M573.79,54.86l-.06,1.35h-23.78V15.92h23.78v1.35h-22.21v17.85h18.71v1.32h-18.71v18.42h22.26Z"/>
    </g>
    <g>
      <path class="cls-1" d="M599.31,0v1.3h-3.7v10.16h-1.55V1.3h-3.72V0h8.98Z"/>
      <path class="cls-1" d="M606.77,7.72c.06.14.11.28.16.43.05-.15.11-.29.17-.43.06-.14.13-.27.2-.41l3.88-7.05c.07-.12.14-.2.22-.22.07-.03.18-.04.32-.04h1.14v11.46h-1.36V3.04c0-.11,0-.23,0-.36,0-.13.01-.26.02-.39l-3.93,7.17c-.13.24-.32.36-.56.36h-.22c-.24,0-.43-.12-.56-.36l-4.02-7.19c.02.14.03.27.04.41s.01.26.01.37v8.42h-1.36V0h1.14c.14,0,.25.01.32.04.07.03.15.1.22.22l3.96,7.06c.07.13.14.26.2.4Z"/>
    </g>
  </g>
</svg>