<?xml version="1.0" encoding="UTF-8"?>
<svg id="Layer_2" data-name="Layer 2" xmlns="http://www.w3.org/2000/svg" viewBox="0 0 24.47 41.63">
  <defs>
    <style>
      .cls-1 {
        fill: #282b2d;
      }

      .cls-2 {
        fill: #efefef;
      }

      .cls-3 {
        fill: #fff;
      }

      .cls-4 {
        fill: #b5d4e5;
      }

      .cls-5 {
        fill: #d2d1d3;
      }

      .cls-6 {
        fill: #a8a7ab;
      }

      .cls-7 {
        fill: #706e6a;
      }

      .cls-8 {
        fill: #505d63;
      }

      .cls-9 {
        fill: #f0f0f2;
      }

      .cls-10 {
        fill: #fdfefa;
      }

      .cls-11 {
        fill: #c7c7c6;
      }

      .cls-12 {
        fill: #e8e8e8;
      }
    </style>
  </defs>
  <g id="Layer_1-2" data-name="Layer 1">
    <g>
      <path class="cls-1" d="M.07,24.16c.02-.26.04-.53.07-.8.15-1.74-.04.32-.07.8Z"/>
      <path class="cls-12" d="M.02,25.2c0-.08,0-.16,0-.25,0,.08,0,.17,0,.25Z"/>
      <path class="cls-2" d="M12.24,0h0c-.15.16-.13.14,0,0h0Z"/>
      <path class="cls-10" d="M23.43,19.53s-.01-.03,0,0h0Z"/>
      <path class="cls-12" d="M24.41,24.88h0c.06.93.06.77,0,0Z"/>
      <path class="cls-6" d="M21.7,36.04v.03c1.79-2.63,2.92-6.14,2.75-10.42.14,4.05-.87,7.61-2.75,10.4h0Z"/>
      <path class="cls-10" d="M16.38,5.51l.03.03c-.3-.43-.59-.85-.87-1.24h0c.27.38.55.78.84,1.2h0Z"/>
      <path class="cls-1" d="M24.41,24.87c-.03-.39-.04-.44,0,0h0Z"/>
      <path class="cls-1" d="M15.16,3.76c.13.18.26.36.39.54h0c-.14-.19-.27-.38-.4-.56v.03h0Z"/>
      <path class="cls-10" d="M12.11.14h0s.03-.04,0,0Z"/>
      <path class="cls-3" d="M21.03,36.97c-.15.19-.31.37-.46.55.16-.18.31-.36.46-.55Z"/>
      <path class="cls-10" d="M20.38,37.72h0c.22-.24.2-.22,0,0Z"/>
      <polygon class="cls-1" points="5.69 36.96 5.43 37.36 7.62 37.41 7.81 37.01 5.69 36.96"/>
      <path class="cls-7" d="M12.11.14h0c-.16.18-.48.52-.9,1h0c.42-.48.73-.83.9-1Z"/>
      <path class="cls-11" d="M23.42,19.5c-.46-1.58-1.05-3.14-1.72-4.66v.06c.67,1.5,1.27,3.03,1.72,4.59h0Z"/>
      <path class="cls-1" d="M20.38,37.72c-.85.92-1.79,1.67-2.78,2.28h0c.99-.6,1.93-1.36,2.78-2.28h0Z"/>
      <path class="cls-5" d="M15.16,3.76v-.03c-.32-.43-.62-.83-.89-1.2h0c.28.37.58.78.9,1.22h0Z"/>
      <path class="cls-3" d="M14.26,2.54c-.61-.8-1.11-1.43-1.47-1.87.35.43.86,1.07,1.46,1.87h.01Z"/>
      <path class="cls-7" d="M16.45,8.27l.3,1.04.99.77.85-1.18c-.5-.83-.99-1.61-1.48-2.35h-.01c.04.06.07.11.11.17l-.74,1.56h-.02Z"/>
      <polygon class="cls-9" points="5.19 36.95 5.4 37.36 5.43 37.36 5.69 36.96 5.19 36.95"/>
      <path class="cls-2" d="M23.79,20.88c-.11-.45-.23-.9-.36-1.35h-.01c.13.45.26.9.37,1.35Z"/>
      <path class="cls-11" d="M20.4,12.16v.09c.15.28.29.57.44.85l.07.06c-.73-1.49-1.53-2.92-2.33-4.25l-.85,1.18,2.67,2.08h0Z"/>
      <path class="cls-7" d="M21.7,14.91v-.06c-.25-.57-.52-1.13-.79-1.69l-.07-.06c.3.6.59,1.2.86,1.81Z"/>
      <path class="cls-12" d="M21.52,36.3v.03c.06-.08.12-.17.18-.26v-.03c-.06.09-.12.17-.18.26Z"/>
      <path class="cls-10" d="M6.4,40.02l.16-.34-.57-1.13-1.25-.16-.18.27c.72.66,1.5,1.2,2.31,1.64v-.03c-.17-.08-.32-.16-.47-.25Z"/>
      <path class="cls-3" d="M6.85,40.27v.03c1.23.65,2.52,1.05,3.82,1.22-1.25-.17-2.59-.59-3.82-1.25Z"/>
      <path class="cls-9" d="M4.22,38.33h0c.11.12.22.23.33.34l.18-.27-.52-.06h.01Z"/>
      <path class="cls-3" d="M.67,19.87c-.03.06-.19.89-.2.95,0-.08.1-.52.2-.95Z"/>
      <polygon class="cls-5" points="3.67 17.44 3.2 19.16 3.67 19.34 3.67 17.44"/>
      <polygon class="cls-3" points="16.75 9.31 16.45 8.27 16.16 8.86 16.75 9.31"/>
      <path class="cls-1" d="M3.88,30.61c-.35-.52-.19-.28-.72-1.08l-.11.02.18,1.35.65-.28h0Z"/>
      <path class="cls-7" d="M.69,19.75h0c.08-.35.18-.7.28-1.05v-.06c-.12.41-.22.82-.31,1.23,0-.02.02-.1.03-.13h0Z"/>
      <polygon class="cls-1" points="3.23 30.89 3.05 29.55 1.8 29.79 1.83 30.21 2.36 31.27 3.23 30.89"/>
      <path class="cls-1" d="M7.42,5.99v-.02c-.38.51-.75,1.05-1.12,1.61h.03c.36-.56.73-1.09,1.09-1.6h0Z"/>
      <path class="cls-3" d="M6.33,7.59h-.03c-.9,1.36-1.8,2.86-2.63,4.43l.09-.07c.82-1.56,1.69-3.02,2.57-4.36Z"/>
      <path class="cls-1" d="M9.64,3.04c.61-.76,1.14-1.4,1.57-1.89h0c-.43.49-.96,1.12-1.57,1.88h0Z"/>
      <path class="cls-9" d="M2.99,36.9c.1.14.21.28.32.41l.79.02-.05-.41c-.85-.02-.63,0-1.05-.02h0Z"/>
      <polygon class="cls-11" points="4.04 36.92 4.09 37.33 5.4 37.36 5.19 36.95 4.04 36.92"/>
      <polygon class="cls-5" points="1.63 29.83 1.83 30.21 1.8 29.79 1.63 29.83"/>
      <polygon class="cls-1" points="1.83 30.21 1.92 31.46 2.36 31.27 1.83 30.21"/>
      <path class="cls-9" d="M3.67,13.46v-1.33h0v-.11c-.87,1.66-1.65,3.41-2.26,5.2l.11.81,2.15-4.59v.02Z"/>
      <path class="cls-12" d="M1.08,18.32l.26.1.18-.38-.11-.81c-.16.47-.31.94-.44,1.42v.06c.04-.13.07-.26.11-.38h0Z"/>
      <path class="cls-2" d="M12.15,41.62h0c1.8,0,3.7-.56,5.46-1.62h0c-1.82,1.11-3.72,1.62-5.45,1.62h-.01Z"/>
      <polygon class="cls-7" points="5.41 37.39 5.43 37.36 5.4 37.36 5.41 37.39"/>
      <path class="cls-5" d="M11.43,41.6c.24.02.48.03.72.03h0c-.22,0-.5,0-.72-.03Z"/>
      <polygon class="cls-3" points="3.2 19.16 3.67 17.44 3.67 13.46 1.52 18.04 1.59 18.52 3.2 19.16"/>
      <path class="cls-6" d="M3.3,37.31c.29.36.59.7.91,1.02h.01l-.13-1s-.79-.02-.79-.02Z"/>
      <path class="cls-11" d="M4.23,38.34h-.01s0,0,.01,0Z"/>
      <polygon class="cls-3" points="7.62 37.41 5.43 37.36 5.41 37.39 5.99 38.55 7.03 38.68 7.62 37.41"/>
      <path class="cls-1" d="M24.08,22.28c.04.22.08.45.12.67-.03-.22-.08-.45-.12-.67Z"/>
      <polygon class="cls-2" points="1.52 18.04 1.34 18.42 1.59 18.52 1.52 18.04"/>
      <path class="cls-9" d="M21.51,36.35c-.11.16-.23.31-.35.46.12-.15.24-.31.35-.46Z"/>
      <path class="cls-5" d="M24.26,23.45c.03.26.07.52.09.77-.03-.26-.06-.51-.09-.77Z"/>
      <polygon class="cls-5" points="4.74 38.39 5.99 38.55 5.41 37.39 4.74 38.39"/>
      <polygon class="cls-1" points="5.4 37.36 4.09 37.33 4.22 38.33 4.74 38.39 5.41 37.39 5.4 37.36"/>
      <path class="cls-1" d="M.73,31.98l1.19-.52-.09-1.25-.19-.39-1.32.26c0-.06-.02-.13-.03-.19v.05c.34,2.3,1.03,4.22,1.95,5.8v-.02c-.62-1.09-1.13-2.34-1.51-3.75h0Z"/>
      <path class="cls-3" d="M7.42,5.98c.57-.8,1.12-1.53,1.64-2.2h-.01c-.52.66-1.06,1.4-1.63,2.19v.02h.01-.01Z"/>
      <polygon class="cls-4" points="5.99 38.55 6.56 39.68 7.03 38.68 5.99 38.55"/>
      <polygon class="cls-10" points="9.05 3.77 9.04 3.78 9.05 3.78 9.05 3.77"/>
      <path class="cls-7" d="M2.24,35.73v.02c.17.3.36.58.54.85-.19-.28-.37-.57-.54-.87Z"/>
      <path class="cls-3" d="M0,26.58v-.02c0,1.21.1,2.34.26,3.39v-.05c-.15-1.03-.24-2.13-.26-3.31h0Z"/>
      <path class="cls-5" d="M9.06,3.78c.2-.26.4-.51.58-.74h0c-.19.23-.39.48-.59.74h.01Z"/>
      <path class="cls-3" d="M10.7,41.53c.49.06,1,.09.49.05-.21-.02-.45-.04-.49-.05Z"/>
      <path class="cls-3" d="M.04,24.8c0,.21,0,.19,0,0H.04Z"/>
      <path class="cls-12" d="M.02,25.2c-.02.46-.02.92-.02,1.36v.02c0-.45,0-.91.02-1.38Z"/>
      <path class="cls-3" d="M10.42,41.48c.23.04.03,0,.37.05-.12-.02-.25-.04-.37-.05Z"/>
      <polygon class="cls-10" points="20.64 19.6 21.7 19.17 21.7 17.53 20.64 19.6 20.64 19.6"/>
      <path class="cls-5" d="M20.72,30.84h0l.81,5.46c.06-.09.12-.17.18-.26v-5.1l-.98-.1h-.01Z"/>
      <path class="cls-5" d="M21.7,36.04c.94-1.39,1.7-3.02,2.18-4.88l-2.18-.22v5.1Z"/>
      <polygon class="cls-12" points="15.88 8.64 15.41 8.21 15.37 8.24 15.88 8.64"/>
      <path class="cls-7" d="M13.78,39.52l-1.63,2.1c1.64,0,3.36-.46,4.99-1.35l-.14-.35-3.21-.4h-.01Z"/>
      <path class="cls-10" d="M10.17,3.51l-.53-.48c-.19.24-.38.48-.58.74l1.11-.27h0Z"/>
      <polygon class="cls-5" points="15.27 37.6 13.78 39.52 16.99 39.92 16.03 37.62 15.27 37.6"/>
      <polygon class="cls-11" points="1.6 27.17 1.8 29.79 3.05 29.55 3.02 29.31 1.6 27.17"/>
      <path class="cls-5" d="M0,26.58l.76,1.52.42-1.55L.04,24.82H.04c0,.23-.04.69-.02,1.77h0Z"/>
      <polygon class="cls-3" points="9.05 8.03 9.34 7.3 8.53 7.38 9.05 8.03 9.05 8.03"/>
      <path class="cls-11" d="M11.18,41.58l.28.03c-.09,0-.19-.02-.28-.03Z"/>
      <path class="cls-6" d="M.04,24.78c.02-.5.16-2.52.03-.61,0,.21-.02.42-.03.62H.04Z"/>
      <polygon class="cls-1" points="16.45 8.27 17.19 6.71 16.23 7.52 16.45 8.27"/>
      <polygon class="cls-5" points="7.62 37.41 7.03 38.68 7.94 38.79 8.68 37.44 7.62 37.41"/>
      <polygon class="cls-1" points="8.9 37.04 8.89 37.04 7.81 37.01 7.62 37.41 8.68 37.44 8.9 37.04"/>
      <polygon class="cls-9" points="1.6 27.17 1.2 26.56 .78 28.11 1.63 29.83 1.8 29.79 1.6 27.17"/>
      <polygon class="cls-7" points="3.02 29.31 3.05 29.55 3.16 29.53 3.02 29.31"/>
      <path class="cls-10" d="M10.91,3.34l.73-1.83-.43-.36c-.43.49-.96,1.13-1.57,1.89l.53.48s.74-.18.74-.18Z"/>
      <path class="cls-12" d="M.14,23.29c.01-.15.03-.3.04-.45-.02.15-.03.3-.04.45Z"/>
      <path class="cls-12" d="M10.13,41.43c-.14-.03-.28-.06-.42-.09.14.03.28.06.42.09Z"/>
      <path class="cls-4" d="M21.7,14.97c.2.47.4.94.59,1.42l-.59,1.15v1.64l1.43-.58c.1.31.2.62.29.94h.01c-.46-1.58-1.07-3.15-1.73-4.62v.06h0Z"/>
      <path class="cls-2" d="M9.47,41.29c-.16-.04-.31-.08-.47-.13.16.05.31.09.47.13Z"/>
      <path class="cls-6" d="M0,26.58c.02,1.18.12,2.28.28,3.31l.49-1.79L0,26.58Z"/>
      <path class="cls-2" d="M.29,29.9c0,.06.02.13.03.19l1.32-.26-.86-1.72s-.49,1.79-.49,1.79Z"/>
      <path class="cls-4" d="M7.94,38.79l-.91-.11-.47,1,.3.59c.45.24.92.45,1.39.63-.4-.15-.79-.32-1.18-.52l.87-1.6h0Z"/>
      <path class="cls-9" d="M12.24,0s-.08.08-.13.14c0,.08-.02.17-.02.25l.15-.39Z"/>
      <path class="cls-3" d="M8.84,41.11c-.17-.05-.34-.11-.51-.17.17.06.34.12.51.17Z"/>
      <path class="cls-5" d="M6.4,40.02c.15.09.3.17.46.25l-.3-.59-.16.34Z"/>
      <path class="cls-11" d="M17.6,40h0c-.65.4-.56.34,0,0Z"/>
      <path class="cls-8" d="M15.41,8.21c.57.51.4.37.76.65l.28-.59-.21-.75s-.83.69-.83.69Z"/>
      <path class="cls-9" d="M12.08.39c0-.08.02-.17.02-.25-.16.18-.47.52-.9,1.01l.43.36.44-1.12h0Z"/>
      <path class="cls-2" d="M21.7,14.97v-.06c-.28-.61-.56-1.22-.86-1.81h0c.3.61.59,1.24.87,1.87h-.01Z"/>
      <path class="cls-2" d="M18.26,39.57c-.08.05-.16.1-.24.16.08-.05.16-.1.24-.16Z"/>
      <path class="cls-2" d="M.7,19.76h0s-.02.07-.02.11c.02-.03.02-.07.03-.11h0Z"/>
      <path class="cls-4" d="M18.79,39.18s-.05.04-.07.05c.02-.02.05-.04.07-.05Z"/>
      <path class="cls-11" d="M20.83,13.09h0c-.14-.28-.29-.56-.43-.84h0c.14.28.29.56.43.84Z"/>
      <path class="cls-2" d="M.47,20.82c.06-.33.13-.65.21-.98-.04.08-.19.89-.21.98Z"/>
      <path class="cls-4" d="M9.34,7.3l.87-2.2-1.15-1.32c-.52.67-1.07,1.4-1.64,2.2h0l1.11,1.39.81-.08h0Z"/>
      <polygon class="cls-3" points="10.91 3.34 10.17 3.51 10.67 3.96 10.91 3.34"/>
      <path class="cls-3" d="M17.6,40c.16-.09.14-.09,0,0h0Z"/>
      <polygon class="cls-5" points="15.27 37.6 16.03 37.62 15.76 36.97 15.27 37.6"/>
      <polygon class="cls-10" points="10.67 3.96 10.17 3.51 9.06 3.78 9.06 3.78 10.21 5.1 10.67 3.96"/>
      <rect class="cls-11" x="16.45" y="8.72" height=".74"/>
      <path class="cls-11" d="M20.34,12.11s.04.09.07.13v-.09l-2.68-2.08h0l2.61,2.03h0Z"/>
      <rect class="cls-3" x="17.24" y="9.07" height="1.25"/>
      <polygon class="cls-1" points="20.71 30.84 21.52 36.3 21.52 36.3 20.72 30.84 20.71 30.84"/>
      <path class="cls-10" d="M16.16,8.86h0l-.28-.22s.24.19.28.22Z"/>
      <path class="cls-9" d="M15.37,8.25l.54.42s-.5-.39-.54-.42h0Z"/>
      <polygon class="cls-3" points="10.67 3.96 10.91 3.34 10.91 3.34 10.67 3.96"/>
      <polygon class="cls-2" points="11.96 .27 12.36 .14 12.36 .14 11.96 .27"/>
      <polygon class="cls-12" points="10.58 3.12 11.97 1.72 11.97 1.72 10.58 3.12"/>
      <rect class="cls-6" x="11.86" y=".35" height="1.2"/>
      <polygon class="cls-11" points="10 4.97 10.87 4.1 10.87 4.1 10 4.97"/>
      <polygon class="cls-2" points="8.82 6.91 10.71 5.49 10.71 5.49 8.82 6.91"/>
      <polygon class="cls-1" points="9.05 8.02 9.34 7.3 9.34 7.3 9.05 8.02"/>
      <path class="cls-1" d="M20.41,12.24h0c-.09-.18-.09-.17,0,0Z"/>
      <polygon class="cls-11" points="24.42 24.88 24.41 24.87 24.41 24.88 24.42 24.88"/>
      <path class="cls-11" d="M3.76,11.95l-.09.07h0v.11c.03-.06.06-.12.09-.18Z"/>
      <polygon class="cls-2" points="13.78 39.52 15.27 37.6 15.27 37.6 13.78 39.52"/>
      <polygon class="cls-5" points="15.27 37.59 15.76 36.96 15.76 36.96 15.27 37.59"/>
      <polygon class="cls-6" points="12.16 41.61 13.79 39.51 13.79 39.51 12.16 41.61"/>
      <polygon class="cls-6" points="3.6 30.18 3.88 30.61 3.88 30.61 3.6 30.18"/>
      <path class="cls-10" d="M24.24,23.29c-.07-.47-.06-.42,0,0h0Z"/>
      <path class="cls-9" d="M24.24,23.29h0c.03.23.03.2,0,0Z"/>
      <path class="cls-10" d="M2.99,36.89c-.07-.1-.14-.19-.2-.29.07.1.13.2.2.3h0Z"/>
      <path class="cls-11" d="M24.08,22.28c-.05-.28-.08-.53-.29-1.4.21.9.23,1.05.29,1.4Z"/>
      <path class="cls-5" d="M.32,21.73c.04-.3.09-.59.15-.89,0-.07-.08.39-.15.89Z"/>
      <path class="cls-3" d="M24.36,24.22c.01.11.02.23.03.34,0-.11-.02-.23-.03-.34Z"/>
      <path class="cls-12" d="M12.24,0s.18.21.48.58c.28.33-.27-.33-.48-.58Z"/>
      <path class="cls-7" d="M.21,22.66c.03-.31.07-.61.11-.93-.04.31-.08.62-.11.93Z"/>
      <path class="cls-7" d="M20.57,37.52s-.02.02-.03.03c0,0,.02-.02.03-.03Z"/>
      <path class="cls-7" d="M21.52,36.33h0s-.02.03,0,0Z"/>
      <path class="cls-11" d="M21.15,36.82s-.08.1-.12.16c.04-.05.08-.1.12-.16Z"/>
      <path class="cls-7" d="M.46,20.84c-.13.68-.17,1.04-.26,1.81-.07.68.06-.71.26-1.81Z"/>
      <path class="cls-3" d="M12.72.58c-.3-.37-.48-.58-.48-.58h0s.18.21.48.58Z"/>
      <path class="cls-4" d="M3.47,33.5l-1.11-2.22-.44.19.32,4.27c.24.42.53.86.75,1.16l.48-3.4Z"/>
      <polygon class="cls-3" points="3.07 13.07 4.26 12.51 4.26 12.51 3.07 13.07"/>
      <path class="cls-9" d="M21.52,36.33h-.02c-.35.5-.73.96-1.13,1.39h.01c.4-.43.72-.81,1.14-1.39Z"/>
      <polygon class="cls-9" points=".71 19.76 1.07 19.93 1.01 19.14 .71 19.76"/>
      <polygon class="cls-11" points="6.41 22.38 6.89 19.5 5.81 17.04 3.67 19.34 4.71 21.6 6.41 22.38"/>
      <polygon class="cls-3" points="3.88 30.61 3.23 30.89 3.53 33.09 3.88 30.61"/>
      <polygon class="cls-3" points="3.67 19.34 3.67 17.43 3.67 17.44 3.67 19.34 3.2 19.16 2.8 20.65 3.67 19.34"/>
      <polygon class="cls-9" points="3.23 30.89 2.36 31.27 3.47 33.5 3.53 33.09 3.23 30.89"/>
      <path class="cls-5" d="M.73,31.98c.38,1.41.89,2.66,1.51,3.75l-.32-4.27-1.19.52Z"/>
      <path class="cls-5" d="M23.74,25.96l.13.23-.3.03-1.88,3.03v1.22l2.18.69c.54-2.1.68-4.16.53-6.27l-.67,1.07h0Z"/>
      <path class="cls-3" d="M14.25,2.54c.28.37.58.78.9,1.22h0c-.32-.44-.62-.85-.9-1.22h0Z"/>
      <path class="cls-11" d="M8.33,40.94s-.06-.02-.09-.03c.03,0,.06.02.09.03Z"/>
      <polygon class="cls-4" points="2.8 20.65 3.2 19.16 1.59 18.52 1.82 20.27 2.76 20.7 2.8 20.65"/>
      <path class="cls-1" d="M18.79,39.18c.56-.43,1.09-.92,1.6-1.46h-.01c-.5.54-1.03,1.03-1.59,1.46Z"/>
      <path class="cls-5" d="M17.08,6.55h0c.13.2.16.24,0,0Z"/>
      <path class="cls-5" d="M9.7,41.34c-.08-.02-.15-.04-.23-.05.08.02.15.04.23.05Z"/>
      <path class="cls-6" d="M17.08,6.55h0c-.24-.36-.47-.71-.7-1.04h0c.23.33.46.68.7,1.04Z"/>
      <path class="cls-12" d="M10.42,41.48c-.1-.02-.2-.03-.3-.05.1.02.2.03.3.05Z"/>
      <path class="cls-3" d="M16.38,5.5h0c-.29-.42-.57-.82-.84-1.2h0c.27.38.55.78.83,1.2h.01Z"/>
      <polygon class="cls-12" points="16.17 12.25 16.08 11.82 15.22 10.83 14.5 12.34 15.39 13.33 16.17 12.25"/>
      <path class="cls-7" d="M7.42,6h0c-.36.5-.72,1.04-1.09,1.59l1.64-.16s-.55-1.43-.55-1.43Z"/>
      <polygon class="cls-9" points="7.77 14.91 7.84 14.83 7.69 14.74 7.67 14.85 7.77 14.91"/>
      <polygon class="cls-7" points="9.88 12.4 8.75 9.47 7.69 14.74 7.84 14.83 9.88 12.4"/>
      <polygon class="cls-12" points="6.23 7.98 4.7 11.26 5.51 10.66 6.23 7.98"/>
      <polygon class="cls-10" points="23.88 26.2 23.74 25.96 23.58 26.22 23.88 26.2"/>
      <path class="cls-1" d="M21.7,20.34v.76l1.95,2.72.59-.53c-.2-1.39-.42-2.42-.82-3.76l-1.72.8h0Z"/>
      <polygon class="cls-1" points="17 39.92 17.14 40.27 17.01 39.92 17 39.92"/>
      <path class="cls-2" d="M6.23,7.98l-.73,2.67,2.88-2.14-.42-1.09-1.64.16c-.88,1.34-1.75,2.8-2.57,4.36l.93-.69,1.53-3.28h.02Z"/>
      <path class="cls-12" d="M14.25,2.54h0c-.47-.63-1.08-1.4-1.53-1.96.35.44.89,1.1,1.53,1.96Z"/>
      <polygon class="cls-12" points="14.22 33.15 15.77 36.93 15.81 36.7 14.46 33.06 14.22 33.15"/>
      <polygon class="cls-12" points="3.16 29.53 3.6 30.18 3.16 29.53 3.16 29.53"/>
      <polygon class="cls-11" points="17 39.92 17.01 39.92 16.15 37.62 16.05 37.62 17 39.92"/>
      <polygon class="cls-5" points="15.78 36.96 16.05 37.62 16.15 37.62 15.91 36.95 15.78 36.96"/>
      <polygon class="cls-1" points="8.43 33.12 8.67 35.16 9.78 32.79 9.23 32.56 8.43 33.12"/>
      <polygon class="cls-7" points="15.69 9.85 15.22 10.83 16.08 11.82 15.69 9.85"/>
      <path class="cls-10" d="M23.65,23.81l.75,1.05c-.03-.41-.04-.69-.16-1.58l-.59.53Z"/>
      <path class="cls-12" d="M1.01,19.14l-.03-.44c-.1.35-.19.7-.28,1.05h.02l.29-.62h0Z"/>
      <path class="cls-10" d="M9.01,41.16c-.06-.02-.11-.03-.17-.05.06.02.11.03.17.05Z"/>
      <path class="cls-3" d="M15.54,4.3h0c-.13-.19-.26-.37-.39-.54h0c.13.18.25.36.39.54Z"/>
      <polygon class="cls-9" points="16.64 14.58 16.17 12.25 15.39 13.33 16.56 14.63 16.64 14.58"/>
      <path class="cls-7" d="M1.34,18.42l-.26-.1c-.04.13-.07.25-.11.38l.03.44.34-.72Z"/>
      <polygon class="cls-9" points="21.7 30.47 21.7 29.25 21.07 30.27 21.7 30.47"/>
      <polygon class="cls-10" points="21.7 21.09 21.7 20.34 21.29 20.53 21.7 21.09"/>
      <rect class="cls-10" x="6.75" y="35.93" height="2.11"/>
      <polygon class="cls-3" points="4.06 37.07 5.18 36.79 5.18 36.79 4.06 37.07"/>
      <path class="cls-5" d="M11.47,41.6c.23,0,.46.02.68.02h0c-.23,0-.45,0-.68-.02Z"/>
      <polygon class="cls-11" points="5.22 37.07 5.66 36.83 5.66 36.83 5.22 37.07"/>
      <path class="cls-1" d="M11.18,41.58c-.13,0-.26-.02-.39-.04.13.02.26.03.39.04Z"/>
      <path class="cls-10" d="M18.03,39.73c-.1.07-.21.14-.31.21.11-.07.21-.14.31-.21Z"/>
      <path class="cls-9" d="M18.71,39.24c-.15.11-.3.23-.45.33.15-.11.3-.22.45-.33Z"/>
      <polygon class="cls-1" points="3.32 36.9 4.04 36.92 4.04 36.92 3.32 36.9"/>
      <polygon class="cls-9" points="1.07 19.93 1.82 20.27 1.59 18.52 1.34 18.42 1.01 19.14 1.07 19.93"/>
      <polygon class="cls-5" points="16.57 14.64 16.63 14.58 16.63 14.58 16.57 14.64"/>
      <polygon class="cls-11" points="7.67 14.85 7.62 15.09 7.77 14.91 7.67 14.85"/>
      <polygon class="cls-3" points="8.76 32.37 8.4 32.9 8.43 33.12 9.23 32.56 8.76 32.37"/>
      <polygon class="cls-12" points="6.63 16.16 7.09 18.25 7.62 15.09 6.63 16.16"/>
      <polygon class="cls-6" points="8.4 32.9 8.76 32.37 8.32 32.19 8.4 32.9"/>
      <polygon class="cls-2" points="7.09 18.25 6.63 16.16 5.81 17.04 6.89 19.5 7.09 18.25"/>
      <path class="cls-7" d="M10.12,12.11c.09-.1.17-.27.26-.49-.37.55-.51.78-.26.49Z"/>
      <polygon class="cls-3" points="7.42 6 7.97 7.43 8.49 7.38 7.42 6"/>
      <path class="cls-7" d="M10.98,9.08c-.08.44-.16.86-.24,1.22l.28.37c.24-.34.51-.72.8-1.14l-.84-.46h0Z"/>
      <path class="cls-3" d="M16.23,7.52l.96-.81s0,.01-.11-.16l-1.1.11s.25.86.25.86Z"/>
      <path class="cls-10" d="M20.42,12.72l.21,6.88,1.06-2.06v-2.57c-.28-.64-.57-1.26-.87-1.88l-.41-.37h.01Z"/>
      <path class="cls-1" d="M10.37,11.62c.17-.25.39-.58.65-.95l-.28-.37c-.12.54-.24.99-.37,1.32Z"/>
      <polygon class="cls-1" points="8.68 37.44 9.19 37.45 8.9 37.04 8.68 37.44"/>
      <path class="cls-11" d="M11.82,9.53c-.29.41-.56.79-.8,1.14l.14.19.97-1.15-.31-.17h0Z"/>
      <path class="cls-3" d="M15.38,4.54s-.04.05-.06.08l.1.09-.05-.16h.01Z"/>
      <path class="cls-2" d="M20.83,13.09c-.14-.28-.28-.56-.43-.84v.47l.43.37Z"/>
      <polygon class="cls-5" points="15.22 10.83 15.69 9.85 15.37 8.24 13.64 9.02 15.22 10.83"/>
      <polygon class="cls-3" points="2.97 29.44 3.23 29.39 3.23 29.39 2.97 29.44"/>
      <polygon class="cls-3" points="15.77 36.93 14.22 33.15 13.46 33.43 13.26 34.67 15.76 36.96 15.77 36.93"/>
      <polygon class="cls-9" points="13.64 9.02 12.14 9.7 14.5 12.34 15.22 10.83 13.64 9.02"/>
      <polygon class="cls-3" points="10.87 35.2 10.44 33.05 10.39 33.03 10.87 35.2"/>
      <polygon class="cls-12" points="10.39 33.03 9.78 32.79 8.67 35.16 8.89 37.03 10.87 35.2 10.39 33.03"/>
      <path class="cls-9" d="M20.37,37.72l-4.22-.1.86,2.31.59.07c1-.61,1.91-1.34,2.77-2.28Z"/>
      <path class="cls-6" d="M17.01,39.92l.13.34c.16-.09.31-.18.46-.27,0,0-.59-.07-.59-.07Z"/>
      <polygon class="cls-5" points="20.64 19.61 21.29 20.53 21.7 20.34 21.7 19.17 20.64 19.6 20.64 19.61"/>
      <polygon class="cls-1" points="6.41 22.38 4.71 21.6 5.75 23.85 6.18 23.78 6.41 22.38"/>
      <polygon class="cls-5" points="15.76 36.97 16.03 37.62 16.05 37.62 15.78 36.96 15.76 36.96 15.76 36.97"/>
      <polygon class="cls-2" points="14.46 33.06 15.81 36.7 16.44 33.45 15.26 32.77 14.46 33.06"/>
      <polygon class="cls-10" points="8.49 7.38 7.97 7.43 8.39 8.52 9.01 8.05 8.49 7.38"/>
      <path class="cls-1" d="M15.43,4.7l.95.8c-.29-.42-.56-.82-.83-1.2-.06.08-.11.15-.17.23l.05.16h0Z"/>
      <path class="cls-12" d="M22.29,16.38c-.19-.48-.39-.95-.59-1.42v2.57l.59-1.15Z"/>
      <path class="cls-9" d="M13.36,2.96l1.96,1.65s.04-.05.06-.08l-.22-.77c-.32-.44-.62-.85-.9-1.22l-.97.23s.07.19.07.19Z"/>
      <path class="cls-7" d="M10.98,9.08l-1.94-1.05h0v.06l1.69,2.21c.08-.37.16-.78.24-1.22h.01Z"/>
      <path class="cls-6" d="M13.29,2.77l.97-.23c-.79-1.03-1.62-2.07-2.02-2.54h0l1.05,2.77Z"/>
      <path class="cls-1" d="M11.17,10.86l-.14-.19c-.26.37-.48.7-.65.95-.08.22-.17.39-.26.49-.25.29-.12.06.26-.49.12-.33.25-.78.37-1.32l-1.71-2.21-.28,1.39,1.12,2.93,1.29-1.54h0Z"/>
      <path class="cls-9" d="M.71,19.76h-.02s0,.05-.02.08c0,0,.04-.08.04-.08Z"/>
      <polygon class="cls-12" points="8.53 7.38 8.49 7.38 9.01 8.05 9.05 8.03 8.53 7.38"/>
      <path class="cls-2" d="M23.42,19.53c-.09-.31-.19-.62-.29-.94l-1.43.58v1.16s1.72-.8,1.72-.8Z"/>
      <polygon class="cls-12" points="16.03 37.62 16.99 39.92 17 39.92 16.05 37.62 16.03 37.62"/>
      <polygon class="cls-2" points="1.82 20.27 1.07 19.93 1.29 22.92 2.02 21.81 1.82 20.27"/>
      <polygon class="cls-11" points="2.76 20.7 1.82 20.27 2.02 21.81 2.76 20.7"/>
      <polygon class="cls-10" points=".18 26.63 1.05 24.72 1.05 24.72 .18 26.63"/>
      <rect class="cls-2" x="1.4" y="26.49" height=".74"/>
      <polygon class="cls-5" points="8.53 7.38 7.42 5.99 7.42 6 8.49 7.38 8.53 7.38"/>
      <rect class="cls-11" x="2.3" y="26.95" height="2.57"/>
      <rect class="cls-5" x="8.35" y="36.48" height="1.09"/>
      <path class="cls-7" d="M15.98,6.66l1.1-.11c-.24-.36-.47-.71-.7-1.05l-.95-.8.56,1.96h-.01Z"/>
      <path class="cls-9" d="M15.54,4.3c-.13-.18-.26-.36-.39-.54l.22.77c.06-.08.11-.15.17-.23Z"/>
      <polygon class="cls-3" points="16.99 39.92 17.14 40.27 17 39.92 16.99 39.92"/>
      <path class="cls-5" d="M.04,24.78l1.24-1.86-.22-2.99-.35-.16c-.19.4-.56,2.56-.67,5.01Z"/>
      <path class="cls-1" d="M12.15,41.62l-1.8-2.53-2.42-.3-.87,1.6c1.65.84,3.44,1.24,5.08,1.24h.01Z"/>
      <polygon class="cls-7" points="20.72 30.84 21.7 30.94 21.7 30.47 21.07 30.27 20.72 30.84"/>
      <polygon class="cls-3" points="23.88 31.16 21.7 30.47 21.7 30.94 23.88 31.16"/>
      <polygon class="cls-12" points="15.33 8.15 15.41 8.21 16.23 7.52 15.98 6.66 14.81 6.77 15.33 8.15"/>
      <path class="cls-1" d="M16.15,37.62l4.22.1c.4-.43.77-.89,1.13-1.39l-5.59.62.25.67h0Z"/>
      <polygon class="cls-9" points="8.68 37.44 7.94 38.79 10.35 39.09 9.19 37.45 8.68 37.44"/>
      <path class="cls-7" d="M14.81,6.77l1.18-.11-.56-1.96-.1-.09c-.28.39-.57.8-.87,1.22l.36.94h0Z"/>
      <path class="cls-10" d="M15.32,4.61l-1.96-1.65,1.09,2.87c.3-.42.59-.83.87-1.22Z"/>
      <polygon class="cls-7" points="15.37 8.24 15.37 8.24 15.41 8.21 15.33 8.15 15.37 8.24"/>
      <path class="cls-11" d="M10.87,35.2c0-2.37.52,2.3,0,0h0Z"/>
      <polygon class="cls-2" points="6.18 23.78 5.75 23.85 6.06 24.51 6.18 23.78"/>
      <polygon class="cls-11" points="15.26 32.77 16.44 33.45 16.67 32.25 15.26 32.77"/>
      <polygon class="cls-3" points="16.67 14.76 16.64 14.58 16.56 14.64 16.67 14.76"/>
      <polygon class="cls-6" points="10.44 33.05 10.87 35.2 12.35 33.83 10.44 33.05"/>
      <polygon class="cls-9" points="12.45 33.8 12.37 33.86 13.26 34.67 13.46 33.43 12.45 33.8"/>
      <polygon class="cls-10" points="12.35 33.83 12.37 33.86 12.45 33.8 12.35 33.83"/>
      <polygon class="cls-7" points="21.5 36.33 21.51 36.33 21.5 36.32 21.5 36.33"/>
      <polygon class="cls-10" points="15.78 36.96 15.91 36.95 15.81 36.7 15.77 36.93 15.78 36.96"/>
      <polygon class="cls-6" points="20 12.34 20.34 12.11 17.73 10.08 17.63 10.21 20 12.34"/>
      <polygon class="cls-7" points="17.63 10.21 17.73 10.08 16.75 9.32 16.79 9.45 17.63 10.21"/>
      <polygon class="cls-5" points="16.79 9.45 16.75 9.32 16.16 8.86 16.15 8.88 16.79 9.45"/>
      <polygon class="cls-12" points="16.3 12.07 16.08 11.82 16.17 12.25 16.3 12.07"/>
      <path class="cls-10" d="M21.52,36.33h0v-.03h-.01s.01.03.01.03Z"/>
      <polygon class="cls-11" points="17.63 10.21 16.79 9.45 17.18 10.84 17.63 10.21"/>
      <polygon class="cls-1" points="17.99 13.68 17.18 10.84 16.3 12.07 17.82 13.8 17.99 13.68"/>
      <polygon class="cls-12" points="16.64 14.58 17.82 13.8 16.3 12.07 16.17 12.25 16.64 14.58"/>
      <polygon class="cls-3" points="16.08 11.82 16.3 12.07 17.18 10.84 16.79 9.45 16.15 8.88 15.69 9.85 16.08 11.82"/>
      <polygon class="cls-1" points="17.99 13.68 20 12.34 17.63 10.21 17.18 10.84 17.99 13.68"/>
      <polygon class="cls-10" points="20 12.34 20.34 12.11 20 12.34 20 12.34"/>
      <polygon class="cls-6" points="17.82 13.8 18 13.68 18 13.68 17.82 13.8"/>
      <polygon class="cls-7" points="21.51 36.32 21.5 36.32 21.51 36.33 21.52 36.33 21.51 36.32"/>
      <polygon class="cls-5" points="16.53 14.35 17.92 14.03 17.92 14.03 16.53 14.35"/>
      <polygon class="cls-11" points="17.99 13.68 19.99 12.34 19.99 12.34 17.99 13.68"/>
      <path class="cls-12" d="M11.91,7.05l-.52-.6c-.03.22-.06.44-.09.66l.62-.06h0Z"/>
      <path class="cls-3" d="M13.71,6.88s.05-.08.08-.11l-2.19-1.96c-.07.56-.14,1.12-.21,1.65l.52.6,1.79-.17h.01Z"/>
      <path class="cls-7" d="M11.39,6.45l-1.18-1.35-.87,2.19,1.96-.19c.03-.22.06-.43.09-.66h0Z"/>
      <path class="cls-12" d="M13.71,6.88c-.29.41-.59.82-.87,1.23l.81.92,1.73-.78-.04-.09-1.44-1.29-.19.02h0Z"/>
      <path class="cls-8" d="M16.15,8.88c-.31-.28-.14-.14-.78-.64h0l.32,1.61s.46-.97.46-.97Z"/>
      <path class="cls-10" d="M9.34,7.3l-.29.73,1.94,1.05c.11-.6.21-1.27.31-1.97,0,0-1.96.19-1.96.19Z"/>
      <path class="cls-11" d="M14.81,6.77l-.36-.94c-.22.31-.44.62-.66.93l.11.1s.91-.09.91-.09Z"/>
      <path class="cls-3" d="M13.9,6.86l-.11-.1s-.05.08-.08.11l.19-.02h0Z"/>
      <polygon class="cls-2" points="15.33 8.15 14.81 6.77 13.9 6.86 15.33 8.15"/>
      <path class="cls-10" d="M12.08.4l-.44,1.11.3.26c.05-.47.1-.92.14-1.37Z"/>
      <polygon class="cls-5" points="20.64 19.61 20.64 19.6 20.63 19.6 20.64 19.61"/>
      <path class="cls-11" d="M11.94,1.77c-.05.45-.1.9-.15,1.36l1.37-.33-1.23-1.03h0Z"/>
      <path class="cls-2" d="M11.94,1.77l-.3-.26-.73,1.83.88-.21c.05-.46.1-.91.15-1.36Z"/>
      <path class="cls-5" d="M21.51,36.32h.01s-.81-5.47-.81-5.47l-2.79.97s3.59,4.5,3.59,4.5Z"/>
      <polygon class="cls-5" points="18.24 16.68 18.79 17.34 18.79 17.34 20.63 19.6 20.64 19.6 20.42 12.72 20.16 12.49 18.24 16.68"/>
      <polygon class="cls-12" points="13.36 2.96 13.29 2.77 13.17 2.8 13.36 2.96"/>
      <path class="cls-2" d="M20.42,12.72v-.47s-.06-.09-.08-.13l-.17.38.26.23h-.01Z"/>
      <path class="cls-6" d="M11.8,3.13c-.06.56-.13,1.12-.19,1.67l2.19,1.96c.22-.31.44-.62.66-.93l-1.09-2.87-.19-.16-1.37.33h-.01Z"/>
      <polygon class="cls-10" points="15.76 36.96 15.78 36.96 15.77 36.93 15.76 36.96"/>
      <polygon class="cls-5" points="16.15 8.88 16.16 8.86 15.91 8.66 16.15 8.88"/>
      <path class="cls-3" d="M13.17,2.8l.12-.03-1.05-2.77-.16.39c-.04.45-.09.9-.14,1.37l1.23,1.03h0Z"/>
      <path class="cls-9" d="M12.83,8.1l-.92-1.05-.62.06c-.1.7-.21,1.37-.31,1.97l.84.46c.32-.45.66-.93,1.01-1.43h0Z"/>
      <path class="cls-3" d="M12.83,8.1c-.35.5-.69.98-1.01,1.43l.31.17,1.5-.68-.81-.92h.01Z"/>
      <path class="cls-3" d="M11.39,6.45c.07-.54.14-1.09.21-1.65l-.94-.84-.46,1.15,1.18,1.35h0Z"/>
      <polygon class="cls-7" points="16.44 33.45 15.81 36.7 15.91 36.95 21.5 36.33 21.5 36.32 16.44 33.45"/>
      <path class="cls-11" d="M11.8,3.13l-.88.21-.25.62.94.84c.07-.55.13-1.11.19-1.67Z"/>
      <path class="cls-8" d="M11.91,7.05l.92,1.05c.29-.4.58-.82.87-1.23l-1.79.17h0Z"/>
      <polygon class="cls-11" points="16.67 32.25 16.44 33.45 21.5 36.32 21.51 36.32 17.92 31.82 16.67 32.25"/>
      <polygon class="cls-5" points="20.16 12.49 20.34 12.11 20 12.34 20.16 12.49"/>
      <polygon class="cls-2" points="18.13 14.16 17.99 13.68 17.82 13.8 18.13 14.16"/>
      <polygon class="cls-2" points="18.13 14.16 17.82 13.8 16.64 14.58 16.67 14.76 18.24 16.68 20.16 12.49 20 12.34 17.99 13.68 18.13 14.16"/>
      <polygon class="cls-9" points="8.42 23.02 7.88 21.78 8.2 23.2 8.27 23.23 8.42 23.02"/>
      <polygon class="cls-11" points="8.57 23.37 8.42 23.02 8.27 23.23 8.57 23.37"/>
      <path class="cls-10" d="M4.14,12.45l.56-1.19-.93.69c-.03.06-.06.12-.09.18h0l.47.32h0Z"/>
      <polygon class="cls-12" points="10.14 31.93 9.23 32.56 9.78 32.79 10.15 31.99 10.14 31.93"/>
      <polygon class="cls-11" points="12.28 17.49 12.09 17.38 11.92 17.73 12.28 17.49"/>
      <polygon class="cls-2" points="7.29 28.71 7.52 29.5 8.1 28.55 7.29 28.71"/>
      <polygon class="cls-11" points="13.71 31.89 13.94 32.46 14.17 32.26 14.11 32.12 13.71 31.89"/>
      <polygon class="cls-6" points="21.7 29.25 23.58 26.22 21.7 26.41 21.7 29.25"/>
      <polygon class="cls-9" points="14.27 14.88 12.5 17.34 14.92 15.73 14.27 14.88"/>
      <polygon class="cls-10" points="15.39 13.33 14.5 12.34 13.66 14.09 14.27 14.88 15.39 13.33"/>
      <polygon class="cls-7" points="15.15 23.41 18.65 23.96 18.22 21.96 15.15 23.4 15.15 23.41"/>
      <polygon class="cls-2" points="10.15 31.99 10.2 31.89 10.14 31.93 10.15 31.99"/>
      <polygon class="cls-5" points="20.62 26.51 21.7 26.41 21.7 25.92 20.98 26.2 20.62 26.51"/>
      <polygon class="cls-11" points="19.98 26.58 20.62 26.51 20.98 26.2 19.98 26.58"/>
      <polygon class="cls-7" points="17.52 29.14 18.01 27.33 15.2 28.41 17.52 29.14"/>
      <polygon class="cls-10" points="22.99 24.65 22.89 24.49 22.75 24.61 22.99 24.65"/>
      <path class="cls-1" d="M22.99,24.65l1.42.23h0s-.75-1.06-.75-1.06l-.76.68.09.16h0Z"/>
      <polygon class="cls-5" points="19.74 21.98 19.74 21.98 19.74 21.98 18.97 24.01 21.7 24.45 21.7 22.41 20.76 20.78 20.07 21.1 19.74 21.98"/>
      <polygon class="cls-5" points="22.75 24.61 22.89 24.49 21.7 22.41 21.7 24.45 22.75 24.61"/>
      <polygon class="cls-5" points="7.69 14.74 6.1 13.78 6.1 13.78 7.67 14.85 7.69 14.74"/>
      <path class="cls-11" d="M6.89,19.5l-.48,2.87,1.79.82c-.4-1.78-.12-.96-1.31-3.69Z"/>
      <polygon class="cls-3" points="11.92 17.73 11.69 17.14 7.84 14.83 7.77 14.91 11.92 17.73 11.92 17.73"/>
      <polygon class="cls-1" points="20.76 20.78 21.7 22.41 21.7 21.09 21.29 20.53 20.76 20.78"/>
      <path class="cls-12" d="M19.46,26.78l.19.6.97-.87c-.78.08-.52.02-1.16.26h0Z"/>
      <polygon class="cls-5" points="22.89 24.49 23.65 23.81 21.7 21.09 21.7 22.41 22.89 24.49"/>
      <polygon class="cls-3" points="23.74 25.96 24.41 24.89 24.41 24.88 23.35 25.29 23.74 25.96"/>
      <polygon class="cls-11" points="13.94 32.46 14.22 33.15 14.46 33.06 14.17 32.26 13.94 32.46"/>
      <polygon class="cls-10" points="21.7 25.92 21.7 26.41 23.58 26.22 23.74 25.96 23.35 25.29 21.7 25.92"/>
      <polygon class="cls-10" points="3.97 12.82 3.67 13.45 3.67 17.43 4.56 14.16 3.97 12.82"/>
      <polygon class="cls-1" points="5.81 17.04 4.56 14.16 3.67 17.43 3.67 19.34 5.81 17.04"/>
      <polygon class="cls-5" points="6.1 13.78 6.1 13.78 7.69 14.74 8.75 9.47 8.39 8.52 5.51 10.66 4.88 12.96 6.1 13.78"/>
      <polygon class="cls-2" points="20.62 26.51 19.65 27.38 20.48 30.08 21.07 30.27 21.7 29.25 21.7 26.41 20.62 26.51"/>
      <polygon class="cls-5" points="3.67 12.13 3.67 13.45 3.97 12.82 3.67 12.13"/>
      <polygon class="cls-1" points="5.51 10.66 4.7 11.26 4.14 12.45 4.88 12.96 5.51 10.66"/>
      <path class="cls-10" d="M9.87,30.71l.27,1.23.06-.04s1.67-3.82,1.67-3.83h-.24l-1.77,2.64h0Z"/>
      <polygon class="cls-2" points="14.61 23.6 12.61 24.33 12.61 26.6 14.61 23.6"/>
      <polygon class="cls-10" points="8.76 32.37 9.23 32.56 10.14 31.93 9.87 30.71 8.76 32.37"/>
      <polygon class="cls-1" points="11.17 28.06 11.16 28.06 9.34 28.35 9.87 30.71 11.63 28.06 11.17 28.06 11.17 28.06"/>
      <path class="cls-6" d="M9.34,28.35l-1.24.2-.58.94.79,2.69.44.18,1.11-1.66-.52-2.35Z"/>
      <polygon class="cls-10" points="14.93 15.72 16.56 14.63 16.56 14.63 14.93 15.72"/>
      <polygon class="cls-11" points="14.92 15.73 14.92 15.73 12.5 17.34 12.5 17.35 14.92 15.73"/>
      <polygon class="cls-11" points="12.5 17.34 12.28 17.49 12.28 17.5 12.5 17.35 12.5 17.34"/>
      <polygon class="cls-9" points="4.56 14.16 4.88 12.96 4.14 12.45 3.97 12.82 4.56 14.16"/>
      <polygon class="cls-4" points="7.62 15.09 7.67 14.85 6.1 13.78 6.63 16.16 7.62 15.09"/>
      <polygon class="cls-9" points="23.35 25.29 24.41 24.88 24.41 24.88 22.99 24.65 23.35 25.29"/>
      <polygon class="cls-3" points="6.1 13.78 4.88 12.96 4.56 14.16 5.81 17.04 6.63 16.16 6.1 13.78"/>
      <path class="cls-3" d="M12.61,28.06h-.73s1.83,3.82,1.83,3.83l.4.23-1.51-4.06h.01Z"/>
      <polygon class="cls-3" points="4.14 12.45 3.67 12.13 3.67 12.13 3.97 12.82 4.14 12.45"/>
      <polygon class="cls-9" points="21.7 25.55 21.7 25.92 23.35 25.29 22.99 24.65 22.75 24.61 21.7 25.55"/>
      <polygon class="cls-12" points="7.09 18.25 6.89 19.5 7.88 21.78 7.09 18.25"/>
      <polygon class="cls-2" points="22.75 24.61 21.7 24.45 21.7 25.55 22.75 24.61"/>
      <polygon class="cls-3" points="20.98 26.2 21.7 25.92 21.7 25.55 20.98 26.2"/>
      <path class="cls-1" d="M12.61,27.3v.76s2.59.34,2.6.35l2.81-1.08.16-.58-5.56.54h0Z"/>
      <polygon class="cls-7" points="19.46 26.78 19.98 26.58 19.42 26.63 19.46 26.78"/>
      <polygon class="cls-1" points="12.28 17.49 11.92 17.73 11.92 17.74 12.28 17.5 12.28 17.49"/>
      <path class="cls-2" d="M15.15,23.4s-.53.19-.54.2l-2,3v.7l5.56-.54.6-2.21-.12-.58-3.5-.56h0Z"/>
      <path class="cls-1" d="M19.42,26.63c.71-.07.37.02,1.56-.44l.72-.64v-1.11l-2.73-.43-.2.53.64,2.09h.01Z"/>
      <rect class="cls-1" x="11.76" y="27.95" height=".24"/>
      <rect class="cls-7" x="12.6" y="24.33" height="2.27"/>
      <polygon class="cls-9" points="12.56 28.05 12.66 27.3 12.66 27.3 12.56 28.05"/>
      <polygon class="cls-9" points="9.05 8.03 9.01 8.05 9.03 8.09 9.05 8.03 9.05 8.03"/>
      <polygon class="cls-5" points="20.76 20.78 21.29 20.53 20.64 19.61 20.42 20.18 20.76 20.78"/>
      <polygon class="cls-9" points="11.33 37.5 9.19 37.45 10.35 39.09 11.68 39.26 11.33 37.5"/>
      <polygon class="cls-1" points="15.2 28.41 16.57 30.12 17.47 29.32 17.52 29.14 15.2 28.41 15.2 28.41"/>
      <polygon class="cls-7" points="15.76 36.97 15.76 36.96 13.26 34.67 12.8 37.54 15.27 37.6 15.76 36.97 15.76 36.97"/>
      <polygon class="cls-3" points="17.57 19.16 17.61 19.11 17.45 18.39 17.28 18.78 17.57 19.16"/>
      <polygon class="cls-7" points="17.64 19.25 17.61 19.11 17.57 19.16 17.64 19.25"/>
      <polygon class="cls-3" points="8.1 23.46 8.22 23.3 8.2 23.2 6.41 22.38 6.18 23.78 8.1 23.46"/>
      <polygon class="cls-2" points="13.7 31.89 13.56 32.81 13.94 32.46 13.71 31.89 13.7 31.89"/>
      <polygon class="cls-5" points="8.22 23.3 8.1 23.46 8.25 23.43 8.22 23.3"/>
      <polygon class="cls-12" points="17.57 19.16 17.28 18.78 16.66 20.13 16.85 20.24 17.57 19.16"/>
      <polygon class="cls-6" points="8.58 23.38 8.57 23.37 8.27 23.23 8.22 23.3 8.25 23.43 8.58 23.38"/>
      <polygon class="cls-6" points="8.2 23.2 8.22 23.3 8.27 23.23 8.2 23.2"/>
      <polygon class="cls-9" points="17.08 30.76 17.47 29.32 16.57 30.12 17.08 30.76"/>
      <polygon class="cls-7" points="8.89 37.03 8.89 37.04 8.9 37.04 8.9 37.04 9.19 37.45 11.33 37.5 10.87 35.2 8.89 37.03"/>
      <polygon class="cls-5" points="12.51 39.36 12.15 41.62 13.78 39.52 12.51 39.36"/>
      <polygon class="cls-9" points="14.5 12.34 12.14 9.7 11.17 10.86 13.66 14.09 14.5 12.34"/>
      <polygon class="cls-3" points="9.78 32.79 10.39 33.03 10.15 31.99 9.78 32.79"/>
      <path class="cls-1" d="M16.85,20.24c-.99,1.49-.59.75-1.7,3.16l3.07-1.44-.22-1.03s-1.15-.69-1.15-.69Z"/>
      <polygon class="cls-12" points="8.1 28.55 7.11 28.09 7.29 28.71 8.1 28.55 8.1 28.55"/>
      <polygon class="cls-3" points="12.09 17.38 11.69 17.14 11.92 17.73 11.92 17.73 12.09 17.38"/>
      <polygon class="cls-9" points="10.2 31.89 10.15 31.99 10.39 33.03 10.44 33.05 10.21 31.89 10.2 31.89"/>
      <polygon class="cls-9" points="14.17 32.26 14.24 32.19 14.11 32.12 14.17 32.26"/>
      <polygon class="cls-1" points="10.35 39.09 12.15 41.62 12.15 41.62 11.68 39.26 10.35 39.09"/>
      <polygon class="cls-10" points="9.03 8.09 9.01 8.05 8.39 8.52 8.75 9.47 9.03 8.09"/>
      <polygon class="cls-9" points="20.07 21.1 20.76 20.78 20.42 20.18 20.07 21.1"/>
      <polygon class="cls-3" points="16.66 20.13 16.06 21.43 16.85 20.24 16.66 20.13"/>
      <polygon class="cls-12" points="14.17 32.26 14.46 33.06 15.26 32.77 14.24 32.19 14.17 32.26"/>
      <polygon class="cls-3" points="16.85 20.24 18 20.93 17.64 19.25 17.57 19.16 16.85 20.24"/>
      <polygon class="cls-8" points="12.8 37.54 12.51 39.36 13.78 39.52 15.27 37.6 12.8 37.54"/>
      <polygon class="cls-9" points="20.72 30.84 21.07 30.27 20.48 30.08 20.71 30.84 20.72 30.84"/>
      <polygon class="cls-3" points="13.56 32.81 13.46 33.43 14.22 33.15 13.94 32.46 13.56 32.81"/>
      <polygon class="cls-3" points="11.68 39.26 12.15 41.62 12.51 39.36 11.68 39.26"/>
      <polygon class="cls-9" points="10.87 35.2 10.87 35.2 12.37 33.86 12.35 33.83 10.87 35.2"/>
      <polygon class="cls-11" points="12.28 17.5 11.92 17.74 11.92 18.15 12.36 17.54 12.28 17.5"/>
      <polygon class="cls-6" points="13.26 34.67 12.37 33.86 10.87 35.2 10.87 35.2 11.33 37.5 12.8 37.54 13.26 34.67"/>
      <polygon class="cls-3" points="11.16 28.06 11.17 28.06 11.17 27.44 9.18 27.63 9.34 28.35 11.16 28.06"/>
      <polygon class="cls-3" points="7.04 27.84 9.18 27.63 8.25 23.43 8.1 23.46 6.43 25.78 7.04 27.84"/>
      <path class="cls-12" d="M13.7,31.89h0l-1.83-3.82h0s-1.67,3.82-1.67,3.83h0l.23,1.16,1.91.78.1-.04,1.11-.99s.15-.92.15-.92Z"/>
      <polygon class="cls-6" points="12.45 33.8 13.46 33.43 13.56 32.81 12.45 33.8"/>
      <path class="cls-1" d="M12.61,28.06l1.51,4.06.13.08,2.33-2.07-1.37-1.72h0s-2.59-.35-2.6-.35h0Z"/>
      <polygon class="cls-2" points="14.24 32.19 15.26 32.77 16.67 32.25 17.08 30.76 16.57 30.12 14.24 32.19"/>
      <path class="cls-12" d="M8.1,28.55l1.24-.2-.16-.72-2.14.21.07.25.99.46h0Z"/>
      <path class="cls-5" d="M15.15,23.4l.9-1.97-1.44,2.16s.53-.19.54-.2h0Z"/>
      <polygon class="cls-5" points="8.1 23.46 6.18 23.78 6.06 24.51 6.43 25.78 8.1 23.46"/>
      <polygon class="cls-3" points="11.33 37.5 11.68 39.26 12.51 39.36 12.8 37.54 11.33 37.5"/>
      <polygon class="cls-7" points="12.28 17.5 12.36 17.54 12.5 17.35 12.28 17.5"/>
      <polygon class="cls-3" points="11.17 27.44 11.17 28.06 11.63 28.06 12.11 27.35 11.17 27.44"/>
      <polygon class="cls-6" points="12.11 27.35 12.6 26.61 12.6 24.33 12.61 24.33 12.61 24.33 11.97 24.33 11.97 24.33 11.17 24.33 11.17 27.44 12.11 27.35"/>
      <polygon class="cls-5" points="12.6 27.3 12.6 26.61 12.11 27.35 12.6 27.3"/>
      <polygon class="cls-3" points="11.63 28.06 11.87 28.06 12.6 28.06 12.6 27.3 12.11 27.35 11.63 28.06"/>
      <polygon class="cls-5" points="19.06 21.57 19.74 21.98 19.74 21.98 19.33 21.45 19.06 21.57"/>
      <polygon class="cls-5" points="19.74 21.98 20.07 21.1 19.33 21.45 19.74 21.98"/>
      <polygon class="cls-10" points="18.22 21.96 18.65 23.96 18.97 24.01 19.74 21.98 19.06 21.57 18.22 21.96"/>
      <polygon class="cls-7" points="18.01 27.33 17.52 29.14 17.63 29.18 19.65 27.38 19.46 26.78 18.01 27.33"/>
      <polygon class="cls-11" points="20.48 30.08 19.65 27.38 17.63 29.18 20.48 30.08"/>
      <polygon class="cls-7" points="19.42 26.63 18.77 24.54 18.17 26.75 19.42 26.63"/>
      <polygon class="cls-6" points="18.17 26.75 18.01 27.33 19.46 26.78 19.42 26.63 18.17 26.75"/>
      <polygon class="cls-3" points="18.77 24.54 18.97 24.01 18.65 23.96 18.77 24.54"/>
      <polygon class="cls-5" points="19.06 21.57 19.33 21.45 17.64 19.25 18 20.93 19.06 21.57"/>
      <polygon class="cls-1" points="17.61 19.11 18.79 17.34 18.24 16.68 17.45 18.39 17.61 19.11"/>
      <polygon class="cls-11" points="17.64 19.25 19.33 21.45 20.07 21.1 20.42 20.18 18.79 17.34 17.61 19.11 17.64 19.25"/>
      <polygon class="cls-5" points="17.63 29.18 17.52 29.14 17.47 29.32 17.63 29.18"/>
      <polygon class="cls-3" points="18.22 21.96 19.06 21.57 18 20.93 18.22 21.96"/>
      <polygon class="cls-6" points="20.63 19.61 20.63 19.6 18.79 17.34 20.42 20.18 20.64 19.61 20.63 19.6 20.63 19.61"/>
      <polygon class="cls-3" points="17.47 29.32 17.08 30.76 17.92 31.82 20.71 30.84 20.71 30.84 20.71 30.84 20.48 30.08 17.63 29.18 17.47 29.32"/>
      <polygon class="cls-9" points="17.92 31.82 17.08 30.76 16.67 32.25 17.92 31.82"/>
      <polygon class="cls-2" points="17.45 18.39 18.24 16.68 16.67 14.76 17.45 18.39"/>
      <polygon class="cls-6" points="8.43 33.12 8.11 33.34 5.7 36.96 7.81 37.01 8.67 35.16 8.43 33.12"/>
      <polygon class="cls-2" points="2.8 20.65 2.76 20.7 2.78 20.71 2.8 20.65"/>
      <polygon class="cls-9" points="3.62 33.8 3.85 35.49 4.19 34.94 3.62 33.8"/>
      <polygon class="cls-6" points="6.31 31.47 3.88 30.61 3.88 30.61 3.88 30.61 3.53 33.09 3.62 33.8 4.19 34.94 6.31 31.47"/>
      <polygon class="cls-7" points="3.94 36.23 4.04 36.92 5.19 36.95 4.61 35.77 3.94 36.23"/>
      <polygon class="cls-6" points="4.71 21.6 3.67 19.34 2.8 20.65 2.78 20.71 4.71 21.6"/>
      <path class="cls-3" d="M3.94,36.23l-.96.66h0s1.02.02,1.05.03c0,0-.09-.69-.09-.69Z"/>
      <path class="cls-1" d="M4.35,29.29l-1.18.23c.53.8.37.55.72,1.08l.47-1.31h-.01Z"/>
      <polygon class="cls-3" points="4.61 35.77 5.19 36.95 5.7 36.96 8.11 33.34 4.61 35.77"/>
      <polygon class="cls-9" points="3.85 35.49 3.62 33.8 3.47 33.5 2.99 36.89 2.99 36.9 3.85 35.49"/>
      <polygon class="cls-7" points="3.53 33.09 3.47 33.5 3.62 33.8 3.53 33.09"/>
      <polygon class="cls-1" points="3.85 35.49 2.99 36.9 2.99 36.9 3.94 36.23 3.85 35.49"/>
      <polygon class="cls-5" points="4.19 34.94 3.85 35.49 3.94 36.23 4.61 35.77 4.19 34.94"/>
      <polygon class="cls-12" points="8.32 32.19 6.31 31.47 4.19 34.94 4.61 35.77 8.11 33.34 8.4 32.9 8.32 32.19"/>
      <polygon class="cls-11" points="8.11 33.34 8.43 33.12 8.4 32.9 8.11 33.34"/>
      <polygon class="cls-12" points="1.48 25.51 1.49 25.49 1.48 25.48 1.48 25.51"/>
      <path class="cls-3" d="M4.35,29.29l.44-1.23c2.13,0-2.13,0,0,0l.32-.9-2.53-1.17.44,3.32.14.21,1.18-.23h0Z"/>
      <polygon class="cls-7" points="5.75 23.85 4.71 21.6 2.78 20.71 2.17 22.95 2.37 24.42 5.75 23.85"/>
      <polygon class="cls-2" points="2.17 22.95 1.75 24.53 2.37 24.42 2.17 22.95"/>
      <polygon class="cls-11" points="2.76 20.7 2.02 21.81 2.17 22.95 2.78 20.71 2.76 20.7"/>
      <polygon class="cls-11" points="7.81 37.01 8.89 37.03 8.67 35.16 7.81 37.01"/>
      <polygon class="cls-3" points="1.48 25.48 .05 24.82 1.2 26.55 1.48 25.51 1.48 25.48"/>
      <path class="cls-10" d="M1.41,24.58l-.12-1.67L.04,24.78v.03H.04s1.37-.23,1.37-.23Z"/>
      <polygon class="cls-2" points="2.58 25.99 1.49 25.49 1.48 25.51 1.6 27.17 3.02 29.31 2.58 25.99"/>
      <polygon class="cls-1" points="1.2 26.55 1.6 27.17 1.48 25.51 1.2 26.55"/>
      <polygon class="cls-9" points="1.75 24.53 2.17 22.95 2.02 21.81 1.29 22.92 1.41 24.58 1.75 24.53"/>
      <polygon class="cls-1" points="1.49 25.49 1.75 24.53 1.41 24.58 1.48 25.48 1.49 25.49"/>
      <polygon class="cls-3" points="6.06 24.51 5.75 23.85 2.37 24.42 2.58 25.99 5.11 27.16 6.06 24.51"/>
      <polygon class="cls-12" points="1.41 24.58 .04 24.82 .05 24.82 1.48 25.48 1.41 24.58"/>
      <polygon class="cls-5" points="2.58 25.99 2.37 24.42 1.75 24.53 1.49 25.49 2.58 25.99"/>
      <polygon class="cls-12" points="7.29 28.71 4.35 29.29 3.88 30.61 3.88 30.61 6.31 31.47 7.52 29.5 7.29 28.71"/>
      <polygon class="cls-1" points="7.52 29.5 6.31 31.47 8.32 32.19 7.52 29.5"/>
      <polygon class="cls-12" points="5.11 27.16 4.79 28.06 5.35 27.28 5.11 27.16"/>
      <path class="cls-12" d="M5.35,27.28l-.56.78s1.85-.18,1.86-.18c0,0-1.3-.6-1.3-.6Z"/>
      <polygon class="cls-11" points="7.11 28.09 6.65 27.88 4.79 28.06 4.35 29.29 7.29 28.71 7.11 28.09"/>
      <polygon class="cls-3" points="6.43 25.78 5.35 27.28 6.65 27.88 7.04 27.84 6.43 25.78"/>
      <polygon class="cls-9" points="6.65 27.88 7.11 28.09 7.04 27.84 6.65 27.88"/>
      <polygon class="cls-5" points="6.43 25.78 6.06 24.51 5.11 27.16 5.35 27.28 6.43 25.78"/>
      <polygon class="cls-5" points="16.56 14.63 15.39 13.33 14.27 14.88 14.92 15.73 16.56 14.63"/>
      <polygon class="cls-9" points="13.54 15.9 14.27 14.88 13.66 14.09 13.07 15.33 13.54 15.9"/>
      <path class="cls-11" d="M10.2,13.72l.35.45-.68-1.77-2.04,2.43,2.97,1.78c.05-.32.11-.62.16-.91,0,0-.76-1.98-.76-1.98Z"/>
      <path class="cls-3" d="M11.91,18.16v-.04h-1.36c-.11.68-.22,1.36-.32,2.02.05.06.08.1.13.16l1.55-2.15h0Z"/>
      <path class="cls-2" d="M10.23,20.15c-.61-.77-1.62-2.02-1.62-2.02h1.94c.07-.4.13-.8.2-1.18l-2.99-2.03-.15.18-.52,3.16c.92,4.15.63,3.18,1.32,4.76l1.74-2.42c.02-.15.04-.29.07-.44h.01Z"/>
      <path class="cls-10" d="M10.33,24.02l.84.31h.81v-1.45c-.65.46-1.24.88-1.64,1.14h-.01Z"/>
      <path class="cls-12" d="M9.76,23.81c.04-.64.2-1.84.41-3.22l-1.74,2.42.15.35h0l1.18.44h0Z"/>
      <path class="cls-11" d="M10.36,20.32c.64.8.8,1,1.59,1.99l-.03-4.12v-.03l-1.56,2.15h0Z"/>
      <path class="cls-5" d="M11.11,14.88c.17-.97.28-1.6.28-1.6l1.68,2.06.59-1.24-2.49-3.23-1.29,1.54.68,1.77.55.71h0Z"/>
      <path class="cls-11" d="M11.96,22.88v1.45h.65l.75-.27c-.42-.52-.57-.71-1.11-1.39-.1.07-.19.14-.28.21h-.01Z"/>
      <path class="cls-12" d="M15.35,20.33s-.92.71-2.02,1.53l.74,1.93.53-.19c1.73-2.6,1.29-1.82,2.05-3.47l-2.75-1.65,1.45,1.86h0Z"/>
      <path class="cls-12" d="M11.96,22.31c.14.18.15.18.29.36.37-.27.74-.54,1.09-.81l-1.42-3.67.03,4.12h.01Z"/>
      <path class="cls-3" d="M10.33,24.02c-.27.17-.46.28-.53.28-.05,0-.06-.18-.04-.49l-1.18-.44h0l-.33.06.94,4.2,1.98-.19v-3.11h0l-.84-.31Z"/>
      <polygon class="cls-12" points="16.67 14.76 16.56 14.64 14.92 15.73 17.28 18.78 17.45 18.39 16.67 14.76"/>
      <path class="cls-3" d="M13.94,16.39l1.42,1.74h-1.72l.27.35,2.75,1.65.62-1.35-2.35-3.05s-.99.66-.99.66Z"/>
      <path class="cls-5" d="M11.92,17.73h0v.39h.02c.52-.72.38-.53.56-.78l.35-.24-.09-.12-.25.35-.23.15c-.53-.32-.6-.36-.81-.49l.22.57.23.15h0v.02Z"/>
      <path class="cls-11" d="M11.92,18.15l.02-.02h-.02v.02Z"/>
      <path class="cls-11" d="M14.96,26.06l-.88-2.27-.73.27c.61.76,1.6,2.01,1.6,2.01h0Z"/>
      <path class="cls-5" d="M11.47,17.01l-.66-.4c-.02.11-.04.22-.06.33l.94.64s-.22-.57-.22-.57Z"/>
      <polygon class="cls-3" points="12.85 17.12 13.94 16.39 13.54 15.9 12.75 16.99 12.85 17.12"/>
      <polygon class="cls-9" points="12.46 16.61 12.75 16.99 13.54 15.9 13.07 15.33 12.46 16.61"/>
      <polygon class="cls-6" points="12.28 17.49 12.5 17.34 12.75 16.99 12.46 16.61 12.09 17.38 12.28 17.49"/>
      <path class="cls-2" d="M11.02,15.38c-.02.1-.04.21-.05.32l.5,1.31.22.13s-.67-1.76-.67-1.76Z"/>
      <path class="cls-12" d="M10.55,14.17l-.35-.45.76,1.98c.02-.11.04-.21.05-.32l-.47-1.21h.01Z"/>
      <path class="cls-3" d="M10.96,15.7c-.05.29-.1.59-.16.91l.66.4s-.5-1.31-.5-1.31Z"/>
      <path class="cls-11" d="M11.92,17.74h0l-.23-.15.21.55h.02v-.39h0Z"/>
      <path class="cls-3" d="M8.61,18.13s1,1.26,1.62,2.02c.1-.66.21-1.35.32-2.02,0,0-1.94,0-1.94,0Z"/>
      <path class="cls-7" d="M11.92,18.15v-.02h-.02v.04h.02v-.02Z"/>
      <path class="cls-3" d="M11.9,18.13l-.21-.55-.94-.64c-.06.38-.13.78-.2,1.18h1.35Z"/>
      <path class="cls-3" d="M10.23,20.15c-.02.15-.05.3-.07.44l.2-.28c-.05-.07-.08-.1-.13-.16Z"/>
      <path class="cls-5" d="M10.36,20.32l-.2.28c-.21,1.37-.37,2.58-.41,3.22l.57.21c.41-.26,1-.68,1.63-1.14v-.57c-.8-.99-.96-1.2-1.6-1.99h.01Z"/>
      <polygon class="cls-5" points="11.92 18.19 11.92 18.15 11.91 18.16 11.92 18.19"/>
      <path class="cls-3" d="M13.07,15.33l-1.68-2.06s-.11.64-.28,1.6l1.35,1.73.61-1.28h0Z"/>
      <path class="cls-6" d="M11.69,17.14l.4.24.37-.77-1.35-1.73c-.03.16-.06.33-.09.51l.67,1.76h0Z"/>
      <path class="cls-6" d="M11.11,14.88l-.55-.71.47,1.21c.03-.18.06-.34.09-.51h-.01Z"/>
      <path class="cls-7" d="M11.94,18.13l-.02.02v.04l1.42,3.67c1.09-.82,2.02-1.53,2.02-1.53l-1.45-1.86-.58-.35h-1.39,0Z"/>
      <path class="cls-12" d="M11.96,22.88c.09-.07.19-.14.28-.21-.14-.18-.15-.18-.29-.36v.57h.01Z"/>
      <path class="cls-11" d="M13.33,18.13l-.97-.58-.42.58h1.39Z"/>
      <path class="cls-1" d="M12.25,22.67c.54.68.69.86,1.11,1.39l.73-.27-.74-1.93c-.35.27-.73.54-1.09.81h-.01Z"/>
      <path class="cls-8" d="M9.8,24.3c.06,0,.25-.11.53-.28l-.57-.21c-.02.31,0,.49.04.49Z"/>
      <path class="cls-9" d="M12.5,17.35l-.14.19.97.58h.31l-.79-1.01-.35.24Z"/>
      <path class="cls-11" d="M13.91,18.47l-.27-.35h-.31s.58.35.58.35Z"/>
      <path class="cls-9" d="M13.64,18.13h1.72l-1.42-1.74-1.09.73.79,1.01Z"/>
    </g>
  </g>
</svg>