<?xml version="1.0" encoding="UTF-8"?>
<svg id="Layer_2" data-name="Layer 2" xmlns="http://www.w3.org/2000/svg" viewBox="0 0 105.69 110.87">
  <defs>
    <style>
      .cls-1 {
        fill: #222;
      }
    </style>
  </defs>
  <g id="Layer_1-2" data-name="Layer 1">
    <g>
      <path class="cls-1" d="M9.63,109.03c0,.49.19.96.54,1.3.35.35.8.56,1.31.53h32.62v-52.37H9.63v50.53Z"/>
      <path class="cls-1" d="M61.59,110.86h32.66c1-.01,1.82-.83,1.82-1.84v-50.53h-34.47v52.37Z"/>
      <path class="cls-1" d="M103.55,34.01h-41.96v20.97h41.96c1.18,0,2.14-.96,2.14-2.14v-16.68c0-1.18-.96-2.15-2.14-2.15Z"/>
      <path class="cls-1" d="M8.39,34.01H2.14c-1.18,0-2.14.96-2.14,2.15v16.68c0,1.18.96,2.14,2.14,2.14h41.96v-20.97H8.39Z"/>
      <path class="cls-1" d="M64.23,32.24c1.5-.5,3.04-1.08,4.58-1.76,3.32-1.48,6.57-3.4,9.07-5.9,9.41-9.42,8.28-17.25,4.09-21.45-2.57-2.57-6.05-3.6-9.79-2.92-3.78.69-7.7,3.05-11.66,7.01-3.65,3.65-6.08,8.92-7.67,13.65-1.58-4.73-4.01-10-7.67-13.65C35.77-2.2,27.93-1.07,23.73,3.13c-4.2,4.2-5.33,12.04,4.09,21.45,2.5,2.5,5.75,4.43,9.07,5.9,1.53.68,3.08,1.26,4.58,1.76.9.3,1.79.57,2.64.82,1.35.39,2.62.7,3.74.95,2.63.59,4.45.83,4.67.86.11.01.23.02.34.02s.22,0,.34-.02c.22-.03,2.04-.27,4.67-.86,1.12-.25,2.38-.56,3.74-.95.85-.24,1.73-.51,2.64-.82ZM64.25,10.95c3.14-3.14,6.21-5.06,8.87-5.54.44-.08.87-.12,1.28-.12,1.49,0,2.77.53,3.82,1.58,3.09,3.09,1.57,8.32-4.09,13.97-4.7,4.7-13.18,7.09-18.01,8.12,1.04-4.83,3.43-13.31,8.12-18.01ZM31.56,20.84c-5.65-5.65-7.18-10.87-4.09-13.97,3.09-3.09,8.32-1.56,13.97,4.09,4.7,4.7,7.09,13.18,8.12,18.01-4.83-1.04-13.31-3.43-18.01-8.12Z"/>
    </g>
  </g>
</svg>