<?xml version="1.0" encoding="UTF-8"?>
<svg id="Layer_2" data-name="Layer 2" xmlns="http://www.w3.org/2000/svg" viewBox="0 0 260 87.74">
  <defs>
    <style>
      .cls-1 {
        fill: #fff;
      }

      .cls-2 {
        fill: #fcfcfc;
      }
    </style>
  </defs>
  <g id="Layer_1-2" data-name="Layer 1">
    <g>
      <path class="cls-1" d="M18.03,83.63c.11,0,.2.04.27.11l.65.7c-.47.51-.99.96-1.55,1.37-.56.4-1.17.75-1.84,1.04-.66.29-1.39.51-2.18.66-.79.16-1.67.23-2.62.23-1.59,0-3.04-.28-4.36-.83-1.32-.56-2.46-1.34-3.4-2.36-.95-1.02-1.68-2.25-2.21-3.7-.53-1.45-.79-3.05-.79-4.82s.27-3.32.82-4.76c.54-1.44,1.31-2.67,2.3-3.7.99-1.03,2.17-1.83,3.54-2.4,1.38-.57,2.9-.85,4.56-.85.83,0,1.59.06,2.28.19.69.12,1.34.3,1.93.53s1.16.52,1.69.87c.53.35,1.05.74,1.55,1.2l-.5.73c-.09.13-.22.19-.41.19-.1,0-.22-.06-.37-.17-.15-.11-.34-.25-.57-.42-.23-.17-.51-.35-.84-.55s-.72-.38-1.17-.55c-.45-.17-.98-.31-1.57-.42-.59-.11-1.27-.17-2.02-.17-1.39,0-2.67.24-3.84.72-1.17.48-2.17,1.17-3.01,2.06-.84.89-1.5,1.97-1.97,3.24-.47,1.27-.7,2.69-.7,4.27s.23,3.06.7,4.34,1.11,2.35,1.93,3.23c.82.88,1.79,1.55,2.91,2.02,1.12.47,2.33.7,3.63.7.82,0,1.55-.05,2.19-.16.64-.11,1.23-.27,1.77-.49s1.04-.48,1.51-.79.92-.68,1.38-1.1c.05-.04.11-.08.15-.11.05-.03.11-.04.17-.04Z"/>
      <path class="cls-1" d="M41.41,87.48h-1.28c-.15,0-.28-.04-.37-.12-.1-.08-.17-.19-.23-.32l-2.7-6.65h-11.25l-2.69,6.65c-.04.12-.12.22-.23.31-.11.09-.24.13-.39.13h-1.26l9.37-22.91h1.65l9.37,22.91ZM26.08,79.16h10.26l-4.68-11.58c-.08-.18-.15-.39-.23-.62-.08-.23-.15-.48-.23-.74-.08.26-.15.5-.23.74s-.15.45-.23.64l-4.68,11.56Z"/>
      <path class="cls-1" d="M47.17,77.12v10.36h-1.65v-22.91h5.84c2.64,0,4.62.51,5.92,1.53,1.31,1.02,1.96,2.52,1.96,4.49,0,.87-.15,1.67-.45,2.4-.3.72-.74,1.36-1.3,1.9-.57.54-1.25.99-2.05,1.34-.8.35-1.7.58-2.7.69.26.16.49.38.7.65l7.88,9.91h-1.44c-.17,0-.32-.03-.44-.1-.12-.06-.25-.17-.36-.32l-7.33-9.29c-.18-.24-.38-.4-.59-.5-.21-.1-.54-.15-.98-.15h-3ZM47.17,75.89h3.98c1.01,0,1.92-.12,2.73-.36.8-.24,1.48-.59,2.04-1.04s.98-1,1.27-1.63c.29-.64.44-1.35.44-2.15,0-1.63-.53-2.84-1.6-3.63-1.07-.79-2.62-1.18-4.66-1.18h-4.19v10Z"/>
      <path class="cls-1" d="M82.71,87.48h-1.28c-.15,0-.28-.04-.37-.12-.1-.08-.17-.19-.23-.32l-2.7-6.65h-11.25l-2.69,6.65c-.04.12-.12.22-.23.31-.11.09-.24.13-.39.13h-1.26l9.37-22.91h1.65l9.37,22.91ZM67.38,79.16h10.26l-4.68-11.58c-.08-.18-.15-.39-.23-.62-.08-.23-.15-.48-.23-.74-.08.26-.15.5-.23.74s-.15.45-.23.64l-4.68,11.56Z"/>
      <path class="cls-1" d="M99.43,64.58v1.41h-8.04v21.5h-1.65v-21.5h-8.09v-1.41h17.79Z"/>
      <path class="cls-1" d="M126.29,83.63c.11,0,.2.04.27.11l.65.7c-.47.51-.99.96-1.55,1.37-.56.4-1.17.75-1.84,1.04-.66.29-1.39.51-2.18.66-.79.16-1.67.23-2.62.23-1.59,0-3.04-.28-4.36-.83-1.32-.56-2.46-1.34-3.4-2.36-.95-1.02-1.68-2.25-2.21-3.7-.53-1.45-.79-3.05-.79-4.82s.27-3.32.82-4.76c.54-1.44,1.31-2.67,2.3-3.7.99-1.03,2.17-1.83,3.54-2.4,1.38-.57,2.9-.85,4.56-.85.83,0,1.59.06,2.28.19.69.12,1.34.3,1.93.53s1.16.52,1.69.87c.53.35,1.05.74,1.55,1.2l-.5.73c-.09.13-.22.19-.41.19-.1,0-.22-.06-.37-.17-.15-.11-.34-.25-.57-.42-.23-.17-.51-.35-.84-.55s-.72-.38-1.17-.55c-.45-.17-.98-.31-1.57-.42-.59-.11-1.27-.17-2.02-.17-1.39,0-2.67.24-3.84.72-1.17.48-2.17,1.17-3.01,2.06-.84.89-1.5,1.97-1.97,3.24-.47,1.27-.7,2.69-.7,4.27s.23,3.06.7,4.34,1.11,2.35,1.93,3.23c.82.88,1.79,1.55,2.91,2.02,1.12.47,2.33.7,3.63.7.82,0,1.55-.05,2.19-.16.64-.11,1.23-.27,1.77-.49s1.04-.48,1.51-.79.92-.68,1.38-1.1c.05-.04.11-.08.15-.11.05-.03.11-.04.17-.04Z"/>
      <path class="cls-1" d="M152.85,76.02c0,1.77-.26,3.38-.79,4.82-.53,1.44-1.27,2.67-2.23,3.69-.96,1.02-2.11,1.81-3.45,2.36-1.34.56-2.82.83-4.45.83s-3.08-.28-4.42-.83c-1.34-.56-2.49-1.34-3.45-2.36-.96-1.02-1.71-2.25-2.24-3.69s-.8-3.05-.8-4.82.27-3.36.8-4.8c.53-1.44,1.28-2.67,2.24-3.69.96-1.02,2.11-1.81,3.45-2.37,1.34-.56,2.81-.84,4.42-.84s3.11.28,4.45.83c1.34.56,2.49,1.35,3.45,2.37.96,1.03,1.71,2.26,2.23,3.7.53,1.44.79,3.04.79,4.8ZM151.13,76.02c0-1.6-.22-3.03-.66-4.31-.44-1.27-1.07-2.35-1.87-3.24s-1.77-1.56-2.91-2.03c-1.13-.47-2.39-.7-3.77-.7s-2.6.23-3.73.7-2.1,1.15-2.91,2.03-1.45,1.96-1.89,3.24c-.45,1.27-.67,2.71-.67,4.31s.22,3.05.67,4.31c.45,1.27,1.08,2.35,1.89,3.23s1.79,1.56,2.91,2.02c1.13.46,2.37.7,3.73.7s2.64-.23,3.77-.7c1.13-.46,2.1-1.14,2.91-2.02s1.43-1.96,1.87-3.23c.44-1.27.66-2.71.66-4.31Z"/>
      <path class="cls-1" d="M169.67,81.78c.06-.17.13-.34.2-.51.07-.17.15-.33.23-.48l9-15.91c.09-.14.17-.23.26-.26.09-.03.21-.05.36-.05h1.15v22.91h-1.46v-19.52c0-.28.02-.58.05-.89l-9.02,16.01c-.15.28-.37.42-.65.42h-.26c-.27,0-.49-.14-.65-.42l-9.26-16.03c.03.31.05.62.05.91v19.52h-1.44v-22.91h1.13c.15,0,.27.02.36.05.09.03.18.12.27.26l9.24,15.93c.16.3.3.63.42.97Z"/>
      <path class="cls-1" d="M189.81,78.25v9.23h-1.65v-22.91h5.91c2.69,0,4.71.59,6.08,1.76,1.37,1.18,2.05,2.85,2.05,5.03,0,1-.19,1.93-.56,2.77s-.91,1.57-1.61,2.18c-.7.61-1.55,1.08-2.56,1.42-1,.34-2.14.51-3.4.51h-4.26ZM189.81,76.93h4.26c1.01,0,1.92-.14,2.72-.42.8-.28,1.48-.67,2.03-1.17.56-.5.98-1.08,1.28-1.76.3-.67.45-1.41.45-2.21,0-1.76-.54-3.11-1.63-4.06s-2.7-1.42-4.85-1.42h-4.26v11.04Z"/>
      <path class="cls-1" d="M222.22,87.48h-1.28c-.15,0-.28-.04-.37-.12-.1-.08-.17-.19-.23-.32l-2.7-6.65h-11.25l-2.69,6.65c-.04.12-.12.22-.23.31-.11.09-.24.13-.39.13h-1.26l9.37-22.91h1.65l9.37,22.91ZM206.89,79.16h10.26l-4.68-11.58c-.08-.18-.15-.39-.23-.62-.08-.23-.15-.48-.23-.74-.08.26-.15.5-.23.74s-.15.45-.23.64l-4.68,11.56Z"/>
      <path class="cls-1" d="M227.98,77.12v10.36h-1.65v-22.91h5.84c2.64,0,4.62.51,5.92,1.53,1.31,1.02,1.96,2.52,1.96,4.49,0,.87-.15,1.67-.45,2.4-.3.72-.74,1.36-1.3,1.9-.57.54-1.25.99-2.05,1.34-.8.35-1.7.58-2.7.69.26.16.49.38.7.65l7.88,9.91h-1.44c-.17,0-.32-.03-.44-.1-.12-.06-.25-.17-.36-.32l-7.33-9.29c-.18-.24-.38-.4-.59-.5-.21-.1-.54-.15-.98-.15h-3ZM227.98,75.89h3.98c1.01,0,1.92-.12,2.73-.36.8-.24,1.48-.59,2.04-1.04s.98-1,1.27-1.63c.29-.64.44-1.35.44-2.15,0-1.63-.53-2.84-1.6-3.63-1.07-.79-2.62-1.18-4.66-1.18h-4.19v10Z"/>
      <path class="cls-1" d="M260,64.58v1.38h-12.06v9.26h10.04v1.34h-10.04v9.55h12.06v1.38h-13.73v-22.91h13.73Z"/>
    </g>
    <polygon class="cls-2" points="160.93 13.55 130 47.11 99.07 13.55 109.61 0 150.4 0 160.93 13.55"/>
  </g>
</svg>