<?xml version="1.0" encoding="UTF-8"?>
<svg id="Layer_2" data-name="Layer 2" xmlns="http://www.w3.org/2000/svg" viewBox="0 0 501.11 49.79">
  <defs>
    <style>
      .cls-1 {
        fill: #c7c7c7;
      }
    </style>
  </defs>
  <g id="Layer_1-2" data-name="Layer 1">
    <path class="cls-1" d="M55.75.67l-21.41,48.19h11.39l4.28-10.34h22.31l4.28,10.34h11.71L66.76.67h-11.01ZM53.58,30.03l7.6-18.35,7.6,18.35h-15.19ZM119.52,30.57L101.42.67h-9.13v48.13h10.34v-28.4l14.14,23.3h4.91l14.23-23.62v28.69h10.44V.67h-9.29l-17.62,29.9h.06ZM167.61,28.72h22.21v-8.74h-22.21v-10.34h25.21V.67h-36.35v48.13h37.24v-8.9h-26.11v-11.17ZM232.33,24.51c-1.69-.96-3.38-1.79-5.43-2.43-1.95-.64-3.99-1.12-5.94-1.6-2.01-.41-3.8-.83-5.49-1.31-1.69-.41-3-1.05-3.99-1.88-.99-.8-1.56-1.85-1.56-3.03s.32-1.95.89-2.71c.64-.8,1.6-1.44,2.9-1.91s3.1-.73,5.36-.73,4.28.32,6.54.89c2.27.64,4.53,1.56,6.64,2.87l3.48-8.43c-2.2-1.37-4.79-2.43-7.79-3.16-2.9-.73-5.9-1.09-8.87-1.09-4.53,0-8.33.67-11.3,2.04-2.97,1.37-5.23,3.22-6.7,5.49s-2.2,4.79-2.2,7.53.51,4.6,1.47,6.16c.96,1.63,2.33,2.97,3.96,4.02,1.63,1.05,3.48,1.82,5.52,2.46,1.95.64,3.96,1.09,5.9,1.56,1.95.41,3.8.86,5.49,1.31,1.69.45,3,.99,3.86,1.69.99.77,1.56,1.79,1.56,3,0,1.31-.32,2.01-.99,2.78-.64.77-1.6,1.4-3,1.88-1.4.48-3.19.7-5.33.7s-5.71-.48-8.55-1.37c-2.84-.89-5.27-2.07-7.34-3.57l-3.8,8.43c2.2,1.69,5.04,3,8.62,4.08,3.54,1.05,7.18,1.6,10.98,1.6s8.33-.64,11.39-2.01c3-1.37,5.23-3.22,6.67-5.39,1.44-2.23,2.23-4.66,2.23-7.4s-.48-4.5-1.44-6.19c-1.05-1.72-2.33-3-4.02-3.93l.26-.35ZM280.01.67l-21.41,48.19h11.39l4.28-10.34h22.31l4.28,10.34h11.71L291.02.67s-11.01,0-11.01,0ZM277.84,30.03l7.6-18.35,7.6,18.35s-15.19,0-15.19,0ZM327.69.67h-11.14v48.13h35.17v-9.06h-24.03s0-39.06,0-39.06ZM367.45.67h-11.23v48.13h35.23v-9.06h-24s0-39.06,0-39.06ZM406.96,28.72h22.47v-8.74h-22.47v-10.34h25.31V.67h-36.29v48.13h37.24v-8.9h-26.46v-11.17h.19ZM474.2.67v29.26L450.36.67h-9.29v48.13h11.07v-29.2l23.84,29.2h9.29V.67h-11.07ZM489.74,6.16V1.79h-1.85V.67h5.27v1.12h-1.85v4.37h-1.56,0ZM494.28,6.16V.67h1.21l2.52,3.8h-.64l2.52-3.8h1.21v5.49h-1.37v-3.48h.26l-1.95,2.9h-.64l-1.95-2.9h.32v3.48h-1.5ZM15.67,49.69c-3.22,0-6.19-.64-8.97-1.88-2.74-1.21-4.91-2.9-6.7-5.11l6.13-7.44c1.28,1.79,2.74,3.1,4.21,3.99,1.47.89,3.06,1.37,4.88,1.37,4.53,0,6.8-2.68,6.8-8.01V9.64H5.01V.67h27.96v31.21c0,5.97-1.47,10.4-4.37,13.31s-7.18,4.37-12.92,4.37v.13Z"/>
  </g>
</svg>